<svg viewBox="0 0 206 77" fill="none"
  xmlns="http://www.w3.org/2000/svg">
  <path d="M15.5 23.2C15.1 23.2 15 23 15.2 22.7L17.3 20C17.5 19.7 18 19.5 18.4 19.5H54.1C54.5 19.5 54.6 19.8 54.4 20.1L52.7 22.7C52.5 23 52 23.3 51.7 23.3L15.5 23.2Z" fill="#00ACD7"/>
  <path d="M0.4 32.4C0 32.4 -0.1 32.2 0.1 31.9L2.2 29.2C2.4 28.9 2.9 28.7 3.3 28.7H48.9C49.3 28.7 49.5 28.9999 49.4 29.2999L48.6 31.7C48.5 32.1 48.1 32.2999 47.7 32.2999L0.4 32.4Z" fill="#00ACD7"/>
  <path d="M24.6 41.5999C24.2 41.5999 24.1 41.2999 24.3 40.9999L25.7 38.4999C25.9 38.1999 26.3 37.8999 26.7 37.8999H46.7C47.1 37.8999 47.3 38.1999 47.3 38.5999L47.1 40.9999C47.1 41.3999 46.7 41.6999 46.4 41.6999L24.6 41.5999Z" fill="#00ACD7"/>
  <path d="M128.4 21.3999C122.1 22.9999 117.8 24.1999 111.6 25.7999C110.1 26.1999 110 26.2999 108.7 24.7999C107.2 23.0999 106.1 21.9999 104 20.9999C97.7 17.8999 91.6 18.7999 85.9 22.4999C79.1 26.8999 75.6 33.3999 75.7 41.4999C75.8 49.4999 81.3 56.0999 89.2 57.1999C96 58.0999 101.7 55.6999 106.2 50.5999C107.1 49.4999 107.9 48.2999 108.9 46.8999C105.3 46.8999 100.8 46.8999 89.6 46.8999C87.5 46.8999 87 45.5999 87.7 43.8999C89 40.7999 91.4 35.5999 92.8 32.9999C93.1 32.3999 93.8 31.3999 95.3 31.3999C100.4 31.3999 119.2 31.3999 131.7 31.3999C131.5 34.0999 131.5 36.7999 131.1 39.4999C130 46.6999 127.3 53.2999 122.9 59.0999C115.7 68.5999 106.3 74.4999 94.4 76.0999C84.6 77.3999 75.5 75.4999 67.5 69.4999C60.1 63.8999 55.9 56.4999 54.8 47.2999C53.5 36.3999 56.7 26.5999 63.3 17.9999C70.4 8.6999 79.8 2.7999 91.3 0.699903C100.7 -1.0001 109.7 0.0999026 117.8 5.5999C123.1 9.0999 126.9 13.8999 129.4 19.6999C130 20.5999 129.6 21.0999 128.4 21.3999Z" fill="#00ACD7"/>
  <path d="M161.5 76.6999C152.4 76.4999 144.1 73.8999 137.1 67.8999C131.2 62.7999 127.5 56.2999 126.3 48.5999C124.5 37.2999 127.6 27.2999 134.4 18.3999C141.7 8.79994 150.5 3.79994 162.4 1.69994C172.6 -0.100055 182.2 0.899945 190.9 6.79994C198.8 12.1999 203.7 19.4999 205 29.0999C206.7 42.5999 202.8 53.5999 193.5 62.9999C186.9 69.6999 178.8 73.8999 169.5 75.7999C166.8 76.2999 164.1 76.3999 161.5 76.6999ZM185.3 36.2999C185.2 34.9999 185.2 33.9999 185 32.9999C183.2 23.0999 174.1 17.4999 164.6 19.6999C155.3 21.7999 149.3 27.6999 147.1 37.0999C145.3 44.8999 149.1 52.7999 156.3 55.9999C161.8 58.3999 167.3 58.0999 172.6 55.3999C180.5 51.2999 184.8 44.8999 185.3 36.2999Z" fill="#00ACD7"/>
</svg>
