<svg width="241" height="64" viewBox="0 0 241 64" fill="none" xmlns="http://www.w3.org/2000/svg">
<path fill-rule="evenodd" clip-rule="evenodd" d="M21.1407 7.76501C27.9988 0.0730062 39.3555 -2.184 48.6922 2.256C61.0972 8.156 65.6228 23.186 58.869 34.779L43.6756 60.83C42.8264 62.286 41.4292 63.348 39.7908 63.784C38.1524 64.219 36.4067 63.992 34.937 63.152L53.3314 31.606C58.2316 23.192 54.954 12.286 45.9603 7.991C39.2122 4.769 30.9629 6.379 25.9777 11.92C23.2279 14.962 21.684 18.889 21.6325 22.973C21.5811 27.058 23.0255 31.022 25.6977 34.131C26.1779 34.689 26.6948 35.215 27.2449 35.705L16.5063 54.155C16.0863 54.876 15.5272 55.508 14.8608 56.015C14.1945 56.522 13.4339 56.894 12.6225 57.11C11.8112 57.325 10.9649 57.38 10.1321 57.272C9.2993 57.163 8.4962 56.893 7.7687 56.477L19.4265 36.447C17.7519 34.054 16.5494 31.368 15.8823 28.531L8.7386 40.829C7.8894 42.285 6.4922 43.347 4.8538 43.783C3.2154 44.218 1.4697 43.991 0 43.151L18.4737 11.428C19.2426 10.125 20.1357 8.89901 21.1407 7.76501ZM42.463 17.862C46.9121 20.41 48.4486 26.075 45.8742 30.484L28.1592 60.827C27.3101 62.282 25.9129 63.344 24.2745 63.78C22.6361 64.215 20.8904 63.988 19.4207 63.149L35.8697 34.899C34.5498 34.624 33.3061 34.068 32.2242 33.269C31.1422 32.471 30.248 31.449 29.6033 30.275C28.9584 29.1 28.5783 27.801 28.4893 26.467C28.4003 25.133 28.6043 23.796 29.0875 22.547C29.5707 21.299 30.3213 20.169 31.2876 19.236C32.254 18.304 33.4131 17.59 34.6848 17.145C35.9565 16.699 37.3104 16.533 38.6534 16.657C39.9963 16.781 41.2961 17.192 42.463 17.862ZM36.0193 23.565C35.7149 23.797 35.4594 24.086 35.2676 24.415H35.2667C34.9777 24.912 34.8438 25.482 34.8815 26.054C34.9194 26.625 35.1275 27.173 35.4795 27.628C35.8316 28.083 36.3115 28.424 36.8589 28.608C37.4064 28.792 37.9966 28.811 38.555 28.663C39.1135 28.514 39.615 28.205 39.996 27.774C40.3771 27.343 40.6209 26.81 40.6964 26.242C40.7719 25.674 40.6757 25.096 40.42 24.582C40.1643 24.068 39.7606 23.641 39.26 23.354C38.9276 23.164 38.5607 23.04 38.1801 22.991C37.7995 22.941 37.4128 22.966 37.0421 23.065C36.6714 23.163 36.3239 23.333 36.0193 23.565Z" fill="#ECEDEE"/>
<path fill-rule="evenodd" clip-rule="evenodd" d="M79 43.5L92.282 9H100.069L113.352 43.5H105.927L103.066 35.772H89.285L86.424 43.5H79ZM100.796 29.562C99.888 26.863 99.078 24.448 98.367 22.317C97.655 20.186 96.929 17.985 96.187 15.716C95.445 17.985 94.711 20.186 93.985 22.317C93.273 24.448 92.464 26.863 91.555 29.562H100.796ZM115.599 12.68C115.599 11.576 115.932 10.687 116.598 10.012C117.264 9.33699 118.142 9 119.232 9C120.322 9 121.2 9.33699 121.866 10.012C122.532 10.687 122.865 11.576 122.865 12.68C122.865 13.784 122.532 14.673 121.866 15.348C121.2 16.023 120.322 16.36 119.232 16.36C118.142 16.36 117.264 16.023 116.598 15.348C115.932 14.673 115.599 13.784 115.599 12.68ZM115.963 43.5V20.5H122.501V43.5H115.963ZM128.041 20.5V43.5H134.58V33.357C134.58 30.934 135.117 29.071 136.192 27.768C137.267 26.449 138.682 25.79 140.438 25.79C141.285 25.79 142.148 25.936 143.026 26.227L143.934 20.5C142.89 20.193 141.876 20.04 140.892 20.04C138.001 20.04 135.73 21.29 134.08 23.789V20.5H128.041ZM146.432 43.5V9H152.971V22.777C153.924 21.918 155.014 21.251 156.24 20.776C157.466 20.285 158.79 20.04 160.213 20.04C162.347 20.04 164.247 20.561 165.912 21.604C167.577 22.631 168.886 24.05 169.84 25.859C170.793 27.653 171.27 29.7 171.27 32C171.27 34.3 170.793 36.355 169.84 38.164C168.886 39.958 167.577 41.376 165.912 42.419C164.247 43.446 162.347 43.96 160.213 43.96C158.745 43.96 157.375 43.707 156.104 43.201C154.832 42.68 153.72 41.951 152.766 41.016L152.607 43.5H146.432ZM159.383 38.21C161.048 38.21 162.426 37.62 163.515 36.439C164.605 35.258 165.15 33.779 165.15 32C165.15 30.221 164.605 28.742 163.515 27.561C162.426 26.38 161.048 25.79 159.383 25.79C157.718 25.79 156.341 26.38 155.251 27.561C154.161 28.742 153.616 30.221 153.616 32C153.616 33.779 154.161 35.258 155.251 36.439C156.341 37.62 157.718 38.21 159.383 38.21ZM182.196 31.747L176.883 20.5H170.049L180.629 42.35L175.453 55H182.332L196.454 20.5H189.552L183.422 35.496C183.271 34.745 183.089 34.055 182.877 33.426C182.665 32.797 182.438 32.238 182.196 31.747ZM197.34 20.5H201.086V14.75H207.625V20.5H213.142V26.25H207.625V34.714C207.625 35.803 207.965 36.661 208.646 37.29C209.343 37.903 210.221 38.21 211.28 38.21C212.067 38.21 212.877 38.034 213.71 37.681V43.109C212.271 43.676 210.856 43.96 209.464 43.96C206.769 43.96 204.696 43.232 203.243 41.775C201.805 40.303 201.086 38.202 201.086 35.473V26.25H197.34V20.5ZM225.538 37.083C224.449 36.286 223.699 35.251 223.291 33.978H241V31.977C241 29.662 240.485 27.607 239.456 25.813C238.427 24.019 237.019 22.608 235.233 21.581C233.462 20.554 231.434 20.04 229.148 20.04C226.848 20.04 224.789 20.561 222.973 21.604C221.172 22.631 219.749 24.042 218.704 25.836C217.66 27.615 217.138 29.646 217.138 31.931C217.138 34.246 217.683 36.316 218.772 38.141C219.862 39.95 221.368 41.376 223.291 42.419C225.213 43.446 227.431 43.96 229.943 43.96C231.517 43.96 233.16 43.699 234.87 43.178C236.595 42.657 238.336 41.698 240.092 40.303L236.141 35.519C235.294 36.332 234.348 36.999 233.303 37.52C232.274 38.026 230.972 38.279 229.398 38.279C227.93 38.279 226.643 37.88 225.538 37.083ZM233.883 29.107C233.521 28.293 233.003 27.601 232.327 27.032C231.343 26.204 230.163 25.79 228.785 25.79C227.393 25.79 226.182 26.212 225.152 27.055C224.462 27.629 223.933 28.313 223.566 29.107H233.883Z" fill="#ECEDEE"/>
</svg>
