<svg width="105" height="56" viewBox="0 0 105 56" fill="none" xmlns="http://www.w3.org/2000/svg">
<path d="M54.235 47.8362C47.784 47.8362 42.552 42.6102 42.552 36.1582C42.552 29.7112 47.784 24.4862 54.235 24.4862C60.685 24.4862 65.913 29.7112 65.913 36.1582C65.913 42.6102 60.685 47.8362 54.235 47.8362ZM19.835 47.8362C13.385 47.8362 8.15001 42.6112 8.15001 36.1602C8.15001 29.7112 13.385 24.4862 19.835 24.4862C26.285 24.4862 31.509 29.7112 31.509 36.1582C31.509 42.6102 26.285 47.8362 19.835 47.8362ZM54.235 16.6922C46.785 16.6922 40.302 20.8822 37.037 27.0352C33.771 20.8822 27.291 16.6922 19.835 16.6922C15.457 16.6922 11.413 18.1402 8.15001 20.5862V4.18319C8.11101 2.06419 6.383 0.367188 4.256 0.367188C2.1288 0.367188 0.417108 2.06419 0.368408 4.18319V36.4822H0.372711C0.544211 47.0882 9.18601 55.6312 19.835 55.6312C27.291 55.6312 33.771 51.4362 37.037 45.2892C40.302 51.4362 46.785 55.6312 54.235 55.6312C64.984 55.6312 73.704 46.9152 73.704 36.1582C73.704 25.4062 64.984 16.6922 54.235 16.6922Z" fill="#ECEDEE"/>
<path d="M103.897 49.1104L93.318 36.1244L103.91 23.1124C105.249 21.3964 104.865 18.9994 103.016 17.7264C101.165 16.4424 98.568 16.7714 97.136 18.4364V18.4344L88.024 29.6104L78.92 18.4344V18.4364C77.503 16.7714 74.89 16.4424 73.044 17.7264C71.199 19.0004 70.813 21.3964 72.159 23.1124H72.155L82.728 36.1244L72.155 49.1104H72.159C70.813 50.8314 71.199 53.2214 73.044 54.4994C74.89 55.7784 77.503 55.4534 78.92 53.7854L88.024 42.6234L97.123 53.7854C98.557 55.4534 101.153 55.7784 103.004 54.4994C104.853 53.2214 105.238 50.8314 103.897 49.1104Z" fill="#ECEDEE"/>
</svg>
