<svg width="168" height="44" viewBox="0 0 168 44" fill="none" xmlns="http://www.w3.org/2000/svg">
<path d="M32.4472 32.5163C32.3071 32.4473 32.0783 32.4503 31.8939 32.6973C30.7605 34.2083 26.6458 39.1422 21.2879 39.1422C12.8495 39.1422 7.1812 32.0622 7.1812 21.5222C7.1812 12.2122 12.1702 5.45624 19.0642 5.45624H19.0677C20.1801 5.45624 21.2786 5.81924 22.161 6.47824L29.3142 11.8223C29.4904 11.9543 29.7227 11.9753 29.92 11.8763C30.1149 11.7783 30.2352 11.5842 30.2352 11.3682V5.25424C30.2352 5.03424 30.1068 4.83125 29.9095 4.73825C27.3975 3.55625 24.1758 2.90625 20.8396 2.90625C8.5703 2.90625 0 11.5852 0 24.0122C0 35.3442 7.5605 43.5692 17.9786 43.5692C26.4368 43.5692 31.4655 37.1592 32.6491 33.1192C32.7379 32.8172 32.6118 32.5972 32.4472 32.5163Z" fill="#ECEDEE"/>
<path d="M61.199 40.344C61.15 40.29 61.123 40.221 61.123 40.149V21.18C61.123 16.822 57.888 13.8531 53.074 13.7941C49.068 13.7481 45.555 16.3411 43.865 17.5891C43.638 17.7551 43.442 17.9 43.281 18.012C43.251 18.033 43.221 18.023 43.21 18.017C43.199 18.011 43.174 17.994 43.174 17.956V0.615053C43.174 0.438053 43.092 0.272041 42.949 0.163041C42.805 0.0520414 42.62 0.0170435 42.459 0.0620435C42.398 0.0710435 36.42 1.01805 34.459 1.45505C34.239 1.50405 34.072 1.69504 34.044 1.92804C34.015 2.16604 34.135 2.38505 34.345 2.48805C34.413 2.53305 36.012 3.59204 36.498 3.85704C36.671 3.95104 36.778 4.13105 36.778 4.32805V40.1431C36.778 40.2211 36.746 40.293 36.707 40.334L34.61 41.805C34.44 41.97 34.39 42.2071 34.477 42.425C34.567 42.646 34.771 42.7831 35.012 42.7831H44.937C45.178 42.7831 45.383 42.646 45.472 42.425C45.559 42.2071 45.509 41.97 45.322 41.791L43.26 40.3481C43.203 40.2931 43.172 40.2201 43.172 40.1431V20.9361C43.172 20.8521 43.21 20.7711 43.274 20.7161C45.146 19.1241 46.94 18.225 48.759 17.967C50.244 17.757 51.754 18.2061 52.898 19.1991C54.061 20.2091 54.726 21.662 54.726 23.187V40.1451C54.726 40.222 54.696 40.295 54.657 40.336L52.539 41.866C52.372 42.03 52.323 42.267 52.411 42.485C52.501 42.704 52.707 42.841 52.946 42.841H62.862C63.1 42.841 63.305 42.7051 63.394 42.4881C63.484 42.2731 63.438 42.037 63.257 41.856L61.199 40.344Z" fill="#ECEDEE"/>
<path d="M90.037 33.1444C89.81 33.0254 89.541 33.0914 89.378 33.3034C87.834 35.3384 84.624 38.7504 80.468 38.7504C74.349 38.7504 70.225 34.0264 69.963 26.7154C69.96 26.6394 69.988 26.5654 70.042 26.5114C70.098 26.4524 70.178 26.4184 70.259 26.4184H89.644C89.82 26.4184 89.983 26.3414 90.094 26.2064C90.202 26.0734 90.244 25.9024 90.212 25.7374C88.606 17.8564 84.519 13.6914 78.394 13.6914C70.576 13.6914 64.678 20.3644 64.678 29.2104C64.678 37.7984 70.077 43.5674 78.113 43.5674C83.744 43.5674 88.174 39.9894 90.267 33.7524C90.362 33.4684 90.22 33.2424 90.037 33.1444ZM70.052 24.0534C70.602 18.9544 73.239 15.9094 77.103 15.9094C80.599 15.9094 82.638 18.3354 83.92 24.0184C83.939 24.1014 83.919 24.1894 83.864 24.2574C83.808 24.3284 83.723 24.3694 83.632 24.3694H70.346C70.26 24.3694 70.179 24.3324 70.122 24.2694C70.068 24.2094 70.042 24.1334 70.052 24.0534Z" fill="#ECEDEE"/>
<path d="M116.823 34.3004C116.643 34.2094 116.387 34.2284 116.22 34.4714L116.111 34.6314C114.901 36.3934 113.245 38.8064 108.95 38.8064C102.889 38.8064 98.489 33.7004 98.489 26.6664C98.489 20.6654 101.728 15.9644 105.865 15.9644C106.124 15.9644 106.386 15.9794 106.644 16.0074C107.164 16.0664 107.666 16.2664 108.094 16.5874L114.337 21.2744C114.514 21.4074 114.747 21.4284 114.944 21.3294C115.139 21.2314 115.261 21.0364 115.261 20.8204V15.6494C115.261 15.4294 115.134 15.2284 114.939 15.1354C113.035 14.2324 110.419 13.6914 107.941 13.6914C99.271 13.6914 93.215 20.0954 93.215 29.2654C93.215 37.8194 98.321 43.5674 105.92 43.5674C113.286 43.5674 115.808 38.6404 117.064 34.9334C117.166 34.6334 117.011 34.3944 116.823 34.3004Z" fill="#ECEDEE"/>
<path d="M167.57 14.326C166.995 14.049 166.311 13.793 165.221 13.793C163.134 13.793 160.524 15.378 157.462 18.505C157.442 18.526 157.419 18.522 157.406 18.517C157.394 18.512 157.374 18.501 157.373 18.473L157.208 14.452C157.197 14.282 157.109 14.127 156.968 14.028C156.824 13.926 156.645 13.896 156.477 13.945L148.937 16.076C148.733 16.135 148.581 16.291 148.534 16.496C148.486 16.7 148.552 16.905 148.708 17.046L151.188 19.277C151.248 19.332 151.283 19.409 151.283 19.489V40.198C151.283 40.276 151.252 40.349 151.205 40.396L149.397 41.86C149.228 42.024 149.176 42.262 149.264 42.48C149.353 42.701 149.558 42.839 149.798 42.839H159.324C159.565 42.839 159.776 42.694 159.863 42.47C159.947 42.249 159.887 42.004 159.699 41.837L157.775 40.4C157.714 40.347 157.679 40.268 157.679 40.187V22.215C157.679 21.97 157.74 21.728 157.854 21.518C158.291 20.715 158.984 19.961 159.857 19.334C160.731 18.707 161.609 18.167 162.722 18.431C163.562 18.629 165.273 19.908 166.297 20.673C166.667 20.95 166.96 21.168 167.118 21.267C167.299 21.38 167.518 21.387 167.706 21.283C167.89 21.182 168 20.996 168 20.787V15.006C167.999 14.713 167.835 14.452 167.57 14.326Z" fill="#ECEDEE"/>
<path d="M133.306 24.8121C133.257 24.7441 133.382 24.6201 133.526 24.4871L143.483 15.3601C143.661 15.1981 143.696 14.9321 143.55 14.7231C143.458 14.5911 143.299 14.5211 143.139 14.5211H135.938C135.765 14.5211 135.595 14.5881 135.483 14.7201C135.303 14.9321 135.301 15.2231 135.459 15.4331L137.343 17.9241C137.432 18.0421 137.418 18.2051 137.309 18.3051L126.835 27.9831V18.3771L126.837 18.3781V0.572084C126.837 0.393084 126.755 0.229073 126.612 0.120073C126.468 0.00907265 126.283 -0.0259253 126.122 0.0190747C126.061 0.0280747 120.083 0.97508 118.122 1.41208C117.902 1.46108 117.736 1.65408 117.708 1.89208C117.68 2.13308 117.802 2.34908 118.007 2.44508C118.07 2.48708 119.561 3.47308 120.157 3.79108C120.331 3.88508 120.44 4.06609 120.44 4.26409V5.11008L120.439 5.10907V40.0451C120.439 40.1211 120.407 40.1941 120.369 40.2341L118.251 41.7641C118.075 41.9381 118.031 42.1931 118.14 42.4191C118.238 42.6211 118.455 42.7381 118.68 42.7381H128.598C128.838 42.7381 129.044 42.6001 129.133 42.3801C129.22 42.1611 129.17 41.9241 128.983 41.7461L126.921 40.3031C126.863 40.2481 126.833 40.1751 126.833 40.0961V30.8301C126.833 30.7521 126.865 30.6781 126.921 30.6241L128.946 28.6711C129.009 28.6111 129.092 28.5801 129.182 28.5891C129.268 28.5971 129.346 28.6421 129.396 28.7141C129.455 28.7941 135.138 36.6031 137.998 40.4931C138.045 40.5581 138.033 40.6461 137.973 40.6961L136.572 41.8591C136.393 42.0321 136.346 42.2871 136.455 42.5151C136.553 42.7181 136.77 42.8371 136.997 42.8371H146.239C146.533 42.8371 146.649 42.7081 146.695 42.5991C146.802 42.3421 146.593 41.9931 146.432 41.8291C146.112 41.4141 133.484 25.0501 133.306 24.8121Z" fill="#ECEDEE"/>
</svg>
