<svg width="256" height="46" viewBox="0 0 256 46" fill="none" xmlns="http://www.w3.org/2000/svg">
<path d="M51.6675 12.9056C42.3677 12.9056 35.1011 19.9636 35.1011 29.4136C35.1011 38.8626 42.1841 45.8616 51.6675 45.8616C61.151 45.8616 68.3571 38.7426 68.3571 29.3526C68.3571 20.0246 61.2742 12.9056 51.6675 12.9056ZM51.7303 39.0516C46.4343 39.0516 42.5536 34.9386 42.5536 29.4156C42.5536 23.8306 46.3716 19.7196 51.6675 19.7196C57.0262 19.7196 60.9047 23.8926 60.9047 29.4156C60.9047 34.9386 57.0263 39.0516 51.7303 39.0516ZM70.3881 20.0876H75.0079V45.2506H82.398V13.5186H70.3881V20.0876ZM16.5037 19.7176C20.3844 19.7176 23.4635 22.1106 24.6324 25.6706H32.4543C31.0368 18.0606 24.7555 12.9056 16.5664 12.9056C7.2665 12.9056 0 19.9636 0 29.4156C0 38.8676 7.083 45.8636 16.5664 45.8636C24.5719 45.8636 30.9764 40.7076 32.3939 33.0356H24.6324C23.5239 36.5956 20.4449 39.0516 16.5641 39.0516C11.2054 39.0516 7.4501 34.9386 7.4501 29.4156C7.4525 23.8306 11.1473 19.7176 16.5037 19.7176ZM210.797 26.3466L205.378 25.5496C202.792 25.1826 200.944 24.3226 200.944 22.2966C200.944 20.0876 203.347 18.9836 206.61 18.9836C210.181 18.9836 212.461 20.5166 212.954 23.0336H220.097C219.295 16.6506 214.369 12.9076 206.796 12.9076C198.974 12.9076 193.801 16.8966 193.801 22.5426C193.801 27.9426 197.189 31.0746 204.023 32.0556L209.442 32.8526C212.092 33.2196 213.57 34.2646 213.57 36.2286C213.57 38.7446 210.983 39.7876 207.411 39.7876C203.038 39.7876 200.575 38.0076 200.205 35.3076H192.939C193.617 41.5066 198.481 45.8636 207.349 45.8636C215.417 45.8636 220.773 42.1806 220.773 35.8586C220.773 30.2126 216.895 27.2666 210.797 26.3466ZM78.703 0.446625C75.9932 0.446625 73.9598 2.41062 73.9598 5.11062C73.9598 7.80962 75.9908 9.77363 78.703 9.77363C81.412 9.77363 83.446 7.80962 83.446 5.11062C83.446 2.41062 81.412 0.446625 78.703 0.446625ZM187.15 24.3836C187.15 17.5106 182.963 12.9076 174.095 12.9076C165.72 12.9076 161.04 17.1436 160.115 23.6486H167.444C167.814 21.1326 169.784 19.0466 173.972 19.0466C177.729 19.0466 179.577 20.7026 179.577 22.7286C179.577 25.3686 176.189 26.0426 172.001 26.4716C166.336 27.0856 159.316 29.0486 159.316 36.4136C159.316 42.1226 163.566 45.8036 170.34 45.8036C175.636 45.8036 178.961 43.5936 180.625 40.0946C180.871 43.2236 183.211 45.2506 186.476 45.2506H190.787V38.6836H187.153V24.3836H187.15ZM179.884 32.3616C179.884 36.5976 176.189 39.7276 171.692 39.7276C168.92 39.7276 166.58 38.5606 166.58 36.1076C166.58 32.9776 170.337 32.1176 173.786 31.7506C177.111 31.4446 178.959 30.7076 179.884 29.2946V32.3616ZM140.655 12.9056C136.528 12.9056 133.08 14.6246 130.617 17.5076V0.140625H123.227V45.2506H130.493V41.0776C132.957 44.0836 136.468 45.8636 140.655 45.8636C149.523 45.8636 156.237 38.8676 156.237 29.4156C156.237 19.9636 149.4 12.9056 140.655 12.9056ZM139.547 39.0516C134.251 39.0516 130.37 34.9386 130.37 29.4156C130.37 23.8926 134.311 19.7196 139.607 19.7196C144.966 19.7196 148.721 23.8326 148.721 29.4156C148.721 34.9386 144.843 39.0516 139.547 39.0516ZM105.552 12.9056C100.749 12.9056 97.607 14.8686 95.759 17.6316V13.5186H88.43V45.2476H95.82V28.0036C95.82 23.1536 98.899 19.7176 103.456 19.7176C107.706 19.7176 110.353 22.7246 110.353 27.0826V45.2506H117.743V26.5326C117.745 18.5516 113.62 12.9056 105.552 12.9056ZM256 28.3726C256 19.2906 249.349 12.9076 240.419 12.9076C230.935 12.9076 223.976 20.0266 223.976 29.4156C223.976 39.2976 231.428 45.8636 240.542 45.8636C248.241 45.8636 254.276 41.3216 255.814 34.8786H248.115C247.007 37.7016 244.297 39.2976 240.663 39.2976C235.92 39.2976 232.348 36.3516 231.549 31.1956H255.998V28.3726H256ZM231.981 25.9166C233.152 21.4976 236.478 19.3506 240.296 19.3506C244.483 19.3506 247.685 21.7436 248.424 25.9166H231.981Z" fill="#ECEDEE"/>
</svg>
