<svg width="100" height="100" viewBox="0 0 100 100" fill="none" xmlns="http://www.w3.org/2000/svg">
<path d="M2.77123 97.4897H6.0662C9.16742 97.4897 10.7199 95.6673 10.7199 92.0185C10.7199 88.9136 9.16867 87.3598 6.0662 87.3598H2.77123V97.4897ZM6.48369 99.8935H0V84.9648H6.48369C11.1549 84.9648 13.4924 87.3173 13.4924 92.021C13.4924 97.2685 11.1549 99.8935 6.48369 99.8935Z" fill="white"/>
<path d="M16.3962 99.8935H13.5513L19.9 84.9648H22.8799L29.3674 99.8935H26.3862L24.5037 95.821H19.7137L20.6637 93.421H23.7712L21.3237 87.8136L16.3962 99.8935Z" fill="white"/>
<path d="M27.7998 84.9648H39.1497V87.3648H34.8622V99.8935H32.091V87.3648H27.7998V84.9648Z" fill="white"/>
<path d="M40.5747 99.8935H37.7285L44.0772 84.9648H47.0584L53.5446 99.8935H50.5609L48.6797 95.821H43.8885L44.8397 93.421H47.9459L45.4997 87.8136L40.5747 99.8935Z" fill="white"/>
<path d="M58.156 97.4897H61.4509C64.5547 97.4897 66.1071 95.6673 66.1071 92.0185C66.1071 88.9136 64.5547 87.3598 61.4509 87.3598H58.156V97.4897ZM61.8697 99.8935H55.386V84.9648H61.8697C66.5446 84.9648 68.8784 87.3173 68.8784 92.021C68.8784 97.2685 66.5434 99.8935 61.8697 99.8935Z" fill="white"/>
<path d="M78.2683 97.5955C81.2795 97.5955 82.7845 95.8593 82.7845 92.3856C82.7845 88.9656 81.2795 87.2569 78.2683 87.2569C75.1783 87.2569 73.6333 88.9656 73.6333 92.3856C73.6333 95.8593 75.1783 97.5955 78.2683 97.5955ZM70.7559 92.4506C70.7559 87.3894 73.2608 84.8594 78.2683 84.8594C83.1995 84.8594 85.662 87.3894 85.662 92.4506C85.662 97.483 83.1995 100 78.2683 100C73.4821 100 70.9796 97.483 70.7559 92.4506Z" fill="white"/>
<path d="M97.2267 93.853V97.3493C96.5879 97.5168 96.0142 97.598 95.5117 97.598C92.123 97.598 90.4292 95.8043 90.4292 92.2231C90.4292 88.9131 92.2242 87.2606 95.8142 87.2606C97.3142 87.2606 98.7092 87.5394 99.9992 88.0968V85.5881C98.7092 85.1019 97.2442 84.8594 95.6067 84.8594C90.238 84.8594 87.5518 87.3119 87.5518 92.2231C87.5518 97.4068 90.1905 100.002 95.4692 100.002C97.2854 100.002 98.7942 99.7367 100 99.2068V91.3981H95.5229L94.5867 93.853H97.2267Z" fill="white"/>
<path d="M43.6383 20.7202C46.3645 18.8615 49.877 19.5928 49.2883 20.1515C48.167 21.219 49.6595 20.9027 49.8208 22.8727C49.9395 24.3227 49.4645 25.1227 49.0583 25.5777C48.2083 25.689 47.1733 25.8977 45.9283 26.3015C45.1921 26.5402 44.5496 26.8064 43.9896 27.0739C43.8421 26.9764 43.6808 26.8602 43.4896 26.6952C41.5646 25.0302 41.6283 22.0902 43.6383 20.7202ZM59.9219 32.2039C60.4157 31.8214 62.6644 31.0989 64.7456 30.8514C65.8381 30.7214 67.3956 30.6489 67.7281 30.8352C68.3881 31.2002 68.3881 32.3264 67.9369 33.3676C67.2794 34.8814 66.3481 36.5514 65.2956 36.6889C63.5781 36.9151 61.9519 35.9864 60.0957 34.6001C59.4332 34.1026 59.0269 32.8964 59.9219 32.2039ZM63.0556 17.4753C65.5931 18.6565 65.2606 20.9028 65.3306 22.2215C65.3506 22.6002 65.3431 22.8552 65.3106 23.0327C64.9581 22.8415 64.4044 22.7027 63.5244 22.7415C63.2669 22.7527 63.0157 22.7827 62.7744 22.8215C61.8382 22.3202 61.2794 21.3377 60.7669 20.294C60.7207 20.1978 60.6844 20.1128 60.6507 20.0278C60.6369 19.9903 60.6194 19.9478 60.6057 19.914C60.5994 19.8953 60.5944 19.879 60.5882 19.8615C60.3069 18.9703 60.4957 18.7915 60.6144 18.5165C60.7369 18.2365 61.1944 18.004 60.5182 17.7703C60.4607 17.749 60.3869 17.7353 60.3057 17.7215C60.7532 17.1665 62.0969 17.0303 63.0556 17.4753ZM49.2245 44.3313C46.4908 42.5751 43.6621 40.0588 42.4258 38.6663C42.2183 38.5101 42.2521 37.8164 42.2521 37.8164C43.3683 38.6851 47.9995 41.9926 52.8945 43.5025C54.6207 44.0363 57.2719 44.2375 59.5707 42.9338C61.3282 41.9376 63.4419 40.2013 64.7044 38.4126L64.9356 38.8138C64.9269 39.0801 64.3456 40.3751 64.0519 40.8963C64.5856 41.2038 64.9844 41.2863 65.5781 41.4501L69.6331 40.8176C71.0881 38.4676 72.1306 34.6764 71.0193 31.0677C70.3843 28.9977 67.0756 24.8765 66.8381 24.6502C66.0056 23.8515 66.9781 20.764 65.3294 17.3978C63.5869 13.8366 59.0494 10.1228 57.0795 8.50661C57.6607 8.9316 61.2369 10.3716 62.9032 12.3841C63.0594 12.1753 63.1244 11.0953 63.2681 10.8228C61.8382 8.9491 61.7257 5.61163 61.7257 4.72039C61.7257 3.08541 60.8932 1.23167 60.8932 1.23167C60.8932 1.23167 62.3257 2.36541 62.6957 4.31665C63.1331 6.63037 64.0656 8.45036 65.2981 9.99035C67.6306 12.8966 69.7368 14.3878 70.8031 13.3128C72.0768 12.0228 69.5118 6.25163 66.2319 3.03041C62.4057 -0.724561 61.4032 -0.240815 59.1594 0.561678C57.3682 1.19917 56.3995 6.28663 51.7307 6.18663C50.9395 6.09538 48.902 6.04413 47.8958 6.05288C48.4208 5.32039 48.8695 4.75289 48.8695 4.75289C48.8695 4.75289 47.3033 5.38164 45.9695 6.18163L45.867 6.02663C46.317 5.07664 46.802 4.47789 46.802 4.47789C46.802 4.47789 45.5508 5.22914 44.4083 6.12913C44.6171 4.99664 45.4021 4.27915 45.4021 4.27915C45.4021 4.27915 43.8208 4.56539 41.8058 6.77912C39.5171 7.40412 38.9659 7.81661 37.1421 8.62411C34.1772 7.97786 32.7759 6.93287 31.4447 5.01164C30.4284 3.54415 28.6234 3.3204 26.7747 4.07915C24.0847 5.19414 20.6785 6.71787 20.6785 6.71787C20.6785 6.71787 21.786 6.67537 22.9435 6.72662C21.361 7.32662 19.8373 8.15161 19.8373 8.15161C19.8373 8.15161 20.5798 8.12661 21.4948 8.14161C20.8623 8.66661 20.5135 8.91785 19.9123 9.31535C18.4635 10.3666 17.2898 11.5803 17.2898 11.5803C17.2898 11.5803 18.2735 11.1328 19.1548 10.8816C18.5385 12.2966 17.3148 13.3366 17.5398 15.0691C17.7548 16.6515 19.6973 19.9078 22.2035 21.9065C22.4185 22.0815 25.8435 25.2465 28.4234 23.9465C31.0047 22.6477 32.0209 21.4915 32.4459 19.7153C32.9447 17.6765 32.6597 16.1378 31.5959 11.7141C31.2459 10.2541 30.3297 7.24787 29.8884 5.81038L29.9872 5.73913C30.8322 7.52037 32.9922 12.2153 33.8622 15.3678C35.2209 20.2853 34.7959 22.7802 34.1746 23.694C32.3009 26.4527 27.496 26.8164 25.3097 25.2877C24.976 30.5827 26.1585 32.9126 26.5585 34.0876C26.3585 35.4376 27.2347 37.9438 27.2347 37.9438C27.2347 37.9438 27.3335 36.8039 27.7335 36.2039C27.841 37.5439 28.5159 39.1351 28.5159 39.1351C28.5159 39.1351 28.4747 38.1526 28.7822 37.3039C29.2147 38.0364 29.5322 38.2101 29.9422 38.7613C30.3509 40.1938 31.1722 41.2388 31.1722 41.2388C31.1722 41.2388 31.0384 40.4713 31.1122 39.6713C33.1159 41.5963 33.4609 44.405 33.6609 46.5613C34.2221 52.4962 24.3047 57.2124 22.3835 60.9236C20.926 63.1211 20.0548 66.5998 22.521 68.6498C28.4847 73.601 26.1947 74.9648 29.1797 77.141C33.2734 80.126 38.3984 78.7885 40.1433 76.361C42.5721 72.9773 41.9471 69.7861 41.0446 66.8023C40.3408 64.4674 38.4246 60.5899 36.0534 59.0899C33.6322 57.5562 31.2772 57.2674 29.2822 57.4749L29.4672 57.2637C32.3372 56.6937 35.3359 57.0074 37.5071 58.4049C39.9708 59.9887 42.2246 62.7061 43.4046 66.8699C44.7408 66.6798 44.9308 66.5923 46.1533 66.4198L43.3983 44.97L49.2245 44.3313ZM50.8158 71.2186L50.497 68.2448L56.6932 58.7937L63.7269 60.8499L69.7768 50.7462L77.0293 55.5287L82.538 43.975L84.4967 65.0161L50.8158 71.2186ZM84.573 39.6613L62.4307 43.675C61.8832 44.3838 60.5257 45.6238 59.8744 45.9475C57.0782 47.355 55.187 46.9488 53.5557 46.5238C52.5057 46.2575 51.897 46.1075 51.0245 45.715L45.6195 46.4575L48.8995 73.8273L86.8292 66.9898L84.573 39.6613Z" fill="white"/>
</svg>
