<svg width="256" height="62" viewBox="0 0 256 62" fill="none" xmlns="http://www.w3.org/2000/svg">
<path fill-rule="evenodd" clip-rule="evenodd" d="M109.643 29.503C110.37 26.133 112.718 24.42 115.804 24.42C118.864 24.42 121.102 26.21 121.815 29.503H109.643ZM115.972 18.582C108.114 18.582 103.226 24.581 103.226 31.918C103.226 39.517 108.449 45.154 116.212 45.154C121.566 45.154 124.813 42.788 126.823 39.81L121.826 36.759C120.569 38.399 118.559 39.266 116.404 39.266C112.878 39.266 110.518 37.689 109.713 34.535H122.904C122.903 34.539 122.902 34.543 122.901 34.548L127.71 34.575C127.892 33.745 128 32.887 128 31.918C128 25.527 123.879 18.582 115.972 18.582Z" fill="#ECEDEE"/>
<path fill-rule="evenodd" clip-rule="evenodd" d="M85.677 39.1592C81.338 39.1592 78.73 36.0832 78.73 32.2882C78.73 28.4932 81.388 25.4162 85.677 25.4162C89.967 25.4162 92.625 28.4932 92.625 32.2882C92.625 36.0832 90.017 39.1592 85.677 39.1592ZM92.625 22.9193C90.766 20.7513 88.126 19.4222 84.85 19.4222C77.5255 19.4222 72.2581 25.1822 72.2581 32.2882C72.2581 39.3942 77.4755 45.1543 84.85 45.1543C88.126 45.1543 90.766 43.8252 92.625 41.6562V44.5202H99.097V10.4062H92.625V22.9193Z" fill="#ECEDEE"/>
<path fill-rule="evenodd" clip-rule="evenodd" d="M147.377 31.3352C149.187 32.5592 150.334 34.3932 150.334 36.8152C150.334 41.7082 146.926 45.1032 140.555 45.1032C134.56 45.1032 131.345 42.1292 130.064 39.1262L135.568 36.0162C135.568 36.0162 136.308 39.2612 140.457 39.2612C143.025 39.2612 143.815 38.1632 143.815 37.1932C143.815 36.7432 143.667 35.9162 141.839 35.2172C138.169 33.8132 131.073 33.1832 131.073 26.7792C131.073 21.5372 135.319 18.7412 140.555 18.7412C145.452 18.7412 148.597 21.6902 149.791 23.9842L144.407 27.0292C144.407 27.0292 143.37 24.4822 140.605 24.4822C137.839 24.4822 137.592 26.0302 137.592 26.4792C137.592 27.7902 138.973 28.3282 141.938 29.1762C143.694 29.6772 145.497 30.1332 147.383 31.3302C147.381 31.3322 147.379 31.3332 147.377 31.3352ZM256 25.6312H250.419V36.0162C250.419 39.2612 253.679 38.5622 256 38.5622V44.4042C256 44.4042 254.777 44.6042 252.642 44.6042C247.901 44.6042 244.049 43.2062 244.049 36.0162V25.6312H239.752V19.4392H244.049V12.4492H250.419V19.4392H256V25.6312ZM166.172 38.8122C168.816 38.8122 170.848 37.5372 171.876 35.4452L177.398 38.6472C175.234 42.4832 171.202 45.1532 166.172 45.1532C158.542 45.1532 153.208 39.2512 153.208 31.9722C153.208 24.6922 158.591 18.7902 166.172 18.7902C171.129 18.7902 175.145 21.4162 177.332 25.2022L171.822 28.4762C170.775 26.4122 168.758 25.1312 166.172 25.1312C162.317 25.1312 159.579 28.1942 159.579 31.9722C159.579 35.7492 162.291 38.8122 166.172 38.8122Z" fill="#ECEDEE"/>
<path fill-rule="evenodd" clip-rule="evenodd" d="M224.481 39.9182C220.297 39.9182 217.781 36.7603 217.781 32.8652C217.781 28.9702 220.345 25.8122 224.481 25.8122C228.616 25.8122 231.18 28.9702 231.18 32.8652C231.18 36.7603 228.665 39.9182 224.481 39.9182ZM225.279 19.6602C232.341 19.6602 237.419 25.5722 237.419 32.8652C237.419 40.1582 232.389 46.0703 225.279 46.0703C222.119 46.0703 219.574 44.7062 217.781 42.4802V55.3743H211.541V20.3602H217.781V23.2493C219.574 21.0243 222.119 19.6602 225.279 19.6602ZM199.546 45.4202V20.4102H205.785V45.4202H199.546ZM187.917 24.6823C189.122 21.6513 191.575 19.9182 195.269 19.9102V27.1133C190.937 26.6893 187.808 28.9162 187.922 34.1782C187.92 34.1742 187.919 34.1702 187.917 34.1662V45.4202H181.677V20.4102H187.917V24.6823ZM199.546 17.0723V10.4062H205.991V17.0723H199.546Z" fill="#ECEDEE"/>
<path fill-rule="evenodd" clip-rule="evenodd" d="M0 56.0082C0 59.3432 2.1529 61.5062 5.4716 61.5062L21.4582 61.5072C30.9951 61.5072 38.7965 58.2642 44.1005 52.5882H0V56.0082ZM21.4582 0.492188H5.4716C2.1529 0.492188 0 2.65519 0 5.99019V9.41119H44.1005C38.7965 3.73519 30.9951 0.492188 21.4582 0.492188ZM35.4098 39.6932C35.4098 42.3912 37.1589 44.1422 39.8555 44.1422H49.4349C50.5208 41.4342 51.2504 38.4572 51.5895 35.2452H39.8555C37.1589 35.2452 35.4098 36.9952 35.4098 39.6932ZM22.1319 22.3282C22.1319 25.0262 23.881 26.7762 26.5776 26.7762H51.5895C51.2504 23.5642 50.5208 20.5872 49.4349 17.8792H26.5776C23.881 17.8792 22.1319 19.6292 22.1319 22.3282ZM26.5746 39.6932C26.5746 36.9952 24.8255 35.2452 22.1289 35.2452H0V44.1422H22.1289C24.8255 44.1422 26.5746 42.3912 26.5746 39.6932ZM13.2967 22.3282C13.2967 19.6292 11.5476 17.8792 8.851 17.8792H0V26.7762H8.851C11.5476 26.7762 13.2967 25.0262 13.2967 22.3282Z" fill="#ECEDEE"/>
</svg>
