<svg width="111" height="110" viewBox="0 0 111 110" fill="none" xmlns="http://www.w3.org/2000/svg">
<g clip-path="url(#clip0_618_10205)">
<path d="M49.6995 0L22.0779 15.9505V54.076L32.4846 60.1061V21.8833L49.6995 11.9629V0Z" fill="white"/>
<path d="M60.6897 0V30.4421H49.6994V19.0628L39.2927 25.0928V63.9965L49.6994 70.0265V39.6817H60.6897V50.9638L70.9992 44.9337V6.03006L60.6897 0Z" fill="white"/>
<path d="M60.6897 70.028L88.214 54.1748V54.0775V15.9519L77.9046 9.92188V48.1447L60.6897 58.0651V70.028Z" fill="white"/>
<path d="M10.7958 103.874V95.802H3.59859V103.874H0V84.6172H3.59859V92.4952H10.6985V84.6172H14.2971V103.874H10.7958Z" fill="white"/>
<path d="M27.7188 103.874H24.801L24.5092 102.902C23.2449 103.68 21.8832 104.166 20.4244 104.166C17.8956 104.166 16.7285 102.416 16.7285 99.984C16.7285 97.1635 17.9929 95.9964 20.8134 95.9964H24.2175V94.5375C24.2175 92.9814 23.7312 92.3978 21.4942 92.3978C20.2298 92.3978 18.8682 92.5924 17.6038 92.7869L17.1176 90.0636C18.6737 89.6746 20.3271 89.3828 21.9805 89.3828C26.3572 89.3828 27.7188 90.939 27.7188 94.4403V103.874ZM24.2175 98.5252H21.5915C20.4244 98.5252 20.1326 98.8169 20.1326 99.8868C20.1326 100.957 20.4244 101.346 21.5915 101.346C22.5641 101.346 23.4394 101.054 24.2175 100.665V98.5252Z" fill="white"/>
<path d="M34.527 104.163C32.8736 104.163 31.2202 103.871 29.6641 103.385L30.1504 100.661C31.512 101.05 32.9709 101.245 34.3325 101.245C35.8886 101.245 36.0832 100.856 36.0832 99.786C36.0832 98.9107 35.8886 98.5216 33.6517 97.9381C30.2476 97.0628 29.7613 96.1874 29.7613 93.5614C29.7613 90.9354 31.1229 89.4766 35.1106 89.4766C36.5695 89.4766 37.9311 89.6711 39.2927 89.9629L38.9037 92.7834C37.6393 92.5889 36.2777 92.3943 35.0133 92.3943C33.4572 92.3943 33.2626 92.7834 33.2626 93.5614C33.2626 94.7285 33.3599 94.7285 35.2078 95.3121C39.0982 96.382 39.4872 96.8682 39.4872 99.786C39.6817 102.412 38.8064 104.163 34.527 104.163Z" fill="white"/>
<path d="M50.0883 103.874V94.0509C50.0883 93.2728 49.7965 92.8837 48.9212 92.8837C47.6568 93.0783 46.3925 93.4673 45.2254 94.0509V103.777H41.8213V84.0332L45.3226 83.5469V90.8413C46.8788 90.0632 48.6294 89.5769 50.4773 89.4797C52.8116 89.4797 53.6869 91.1331 53.6869 93.6618V103.874H50.0883Z" fill="white"/>
<path d="M56.2158 87.7294V83.6445H59.7172V87.7294H56.2158ZM56.2158 103.874V89.7719H59.7172V103.874H56.2158Z" fill="white"/>
<path d="M62.2458 89.868C62.2458 86.3667 64.2883 84.3242 69.054 84.3242C70.8046 84.3242 72.5553 84.5187 74.306 85.005L73.9169 88.1173C72.3608 87.8255 70.8046 87.631 69.2485 87.631C66.7198 87.631 65.9417 88.5064 65.9417 90.5488V97.9405C65.9417 99.9829 66.7198 100.858 69.2485 100.858C70.8046 100.858 72.3608 100.664 73.9169 100.372L74.306 103.484C72.5553 103.873 70.8046 104.165 69.054 104.165C64.2883 104.165 62.2458 102.123 62.2458 98.6213V89.868Z" fill="white"/>
<path d="M81.5031 104.163C76.6401 104.163 75.3757 101.537 75.3757 98.6189V95.0203C75.3757 92.1026 76.6401 89.4766 81.5031 89.4766C86.366 89.4766 87.6304 92.1026 87.6304 95.0203V98.6189C87.6304 101.439 86.366 104.163 81.5031 104.163ZM81.5031 92.4916C79.6551 92.4916 78.8771 93.3669 78.8771 94.9231V98.7162C78.8771 100.272 79.5579 101.148 81.5031 101.148C83.4482 101.148 84.1291 100.272 84.1291 98.7162V95.0203C84.1291 93.3669 83.351 92.4916 81.5031 92.4916Z" fill="white"/>
<path d="M96.9672 92.6861C95.7028 93.2697 94.4384 93.9505 93.2713 94.7286V103.774H89.77V89.7683H92.785L92.9796 91.3245C94.1467 90.5464 95.411 89.9629 96.6754 89.4766L96.9672 92.6861Z" fill="white"/>
<path d="M110.389 99.2025C110.389 102.315 109.028 104.163 105.721 104.163C104.456 104.163 103.192 103.968 101.928 103.774V109.609L98.4263 110.095V89.7683H101.247L101.636 90.9354C102.9 89.9629 104.456 89.4766 106.11 89.4766C108.93 89.4766 110.389 91.13 110.389 94.3395V99.2025ZM101.928 100.759C102.9 100.953 103.97 101.148 105.04 101.148C106.304 101.148 106.791 100.564 106.791 99.2997V94.3395C106.791 93.1724 106.402 92.5888 105.04 92.5888C103.873 92.5888 102.803 93.0751 101.928 93.8532V100.759Z" fill="white"/>
</g>
<defs>
<clipPath id="clip0_618_10205">
<rect width="110.389" height="110" fill="white"/>
</clipPath>
</defs>
</svg>
