<svg width="271" height="63" viewBox="0 0 271 63" fill="none" xmlns="http://www.w3.org/2000/svg">
<path d="M92.1776 48.8853V34.3943H79.3636V48.8853H72.8391V14.5234H79.3636V28.6576H92.1776V14.5234H98.7021V48.8853H92.1776Z" fill="#111827"/>
<path d="M122.621 48.8847H117.44L116.971 47.1845C114.731 48.632 112.118 49.403 109.448 49.4039C104.829 49.4039 102.858 46.2565 102.858 41.9215C102.858 36.8142 105.09 34.8544 110.224 34.8544H116.292V32.2197C116.292 29.4357 115.516 28.4558 111.47 28.4558C109.118 28.472 106.772 28.722 104.47 29.2021L103.693 24.4063C106.516 23.6293 109.429 23.2299 112.358 23.2188C120.292 23.2188 122.627 26.0027 122.627 32.304L122.621 48.8847ZM116.292 39.3906H111.627C109.552 39.3906 108.985 39.9552 108.985 41.8696C108.985 43.6217 109.552 44.4005 111.529 44.4005C113.203 44.3736 114.844 43.9272 116.299 43.1026L116.292 39.3906Z" fill="#111827"/>
<path d="M134.867 49.3974C131.905 49.3491 128.968 48.8613 126.151 47.9503L127.031 43.1545C129.478 43.8509 132.009 44.2154 134.554 44.2383C137.353 44.2383 137.771 43.5893 137.771 41.7074C137.771 40.1629 137.457 39.3841 133.36 38.4042C127.188 36.9052 126.464 35.3607 126.464 30.513C126.464 25.4577 128.695 23.2383 135.905 23.2383C138.455 23.2406 140.997 23.5346 143.479 24.1144L142.827 29.1178C140.533 28.6968 138.21 28.4559 135.878 28.3974C133.132 28.3974 132.662 29.0464 132.662 30.5649C132.662 32.5767 132.819 32.7324 136.244 33.6085C143.316 35.471 143.995 36.399 143.995 41.5322C143.995 46.4058 142.488 49.3974 134.867 49.3974Z" fill="#111827"/>
<path d="M162.824 48.887V31.3653C162.824 30.022 162.257 29.3536 160.802 29.3536C159.249 29.3536 156.496 30.2816 154.212 31.4692V48.887H147.883V13.4933L154.212 12.6172V25.6676C157.077 24.2048 160.227 23.3768 163.444 23.2405C167.646 23.2405 169.147 26.1802 169.147 30.671V48.887H162.824Z" fill="#111827"/>
<path d="M173.818 20.2005V12.9258H180.147V20.2005H173.818ZM173.818 48.8841V23.7567H180.147V48.8841H173.818Z" fill="#111827"/>
<path d="M184.557 23.9666C184.557 17.6718 188.237 14.0117 196.849 14.0117C200.014 14.011 203.166 14.3924 206.238 15.1474L205.52 20.7673C202.723 20.24 199.886 19.9469 197.039 19.8912C192.524 19.8912 191.075 21.4422 191.075 25.0828V38.2889C191.075 41.949 192.53 43.4805 197.039 43.4805C199.886 43.4248 202.723 43.1317 205.52 42.6044L206.245 48.2308C203.173 48.9858 200.02 49.3672 196.856 49.3665C188.244 49.3665 184.564 45.7064 184.564 39.4116L184.557 23.9666Z" fill="#111827"/>
<path d="M219.222 49.3988C210.557 49.3988 208.228 44.6549 208.228 39.4958V33.1491C208.228 27.9899 210.564 23.2461 219.222 23.2461C227.88 23.2461 230.216 27.9899 230.216 33.1491V39.4958C230.196 44.6549 227.867 49.3988 219.222 49.3988ZM219.222 28.6324C215.849 28.6324 214.557 30.1314 214.557 32.9674V39.7034C214.557 42.5394 215.862 44.0384 219.222 44.0384C222.582 44.0384 223.887 42.5394 223.887 39.7034V32.9414C223.874 30.1055 222.575 28.6064 219.222 28.6064V28.6324Z" fill="#111827"/>
<path d="M247.003 29.0204C244.68 30.0672 242.442 31.2909 240.309 32.6805V48.9042H233.98V23.7574H239.324L239.741 26.5414C241.8 25.155 244.033 24.0444 246.383 23.2383L247.003 29.0204Z" fill="#111827"/>
<path d="M271 40.5276C271 46.1021 268.508 49.3988 262.649 49.3988C260.382 49.3751 258.122 49.1317 255.902 48.672V59.0551L249.574 59.9312V23.7588H254.604L255.257 25.8744C257.562 24.1618 260.365 23.2396 263.243 23.2461C268.325 23.2461 271.02 26.2378 271.02 31.968L271 40.5276ZM255.909 43.3636C257.751 43.7667 259.628 43.9841 261.514 44.0125C263.797 44.0125 264.678 42.9288 264.678 40.6574V31.7993C264.678 29.7356 263.901 28.6 261.566 28.6C259.471 28.675 257.469 29.4788 255.909 30.8713V43.3636Z" fill="#111827"/>
<path d="M24.9365 0L0 14.3093V14.3158V48.6712L9.36913 54.051V19.6891L24.9365 10.7466V0Z" fill="#111827"/>
<path d="M34.8863 0V27.3662H24.9365V17.1517L15.5674 22.5315V57.5943L24.9365 62.987V35.6987H34.8863V45.8418L44.2554 40.4685V5.37979L34.8863 0Z" fill="#111827"/>
<path d="M34.8864 63.0002L59.8228 48.6909V48.6779V14.329L50.4537 8.94922V43.3111L34.8864 52.2536V63.0002Z" fill="#111827"/>
</svg>
