<svg width="110" height="109" viewBox="0 0 110 109" fill="none" xmlns="http://www.w3.org/2000/svg">
<path d="M101.925 80.3202C84.9684 72.1117 82.2658 59.4381 82.1455 58.498C82 57.3594 81.835 56.4641 83.0911 55.3059C84.3025 54.1868 89.6769 50.8603 91.1681 49.8195C93.6329 48.0961 94.7184 46.3756 93.9183 44.2605C93.3587 42.7973 91.9963 42.2461 90.561 42.2461C90.1083 42.2475 89.6571 42.2982 89.2153 42.3972C86.5071 42.9847 83.8773 44.3416 82.3553 44.7081C82.1725 44.7553 81.9846 44.7806 81.7958 44.7837C80.9845 44.7837 80.6767 44.4227 80.755 43.4463C80.9453 40.4864 81.3482 34.7091 80.8809 29.3123C80.2403 21.8872 77.8454 18.2082 75.0057 14.9544C73.6321 13.3765 67.2533 6.59766 54.9433 6.59766C42.6334 6.59766 36.263 13.3765 34.8977 14.9348C32.0496 18.1886 29.6576 21.8676 29.0225 29.2927C28.5553 34.6895 28.975 40.464 29.1484 43.4268C29.2044 44.3556 28.919 44.7641 28.1077 44.7641C27.9188 44.7608 27.731 44.7355 27.5481 44.6885C26.029 44.322 23.3991 42.9651 20.6909 42.3776C20.2492 42.2786 19.7979 42.2279 19.3452 42.2265C17.9044 42.2265 16.5475 42.7861 15.988 44.2409C15.1878 46.356 16.2677 48.0766 18.7409 49.8C20.2321 50.8407 25.6065 54.1644 26.8179 55.2863C28.0713 56.4445 27.909 57.3398 27.7635 58.4785C27.6432 59.4325 24.9379 72.1061 7.98371 80.3006C6.99052 80.7818 5.3007 81.8002 8.28026 83.4453C12.958 86.0303 16.0719 85.7534 18.4919 87.3117C20.5454 88.635 19.3312 91.4887 20.8252 92.5182C22.6605 93.7856 28.0853 92.4287 35.0936 94.7424C40.9688 96.6784 44.5386 102.148 54.9573 102.148C65.376 102.148 69.0494 96.6533 74.8211 94.7424C81.8154 92.4287 87.2513 93.7856 89.0894 92.5182C90.5806 91.4887 89.3692 88.635 91.4227 87.3117C93.8428 85.7534 96.9538 86.0303 101.634 83.4453C104.608 81.8198 102.919 80.8014 101.925 80.3202Z" fill="white"/>
<path d="M109.303 79.3553C108.542 77.285 107.093 76.1771 105.442 75.2594C105.131 75.0776 104.846 74.9321 104.603 74.8202C104.11 74.5656 103.607 74.3194 103.106 74.0592C97.961 71.3314 93.9434 67.8903 91.1569 63.8112C90.3656 62.6628 89.6792 61.4456 89.1062 60.1742C88.8684 59.4943 88.8796 59.1082 89.0502 58.7557C89.2195 58.4841 89.4434 58.2507 89.7077 58.0703C90.5918 57.4856 91.5038 56.8925 92.1221 56.4924C93.2244 55.779 94.0973 55.2138 94.6597 54.8138C96.7719 53.3366 98.2491 51.767 99.1724 50.0129C99.8165 48.8009 100.192 47.4645 100.274 46.0944C100.355 44.7244 100.141 43.3528 99.6452 42.073C98.2463 38.3912 94.7688 36.1054 90.5554 36.1054C89.6667 36.1046 88.7804 36.1984 87.9116 36.3852C87.6794 36.4356 87.4471 36.4887 87.2205 36.5475C87.2597 34.0295 87.2037 31.3717 86.9799 28.7558C86.1854 19.5598 82.9652 14.7393 79.608 10.8952C77.4581 8.48639 74.9257 6.44845 72.1129 4.86338C67.0182 1.95376 61.241 0.476562 54.9433 0.476562C48.6457 0.476562 42.8964 1.95376 37.7961 4.86338C34.9764 6.44893 32.4389 8.49096 30.2871 10.9064C26.9298 14.7505 23.7096 19.5793 22.9151 28.767C22.6913 31.3829 22.6353 34.0547 22.6717 36.5587C22.4451 36.4999 22.2157 36.4468 21.9834 36.3964C21.1146 36.2096 20.2283 36.1158 19.3396 36.1166C15.1235 36.1166 11.6403 38.4024 10.247 42.0842C9.74903 43.3645 9.53249 44.7371 9.61215 46.1086C9.6918 47.4801 10.0658 48.8184 10.7087 50.0325C11.6347 51.7866 13.1119 53.3561 15.2242 54.8333C15.7837 55.225 16.6594 55.7902 17.7617 56.512C18.3576 56.898 19.2277 57.4632 20.081 58.0283C20.3795 58.2213 20.6333 58.476 20.8252 58.7753C21.0042 59.1418 21.0098 59.5363 20.7441 60.2637C20.1787 61.5084 19.5037 62.7003 18.7269 63.8252C16.0019 67.8119 12.1019 71.1916 7.12199 73.897C4.48375 75.2958 1.74199 76.2302 0.583733 79.3777C-0.289153 81.7529 0.28158 84.4555 2.50017 86.7329C3.31441 87.5828 4.2588 88.2978 5.29788 88.8507C7.45993 90.0389 9.75893 90.9587 12.1439 91.5897C12.6361 91.7166 13.1033 91.9257 13.526 92.208C14.3345 92.9158 14.2198 93.9817 15.2969 95.5429C15.8376 96.3497 16.5246 97.0481 17.3225 97.602C19.583 99.1631 22.1233 99.261 24.8147 99.3645C27.2459 99.4569 30.0017 99.5632 33.1491 100.601C34.4529 101.032 35.8069 101.866 37.3765 102.839C41.145 105.156 46.304 108.326 54.9377 108.326C63.5715 108.326 68.7668 105.139 72.5633 102.814C74.1216 101.857 75.4673 101.032 76.7347 100.612C79.8821 99.5716 82.6379 99.4681 85.0691 99.3757C87.7605 99.2722 90.3008 99.1743 92.5614 97.6132C93.5062 96.9543 94.2935 96.0944 94.8667 95.0952C95.6417 93.7775 95.6221 92.8571 96.3495 92.2136C96.746 91.9447 97.1848 91.7442 97.6476 91.6205C100.065 90.9875 102.395 90.0591 104.586 88.8563C105.69 88.2641 106.684 87.4861 107.524 86.5566L107.552 86.523C109.633 84.2961 110.156 81.6718 109.303 79.3553ZM101.629 83.4791C96.9482 86.0642 93.8371 85.7872 91.4171 87.3456C89.3608 88.6689 90.5778 91.5225 89.0838 92.5521C87.2485 93.8195 81.8237 92.4626 74.8155 94.7763C69.0354 96.6871 65.348 102.182 54.9517 102.182C44.5554 102.182 40.9547 96.6983 35.0795 94.7623C28.0853 92.4486 22.6493 93.8055 20.8112 92.5381C19.32 91.5086 20.5314 88.6549 18.4779 87.3316C16.0551 85.7732 12.944 86.0502 8.26626 83.4791C5.28669 81.8341 6.97651 80.8157 7.9697 80.3345C24.9238 72.126 27.6292 59.4524 27.7495 58.5123C27.895 57.3737 28.0573 56.4784 26.8039 55.3201C25.5925 54.2011 20.2181 50.8746 18.7269 49.8338C16.2593 48.1104 15.1738 46.3898 15.974 44.2748C16.5335 42.8116 17.8988 42.2604 19.3312 42.2604C19.7839 42.2618 20.2352 42.3125 20.6769 42.4115C23.3851 42.999 26.015 44.3559 27.5341 44.7224C27.717 44.7693 27.9048 44.7947 28.0937 44.7979C28.905 44.7979 29.1904 44.3895 29.1344 43.4606C28.9609 40.4979 28.5413 34.7234 29.0085 29.3266C29.6492 21.9015 32.0412 18.2225 34.8837 14.9687C36.249 13.4048 42.6641 6.62594 54.9321 6.62594C67.2001 6.62594 73.632 13.3768 74.9973 14.9351C77.8426 18.1889 80.2374 21.8679 80.8725 29.293C81.3397 34.6898 80.9369 40.4671 80.7466 43.4271C80.6823 44.4035 80.976 44.7644 81.7874 44.7644C81.9762 44.7613 82.164 44.736 82.3469 44.6888C83.8689 44.3223 86.4987 42.9654 89.2069 42.3779C89.6487 42.2789 90.0999 42.2282 90.5526 42.2268C91.9934 42.2268 93.3503 42.7864 93.9099 44.2412C94.71 46.3563 93.6301 48.0769 91.1597 49.8002C89.6685 50.841 84.2941 54.1647 83.0827 55.2866C81.8265 56.4448 81.9916 57.3401 82.1371 58.4788C82.2574 59.4328 84.96 72.1064 101.917 80.3009C102.919 80.8017 104.608 81.8201 101.629 83.4791Z" fill="#111827"/>
</svg>
