<svg width="38" height="38" viewBox="0 0 38 38" fill="none" xmlns="http://www.w3.org/2000/svg">
<path d="M25.5182 12.2718C24.6258 5.5838 22.3661 0 18.895 0C15.4248 0 13.1652 5.58283 12.2718 12.2718C5.5838 13.1642 0 15.4239 0 18.895C0 22.3652 5.5838 24.6248 12.2718 25.5182C13.1642 32.2052 15.4239 37.79 18.895 37.79C22.3652 37.79 24.6248 32.2062 25.5182 25.5182C32.2062 24.6248 37.79 22.3661 37.79 18.895C37.79 15.4239 32.2052 13.1642 25.5182 12.2718ZM12.0542 23.569C5.64858 22.6436 1.91348 20.5261 1.91348 18.894C1.91348 17.2619 5.64955 15.1444 12.0542 14.2191C11.9131 15.7613 11.8396 17.3354 11.8396 18.894C11.8396 20.4527 11.9131 22.0287 12.0542 23.569ZM18.896 1.91251C20.5281 1.91251 22.6456 5.64858 23.5709 12.0533C22.0297 11.9121 20.4546 11.8386 18.896 11.8386C17.3373 11.8386 15.7623 11.9121 14.221 12.0533C15.1464 5.64762 17.2639 1.91251 18.896 1.91251ZM25.7367 23.569C25.4215 23.6154 24.1278 23.7662 23.801 23.7991C23.7691 24.1269 23.6163 25.4196 23.5709 25.7348C22.6456 32.1405 20.5281 35.8765 18.896 35.8765C17.2639 35.8765 15.1464 32.1405 14.221 25.7348C14.1756 25.4196 14.0228 24.1259 13.9909 23.7991C13.842 22.2811 13.7521 20.6499 13.7521 18.894C13.7521 17.1391 13.842 15.508 13.9909 13.988C15.5089 13.8391 17.1401 13.7492 18.896 13.7492C20.6509 13.7492 22.282 13.8391 23.801 13.988C24.1288 14.0199 25.4215 14.1727 25.7367 14.2181C32.1424 15.1435 35.8794 17.2619 35.8794 18.8931C35.8785 20.5242 32.1424 22.6436 25.7367 23.569Z" fill="#F2F2F2"/>
</svg>
