<svg width="84" height="83" viewBox="0 0 84 83" fill="none" xmlns="http://www.w3.org/2000/svg">
<path d="M82.3032 63.4924C67.7568 56.4508 65.4384 45.5788 65.3352 44.7724C65.2104 43.7956 65.0688 43.0276 66.1464 42.034C67.1856 41.074 71.796 38.2204 73.0752 37.3276C75.1896 35.8492 76.1208 34.3732 75.4344 32.5588C74.9544 31.3036 73.7856 30.8308 72.5544 30.8308C72.166 30.832 71.7789 30.8755 71.4 30.9604C69.0768 31.4644 66.8208 32.6284 65.5152 32.9428C65.3583 32.9833 65.1972 33.005 65.0352 33.0076C64.3392 33.0076 64.0752 32.698 64.1424 31.8604C64.3056 29.3212 64.6512 24.3652 64.2504 19.7356C63.7008 13.366 61.6464 10.21 59.2104 7.4188C58.032 6.0652 52.56 0.25 42 0.25C31.44 0.25 25.9752 6.0652 24.804 7.402C22.3608 10.1932 20.3088 13.3492 19.764 19.7188C19.3632 24.3484 19.7232 29.302 19.872 31.8436C19.92 32.6404 19.6752 32.9908 18.9792 32.9908C18.8172 32.988 18.6561 32.9663 18.4992 32.926C17.196 32.6116 14.94 31.4476 12.6168 30.9436C12.2378 30.8587 11.8508 30.8152 11.4624 30.814C10.2264 30.814 9.06241 31.294 8.58241 32.542C7.89601 34.3564 8.8224 35.8324 10.944 37.3108C12.2232 38.2036 16.8336 41.0548 17.8728 42.0172C18.948 43.0108 18.8088 43.7788 18.684 44.7556C18.5808 45.574 16.26 56.446 1.71601 63.4756C0.864007 63.8884 -0.585593 64.762 1.97041 66.1732C5.98321 68.3908 8.6544 68.1532 10.7304 69.49C12.492 70.6252 11.4504 73.0732 12.732 73.9564C14.3064 75.0436 18.96 73.8796 24.972 75.8644C30.012 77.5252 33.0744 82.2172 42.012 82.2172C50.9496 82.2172 54.1008 77.5036 59.052 75.8644C65.052 73.8796 69.7152 75.0436 71.292 73.9564C72.5712 73.0732 71.532 70.6252 73.2936 69.49C75.3696 68.1532 78.0384 68.3908 82.0536 66.1732C84.6048 64.7788 83.1552 63.9052 82.3032 63.4924Z" fill="white"/>
</svg>
