<svg width="169" height="70" viewBox="0 0 169 70" fill="none" xmlns="http://www.w3.org/2000/svg">
<path fill-rule="evenodd" clip-rule="evenodd" d="M168.218 36.1706C168.218 24.2084 162.424 14.7695 151.349 14.7695C140.228 14.7695 133.5 24.2084 133.5 36.0771C133.5 50.142 141.443 57.2445 152.845 57.2445C158.405 57.2445 162.611 55.9829 165.788 54.2073V44.8618C162.611 46.4506 158.966 47.4318 154.34 47.4318C149.807 47.4318 145.789 45.8431 145.275 40.3293H168.124C168.124 39.7218 168.218 37.292 168.218 36.1706ZM145.135 31.7315C145.135 26.4513 148.359 24.2551 151.303 24.2551C154.153 24.2551 157.19 26.4513 157.19 31.7315H145.135Z" fill="white"/>
<path fill-rule="evenodd" clip-rule="evenodd" d="M115.463 14.7695C110.884 14.7695 107.94 16.919 106.304 18.4143L105.697 15.5172H95.4169V70.001L107.099 67.5245L107.145 54.3007C108.828 55.5156 111.304 57.2445 115.416 57.2445C123.78 57.2445 131.397 50.5158 131.397 35.7033C131.35 22.1524 123.64 14.7695 115.463 14.7695ZM112.659 46.9645C109.902 46.9645 108.267 45.9833 107.145 44.7684L107.099 27.4326C108.314 26.0775 109.996 25.143 112.659 25.143C116.911 25.143 119.855 29.9091 119.855 36.0304C119.855 42.2918 116.958 46.9645 112.659 46.9645Z" fill="white"/>
<path fill-rule="evenodd" clip-rule="evenodd" d="M79.3427 12.0089L91.0712 9.48561V0L79.3427 2.47654V12.0089Z" fill="white"/>
<path d="M91.0712 15.5625H79.3427V56.4488H91.0712V15.5625Z" fill="white"/>
<path fill-rule="evenodd" clip-rule="evenodd" d="M66.7731 19.0189L66.0254 15.5611H55.9324V56.4474H67.6142V28.7382C70.3711 25.1402 75.0438 25.7944 76.4923 26.3084V15.5611C74.9971 15.0004 69.53 13.9724 66.7731 19.0189Z" fill="white"/>
<path fill-rule="evenodd" clip-rule="evenodd" d="M43.4096 5.42578L32.0082 7.85559L31.9614 45.284C31.9614 52.1997 37.1481 57.2929 44.0638 57.2929C47.8954 57.2929 50.699 56.592 52.241 55.7509V46.2653C50.7457 46.8728 43.3629 49.0222 43.3629 42.1066V25.5185H52.241V15.5656H43.3629L43.4096 5.42578Z" fill="white"/>
<path fill-rule="evenodd" clip-rule="evenodd" d="M11.822 27.4326C11.822 25.6102 13.3172 24.9093 15.7938 24.9093C19.345 24.9093 23.8309 25.984 27.3821 27.8999V16.919C23.5038 15.377 19.6721 14.7695 15.7938 14.7695C6.30817 14.7695 0 19.7226 0 27.9933C0 40.89 17.7563 38.834 17.7563 44.3946C17.7563 46.544 15.8872 47.2449 13.2705 47.2449C9.39216 47.2449 4.43908 45.6562 0.513998 43.5067V54.6278C4.85962 56.4969 9.25198 57.2913 13.2705 57.2913C22.9898 57.2913 29.6717 52.4783 29.6717 44.1142C29.625 30.1895 11.822 32.666 11.822 27.4326Z" fill="white"/>
</svg>
