<svg width="179" height="83" viewBox="0 0 179 83" fill="none" xmlns="http://www.w3.org/2000/svg">
<path d="M29.2704 82.185C22.7174 82.185 16.5458 80.362 11.1499 77.158H47.3832C41.9922 80.362 35.8233 82.185 29.2678 82.185H29.2704ZM34.8298 0C41.4192 0 47.6142 1.839 53.0302 5.078H16.6314C22.0377 1.841 28.2379 0 34.8272 0H34.8298ZM62.5622 24.389C62.0842 25.312 61.4592 26.181 60.6862 26.956L41.0142 46.656C42.2592 47.434 43.0902 48.819 43.0902 50.396C43.0902 52.834 41.1152 54.813 38.6822 54.813H22.4736C20.0402 54.813 18.066 52.837 18.066 50.396C18.066 49.776 18.1931 49.187 18.424 48.648C18.6393 48.075 18.9714 47.535 19.4332 47.076L30.2406 36.25H28.5492L16.1333 48.684C15.5496 49.268 15.1294 49.955 14.857 50.676C14.5638 51.358 14.4004 52.105 14.4004 52.894C14.4004 55.988 16.9064 58.504 20.0013 58.504H40.5812C43.6762 58.504 46.1822 55.993 46.1822 52.894C46.1822 51.428 45.6142 50.09 44.6902 49.091C47.6422 49.911 49.8142 52.616 49.8142 55.838C49.8142 59.71 46.6772 62.846 42.8152 62.846H17.0906C13.2278 62.846 10.0914 59.71 10.0914 55.838C10.0914 54.855 10.2964 53.916 10.6596 53.065C10.9968 52.157 11.526 51.301 12.2576 50.57L26.5646 36.245H24.6216C24.5048 36.245 24.3907 36.239 24.2739 36.229L7.7593 52.767C6.8617 53.669 6.2105 54.72 5.7903 55.835C5.3389 56.88 5.0872 58.032 5.0872 59.249C5.0872 64.018 8.9448 67.881 13.7052 67.881H45.3932C50.1542 67.881 54.0112 64.018 54.0112 59.249C54.0112 56.748 52.9452 54.505 51.2482 52.925C55.6302 54.139 58.8522 58.151 58.8522 62.927C58.8522 68.659 54.2082 73.312 48.4802 73.312H10.3664C4.6384 73.312 0 68.664 0 62.927C0 61.466 0.303499 60.079 0.845699 58.818C1.349 57.469 2.1324 56.206 3.2142 55.125L22.5747 35.736C21.1661 35 20.201 33.524 20.201 31.822C20.201 29.384 22.1726 27.405 24.6138 27.405H40.8222C43.2562 27.405 45.2302 29.382 45.2302 31.822C45.2302 32.611 45.0252 33.35 44.6622 33.991C44.4572 34.385 44.1952 34.753 43.8632 35.083L32.9931 45.966H34.6637L47.1572 33.454C47.5772 33.034 47.9102 32.567 48.1722 32.071C48.6332 31.257 48.8952 30.318 48.8952 29.319C48.8952 26.225 46.3892 23.714 43.2942 23.714H22.7148C19.6251 23.714 17.1139 26.225 17.1139 29.319C17.1139 30.79 17.6821 32.123 18.6056 33.122C15.6534 32.297 13.4821 29.592 13.4821 26.375C13.4821 22.503 16.6185 19.367 20.4812 19.367H46.2052C50.0682 19.367 53.2042 22.503 53.2042 26.375C53.2042 27.626 52.8722 28.798 52.3022 29.812C51.9802 30.437 51.5602 31.021 51.0362 31.545L36.6353 45.966H38.6742C38.7522 45.966 38.8272 45.971 38.9102 45.976L55.5342 29.33C56.1802 28.684 56.6962 27.963 57.0932 27.198C57.8012 25.947 58.2062 24.503 58.2062 22.959C58.2062 18.19 54.3482 14.327 49.5882 14.327H17.9C13.1396 14.327 9.282 18.19 9.282 22.959C9.282 25.302 10.216 27.418 11.7258 28.974C7.8267 27.483 5.0535 23.712 5.0535 19.281C5.0535 13.549 9.6971 8.896 15.4199 8.896H53.5342C59.2622 8.896 63.9002 13.544 63.9002 19.281C63.8952 21.146 63.4072 22.884 62.5562 24.383L62.5622 24.389ZM137.275 57.542C136.26 57.988 135.368 58.587 134.6 59.339C133.832 60.097 133.228 60.994 132.787 62.029C132.346 63.064 132.12 64.172 132.12 65.334V73.439H134.878V65.334C134.878 64.555 135.025 63.821 135.334 63.131C135.638 62.439 136.042 61.835 136.548 61.318C137.054 60.802 137.656 60.395 138.346 60.105C139.039 59.811 139.77 59.669 140.549 59.669C141.348 59.669 142.097 59.811 142.787 60.105C143.477 60.398 144.079 60.802 144.585 61.318C145.094 61.837 145.493 62.441 145.784 63.131C146.074 63.821 146.219 64.555 146.219 65.334V73.439H149.008V65.334C149.008 64.166 148.788 63.064 148.341 62.029C147.895 60.994 147.291 60.097 146.528 59.339C145.76 58.582 144.863 57.983 143.838 57.542C142.813 57.101 141.716 56.875 140.549 56.875C139.381 56.875 138.289 57.096 137.275 57.542ZM123.813 60.105C124.506 60.398 125.11 60.802 125.627 61.318C126.143 61.835 126.55 62.441 126.841 63.131C127.134 63.824 127.277 64.555 127.277 65.334C127.277 66.112 127.134 66.846 126.841 67.536C126.548 68.228 126.143 68.827 125.627 69.333C125.11 69.839 124.503 70.246 123.813 70.547C123.121 70.85 122.389 71.003 121.611 71.003C120.833 71.003 120.098 70.85 119.408 70.547C118.716 70.243 118.111 69.839 117.595 69.333C117.079 68.827 116.671 68.226 116.381 67.536C116.088 66.843 115.945 66.112 115.945 65.334C115.945 64.555 116.088 63.821 116.381 63.131C116.674 62.439 117.079 61.835 117.595 61.318C118.111 60.802 118.718 60.395 119.408 60.105C120.101 59.811 120.833 59.669 121.611 59.669C122.389 59.669 123.123 59.811 123.813 60.105ZM118.337 57.542C117.323 57.988 116.43 58.587 115.662 59.339C114.894 60.097 114.29 60.994 113.849 62.029C113.408 63.064 113.182 64.172 113.182 65.334C113.182 66.501 113.403 67.598 113.849 68.622C114.295 69.647 114.9 70.539 115.662 71.297C116.43 72.054 117.323 72.653 118.337 73.094C119.351 73.535 120.443 73.761 121.611 73.761C122.778 73.761 123.876 73.54 124.9 73.094C125.925 72.648 126.823 72.054 127.59 71.297C128.358 70.539 128.963 69.647 129.404 68.622C129.845 67.598 130.071 66.496 130.071 65.334C130.071 64.166 129.85 63.064 129.404 62.029C128.958 60.994 128.353 60.097 127.59 59.339C126.823 58.582 125.925 57.983 124.9 57.542C123.876 57.101 122.778 56.875 121.611 56.875C120.443 56.875 119.351 57.096 118.337 57.542ZM108.707 73.447H111.496V57.236H108.707V73.447ZM102.123 66.54C102.621 66.54 103.036 66.708 103.374 67.043C103.706 67.375 103.887 67.795 103.905 68.293V68.908C103.905 68.949 103.9 68.991 103.89 69.019C103.879 69.048 103.874 69.092 103.874 69.131V69.258C103.768 69.647 103.558 69.982 103.244 70.262C102.93 70.542 102.556 70.682 102.126 70.682H95.7362V73.439H102.126C102.751 73.439 103.34 73.327 103.892 73.097C104.445 72.871 104.917 72.555 105.317 72.14C105.716 71.73 106.04 71.258 106.289 70.731C106.536 70.205 106.663 69.624 106.663 68.998V68.091C106.642 67.486 106.505 66.923 106.258 66.405C106.012 65.886 105.685 65.432 105.286 65.043C104.886 64.654 104.414 64.345 103.877 64.12C103.335 63.894 102.764 63.782 102.159 63.782H99.9212C99.4642 63.782 99.0702 63.624 98.7382 63.31C98.4062 62.997 98.2162 62.613 98.1702 62.159C98.1282 61.923 98.1282 61.692 98.1702 61.477C98.2162 60.999 98.4002 60.605 98.7382 60.294C99.0702 59.983 99.4672 59.822 99.9212 59.822H106.147V57.034H99.9212C99.3162 57.034 98.7482 57.14 98.2192 57.355C97.6902 57.57 97.2202 57.874 96.8102 58.263C96.4002 58.652 96.0682 59.109 95.8222 59.625C95.5752 60.141 95.4382 60.696 95.4172 61.279C95.3962 61.407 95.3862 61.578 95.3862 61.783C95.3862 61.988 95.3962 62.156 95.4172 62.286C95.4382 62.89 95.5752 63.453 95.8222 63.972C96.0682 64.491 96.4002 64.939 96.8102 65.321C97.2202 65.699 97.6922 65.998 98.2192 66.213C98.7462 66.428 99.3162 66.534 99.9212 66.534H102.118V66.54H102.123ZM90.8702 73.447H93.6582V57.236H90.8702V73.447ZM86.7862 57.236C85.9412 59.204 85.0842 61.217 84.2082 63.282C83.3312 65.346 82.4592 67.38 81.6002 69.395L76.4092 57.238H73.3922L80.3662 73.449H82.8302L89.8032 57.238H86.7862V57.236ZM143.475 12.789C144.131 13.082 144.699 13.487 145.187 14.003C145.669 14.522 146.048 15.126 146.326 15.816C146.603 16.506 146.741 17.24 146.741 18.018C146.741 18.796 146.603 19.53 146.326 20.22C146.048 20.91 145.669 21.512 145.187 22.018C144.704 22.526 144.136 22.931 143.475 23.232C142.818 23.535 142.108 23.688 141.348 23.688C140.611 23.688 139.908 23.54 139.251 23.232C138.595 22.928 138.022 22.524 137.539 22.018C137.057 21.512 136.673 20.91 136.382 20.22C136.094 19.528 135.952 18.796 135.952 18.018C135.952 17.24 136.094 16.506 136.382 15.816C136.67 15.124 137.054 14.519 137.539 14.003C138.022 13.487 138.59 13.08 139.251 12.789C139.908 12.496 140.608 12.354 141.348 12.354C142.105 12.348 142.818 12.496 143.475 12.789ZM138.24 10.227C137.277 10.668 136.426 11.277 135.697 12.04C134.968 12.807 134.39 13.705 133.97 14.729C133.549 15.754 133.339 16.851 133.339 18.018C133.339 19.186 133.549 20.283 133.97 21.307C134.39 22.332 134.963 23.229 135.697 23.981C136.426 24.739 137.275 25.338 138.24 25.779C139.205 26.22 140.242 26.445 141.35 26.445C142.396 26.445 143.379 26.256 144.292 25.877C145.205 25.499 146.025 24.975 146.741 24.306V26.119H149.421V18.013C149.421 16.846 149.211 15.749 148.79 14.724C148.37 13.7 147.797 12.802 147.063 12.035C146.334 11.267 145.475 10.662 144.489 10.222C143.506 9.775 142.455 9.555 141.348 9.555C140.24 9.56 139.2 9.781 138.237 10.227H138.24ZM126.843 18.055C126.843 17.277 126.996 16.542 127.305 15.853C127.614 15.163 128.037 14.556 128.581 14.04C129.124 13.521 129.754 13.116 130.478 12.826C131.196 12.533 131.969 12.39 132.789 12.39V9.60201C131.596 9.60201 130.483 9.82201 129.448 10.268C128.413 10.714 127.5 11.313 126.721 12.066C125.943 12.823 125.323 13.72 124.872 14.755C124.42 15.79 124.195 16.898 124.195 18.065V26.17H126.843V18.055ZM115.411 12.852C116.067 13.145 116.635 13.549 117.123 14.065C117.611 14.582 117.984 15.189 118.262 15.878C118.539 16.571 118.677 17.302 118.677 18.081C118.677 18.859 118.539 19.593 118.262 20.283C117.984 20.975 117.605 21.574 117.123 22.08C116.64 22.586 116.072 22.993 115.411 23.294C114.754 23.597 114.044 23.751 113.283 23.751C112.547 23.751 111.844 23.597 111.187 23.294C110.531 22.991 109.963 22.586 109.475 22.08C108.993 21.572 108.609 20.973 108.318 20.283C108.03 19.59 107.887 18.859 107.887 18.081C107.887 17.302 108.03 16.568 108.318 15.878C108.606 15.186 108.99 14.582 109.475 14.065C109.958 13.549 110.526 13.142 111.187 12.852C111.844 12.558 112.544 12.416 113.283 12.416C114.046 12.416 114.754 12.558 115.411 12.852ZM110.357 10.227C109.434 10.626 108.609 11.158 107.893 11.83V2.458H105.275V18.086C105.275 19.253 105.485 20.345 105.906 21.359C106.326 22.373 106.899 23.265 107.633 24.033C108.362 24.801 109.205 25.405 110.176 25.846C111.138 26.287 112.178 26.513 113.286 26.513C114.394 26.513 115.444 26.292 116.428 25.846C117.411 25.405 118.272 24.796 119.001 24.033C119.73 23.265 120.303 22.373 120.729 21.359C121.149 20.345 121.359 19.253 121.359 18.086C121.359 16.919 121.149 15.816 120.729 14.781C120.309 13.746 119.735 12.849 119.001 12.092C118.272 11.334 117.413 10.735 116.428 10.294C115.442 9.85301 114.394 9.62801 113.286 9.62801C112.261 9.62801 111.288 9.827 110.36 10.227H110.357ZM96.7872 25.921C97.5962 25.501 98.3432 24.944 99.0212 24.251L97.1712 22.303C96.7192 22.76 96.2472 23.118 95.7522 23.39C95.2592 23.662 94.7692 23.795 94.2762 23.795C93.6402 23.795 93.0362 23.688 92.4732 23.473C91.9102 23.258 91.4012 22.954 90.9452 22.565C90.4932 22.176 90.1042 21.72 89.7772 21.203C89.4502 20.687 89.2142 20.111 89.0692 19.486H102.224C102.266 19.077 102.287 18.783 102.287 18.61V18.122C102.287 16.955 102.076 15.853 101.656 14.818C101.236 13.778 100.668 12.88 99.9442 12.128C99.2252 11.371 98.3772 10.771 97.4022 10.33C96.4262 9.89 95.3832 9.664 94.2762 9.664C93.1682 9.664 92.1232 9.884 91.1502 10.33C90.1772 10.771 89.3212 11.376 88.5922 12.128C87.8632 12.885 87.2842 13.783 86.8642 14.818C86.4442 15.853 86.2342 16.96 86.2342 18.122C86.2342 19.289 86.4442 20.381 86.8642 21.395C87.2842 22.41 87.8582 23.302 88.5922 24.07C89.3212 24.837 90.1742 25.442 91.1502 25.883C92.1252 26.324 93.1682 26.549 94.2762 26.549C95.1422 26.549 95.9782 26.339 96.7872 25.919V25.921ZM89.0722 16.729C89.2142 16.125 89.4502 15.557 89.7802 15.028C90.1092 14.499 90.4992 14.045 90.9472 13.666C91.3992 13.287 91.9052 12.989 92.4752 12.774C93.0382 12.558 93.6382 12.452 94.2782 12.452C94.9142 12.452 95.5132 12.558 96.0812 12.774C96.6442 12.989 97.1532 13.287 97.6092 13.666C98.0612 14.045 98.4452 14.496 98.7662 15.028C99.0832 15.554 99.3242 16.125 99.4902 16.729H89.0722ZM73.3902 26.16H84.2932V23.403H77.8882L85.2822 9.94901H74.4692V12.706H80.7212L73.3872 26.16H73.3902ZM173.56 46.101C173.56 46.726 173.692 47.315 173.964 47.867C174.237 48.42 174.6 48.897 175.067 49.312C175.534 49.722 176.071 50.043 176.686 50.285C177.301 50.521 177.967 50.643 178.678 50.643V47.885C178.027 47.885 177.474 47.712 177.007 47.367C176.54 47.022 176.31 46.599 176.31 46.101V28.666H173.552V46.096H173.557L173.56 46.101ZM165.193 36.94C165.886 37.233 166.485 37.637 166.991 38.154C167.497 38.67 167.899 39.277 168.19 39.967C168.483 40.659 168.626 41.391 168.626 42.169C168.626 42.947 168.483 43.681 168.19 44.371C167.897 45.063 167.497 45.663 166.991 46.168C166.485 46.674 165.883 47.081 165.193 47.382C164.501 47.686 163.754 47.839 162.955 47.839C162.176 47.839 161.442 47.691 160.752 47.382C160.06 47.079 159.46 46.674 158.954 46.168C158.449 45.663 158.041 45.061 157.74 44.371C157.437 43.678 157.284 42.947 157.284 42.169C157.284 41.391 157.432 40.657 157.74 39.967C158.044 39.274 158.449 38.67 158.954 38.154C159.46 37.637 160.062 37.23 160.752 36.94C161.445 36.647 162.176 36.504 162.955 36.504C163.759 36.504 164.503 36.647 165.193 36.94ZM159.678 34.38C158.664 34.821 157.771 35.43 157.004 36.193C156.236 36.96 155.631 37.858 155.19 38.882C154.749 39.907 154.523 41.004 154.523 42.171C154.523 43.339 154.744 44.436 155.19 45.46C155.631 46.485 156.241 47.382 157.004 48.134C157.771 48.892 158.664 49.491 159.678 49.932C160.692 50.373 161.785 50.598 162.952 50.598C164.055 50.598 165.09 50.409 166.047 50.03C167.009 49.652 167.865 49.128 168.626 48.459V50.272H171.448V42.166C171.448 40.999 171.228 39.902 170.781 38.877C170.335 37.853 169.731 36.955 168.968 36.188C168.2 35.42 167.297 34.815 166.262 34.375C165.227 33.928 164.119 33.708 162.952 33.708C161.785 33.708 160.698 33.939 159.678 34.38ZM151.997 49.929C152.863 49.519 153.652 48.957 154.365 48.243L152.417 46.295C151.94 46.773 151.444 47.136 150.925 47.398C150.406 47.66 149.875 47.787 149.338 47.787C148.559 47.787 147.825 47.634 147.135 47.33C146.445 47.027 145.843 46.622 145.337 46.116C144.829 45.608 144.424 45.009 144.123 44.319C143.822 43.629 143.667 42.895 143.667 42.117C143.667 41.339 143.82 40.605 144.123 39.915C144.427 39.225 144.832 38.618 145.337 38.102C145.846 37.583 146.445 37.178 147.135 36.888C147.825 36.597 148.559 36.452 149.338 36.452C149.88 36.452 150.409 36.584 150.925 36.857C151.442 37.129 151.94 37.487 152.417 37.944L154.365 35.996C153.652 35.282 152.863 34.714 151.997 34.294C151.13 33.874 150.243 33.664 149.338 33.664C148.17 33.664 147.078 33.884 146.064 34.33C145.049 34.777 144.157 35.381 143.389 36.143C142.621 36.911 142.017 37.809 141.576 38.833C141.13 39.858 140.909 40.96 140.909 42.122C140.909 43.289 141.13 44.386 141.576 45.411C142.017 46.435 142.626 47.328 143.389 48.085C144.157 48.842 145.049 49.442 146.064 49.883C147.078 50.323 148.17 50.549 149.338 50.549C150.246 50.544 151.13 50.339 151.997 49.929ZM136.364 50.318H139.153V34.107H136.364V50.318ZM128.099 36.94C128.792 37.233 129.396 37.637 129.912 38.154C130.429 38.67 130.836 39.277 131.126 39.967C131.42 40.659 131.562 41.391 131.562 42.169C131.562 42.947 131.42 43.681 131.126 44.371C130.833 45.063 130.429 45.663 129.912 46.168C129.396 46.674 128.789 47.081 128.099 47.382C127.406 47.686 126.675 47.839 125.896 47.839C125.118 47.839 124.384 47.691 123.694 47.382C123.001 47.079 122.402 46.674 121.896 46.168C121.39 45.663 120.983 45.061 120.682 44.371C120.379 43.678 120.226 42.947 120.226 42.169C120.226 41.391 120.379 40.657 120.682 39.967C120.986 39.274 121.39 38.67 121.896 38.154C122.402 37.637 123.004 37.23 123.694 36.94C124.387 36.647 125.118 36.504 125.896 36.504C126.67 36.504 127.409 36.647 128.099 36.94ZM122.615 34.38C121.6 34.821 120.708 35.43 119.94 36.193C119.172 36.96 118.568 37.858 118.127 38.882C117.681 39.907 117.46 41.004 117.46 42.171C117.46 43.339 117.681 44.436 118.127 45.46C118.568 46.485 119.177 47.382 119.94 48.134C120.708 48.892 121.6 49.491 122.615 49.932C123.629 50.373 124.721 50.598 125.889 50.598C127.056 50.598 128.153 50.378 129.178 49.932C130.203 49.491 131.095 48.887 131.853 48.134C132.61 47.377 133.21 46.485 133.651 45.46C134.092 44.436 134.317 43.339 134.317 42.171V28.624H131.56V35.879C130.802 35.207 129.946 34.681 128.981 34.292C128.016 33.902 126.989 33.708 125.886 33.708C124.724 33.718 123.632 33.939 122.612 34.38H122.615ZM109.89 50.072C110.746 49.652 111.53 49.094 112.243 48.402L110.295 46.454C109.818 46.91 109.322 47.268 108.803 47.54C108.284 47.813 107.768 47.945 107.247 47.945C106.575 47.945 105.944 47.839 105.35 47.623C104.756 47.408 104.217 47.105 103.747 46.716C103.275 46.327 102.86 45.87 102.517 45.354C102.17 44.835 101.923 44.262 101.77 43.637H115.616C115.657 43.227 115.683 42.934 115.683 42.76V42.272C115.683 41.105 115.463 40.003 115.016 38.968C114.57 37.928 113.971 37.031 113.219 36.278C112.461 35.521 111.569 34.922 110.544 34.481C109.519 34.04 108.422 33.814 107.255 33.814C106.087 33.814 104.99 34.035 103.965 34.481C102.94 34.922 102.038 35.526 101.275 36.278C100.507 37.036 99.9032 37.933 99.4622 38.968C99.0152 40.003 98.7952 41.11 98.7952 42.272C98.7952 43.44 99.0152 44.532 99.4622 45.546C99.9032 46.56 100.512 47.452 101.275 48.22C102.043 48.988 102.94 49.592 103.965 50.033C104.99 50.474 106.087 50.7 107.255 50.7C108.157 50.705 109.037 50.489 109.893 50.069L109.89 50.072ZM101.763 40.88C101.916 40.275 102.162 39.707 102.51 39.178C102.852 38.652 103.267 38.195 103.739 37.816C104.217 37.438 104.749 37.139 105.343 36.924C105.937 36.709 106.567 36.603 107.239 36.603C107.911 36.603 108.541 36.709 109.135 36.924C109.729 37.139 110.264 37.438 110.739 37.816C111.216 38.195 111.621 38.646 111.953 39.178C112.285 39.705 112.541 40.275 112.715 40.88H101.76H101.763ZM77.3672 34.266C76.5782 34.613 75.8912 35.075 75.3072 35.658C74.7232 36.242 74.2562 36.929 73.9142 37.718C73.5712 38.506 73.3952 39.342 73.3952 40.229V50.311H76.1532V40.229C76.1532 39.71 76.2512 39.23 76.4462 38.784C76.6402 38.343 76.9082 37.954 77.2402 37.617C77.5722 37.285 77.9662 37.018 78.4232 36.823C78.8792 36.628 79.3642 36.53 79.8832 36.53C80.4022 36.53 80.8822 36.628 81.3282 36.823C81.7692 37.018 82.1632 37.285 82.5112 37.617C82.8532 37.949 83.1262 38.34 83.3202 38.784C83.5152 39.225 83.6142 39.707 83.6142 40.229V50.311H86.3712V40.229C86.3712 39.71 86.4702 39.23 86.6642 38.784C86.8592 38.343 87.1262 37.954 87.4582 37.617C87.7902 37.285 88.1872 37.018 88.6412 36.823C89.0952 36.628 89.5832 36.53 90.1022 36.53C90.6202 36.53 91.1002 36.628 91.5472 36.823C91.9882 37.018 92.3772 37.285 92.7142 37.617C93.0462 37.949 93.3132 38.34 93.5082 38.784C93.7022 39.225 93.8012 39.707 93.8012 40.229V50.311H96.5902V40.229C96.5902 39.342 96.4162 38.506 96.0712 37.718C95.7232 36.929 95.2622 36.242 94.6782 35.658C94.0942 35.075 93.4072 34.608 92.6182 34.266C91.8292 33.923 90.9942 33.747 90.1072 33.747C89.0462 33.747 88.0832 33.972 87.2222 34.429C86.3562 34.885 85.6142 35.5 84.9832 36.278C84.3792 35.5 83.6342 34.885 82.7652 34.429C81.8882 33.972 80.9312 33.747 79.8962 33.747C78.9932 33.747 78.1582 33.921 77.3692 34.266H77.3672Z" fill="white"/>
</svg>
