<svg width="33" height="32" viewBox="0 0 33 32" fill="none" xmlns="http://www.w3.org/2000/svg">
<path d="M22.441 10.3916C21.6736 4.72828 19.7308 0 16.7462 0C13.7625 0 11.8197 4.72746 11.0515 10.3916C5.30104 11.1473 0.5 13.0607 0.5 16C0.5 18.9385 5.30104 20.8519 11.0515 21.6084C11.8188 27.2709 13.7617 32 16.7462 32C19.7299 32 21.6728 27.2717 22.441 21.6084C28.1914 20.8519 32.9925 18.9393 32.9925 16C32.9925 13.0607 28.1906 11.1473 22.441 10.3916ZM10.8644 19.9578C5.35674 19.1743 2.14524 17.3812 2.14524 15.9992C2.14524 14.6171 5.35758 12.8241 10.8644 12.0405C10.7431 13.3464 10.6799 14.6794 10.6799 15.9992C10.6799 17.319 10.7431 18.6536 10.8644 19.9578ZM16.7471 1.61949C18.1504 1.61949 19.971 4.78313 20.7666 10.2065C19.4415 10.087 18.0872 10.0248 16.7471 10.0248C15.4069 10.0248 14.0527 10.087 12.7275 10.2065C13.5231 4.78232 15.3437 1.61949 16.7471 1.61949ZM22.6289 19.9578C22.3578 19.9971 21.2455 20.1249 20.9645 20.1527C20.9371 20.4303 20.8057 21.5249 20.7666 21.7918C19.971 27.216 18.1504 30.3797 16.7471 30.3797C15.3437 30.3797 13.5231 27.216 12.7275 21.7918C12.6884 21.5249 12.5571 20.4294 12.5296 20.1527C12.4016 18.8673 12.3243 17.486 12.3243 15.9992C12.3243 14.5132 12.4016 13.1319 12.5296 11.8448C13.8348 11.7188 15.2373 11.6426 16.7471 11.6426C18.256 11.6426 19.6584 11.7188 20.9645 11.8448C21.2463 11.8719 22.3578 12.0012 22.6289 12.0397C28.1366 12.8233 31.3497 14.6171 31.3497 15.9984C31.3489 17.3796 28.1366 19.1743 22.6289 19.9578Z" fill="#141414"/>
</svg>
