<svg xmlns="http://www.w3.org/2000/svg" xmlns:xlink="http://www.w3.org/1999/xlink" viewBox="0 0 1440 700"><defs><style>.cls-1,.cls-10,.cls-13,.cls-15,.cls-18,.cls-19,.cls-20,.cls-6{fill:none;}.cls-14,.cls-17,.cls-2,.cls-21,.cls-3{fill:#f2f2f2;}.cls-2{opacity:0.1;}.cls-3{opacity:0.3;}.cls-16,.cls-23,.cls-24,.cls-4{fill:#282828;}.cls-23,.cls-24,.cls-4,.cls-6{stroke:#000;}.cls-18,.cls-20,.cls-22,.cls-24,.cls-4,.cls-6{stroke-linecap:round;}.cls-22,.cls-4,.cls-6{stroke-linejoin:round;}.cls-5{fill:#4b4b4c;}.cls-7{clip-path:url(#clip-path);}.cls-22,.cls-8{fill:#141414;}.cls-8{opacity:0.8;}.cls-9{fill:#1e1e1e;}.cls-10,.cls-11,.cls-13,.cls-14,.cls-15,.cls-17,.cls-18,.cls-19,.cls-20,.cls-23,.cls-24{stroke-miterlimit:10;}.cls-10,.cls-11,.cls-14,.cls-15,.cls-18,.cls-19{stroke-width:1.5px;}.cls-10{stroke-dasharray:5 9.99;stroke:url(#New_Gradient_Swatch);}.cls-11{fill:url(#linear-gradient);stroke:url(#New_Gradient_Swatch-2);}.cls-12{fill:#c7edef;}.cls-13,.cls-14,.cls-15,.cls-17,.cls-18,.cls-22{stroke:#f2f2f2;}.cls-19,.cls-20{stroke:#282828;}.cls-20,.cls-22{stroke-width:2px;}</style><clipPath id="clip-path"><path class="cls-1" d="M263.52,347.16c-6.83.83-13.79,1.37-20.53,2.5-4.68.78-9.82,3.18-14.86,2.21-4.35-.84-8.42-4.72-12.25-7.15a171,171,0,0,1-14.54-10.31c-10.79-8.55-20.91-18-30.91-27.61-3.09-2.95-6.31-6.13-7.65-10.1-1.55-4.58-.26-9.17,1.11-13.35.76-2.32,1.65-4.77,3.68-6,2.52-1.46,6-.5,9,.48,34.66,11.07,69.54,22.23,102.64,39.43a6.79,6.79,0,0,1,3.24,2.73,5.5,5.5,0,0,1-.2,4.2,101.18,101.18,0,0,1-6.54,14.93c-1.22,2.27-2.59,4.54-4.7,5.92S266.16,346.84,263.52,347.16Z"/></clipPath><linearGradient id="New_Gradient_Swatch" x1="269.73" y1="501.39" x2="427.27" y2="205.11" gradientUnits="userSpaceOnUse"><stop offset="0" stop-color="#8f86da"/><stop offset="1" stop-color="#c7edef"/></linearGradient><linearGradient id="linear-gradient" x1="392.84" y1="269.36" x2="411.34" y2="234.36" gradientUnits="userSpaceOnUse"><stop offset="0" stop-color="#c7edef" stop-opacity="0"/><stop offset="1" stop-color="#c7edef" stop-opacity="0.2"/></linearGradient><linearGradient id="New_Gradient_Swatch-2" x1="275.13" y1="491.24" x2="421.87" y2="215.26" xlink:href="#New_Gradient_Swatch"/></defs><title>20211021_Temporal</title><g id="rocks_davanti" data-name="rocks davanti"><circle class="cls-2" cx="216.5" cy="165.25" r="2.44"/><circle class="cls-2" cx="115.52" cy="129.83" r="2.44"/><circle class="cls-2" cx="46.68" cy="328.75" r="2.44"/><circle class="cls-3" cx="218.94" cy="208.25" r="2.44"/><circle class="cls-3" cx="150.58" cy="498.25" r="2.44"/><circle class="cls-2" cx="343.75" cy="247.98" r="2.44"/><circle class="cls-2" cx="534.24" cy="165.25" r="2.44"/><circle class="cls-3" cx="542.14" cy="186.25" r="2.44"/><circle class="cls-2" cx="452.75" cy="135.82" r="2.44"/><circle class="cls-3" cx="636.6" cy="474.77" r="2.44"/><circle class="cls-2" cx="536.68" cy="388.98" r="2.44"/><circle class="cls-2" cx="604.37" cy="195.31" r="2.44"/><circle class="cls-2" cx="130.84" cy="489.31" r="2.44"/><circle class="cls-3" cx="160.5" cy="221.11" r="1.14"/><circle class="cls-2" cx="504" cy="197.75" r="1.14"/><circle class="cls-2" cx="531.8" cy="412.25" r="1.14"/><circle class="cls-2" cx="476" cy="126.25" r="1.14"/><circle class="cls-2" cx="540.84" cy="507.61" r="1.14"/><circle class="cls-2" cx="705.86" cy="419.62" r="1.14"/><circle class="cls-2" cx="697.36" cy="186.25" r="1.14"/><circle class="cls-2" cx="839.36" cy="188.69" r="1.14"/><circle class="cls-2" cx="560.85" cy="260.91" r="1.14"/><circle class="cls-2" cx="649.86" cy="240.46" r="1.14"/><circle class="cls-2" cx="423.75" cy="175.39" r="1.14"/><circle class="cls-2" cx="138.44" cy="343.33" r="1.14"/><circle class="cls-2" cx="62.36" cy="544.25" r="1.14"/><circle class="cls-2" cx="34.64" cy="234.03" r="1.14"/><circle class="cls-2" cx="7" cy="162.81" r="1.14"/><circle class="cls-2" cx="139.46" cy="215.76" r="1.14"/><path class="cls-4" d="M263.52,347.16c-6.83.83-13.79,1.37-20.53,2.5-4.68.78-9.82,3.18-14.86,2.21-4.35-.84-8.42-4.72-12.25-7.15a171,171,0,0,1-14.54-10.31c-10.79-8.55-20.91-18-30.91-27.61-3.09-2.95-6.31-6.13-7.65-10.1-1.55-4.58-.26-9.17,1.11-13.35.76-2.32,1.65-4.77,3.68-6,2.52-1.46,6-.5,9,.48,34.66,11.07,69.54,22.23,102.64,39.43a6.79,6.79,0,0,1,3.24,2.73,5.5,5.5,0,0,1-.2,4.2,101.18,101.18,0,0,1-6.54,14.93c-1.22,2.27-2.59,4.54-4.7,5.92S266.16,346.84,263.52,347.16Z"/><path class="cls-4" d="M263.52,347.16c-6.83.83-13.79,1.37-20.53,2.5-4.68.78-9.82,3.18-14.86,2.21-4.35-.84-8.42-4.72-12.25-7.15a171,171,0,0,1-14.54-10.31c-10.79-8.55-20.91-18-30.91-27.61-3.09-2.95-6.31-6.13-7.65-10.1-1.55-4.58-.26-9.17,1.11-13.35.76-2.32,1.65-4.77,3.68-6,2.52-1.46,6-.5,9,.48,34.66,11.07,69.54,22.23,102.64,39.43a6.79,6.79,0,0,1,3.24,2.73,5.5,5.5,0,0,1-.2,4.2,101.18,101.18,0,0,1-6.54,14.93c-1.22,2.27-2.59,4.54-4.7,5.92S266.16,346.84,263.52,347.16Z"/><path class="cls-4" d="M244.08,334.74l-.81-1.48a1.64,1.64,0,0,1-.28-.95.41.41,0,0,1,.69-.25l.56,2.92a.44.44,0,0,0-.06-.31"/><path class="cls-4" d="M260.2,317.39a2.73,2.73,0,0,1,1.92,1.88,6.88,6.88,0,0,1,.21,2.7l-.81,13.72"/><path class="cls-4" d="M266.92,324.65a8.63,8.63,0,0,0-1.15,4.05"/><path class="cls-4" d="M254.69,347.66a11.89,11.89,0,0,0,4.14-4"/><path class="cls-4" d="M218,346.17c-3.06-2.45-6.54-7-9-10.11a43.65,43.65,0,0,0-4-4.54c-.66-.62-1.36-1.19-2-1.85-1-1-1.74-2.32-2.93-3"/><path class="cls-4" d="M196.22,321.88l-.87-.48"/><path class="cls-4" d="M192,319.18l-.28-.23"/><path class="cls-5" d="M242.33,309.32a24.48,24.48,0,0,0,3.73,1.86l8.08,3.45a25.27,25.27,0,0,0,6.25,2,42.46,42.46,0,0,0,6.38,0c4.66-.07,9.25.92,13.8,1.91-12.5-6.74-25.33-11.91-39.39-18-8.47-3.7-17.74-6.28-26.33-9.69a71.2,71.2,0,0,0-8.22-3.06c-5.27-1.38-15.19-5.15-15-4.19,11.19,7.95,27.41,17.65,42.26,23.38-2.15-2.42-5.5-4.9-6.27-8.08,2.31,1.16,4.38,1.32,6.43,2.94C237,304.13,239.22,307.28,242.33,309.32Z"/><path class="cls-6" d="M184.8,280.92c16.68,7.41,32.69,20.39,49.64,26.69.95.35,1.28,1.46,2.11,1.06.34-.17.61-.45,1-.62,1.67-.83,2.89-.06,4.57,1.29,3.69,3,9.22,4.27,13.41,6.12,1.94.85,3.83,2.11,5.82,2.28a11.91,11.91,0,0,0,3.16-.33,31.07,31.07,0,0,1,16.65,1.82"/><path class="cls-4" d="M234.62,302.54a60.38,60.38,0,0,1,6.18,5.39,6.09,6.09,0,0,1,1.51,1.89,5.07,5.07,0,0,1,.14,2.78c-.2,1.43.3,2.73.09,4.17-.06.46-.64,6.71-1.11,6.7-.27,0-2-6.4-2.14-6.68-1.4-4-2.56-6.94-5.69-10.15-.94-1-6.3-7.45-5.94-7.74C228.21,298.46,233.65,301.84,234.62,302.54Z"/><g class="cls-7"><path class="cls-8" d="M193.69,364.28c-2.38-6-1.89-12.7-1.19-19.11s1.6-12.93,2.67-19.36c2-12,4.68-24,9.9-35,2.6-5.47,6-10.82,11.06-14.11s11.55-4.19,17.65-3.7,12,2.22,17.95,3.74c7.42,1.9,15,3.49,22.11,6.21s14,6.67,19,12.54c5.95,7.09,8.62,16.56,8.52,25.82s-2.77,18.32-6.55,26.77a52.68,52.68,0,0,1-6.58,11.39,46.57,46.57,0,0,1-9.81,9,69.39,69.39,0,0,1-58.85,9.71c-3.61-1.07-7.62-3-8.41-6.67"/></g><ellipse class="cls-9" cx="349" cy="567.79" rx="143.07" ry="23.54"/><circle class="cls-10" cx="348.5" cy="353.25" r="167"/><circle class="cls-11" cx="348.5" cy="353.25" r="155.5"/><ellipse class="cls-12" cx="417.05" cy="234.03" rx="5.2" ry="16.45" transform="translate(5.85 478.19) rotate(-60)"/><path class="cls-13" d="M239.75,279.25h218a4,4,0,0,1,4,4v24a0,0,0,0,1,0,0h-226a0,0,0,0,1,0,0v-24A4,4,0,0,1,239.75,279.25Z"/><circle class="cls-14" cx="449.75" cy="288.25" r="3"/><circle class="cls-14" cx="437.75" cy="288.25" r="3"/><circle class="cls-14" cx="425.75" cy="288.25" r="3"/><rect class="cls-15" x="250.75" y="323.25" width="40" height="9" rx="4.5" ry="4.5"/><rect class="cls-15" x="301.75" y="323.25" width="40" height="9" rx="4.5" ry="4.5"/><rect class="cls-15" x="352.75" y="323.25" width="40" height="9" rx="4.5" ry="4.5"/><rect class="cls-14" x="403.75" y="323.25" width="40" height="9" rx="4.5" ry="4.5"/><rect class="cls-16" x="250.75" y="367.25" width="93" height="5" rx="2.5" ry="2.5"/><rect class="cls-16" x="373.75" y="367.25" width="19" height="5" rx="2.5" ry="2.5"/><rect class="cls-16" x="422.75" y="367.25" width="9.03" height="5" rx="2.5" ry="2.5"/><rect class="cls-16" x="250.75" y="387.25" width="93" height="5" rx="2.5" ry="2.5"/><rect class="cls-16" x="373.75" y="387.25" width="19" height="5" rx="2.5" ry="2.5"/><rect class="cls-16" x="422.75" y="387.25" width="9.03" height="5" rx="2.5" ry="2.5"/><rect class="cls-16" x="250.75" y="407.25" width="93" height="5" rx="2.5" ry="2.5"/><rect class="cls-16" x="373.75" y="407.25" width="19" height="5" rx="2.5" ry="2.5"/><rect class="cls-16" x="422.75" y="407.25" width="9.03" height="5" rx="2.5" ry="2.5"/><rect class="cls-17" x="268.75" y="301.25" width="34.93" height="6"/><line class="cls-18" x1="348.21" y1="301.25" x2="313.29" y2="301.25"/><line class="cls-18" x1="392.75" y1="301.25" x2="357.82" y2="301.25"/><line class="cls-19" x1="235.25" y1="356.25" x2="461.25" y2="356.25"/><line class="cls-20" x1="252.25" y1="347.75" x2="292.25" y2="347.75"/><line class="cls-20" x1="375.25" y1="347.75" x2="395.25" y2="347.75"/><line class="cls-20" x1="423.25" y1="347.75" x2="439.25" y2="347.75"/><rect class="cls-13" x="235.75" y="279.25" width="226" height="148" rx="4" ry="4"/><path class="cls-21" d="M255.36,290.35c-.39-2.93-1.38-5.37-2.9-5.37s-2.51,2.44-2.9,5.37c-2.93.39-5.37,1.38-5.37,2.9s2.44,2.51,5.37,2.9c.39,2.92,1.38,5.37,2.9,5.37s2.51-2.45,2.9-5.37c2.92-.39,5.37-1.38,5.37-2.9s-2.45-2.51-5.37-2.9m-5.89,4.94c-2.81-.4-4.44-1.33-4.44-2s1.63-1.64,4.44-2.05a20.1,20.1,0,0,0-.1,2.05,19.76,19.76,0,0,0,.1,2m3-9.47c.71,0,1.64,1.63,2,4.44a19.76,19.76,0,0,0-2-.1,20.1,20.1,0,0,0-2.05.1c.41-2.81,1.33-4.44,2.05-4.44m3,9.47-.85.1c0,.15-.08.71-.1.85-.4,2.8-1.33,4.44-2,4.44s-1.64-1.64-2.05-4.44c0-.14-.08-.7-.1-.85-.06-.66-.1-1.37-.1-2.14s0-1.48.1-2.15c.67-.06,1.38-.1,2.15-.1s1.48,0,2.14.1l.85.1c2.8.41,4.44,1.33,4.44,2.05s-1.64,1.64-4.44,2"/><polygon class="cls-22" points="417.05 448.24 398.21 447.73 384.22 460.35 383.9 410.38 417.05 448.24"/><path class="cls-23" d="M226.92,380.26c-5.85-3.44-10.29-8.76-14-14.44-1-1.59-1.95-2.46-1.86-3.84.15-2.24,2.74-4,4.58-5.28,3.5-2.45,7.7-4.58,11.87-3.71a16,16,0,0,1,6,3.06,65.12,65.12,0,0,1,12.67,12.15c2,2.51,3.86,5.33,4.17,8.52s-1.49,6.79-4.61,7.52a9.54,9.54,0,0,1-3,.07C233.44,383.46,232.59,387.72,226.92,380.26Z"/><path class="cls-24" d="M248.42,382.64c-.41.64-1.61,0-2.24-.46a4.72,4.72,0,0,1-1.35-1.79,32.29,32.29,0,0,0-6.77-8.56c-1.23-1.1-.73-3.12-.49-4.75"/><path class="cls-24" d="M234.7,363.61a3,3,0,0,1,1.37.57"/><path class="cls-24" d="M231.27,360a6.14,6.14,0,0,0,.73.22"/><path class="cls-24" d="M224,375.74c.29,1.37,1.73,3.15,2.9,4.52"/><path class="cls-24" d="M222.13,369.91c0,.17.21.31.32.17"/><path class="cls-23" d="M1095.58,414.54c-5.86-3.44-10.3-8.76-14-14.44-1-1.59-2-2.46-1.86-3.84.16-2.24,2.75-4,4.59-5.28,3.49-2.45,7.69-4.58,11.87-3.71a16,16,0,0,1,6,3.06,65.12,65.12,0,0,1,12.67,12.15c2,2.51,3.87,5.33,4.17,8.52s-1.48,6.79-4.61,7.51a9.24,9.24,0,0,1-3,.08C1102.09,417.74,1101.25,422,1095.58,414.54Z"/><path class="cls-24" d="M1117.07,416.92c-.41.64-1.61,0-2.24-.46a4.72,4.72,0,0,1-1.35-1.79,32.29,32.29,0,0,0-6.77-8.56c-1.23-1.1-.73-3.12-.48-4.75"/><path class="cls-24" d="M1103.36,397.89a3,3,0,0,1,1.36.57"/><path class="cls-24" d="M1099.92,394.28a6.14,6.14,0,0,0,.73.22"/><path class="cls-24" d="M1092.68,410c.28,1.36,1.72,3.15,2.9,4.52"/><path class="cls-24" d="M1090.78,404.19c0,.16.21.3.32.17"/><path class="cls-4" d="M563.32,469.53a6,6,0,0,1-2.41.18,5.83,5.83,0,0,1-2.29-1.24c-3-2.25-6-4.5-9-6.79-4.25-3.3-8.53-6.79-11.2-11.46a5,5,0,0,1-.82-4,5.65,5.65,0,0,1,2-2.32,7.2,7.2,0,0,1,3.69-1.89,7,7,0,0,1,2.48.39c10.78,3,21.77,6.14,31,12.44a17.88,17.88,0,0,1,3.47,2.9,2,2,0,0,1,.53.89,2.23,2.23,0,0,1-.11,1c-.85,3-2,5.93-5.24,6.89C571.5,467.71,567.39,468.64,563.32,469.53Z"/><path class="cls-4" d="M542.14,442.22a26.48,26.48,0,0,1,3.17,1.54l12.53,6.78"/><path class="cls-4" d="M560.78,451.62c5.29,3,12,2.83,17.2,6,.69.42,1.57.89,2.24.44"/><path class="cls-23" d="M170.18,473.72a16.83,16.83,0,0,1-3.57-2.58,2.7,2.7,0,0,1-.77-1.05,2.48,2.48,0,0,1,.48-2,7,7,0,0,1,1.75-1.81.7.7,0,0,1,.44-.19.75.75,0,0,1,.49.31,23.62,23.62,0,0,1,4,5.73,3.48,3.48,0,0,1,.44,1.39,1.28,1.28,0,0,1-.67,1.21c-.59.25-1.29-.26-1.76-.49Z"/><path class="cls-23" d="M20.32,363.09a16.83,16.83,0,0,1-3.57-2.58,2.63,2.63,0,0,1-.77-1.05,2.48,2.48,0,0,1,.48-2,7,7,0,0,1,1.75-1.81.7.7,0,0,1,.44-.19.75.75,0,0,1,.49.31,23.62,23.62,0,0,1,4,5.73,3.33,3.33,0,0,1,.44,1.39,1.28,1.28,0,0,1-.67,1.21c-.59.25-1.29-.26-1.76-.49Z"/><path class="cls-23" d="M596.16,380.69a16.83,16.83,0,0,1-3.57-2.58,2.8,2.8,0,0,1-.77-1.05,2.45,2.45,0,0,1,.49-2,6.81,6.81,0,0,1,1.74-1.81.7.7,0,0,1,.44-.19.75.75,0,0,1,.49.31,23.62,23.62,0,0,1,4,5.73,3.33,3.33,0,0,1,.44,1.39,1.28,1.28,0,0,1-.67,1.21c-.58.25-1.29-.26-1.76-.49Z"/><path class="cls-23" d="M646.24,390.74a24.94,24.94,0,0,1,6.63-1.68,4.05,4.05,0,0,1,2,.13,3.75,3.75,0,0,1,1.92,2.59,10.89,10.89,0,0,1,.43,3.89,1.12,1.12,0,0,1-.23.71,1.18,1.18,0,0,1-.85.28,36.61,36.61,0,0,1-10.79-1,5.36,5.36,0,0,1-2.09-.86,2,2,0,0,1-.77-2c.28-.95,1.59-1.27,2.34-1.61Z"/><path class="cls-23" d="M1200.74,428.87a25.35,25.35,0,0,1,6.63-1.69,4.29,4.29,0,0,1,2,.13,3.79,3.79,0,0,1,1.92,2.6,10.84,10.84,0,0,1,.43,3.88,1.13,1.13,0,0,1-.23.72,1.18,1.18,0,0,1-.85.28,37.3,37.3,0,0,1-10.79-1,5.23,5.23,0,0,1-2.09-.87,2,2,0,0,1-.77-2c.28-.94,1.59-1.27,2.34-1.6Z"/><path class="cls-23" d="M68.73,404.14a25.35,25.35,0,0,1,6.63-1.69,4.17,4.17,0,0,1,2,.13,3.82,3.82,0,0,1,1.92,2.59,10.89,10.89,0,0,1,.43,3.89,1.21,1.21,0,0,1-.23.72,1.18,1.18,0,0,1-.85.27,36.94,36.94,0,0,1-10.79-1,5.37,5.37,0,0,1-2.09-.87,2,2,0,0,1-.77-2c.28-.95,1.59-1.27,2.34-1.61Z"/><path class="cls-4" d="M129.29,260.91a47,47,0,0,1-8-1.62,8.35,8.35,0,0,1-4.3-2.39c-1.23-1.52-1.36-3.63-1.43-5.59a.92.92,0,0,1,.22-.76.85.85,0,0,1,.59-.13,15.4,15.4,0,0,1,4.12.43,14.37,14.37,0,0,1,3.81,2c3.18,2.08,6.29,4.25,9.39,6.43a5,5,0,0,1-3.34,1.46,15,15,0,0,1-3.71-.32"/><path class="cls-4" d="M115.65,251.3a3.51,3.51,0,0,1,2.49,1.31l3.63,3.51"/><path class="cls-4" d="M124.5,257.68l.49.26"/><path class="cls-4" d="M127.4,258.77a7,7,0,0,1,1.75,1.55"/><path class="cls-4" d="M24.43,400.44a45.71,45.71,0,0,1-8-1.62,8.4,8.4,0,0,1-4.31-2.38c-1.23-1.53-1.35-3.64-1.42-5.59a.92.92,0,0,1,.21-.77.92.92,0,0,1,.59-.13,15.35,15.35,0,0,1,4.12.43,15,15,0,0,1,3.81,2c3.18,2.08,6.29,4.26,9.4,6.43a5.05,5.05,0,0,1-3.35,1.46,15.47,15.47,0,0,1-3.71-.31"/><path class="cls-4" d="M10.79,390.83a3.5,3.5,0,0,1,2.49,1.32l3.63,3.51"/><path class="cls-4" d="M19.64,397.22l.5.25"/><path class="cls-4" d="M22.54,398.31a6.78,6.78,0,0,1,1.75,1.54"/><path class="cls-4" d="M572.05,416.12a46,46,0,0,1-5.53-6.05,8.35,8.35,0,0,1-2.07-4.46c-.1-2,1-3.74,2.15-5.36.15-.22.35-.48.62-.49a.94.94,0,0,1,.56.24,15.93,15.93,0,0,1,3.07,2.78,15,15,0,0,1,1.91,3.84c1.34,3.56,2.57,7.15,3.79,10.74a5.08,5.08,0,0,1-3.56-.79,15.59,15.59,0,0,1-2.81-2.45"/><path class="cls-4" d="M566.71,400.31a3.54,3.54,0,0,1,1.23,2.53l.86,5"/><path class="cls-4" d="M570.08,410.69l.25.5"/><path class="cls-4" d="M571.78,413.28a6.67,6.67,0,0,1,.5,2.28"/><path class="cls-4" d="M104.06,448.1c-5.79-3.89-11.41-8.47-14.61-14.66-2.36-4.57-3.26-9.74-3.9-14.85-1.13-9.09-1.51-18.26-1.89-27.41a6.32,6.32,0,0,1,.58-3.64c.82-1.3,2.44-1.8,3.92-2.2a20.29,20.29,0,0,1,7-1c4.08.37,7.5,3.14,10.53,5.9,16.69,15.2,30.12,33.6,42.9,52.21a7,7,0,0,1,1.38,7.88L147.81,457a12.54,12.54,0,0,1-1.83,4c-4.59,5.8-17.29,1.8-22.79-.41C116.45,457.88,110.06,452.14,104.06,448.1Z"/><path class="cls-4" d="M131.85,424.13a10.93,10.93,0,0,0,.27,5l1.94,9.11a20.17,20.17,0,0,0,2.34,6.85c1,1.57,2.47,2.92,2.93,4.73"/><path class="cls-4" d="M141.06,451.66a6.78,6.78,0,0,1,.3,3.13"/><path class="cls-4" d="M142.63,454.15a5.06,5.06,0,0,1,.81,4.35,5.08,5.08,0,0,0-.15,2.08,1.38,1.38,0,0,0,1.5,1.14"/><path class="cls-4" d="M84.25,387.64A11,11,0,0,1,95.43,390"/><path class="cls-4" d="M96.91,390.73a20.1,20.1,0,0,1,2.7,2.43"/><path class="cls-4" d="M102.26,394.39l.5.75"/><path class="cls-4" d="M104.51,396.27a1.5,1.5,0,0,0,.36.88"/><path class="cls-4" d="M92.68,438.3c5.7,5.85,17.07,5,23.12,10.48"/><path class="cls-4" d="M117.88,449.89a24.79,24.79,0,0,0,3.75,2.13"/><path class="cls-4" d="M99.48,444.8c7.15,3.23,17.52,9.84,25.11,10.81"/><path class="cls-4" d="M81.4,310.08c1.68-4,4.51-9.2,8.36-11.22,1.84-1,8,1.68,11.78,3.43,2.13,1,4.89,2.07,6.39,3.86,1.26,1.51,1.35,3.4,1.85,5.3a24.52,24.52,0,0,1,1.17,7.64c-.21,2.74-1.64,3.46-4,4.69-3.14,1.66-6.89,3.31-10.42,2C93.19,324.45,86,319.4,83,317.44,79.15,314.9,79.15,315.48,81.4,310.08Z"/><path class="cls-4" d="M89.05,299.47a7.36,7.36,0,0,1,5,1,11.64,11.64,0,0,1,3.17,2.14"/><path class="cls-4" d="M95.51,303.35a38.51,38.51,0,0,1,4.73,3.4,4.83,4.83,0,0,0,1.22.84"/><path class="cls-4" d="M99.13,309.41a7.52,7.52,0,0,1,2.05,1.53"/><path class="cls-4" d="M101.9,313.64a.28.28,0,0,0,.2.18"/><path class="cls-4" d="M98.27,326.11l.49-1.4c.28-.81.56-1.62.8-2.44a4.44,4.44,0,0,0,.22-1.87,4.6,4.6,0,0,0-.73-1.63c-.35-.58-.71-1.15-1.07-1.71a3.17,3.17,0,0,0-.65-.8,2.94,2.94,0,0,0-1-.48,14.79,14.79,0,0,0-2.53-.53c-.85-.1-1.37,0-2.05-.65a9.1,9.1,0,0,1-2.49-4.25"/><path class="cls-4" d="M88.35,308.11l-.34-.29"/><path class="cls-4" d="M25,445.82a13.79,13.79,0,0,1-4.19-3.88,9,9,0,0,1-.42-7.55A12.41,12.41,0,0,1,23.2,430a2.84,2.84,0,0,1,1-.75,3,3,0,0,1,1.16-.13c4.42.11,8.48,2.27,12.6,3.88a34.08,34.08,0,0,1,4.51,1.95A14.05,14.05,0,0,1,46,438.27a31.85,31.85,0,0,1,3.36,4.86c.41.68,1.26,4.7,1.94,5.11a13.8,13.8,0,0,0,3.81,1.28c1.74.5,2.76,2.25,3.5,3.89a4.08,4.08,0,0,1,.49,2.56,4.21,4.21,0,0,1-2,2.21c-2.7,1.76-5.62,3.34-8.9,2.31-2.79-.88-5.11-3.07-7.65-4.47A181.13,181.13,0,0,1,25,445.82Z"/><path class="cls-4" d="M41.78,444.77a9.85,9.85,0,0,0,4.9,4.85"/><path class="cls-4" d="M47.87,448.24a6.39,6.39,0,0,0,1.83,1"/><path class="cls-4" d="M37.87,438.9l.8.9-.63-.73"/><path class="cls-4" d="M424.23,476.53A8,8,0,0,1,420,475c-1.08-.69-2.42-1.27-2.87-2.59a2.35,2.35,0,0,1,.56-2.13,7.25,7.25,0,0,1,1.83-1.71,2.13,2.13,0,0,1,1.57-.44,2.06,2.06,0,0,1,.88.51,8.21,8.21,0,0,1,2.74,7.48.54.54,0,0,1-.11.27A.49.49,0,0,1,424.23,476.53Z"/><path class="cls-4" d="M644.68,435.18a8,8,0,0,1-4.22-1.5c-1.07-.68-2.42-1.27-2.87-2.59a2.37,2.37,0,0,1,.56-2.13,7.31,7.31,0,0,1,1.84-1.71,2.08,2.08,0,0,1,1.56-.43,2,2,0,0,1,.88.5,8.21,8.21,0,0,1,2.74,7.48.57.57,0,0,1-.11.28A.53.53,0,0,1,644.68,435.18Z"/><path class="cls-4" d="M676.49,381.58a8,8,0,0,1-4.22-1.5c-1.07-.69-2.42-1.27-2.87-2.59a2.37,2.37,0,0,1,.56-2.13,7.31,7.31,0,0,1,1.84-1.71,2.08,2.08,0,0,1,1.56-.43,2,2,0,0,1,.88.5A8.21,8.21,0,0,1,677,381.2a.57.57,0,0,1-.11.28A.53.53,0,0,1,676.49,381.58Z"/><path class="cls-4" d="M1350.56,299.49a8,8,0,0,1-4.23-1.5c-1.07-.69-2.42-1.27-2.87-2.59a2.37,2.37,0,0,1,.56-2.13,7.31,7.31,0,0,1,1.84-1.71,2.1,2.1,0,0,1,1.56-.43,2,2,0,0,1,.88.5,8.18,8.18,0,0,1,2.74,7.48.57.57,0,0,1-.11.28A.52.52,0,0,1,1350.56,299.49Z"/><path class="cls-4" d="M550.9,321a8,8,0,0,1,2.34-1.61c2.16-.92,5.14-.28,7.32.26,13.17,3.24,26.15,9,35.32,19a9.91,9.91,0,0,1,2.47,3.84c.92,3.25-1.21,7-.16,9.47-1.58.33-1.05,2.84-2.28,4.12-.6.63-1.53.85-2.22,1.39-1,.8-1.33,2.17-2.08,3.21-1.17,1.63-3.23,2.31-5.16,2.9l-20.83,6.36a5.68,5.68,0,0,1-2.6.37c-1.29-.24-2.22-1.31-3.15-2.21-3.27-3.19-7.69-5.05-10.8-8.4-3.9-4.18-5.32-10.22-8-14.89-.32-2.14-2-4.39-2-6.84a9.4,9.4,0,0,1,1.84-4.8,58.05,58.05,0,0,1,7.54-9.51C549.21,322.8,550,321.82,550.9,321Z"/><path class="cls-4" d="M586,346.44a22.57,22.57,0,0,1,5.37,4.9,14.23,14.23,0,0,0,1.79,2.07c.88.74,2,1.26,2.51,2.31l-.25-.35"/><path class="cls-4" d="M583.81,344.88a1.25,1.25,0,0,0-1.11-.52"/><path class="cls-4" d="M579.56,341.86a1.27,1.27,0,0,1-.88.05"/><path class="cls-4" d="M539.42,338c.13,1.84,1.37,3.38,2.56,4.78,3.66,4.33,7.65,8.87,13.09,10.43"/><path class="cls-4" d="M556.82,352.37a43.66,43.66,0,0,0,5.61,2.78"/><path class="cls-4" d="M564.19,354.14l2,.26"/><path class="cls-4" d="M555.84,360.7c1.95,2.56,4.8,4.27,7.57,5.92"/><path class="cls-4" d="M557.65,359.52a22.46,22.46,0,0,0,4.17,3.49"/><path class="cls-4" d="M560,358.8l1.49.66"/><path class="cls-4" d="M617.63,356.23c-6.83-.82-13.72-2-20.53-2.47-4.74-.36-10.3.74-15-1.4-4-1.86-7-6.6-10.2-9.87A173,173,0,0,1,560.29,329c-8.44-10.88-16-22.51-23.43-34.19-2.29-3.6-4.66-7.46-5-11.64-.41-4.82,1.94-9,4.26-12.69,1.29-2.08,2.75-4.25,5-4.9,2.8-.82,5.9.93,8.66,2.62,31,19,62.21,38.18,90.25,62.79a6.74,6.74,0,0,1,2.49,3.43,5.45,5.45,0,0,1-1.2,4,100.21,100.21,0,0,1-9.91,12.94c-1.73,1.91-3.59,3.79-6,4.63S620.27,356.55,617.63,356.23Z"/><path class="cls-4" d="M617.63,356.23c-6.83-.82-13.72-2-20.53-2.47-4.74-.36-10.3.74-15-1.4-4-1.86-7-6.6-10.2-9.87A173,173,0,0,1,560.29,329c-8.44-10.88-16-22.51-23.43-34.19-2.29-3.6-4.66-7.46-5-11.64-.41-4.82,1.94-9,4.26-12.69,1.29-2.08,2.75-4.25,5-4.9,2.8-.82,5.9.93,8.66,2.62,31,19,62.21,38.18,90.25,62.79a6.74,6.74,0,0,1,2.49,3.43,5.45,5.45,0,0,1-1.2,4,100.21,100.21,0,0,1-9.91,12.94c-1.73,1.91-3.59,3.79-6,4.63S620.27,356.55,617.63,356.23Z"/><path class="cls-4" d="M601.71,339.53l-.42-1.63a1.51,1.51,0,0,1,0-1,.41.41,0,0,1,.73-.08l-.16,3a.37.37,0,0,0,0-.31"/><path class="cls-4" d="M621.51,326.53a2.74,2.74,0,0,1,1.42,2.29,7,7,0,0,1-.45,2.66l-4.06,13.14"/><path class="cls-4" d="M626.3,335.19a8.52,8.52,0,0,0-2.08,3.66"/><path class="cls-4" d="M608.93,354.61a11.78,11.78,0,0,0,5-2.92"/><path class="cls-4" d="M573.66,344.41c-2.39-3.11-4.67-8.4-6.36-12a46,46,0,0,0-2.84-5.38c-.5-.75-1-1.47-1.47-2.26-.69-1.24-1.14-2.67-2.14-3.63"/><path class="cls-4" d="M558.31,315.61l-.73-.66"/><path class="cls-4" d="M554.85,312l-.22-.3"/><path class="cls-5" d="M606.09,314.43a22.74,22.74,0,0,0,3.18,2.69l7,5.28a25.06,25.06,0,0,0,5.58,3.48,43.38,43.38,0,0,0,6.19,1.53c4.54,1,8.77,3.1,13,5.15-10.53-9.53-21.76-17.61-34-26.94-7.34-5.61-15.72-10.33-23.25-15.68a70.71,70.71,0,0,0-7.25-4.94c-4.79-2.6-13.53-8.63-13.53-7.64,9,10.39,22.4,23.69,35.45,32.79-1.5-2.86-4.16-6.07-4.15-9.34,2,1.68,3.94,2.32,5.54,4.39C602.15,308.12,603.55,311.7,606.09,314.43Z"/><path class="cls-6" d="M557,273.11c14.43,11.19,26.87,27.61,41.83,37.77.84.57.9,1.73,1.79,1.54.38-.08.71-.3,1.09-.38,1.82-.4,2.82.64,4.13,2.34,2.88,3.75,7.93,6.35,11.56,9.15,1.68,1.29,3.21,3,5.11,3.61a12,12,0,0,0,3.14.43,31,31,0,0,1,15.74,5.75"/><path class="cls-4" d="M600.22,306a61.1,61.1,0,0,1,4.71,6.71,6,6,0,0,1,1,2.2,5.11,5.11,0,0,1-.53,2.73c-.54,1.34-.37,2.73-.91,4.07-.17.44-2.23,6.37-2.68,6.25-.26-.08-.45-6.71-.48-7-.4-4.23-.83-7.35-3.1-11.22-.69-1.17-4.34-8.74-3.92-8.93C595,300.52,599.44,305.09,600.22,306Z"/><path class="cls-4" d="M615.87,428.08a40.05,40.05,0,0,0-6.34-4.73c-2.26-1.36-4.31-2.85-6.46-4.42-1.2-.87-2.28-1.09-2.74-2.69-.62-2.18.94-4.33,2.43-6,2.85-3.24,6.18-6.58,10.46-7.09,2.73-.32,5.44.58,8,1.55a15.82,15.82,0,0,1,6,3.41c3.07,3.21,3.09,8.2,2.62,12.61q-.39,3.66-1.06,7.27a3.35,3.35,0,0,1-.83,2,3.43,3.43,0,0,1-1.86.69c-2.6.41-5.43.78-7.73-.5A14.12,14.12,0,0,1,615.87,428.08Z"/><path class="cls-4" d="M614.21,403.17a8.24,8.24,0,0,1,4.08,2.78,7.38,7.38,0,0,1,1.82,3.33c.3,1.58-.17,3.37.7,4.74"/><path class="cls-4" d="M621,417.29a6.19,6.19,0,0,0,1,1.83"/><path class="cls-4" d="M623.13,421.36a.93.93,0,0,0,.74.43"/><path class="cls-4" d="M627.62,422.39a1.75,1.75,0,0,0,1.66-1.36"/><path class="cls-4" d="M612.28,422a11.68,11.68,0,0,0,2.58,2.67"/><path class="cls-4" d="M613,419.37a.58.58,0,0,0,.4.51"/><path class="cls-4" d="M130.24,391.94a25,25,0,0,0-2-4.79c-.81-1.53-1.45-3.06-2.14-4.66-.38-.9-.91-1.39-.63-2.44.39-1.44,2-2.12,3.4-2.57,2.69-.86,5.69-1.62,8.27-.46a11.35,11.35,0,0,1,4,3.58,10.18,10.18,0,0,1,2.21,3.93c.65,2.84-1,5.65-2.77,8-1,1.28-2,2.53-3.05,3.73a2.27,2.27,0,0,1-1.12.82,2.3,2.3,0,0,1-1.28-.24c-1.6-.65-3.32-1.39-4.18-2.89A9.54,9.54,0,0,1,130.24,391.94Z"/><path class="cls-4" d="M137.71,377.38a5.48,5.48,0,0,1,1.36,2.94,4.85,4.85,0,0,1-.11,2.48c-.36,1-1.23,1.85-1.2,2.9"/><path class="cls-4" d="M136.78,387.62a4.15,4.15,0,0,0-.05,1.36"/><path class="cls-4" d="M136.59,390.61a.62.62,0,0,0,.27.5"/><path class="cls-4" d="M138.77,392.71a1.14,1.14,0,0,0,1.39-.21"/><path class="cls-4" d="M130.29,387.29a7.72,7.72,0,0,0,.55,2.37"/><path class="cls-4" d="M131.55,386.07a.38.38,0,0,0,0,.42"/><path class="cls-4" d="M715.71,377.54A3.32,3.32,0,0,1,719,379c1.87,2.06,3.74,4.12,5.58,6.21,2.63,3,5.27,6.15,6.55,9.93a3.75,3.75,0,0,1,0,3,4.25,4.25,0,0,1-1.79,1.41,4,4,0,0,1-4.7.23c-7.44-3.72-15-7.53-20.88-13.43a13.54,13.54,0,0,1-2.13-2.59,1.65,1.65,0,0,1-.26-.73,1.74,1.74,0,0,1,.23-.73c1-2.1,2.3-4,4.78-4.29C709.49,377.72,712.62,377.62,715.71,377.54Z"/><path class="cls-4" d="M727.33,400.43a20.12,20.12,0,0,1-2.1-1.57l-8.19-6.7"/><path class="cls-4" d="M715.05,391c-3.43-2.95-8.35-3.75-11.7-6.79-.45-.4-1-.87-1.57-.64"/><path class="cls-4" d="M680.38,272.55a25.81,25.81,0,0,0-4-3.29c-1.43-1-2.73-2-4.09-3.09-.76-.61-1.46-.78-1.71-1.85-.35-1.44.74-2.8,1.77-3.87,2-2,4.24-4.12,7.06-4.33a11.49,11.49,0,0,1,5.2,1.26,10.3,10.3,0,0,1,3.82,2.42c1.91,2.19,1.78,5.46,1.33,8.33-.24,1.59-.55,3.17-.91,4.73a1.7,1.7,0,0,1-1.84,1.65c-1.72.19-3.58.35-5-.57A9,9,0,0,1,680.38,272.55Z"/><path class="cls-4" d="M680.05,256.19a5.4,5.4,0,0,1,2.59,1.94,4.8,4.8,0,0,1,1.08,2.23c.16,1.05-.2,2.21.32,3.13"/><path class="cls-4" d="M684.09,265.64a4,4,0,0,0,.6,1.22"/><path class="cls-4" d="M685.34,268.37a.61.61,0,0,0,.47.3"/><path class="cls-4" d="M688.25,269.18a1.15,1.15,0,0,0,1.12-.84"/><path class="cls-4" d="M678.22,268.43a7.37,7.37,0,0,0,1.61,1.82"/><path class="cls-4" d="M678.75,266.75a.38.38,0,0,0,.24.35"/><path class="cls-4" d="M1166.67,403.88a25.81,25.81,0,0,0-4-3.29c-1.43-1-2.73-2-4.09-3.09-.76-.61-1.46-.79-1.72-1.85-.34-1.44.75-2.8,1.78-3.87,2-2,4.24-4.13,7.06-4.33a11.36,11.36,0,0,1,5.2,1.26,10.17,10.17,0,0,1,3.82,2.42c1.91,2.19,1.77,5.46,1.33,8.33-.24,1.59-.55,3.17-.91,4.73a2.23,2.23,0,0,1-.6,1.25,2.15,2.15,0,0,1-1.24.39c-1.72.19-3.58.35-5-.56A9.42,9.42,0,0,1,1166.67,403.88Z"/><path class="cls-4" d="M1166.34,387.52a5.4,5.4,0,0,1,2.59,1.94,4.75,4.75,0,0,1,1.08,2.23c.16,1.05-.2,2.21.32,3.13"/><path class="cls-4" d="M1170.38,397a4,4,0,0,0,.6,1.23"/><path class="cls-4" d="M1171.63,399.7a.61.61,0,0,0,.47.3"/><path class="cls-4" d="M1174.54,400.51a1.15,1.15,0,0,0,1.12-.84"/><path class="cls-4" d="M1164.51,399.76a7.37,7.37,0,0,0,1.61,1.82"/><path class="cls-4" d="M1165,398.08a.38.38,0,0,0,.24.35"/><path class="cls-4" d="M521.82,453c-.74,1-2.15.06-3-.15s-1.86-.18-2.63-1a3.15,3.15,0,0,1-.78-1.75,11.62,11.62,0,0,1-.17-3.76,2.63,2.63,0,0,1,4.58-1.4,5.8,5.8,0,0,1,1.3,2.09,12.72,12.72,0,0,1,.94,4.87A1.79,1.79,0,0,1,521.82,453Z"/><path class="cls-4" d="M517.82,444.18l.49,2.92a12.39,12.39,0,0,0,.49,2.17,3,3,0,0,0,1.56,1.89,1.24,1.24,0,0,0,.76,0,.7.7,0,0,0,.5-.55"/><path class="cls-4" d="M1288,407.41c-.74,1-2.15.06-3-.15s-1.86-.18-2.63-1a3.11,3.11,0,0,1-.77-1.74,11.42,11.42,0,0,1-.18-3.77,2.63,2.63,0,0,1,4.58-1.4,5.8,5.8,0,0,1,1.3,2.09,12.92,12.92,0,0,1,1,4.87A1.87,1.87,0,0,1,1288,407.41Z"/><path class="cls-4" d="M1284,398.62l.49,2.92a13.36,13.36,0,0,0,.49,2.17,3,3,0,0,0,1.56,1.89,1.17,1.17,0,0,0,.76,0,.7.7,0,0,0,.5-.55"/><path class="cls-4" d="M1322.59,320.14c.65,1.05-.74,2-1.25,2.72s-.86,1.66-1.88,2.08a3.08,3.08,0,0,1-1.9.08,11.48,11.48,0,0,1-3.56-1.23,2.64,2.64,0,0,1,.4-4.78,5.84,5.84,0,0,1,2.42-.43,12.9,12.9,0,0,1,4.87.93A1.73,1.73,0,0,1,1322.59,320.14Z"/><path class="cls-4" d="M1312.94,320.59l2.9.63a15,15,0,0,0,2.2.35,3,3,0,0,0,2.33-.75,1.24,1.24,0,0,0,.33-.69.71.71,0,0,0-.33-.67"/><path class="cls-4" d="M680,330.47c-.74,1-2.15,0-3-.15s-1.86-.18-2.63-1a3.08,3.08,0,0,1-.77-1.74,11.35,11.35,0,0,1-.18-3.76,2.63,2.63,0,0,1,4.58-1.4,5.8,5.8,0,0,1,1.3,2.09,12.92,12.92,0,0,1,.95,4.87A1.87,1.87,0,0,1,680,330.47Z"/><path class="cls-4" d="M676,321.68l.49,2.92a13.36,13.36,0,0,0,.49,2.17,3,3,0,0,0,1.56,1.89,1.24,1.24,0,0,0,.76,0,.7.7,0,0,0,.5-.55"/><path class="cls-4" d="M1299.54,338.57c-1.47,2-4.28.12-6-.3-1.94-.47-3.7-.36-5.24-1.94a6.14,6.14,0,0,1-1.56-3.48c-.31-2.19-.87-5.38-.36-7.53a5.28,5.28,0,0,1,9.18-2.8,11.86,11.86,0,0,1,2.59,4.17,25.87,25.87,0,0,1,1.89,9.75A3.47,3.47,0,0,1,1299.54,338.57Z"/><path class="cls-4" d="M1291.54,321l1,5.85a25.6,25.6,0,0,0,1,4.33,5.84,5.84,0,0,0,3.12,3.78,2.37,2.37,0,0,0,1.53.1,1.41,1.41,0,0,0,1-1.09"/><path class="cls-4" d="M53.72,276.25c-6.29-2.17-12.58-4.34-18.68-7a10.93,10.93,0,0,1-4.25-2.7c-1.71-2-1.78-5-1.59-7.63a62,62,0,0,1,2.66-14.09,3.74,3.74,0,0,1,1.43-2.27,3.59,3.59,0,0,1,1.9-.31,28.38,28.38,0,0,1,5.58.76,24.47,24.47,0,0,1,8.38,3.63c3.74,2.58,6.54,6.28,9.28,9.91l12.84,17c.75,1,1.51,2.37.79,3.37a2.51,2.51,0,0,1-.88.7,14,14,0,0,1-9.33,1.63c-4.62-.81-8.6-3.89-13.22-4.73"/><path class="cls-6" d="M33.1,242.71c1.86,2.53,2,5.87,2.33,9s1.11,6.53,3.68,8.32"/><path class="cls-6" d="M50,251.42a34.3,34.3,0,0,1,10,8.37"/><path class="cls-6" d="M46.92,249c.32.37.63.74.94,1.12.16.13.16.1,0-.09"/><path class="cls-6" d="M49.08,270.88a125.15,125.15,0,0,0,11.21,6.25,3.57,3.57,0,0,0,2.93.48c.47-.21.91-.64,1.42-.54a4.62,4.62,0,0,1,.62.23,2.06,2.06,0,0,0,.89,0c1.36-.22,2.72-.5,4.06-.84.41-.1.89-.26,1-.67a1.3,1.3,0,0,0,0-.59l-.14-1.69"/><path class="cls-4" d="M714.51,395a5.48,5.48,0,0,1,.29,1.91c-.09,1.6-1.38,3.23-2.36,4.4-5.93,7.07-13.34,13.27-22.2,15.87a6.63,6.63,0,0,1-3.08.36c-2.26-.41-3.89-2.83-5.74-2.94.27-1.07-1.42-1.5-1.83-2.62a13.27,13.27,0,0,1-.19-1.78c-.18-.85-.92-1.46-1.33-2.23a6.4,6.4,0,0,1-.22-4l2.36-14.64a3.77,3.77,0,0,1,.56-1.7,4.61,4.61,0,0,1,2.29-1.26c2.93-1,5.39-3.18,8.37-4.08,3.72-1.12,7.84-.18,11.5-.43,1.41.45,3.3.07,4.79.82a6.47,6.47,0,0,1,2.38,2.56,40.81,40.81,0,0,1,3.55,7.46C713.91,393.44,714.27,394.21,714.51,395Z"/><path class="cls-4" d="M688.42,408.83a15.23,15.23,0,0,1-4.6,1.81,9.19,9.19,0,0,0-1.8.48,5.5,5.5,0,0,1-2.16.84l.28-.06"/><path class="cls-4" d="M690,407.94a.86.86,0,0,0,.66-.52"/><path class="cls-4" d="M693.16,406.25a.89.89,0,0,1,.24-.55"/><path class="cls-4" d="M707.55,382.89a5.92,5.92,0,0,0-3.69.13c-3.74.93-7.71,2-10.3,4.87"/><path class="cls-4" d="M693.56,389.21a31.21,31.21,0,0,0-3.38,2.59"/><path class="cls-4" d="M690.27,393.18l-.76,1.14"/><path class="cls-4" d="M688.77,386.11a17.39,17.39,0,0,0-5.89,2.85"/><path class="cls-4" d="M689,387.57a15.56,15.56,0,0,0-3.39,1.5"/><path class="cls-4" d="M688.68,389.22l-.85.71"/><path class="cls-4" d="M443,471a5.37,5.37,0,0,1-.26-1.05c-.25-1.7.24-3.67-.85-5a6.46,6.46,0,0,0-1.45-1.14c-2.31-1.6-3.84-4.07-5.31-6.47a2.72,2.72,0,0,1-.57-1.64,2.65,2.65,0,0,1,.87-1.45c2.89-3,7.2-7,11.18-8.42,2-.72,5,0,7.09.21a68.33,68.33,0,0,1,7.24,1.21c12.49,2.76,22.76,9.58,34.27,14.44a76.86,76.86,0,0,1,30.87,23.78,36.5,36.5,0,0,1,4.85,7.87c1.08,2.55.43,5.54-.76,8a3.51,3.51,0,0,1-.88,1.23,3.63,3.63,0,0,1-1.66.67c-3.84.76-7.79-.08-11.66-.72s-8-1-11.57.51c-2.63,1.13-4.52,1-7.34,1a116.84,116.84,0,0,1-11.68-.61c-3.56-.44-6.51-2.17-9.93-2.13-3.63.05-5.48-3-7.73-5.26-2.67-2.7-5.74-5.07-8.57-7.6-3.08-2.75-6.08-5.58-9-8.46-2.48-2.44-5-4.31-6.6-7.56A10.47,10.47,0,0,1,443,471Z"/><path class="cls-6" d="M446.83,445.61a188.1,188.1,0,0,1,17.34,16.05c2.18,2.29,4.45,4.72,7.46,5.65,2.08.64,4.32.49,6.48.76s4.46,1.16,5.45,3.09q7.17,1,14.29,2.32a21,21,0,0,1-5.82,3.36,28.42,28.42,0,0,0-4.81,1.74c-1.48.85-2.73,2.45-2.47,4.14,2.1-.16,4.15.62,6.19,1.17a57.62,57.62,0,0,0,8.26,1.37,27.47,27.47,0,0,1,6.22,1.07l7.21,2.42"/><path class="cls-6" d="M485.28,482.51,475.2,496c-.59.78-1.34,1.65-2.32,1.6a4.68,4.68,0,0,1-.82,2.43"/><path class="cls-6" d="M484,471.15c-4,5-4.75,11.9-8,17.42"/><path class="cls-6" d="M475,490.42a1,1,0,0,1-.3.69"/><path class="cls-6" d="M470.23,467.1q-1.86,5.36-3.41,10.81"/><path class="cls-6" d="M465.81,482.59a.63.63,0,0,1-.11.69"/><path class="cls-6" d="M464.35,486.42a28,28,0,0,1-1.56,4.57c0,.07-.08.15-.15.14s0-.16,0-.1"/><path class="cls-6" d="M521.62,490.15a15.15,15.15,0,0,0,3.13,1.47"/><path class="cls-4" d="M32.38,341.21c-3.6.53-6.43,2.05-10.08,2-4.34-.08-8.69-.31-13-.55-8.13-.46-13.54.36-21.3-1.46-1.25-.29-5.76-2.54-5.91-3.82a3.31,3.31,0,0,1,.54-1.83l12.18-22.85c2.35-4.4,5.66-9.42,10.65-9.37,3.94,0,7,3.27,10.14,5.6a85.4,85.4,0,0,0,7.54,4.52,60,60,0,0,1,19.89,19,7,7,0,0,1,1.2,2.64c.36,2.48-2,4.64-4.36,5.34S34.86,340.84,32.38,341.21Z"/><path class="cls-6" d="M4.47,303.71A5.8,5.8,0,0,1,8,310.57c-.59,2.1-2.26,4.22-1.37,6.22a5.52,5.52,0,0,0,2,2l5.3,3.7a5.17,5.17,0,0,0,1.85,1,9.87,9.87,0,0,0,2.3-.06,5.64,5.64,0,0,1,5.1,3A25.41,25.41,0,0,0,17,331.77c.39,1.31,1.91,1.84,3.23,2.18l20.59,5.36"/><path class="cls-6" d="M17,331.77c-.68,2-1.49,3.61-2.18,5.59a.85.85,0,0,1-.26.44"/><path class="cls-6" d="M23.06,326.14l5.4,1.68"/><path class="cls-6" d="M27.18,324.5l1.24.66"/></g></svg>