<svg width="860" height="464" viewBox="0 0 860 464" fill="none" xmlns="http://www.w3.org/2000/svg">
<path opacity="0.1" d="M235.41 40.2999C236.758 40.2999 237.85 39.2075 237.85 37.8599C237.85 36.5123 236.758 35.4199 235.41 35.4199C234.062 35.4199 232.97 36.5123 232.97 37.8599C232.97 39.2075 234.062 40.2999 235.41 40.2999Z" fill="#F2F2F2"/>
<path opacity="0.1" d="M134.43 4.88C135.778 4.88 136.87 3.78758 136.87 2.44C136.87 1.09243 135.778 0 134.43 0C133.082 0 131.99 1.09243 131.99 2.44C131.99 3.78758 133.082 4.88 134.43 4.88Z" fill="#F2F2F2"/>
<path opacity="0.1" d="M65.5901 203.8C66.9376 203.8 68.0301 202.707 68.0301 201.36C68.0301 200.012 66.9376 198.92 65.5901 198.92C64.2425 198.92 63.1501 200.012 63.1501 201.36C63.1501 202.707 64.2425 203.8 65.5901 203.8Z" fill="#F2F2F2"/>
<path opacity="0.3" d="M237.85 83.2999C239.198 83.2999 240.29 82.2075 240.29 80.8599C240.29 79.5123 239.198 78.4199 237.85 78.4199C236.502 78.4199 235.41 79.5123 235.41 80.8599C235.41 82.2075 236.502 83.2999 237.85 83.2999Z" fill="#F2F2F2"/>
<path opacity="0.3" d="M169.49 373.3C170.838 373.3 171.93 372.207 171.93 370.86C171.93 369.512 170.838 368.42 169.49 368.42C168.142 368.42 167.05 369.512 167.05 370.86C167.05 372.207 168.142 373.3 169.49 373.3Z" fill="#F2F2F2"/>
<path opacity="0.1" d="M362.66 123.03C364.008 123.03 365.1 121.937 365.1 120.59C365.1 119.242 364.008 118.15 362.66 118.15C361.312 118.15 360.22 119.242 360.22 120.59C360.22 121.937 361.312 123.03 362.66 123.03Z" fill="#F2F2F2"/>
<path opacity="0.1" d="M553.15 40.2999C554.498 40.2999 555.59 39.2075 555.59 37.8599C555.59 36.5123 554.498 35.4199 553.15 35.4199C551.802 35.4199 550.71 36.5123 550.71 37.8599C550.71 39.2075 551.802 40.2999 553.15 40.2999Z" fill="#F2F2F2"/>
<path opacity="0.3" d="M561.05 61.2999C562.398 61.2999 563.49 60.2075 563.49 58.8599C563.49 57.5123 562.398 56.4199 561.05 56.4199C559.702 56.4199 558.61 57.5123 558.61 58.8599C558.61 60.2075 559.702 61.2999 561.05 61.2999Z" fill="#F2F2F2"/>
<path opacity="0.1" d="M471.66 10.8697C473.008 10.8697 474.1 9.77732 474.1 8.42975C474.1 7.08217 473.008 5.98975 471.66 5.98975C470.312 5.98975 469.22 7.08217 469.22 8.42975C469.22 9.77732 470.312 10.8697 471.66 10.8697Z" fill="#F2F2F2"/>
<path opacity="0.3" d="M655.51 349.82C656.858 349.82 657.95 348.728 657.95 347.38C657.95 346.032 656.858 344.94 655.51 344.94C654.162 344.94 653.07 346.032 653.07 347.38C653.07 348.728 654.162 349.82 655.51 349.82Z" fill="#F2F2F2"/>
<path opacity="0.1" d="M555.59 264.03C556.938 264.03 558.03 262.937 558.03 261.59C558.03 260.242 556.938 259.15 555.59 259.15C554.242 259.15 553.15 260.242 553.15 261.59C553.15 262.937 554.242 264.03 555.59 264.03Z" fill="#F2F2F2"/>
<path opacity="0.1" d="M623.28 70.36C624.628 70.36 625.72 69.2676 625.72 67.92C625.72 66.5724 624.628 65.48 623.28 65.48C621.932 65.48 620.84 66.5724 620.84 67.92C620.84 69.2676 621.932 70.36 623.28 70.36Z" fill="#F2F2F2"/>
<path opacity="0.1" d="M149.75 364.36C151.098 364.36 152.19 363.268 152.19 361.92C152.19 360.572 151.098 359.48 149.75 359.48C148.402 359.48 147.31 360.572 147.31 361.92C147.31 363.268 148.402 364.36 149.75 364.36Z" fill="#F2F2F2"/>
<path opacity="0.3" d="M179.41 94.8601C180.04 94.8601 180.55 94.3497 180.55 93.7201C180.55 93.0905 180.04 92.5801 179.41 92.5801C178.78 92.5801 178.27 93.0905 178.27 93.7201C178.27 94.3497 178.78 94.8601 179.41 94.8601Z" fill="#F2F2F2"/>
<path opacity="0.1" d="M522.91 71.4997C523.54 71.4997 524.05 70.9893 524.05 70.3597C524.05 69.7301 523.54 69.2197 522.91 69.2197C522.28 69.2197 521.77 69.7301 521.77 70.3597C521.77 70.9893 522.28 71.4997 522.91 71.4997Z" fill="#F2F2F2"/>
<path opacity="0.1" d="M550.71 286C551.34 286 551.85 285.489 551.85 284.86C551.85 284.23 551.34 283.72 550.71 283.72C550.08 283.72 549.57 284.23 549.57 284.86C549.57 285.489 550.08 286 550.71 286Z" fill="#F2F2F2"/>
<path opacity="0.1" d="M559.75 381.36C560.38 381.36 560.89 380.849 560.89 380.22C560.89 379.59 560.38 379.08 559.75 379.08C559.12 379.08 558.61 379.59 558.61 380.22C558.61 380.849 559.12 381.36 559.75 381.36Z" fill="#F2F2F2"/>
<path opacity="0.1" d="M724.77 293.37C725.4 293.37 725.91 292.859 725.91 292.23C725.91 291.6 725.4 291.09 724.77 291.09C724.14 291.09 723.63 291.6 723.63 292.23C723.63 292.859 724.14 293.37 724.77 293.37Z" fill="#F2F2F2"/>
<path opacity="0.1" d="M716.27 59.9997C716.9 59.9997 717.41 59.4893 717.41 58.8597C717.41 58.2301 716.9 57.7197 716.27 57.7197C715.64 57.7197 715.13 58.2301 715.13 58.8597C715.13 59.4893 715.64 59.9997 716.27 59.9997Z" fill="#F2F2F2"/>
<path opacity="0.1" d="M858.27 62.4397C858.9 62.4397 859.41 61.9293 859.41 61.2997C859.41 60.6701 858.9 60.1597 858.27 60.1597C857.64 60.1597 857.13 60.6701 857.13 61.2997C857.13 61.9293 857.64 62.4397 858.27 62.4397Z" fill="#F2F2F2"/>
<path opacity="0.1" d="M579.76 134.66C580.39 134.66 580.9 134.15 580.9 133.52C580.9 132.89 580.39 132.38 579.76 132.38C579.13 132.38 578.62 132.89 578.62 133.52C578.62 134.15 579.13 134.66 579.76 134.66Z" fill="#F2F2F2"/>
<path opacity="0.1" d="M668.77 114.21C669.4 114.21 669.91 113.699 669.91 113.07C669.91 112.44 669.4 111.93 668.77 111.93C668.14 111.93 667.63 112.44 667.63 113.07C667.63 113.699 668.14 114.21 668.77 114.21Z" fill="#F2F2F2"/>
<path opacity="0.1" d="M442.66 49.1399C443.29 49.1399 443.8 48.6295 443.8 47.9999C443.8 47.3703 443.29 46.8599 442.66 46.8599C442.03 46.8599 441.52 47.3703 441.52 47.9999C441.52 48.6295 442.03 49.1399 442.66 49.1399Z" fill="#F2F2F2"/>
<path opacity="0.1" d="M157.35 217.08C157.98 217.08 158.49 216.569 158.49 215.94C158.49 215.31 157.98 214.8 157.35 214.8C156.72 214.8 156.21 215.31 156.21 215.94C156.21 216.569 156.72 217.08 157.35 217.08Z" fill="#F2F2F2"/>
<path opacity="0.1" d="M81.2701 418C81.8997 418 82.41 417.489 82.41 416.86C82.41 416.23 81.8997 415.72 81.2701 415.72C80.6404 415.72 80.1301 416.23 80.1301 416.86C80.1301 417.489 80.6404 418 81.2701 418Z" fill="#F2F2F2"/>
<path opacity="0.1" d="M53.55 107.78C54.1797 107.78 54.69 107.27 54.69 106.64C54.69 106.01 54.1797 105.5 53.55 105.5C52.9204 105.5 52.41 106.01 52.41 106.64C52.41 107.27 52.9204 107.78 53.55 107.78Z" fill="#F2F2F2"/>
<path opacity="0.1" d="M25.91 36.5598C26.5397 36.5598 27.0501 36.0494 27.0501 35.4198C27.0501 34.7902 26.5397 34.2798 25.91 34.2798C25.2804 34.2798 24.7701 34.7902 24.7701 35.4198C24.7701 36.0494 25.2804 36.5598 25.91 36.5598Z" fill="#F2F2F2"/>
<path opacity="0.1" d="M158.37 89.51C159 89.51 159.51 88.9996 159.51 88.37C159.51 87.7404 159 87.23 158.37 87.23C157.74 87.23 157.23 87.7404 157.23 88.37C157.23 88.9996 157.74 89.51 158.37 89.51Z" fill="#F2F2F2"/>
<path d="M282.43 219.77C275.6 220.6 268.64 221.14 261.9 222.27C257.22 223.05 252.08 225.45 247.04 224.48C242.69 223.64 238.62 219.76 234.79 217.33C229.767 214.148 224.914 210.707 220.25 207.02C209.46 198.47 199.34 189.02 189.34 179.41C186.25 176.46 183.03 173.28 181.69 169.31C180.14 164.73 181.43 160.14 182.8 155.96C183.56 153.64 184.45 151.19 186.48 149.96C189 148.5 192.48 149.46 195.48 150.44C230.14 161.51 265.02 172.67 298.12 189.87C299.464 190.411 300.599 191.367 301.36 192.6C301.852 193.971 301.78 195.481 301.16 196.8C299.385 201.944 297.198 206.937 294.62 211.73C293.4 214 292.03 216.27 289.92 217.65C287.81 219.03 285.07 219.45 282.43 219.77Z" fill="#282828" stroke="black" stroke-linecap="round" stroke-linejoin="round"/>
<path d="M282.43 219.77C275.6 220.6 268.64 221.14 261.9 222.27C257.22 223.05 252.08 225.45 247.04 224.48C242.69 223.64 238.62 219.76 234.79 217.33C229.767 214.148 224.914 210.707 220.25 207.02C209.46 198.47 199.34 189.02 189.34 179.41C186.25 176.46 183.03 173.28 181.69 169.31C180.14 164.73 181.43 160.14 182.8 155.96C183.56 153.64 184.45 151.19 186.48 149.96C189 148.5 192.48 149.46 195.48 150.44C230.14 161.51 265.02 172.67 298.12 189.87C299.464 190.411 300.599 191.367 301.36 192.6C301.852 193.971 301.78 195.481 301.16 196.8C299.385 201.944 297.198 206.937 294.62 211.73C293.4 214 292.03 216.27 289.92 217.65C287.81 219.03 285.07 219.45 282.43 219.77Z" fill="#282828" stroke="black" stroke-linecap="round" stroke-linejoin="round"/>
<path d="M262.99 207.35L262.18 205.87C261.991 205.589 261.893 205.258 261.9 204.92C261.909 204.844 261.938 204.772 261.986 204.712C262.033 204.653 262.096 204.607 262.168 204.581C262.239 204.555 262.317 204.55 262.391 204.565C262.466 204.581 262.535 204.617 262.59 204.67L263.15 207.59C263.169 207.482 263.148 207.372 263.09 207.28" fill="#282828"/>
<path d="M262.99 207.35L262.18 205.87C261.991 205.589 261.893 205.258 261.9 204.92C261.909 204.844 261.938 204.772 261.986 204.712C262.033 204.653 262.096 204.607 262.168 204.581C262.239 204.555 262.317 204.55 262.391 204.565C262.466 204.581 262.535 204.617 262.59 204.67L263.15 207.59C263.169 207.482 263.148 207.372 263.09 207.28" stroke="black" stroke-linecap="round" stroke-linejoin="round"/>
<path d="M279.11 190C279.565 190.121 279.981 190.358 280.317 190.687C280.654 191.017 280.899 191.428 281.03 191.88C281.278 192.757 281.35 193.675 281.24 194.58L280.43 208.3" fill="#282828"/>
<path d="M279.11 190C279.565 190.121 279.981 190.358 280.317 190.687C280.654 191.017 280.899 191.428 281.03 191.88C281.278 192.757 281.35 193.675 281.24 194.58L280.43 208.3" stroke="black" stroke-linecap="round" stroke-linejoin="round"/>
<path d="M285.83 197.26C285.118 198.494 284.723 199.886 284.68 201.31Z" fill="#282828"/>
<path d="M285.83 197.26C285.118 198.494 284.723 199.886 284.68 201.31" stroke="black" stroke-linecap="round" stroke-linejoin="round"/>
<path d="M273.6 220.27C275.287 219.296 276.709 217.922 277.74 216.27Z" fill="#282828"/>
<path d="M273.6 220.27C275.287 219.296 276.709 217.922 277.74 216.27" stroke="black" stroke-linecap="round" stroke-linejoin="round"/>
<path d="M236.91 218.78C233.85 216.33 230.37 211.78 227.91 208.67C226.683 207.066 225.347 205.549 223.91 204.13C223.25 203.51 222.55 202.94 221.91 202.28C220.91 201.28 220.17 199.96 218.98 199.28" fill="#282828"/>
<path d="M236.91 218.78C233.85 216.33 230.37 211.78 227.91 208.67C226.683 207.066 225.347 205.549 223.91 204.13C223.25 203.51 222.55 202.94 221.91 202.28C220.91 201.28 220.17 199.96 218.98 199.28" stroke="black" stroke-linecap="round" stroke-linejoin="round"/>
<path d="M215.13 194.49L214.26 194.01Z" fill="#282828"/>
<path d="M215.13 194.49L214.26 194.01" stroke="black" stroke-linecap="round" stroke-linejoin="round"/>
<path d="M210.91 191.79L210.63 191.56Z" fill="#282828"/>
<path d="M210.91 191.79L210.63 191.56" stroke="black" stroke-linecap="round" stroke-linejoin="round"/>
<path d="M261.24 181.93C262.428 182.655 263.676 183.277 264.97 183.79L273.05 187.24C275.038 188.175 277.139 188.848 279.3 189.24C281.424 189.4 283.556 189.4 285.68 189.24C290.34 189.17 294.93 190.16 299.48 191.15C286.98 184.41 274.15 179.24 260.09 173.15C251.62 169.45 242.35 166.87 233.76 163.46C231.086 162.272 228.34 161.25 225.54 160.4C220.27 159.02 210.35 155.25 210.54 156.21C221.73 164.16 237.95 173.86 252.8 179.59C250.65 177.17 247.3 174.69 246.53 171.51C248.84 172.67 250.91 172.83 252.96 174.45C255.91 176.74 258.13 179.89 261.24 181.93Z" fill="#4B4B4C"/>
<path d="M203.71 153.53C220.39 160.94 236.4 173.92 253.35 180.22C254.3 180.57 254.63 181.68 255.46 181.28C255.8 181.11 256.07 180.83 256.46 180.66C258.13 179.83 259.35 180.6 261.03 181.95C264.72 184.95 270.25 186.22 274.44 188.07C276.38 188.92 278.27 190.18 280.26 190.35C281.323 190.381 282.386 190.27 283.42 190.02C289.032 189.091 294.791 189.72 300.07 191.84" stroke="black" stroke-linecap="round" stroke-linejoin="round"/>
<path d="M253.53 175.15C255.71 176.805 257.775 178.605 259.71 180.54C260.335 181.063 260.848 181.705 261.22 182.43C261.525 183.326 261.574 184.288 261.36 185.21C261.16 186.64 261.66 187.94 261.45 189.38C261.39 189.84 260.81 196.09 260.34 196.08C260.07 196.08 258.34 189.68 258.2 189.4C256.8 185.4 255.64 182.46 252.51 179.25C251.57 178.25 246.21 171.8 246.57 171.51C247.12 171.07 252.56 174.45 253.53 175.15Z" fill="#282828" stroke="black" stroke-linecap="round" stroke-linejoin="round"/>
<path opacity="0.8" d="M212.6 236.89C210.22 230.89 210.71 224.19 211.41 217.78C212.11 211.37 213.01 204.85 214.08 198.42C216.08 186.42 218.76 174.42 223.98 163.42C226.58 157.95 229.98 152.6 235.04 149.31C240.1 146.02 246.59 145.12 252.69 145.61C258.79 146.1 264.69 147.83 270.64 149.35C278.06 151.25 285.64 152.84 292.75 155.56C299.86 158.28 306.75 162.23 311.75 168.1C317.7 175.19 320.37 184.66 320.27 193.92C320.17 203.18 317.5 212.24 313.72 220.69C312.011 224.747 309.801 228.573 307.14 232.08C304.318 235.534 301.014 238.565 297.33 241.08C288.86 246.972 279.182 250.901 269.002 252.581C258.821 254.26 248.394 253.649 238.48 250.79C234.87 249.72 230.86 247.79 230.07 244.12" fill="#141414"/>
<path d="M367.91 463.94C446.925 463.94 510.98 453.401 510.98 440.4C510.98 427.399 446.925 416.86 367.91 416.86C288.895 416.86 224.84 427.399 224.84 440.4C224.84 453.401 288.895 463.94 367.91 463.94Z" fill="#1E1E1E"/>
<path d="M367.41 392.86C459.642 392.86 534.41 318.091 534.41 225.86C534.41 133.628 459.642 58.8599 367.41 58.8599C275.178 58.8599 200.41 133.628 200.41 225.86C200.41 318.091 275.178 392.86 367.41 392.86Z" stroke="url(#paint0_linear_217:597)" stroke-width="1.5" stroke-miterlimit="10" stroke-dasharray="5 9.99"/>
<path d="M367.41 381.36C453.29 381.36 522.91 311.74 522.91 225.86C522.91 139.98 453.29 70.3599 367.41 70.3599C281.53 70.3599 211.91 139.98 211.91 225.86C211.91 311.74 281.53 381.36 367.41 381.36Z" fill="url(#paint1_linear_217:597)" stroke="url(#paint2_linear_217:597)" stroke-width="1.5" stroke-miterlimit="10"/>
<path d="M450.207 114.864C451.643 112.377 446.429 106.678 438.561 102.136C430.693 97.5933 423.151 95.927 421.715 98.4142C420.279 100.901 425.493 106.6 433.361 111.142C441.229 115.685 448.771 117.351 450.207 114.864Z" fill="#C7EDEF"/>
<path d="M258.66 151.86H476.66C477.721 151.86 478.738 152.281 479.488 153.031C480.239 153.782 480.66 154.799 480.66 155.86V179.86H254.66V155.86C254.66 154.799 255.081 153.782 255.832 153.031C256.582 152.281 257.599 151.86 258.66 151.86Z" stroke="#F2F2F2" stroke-miterlimit="10"/>
<path d="M468.66 163.86C470.317 163.86 471.66 162.517 471.66 160.86C471.66 159.203 470.317 157.86 468.66 157.86C467.003 157.86 465.66 159.203 465.66 160.86C465.66 162.517 467.003 163.86 468.66 163.86Z" fill="#F2F2F2" stroke="#F2F2F2" stroke-width="1.5" stroke-miterlimit="10"/>
<path d="M456.66 163.86C458.317 163.86 459.66 162.517 459.66 160.86C459.66 159.203 458.317 157.86 456.66 157.86C455.003 157.86 453.66 159.203 453.66 160.86C453.66 162.517 455.003 163.86 456.66 163.86Z" fill="#F2F2F2" stroke="#F2F2F2" stroke-width="1.5" stroke-miterlimit="10"/>
<path d="M444.66 163.86C446.317 163.86 447.66 162.517 447.66 160.86C447.66 159.203 446.317 157.86 444.66 157.86C443.003 157.86 441.66 159.203 441.66 160.86C441.66 162.517 443.003 163.86 444.66 163.86Z" fill="#F2F2F2" stroke="#F2F2F2" stroke-width="1.5" stroke-miterlimit="10"/>
<path d="M305.16 195.86H274.16C271.675 195.86 269.66 197.875 269.66 200.36C269.66 202.845 271.675 204.86 274.16 204.86H305.16C307.645 204.86 309.66 202.845 309.66 200.36C309.66 197.875 307.645 195.86 305.16 195.86Z" stroke="#F2F2F2" stroke-width="1.5" stroke-miterlimit="10"/>
<path d="M356.16 195.86H325.16C322.675 195.86 320.66 197.875 320.66 200.36C320.66 202.845 322.675 204.86 325.16 204.86H356.16C358.645 204.86 360.66 202.845 360.66 200.36C360.66 197.875 358.645 195.86 356.16 195.86Z" stroke="#F2F2F2" stroke-width="1.5" stroke-miterlimit="10"/>
<path d="M407.16 195.86H376.16C373.675 195.86 371.66 197.875 371.66 200.36C371.66 202.845 373.675 204.86 376.16 204.86H407.16C409.645 204.86 411.66 202.845 411.66 200.36C411.66 197.875 409.645 195.86 407.16 195.86Z" stroke="#F2F2F2" stroke-width="1.5" stroke-miterlimit="10"/>
<path d="M458.16 195.86H427.16C424.675 195.86 422.66 197.875 422.66 200.36C422.66 202.845 424.675 204.86 427.16 204.86H458.16C460.645 204.86 462.66 202.845 462.66 200.36C462.66 197.875 460.645 195.86 458.16 195.86Z" fill="#F2F2F2" stroke="#F2F2F2" stroke-width="1.5" stroke-miterlimit="10"/>
<path d="M360.16 239.86H272.16C270.779 239.86 269.66 240.979 269.66 242.36C269.66 243.741 270.779 244.86 272.16 244.86H360.16C361.541 244.86 362.66 243.741 362.66 242.36C362.66 240.979 361.541 239.86 360.16 239.86Z" fill="#282828"/>
<path d="M409.16 239.86H395.16C393.779 239.86 392.66 240.979 392.66 242.36C392.66 243.741 393.779 244.86 395.16 244.86H409.16C410.541 244.86 411.66 243.741 411.66 242.36C411.66 240.979 410.541 239.86 409.16 239.86Z" fill="#282828"/>
<path d="M448.19 239.86H444.16C442.779 239.86 441.66 240.979 441.66 242.36C441.66 243.741 442.779 244.86 444.16 244.86H448.19C449.571 244.86 450.69 243.741 450.69 242.36C450.69 240.979 449.571 239.86 448.19 239.86Z" fill="#282828"/>
<path d="M360.16 259.86H272.16C270.779 259.86 269.66 260.979 269.66 262.36C269.66 263.741 270.779 264.86 272.16 264.86H360.16C361.541 264.86 362.66 263.741 362.66 262.36C362.66 260.979 361.541 259.86 360.16 259.86Z" fill="#282828"/>
<path d="M409.16 259.86H395.16C393.779 259.86 392.66 260.979 392.66 262.36C392.66 263.741 393.779 264.86 395.16 264.86H409.16C410.541 264.86 411.66 263.741 411.66 262.36C411.66 260.979 410.541 259.86 409.16 259.86Z" fill="#282828"/>
<path d="M448.19 259.86H444.16C442.779 259.86 441.66 260.979 441.66 262.36C441.66 263.741 442.779 264.86 444.16 264.86H448.19C449.571 264.86 450.69 263.741 450.69 262.36C450.69 260.979 449.571 259.86 448.19 259.86Z" fill="#282828"/>
<path d="M360.16 279.86H272.16C270.779 279.86 269.66 280.979 269.66 282.36C269.66 283.741 270.779 284.86 272.16 284.86H360.16C361.541 284.86 362.66 283.741 362.66 282.36C362.66 280.979 361.541 279.86 360.16 279.86Z" fill="#282828"/>
<path d="M409.16 279.86H395.16C393.779 279.86 392.66 280.979 392.66 282.36C392.66 283.741 393.779 284.86 395.16 284.86H409.16C410.541 284.86 411.66 283.741 411.66 282.36C411.66 280.979 410.541 279.86 409.16 279.86Z" fill="#282828"/>
<path d="M448.19 279.86H444.16C442.779 279.86 441.66 280.979 441.66 282.36C441.66 283.741 442.779 284.86 444.16 284.86H448.19C449.571 284.86 450.69 283.741 450.69 282.36C450.69 280.979 449.571 279.86 448.19 279.86Z" fill="#282828"/>
<path d="M322.59 173.86H287.66V179.86H322.59V173.86Z" fill="#F2F2F2" stroke="#F2F2F2" stroke-miterlimit="10"/>
<path d="M367.12 173.86H332.2" stroke="#F2F2F2" stroke-width="1.5" stroke-miterlimit="10" stroke-linecap="round"/>
<path d="M411.66 173.86H376.73" stroke="#F2F2F2" stroke-width="1.5" stroke-miterlimit="10" stroke-linecap="round"/>
<path d="M254.16 228.86H480.16" stroke="#282828" stroke-width="1.5" stroke-miterlimit="10"/>
<path d="M271.16 220.36H311.16" stroke="#282828" stroke-width="2" stroke-miterlimit="10" stroke-linecap="round"/>
<path d="M394.16 220.36H414.16" stroke="#282828" stroke-width="2" stroke-miterlimit="10" stroke-linecap="round"/>
<path d="M442.16 220.36H458.16" stroke="#282828" stroke-width="2" stroke-miterlimit="10" stroke-linecap="round"/>
<path d="M476.66 151.86H258.66C256.451 151.86 254.66 153.651 254.66 155.86V295.86C254.66 298.069 256.451 299.86 258.66 299.86H476.66C478.869 299.86 480.66 298.069 480.66 295.86V155.86C480.66 153.651 478.869 151.86 476.66 151.86Z" stroke="#F2F2F2" stroke-miterlimit="10"/>
<path d="M274.27 162.96C273.88 160.03 272.89 157.59 271.37 157.59C269.85 157.59 268.86 160.03 268.47 162.96C265.54 163.35 263.1 164.34 263.1 165.86C263.1 167.38 265.54 168.37 268.47 168.76C268.86 171.68 269.85 174.13 271.37 174.13C272.89 174.13 273.88 171.68 274.27 168.76C277.19 168.37 279.64 167.38 279.64 165.86C279.64 164.34 277.19 163.35 274.27 162.96ZM268.38 167.9C265.57 167.5 263.94 166.57 263.94 165.9C263.94 165.23 265.57 164.26 268.38 163.85C268.312 164.531 268.278 165.215 268.28 165.9C268.28 166.568 268.313 167.235 268.38 167.9V167.9ZM271.38 158.43C272.09 158.43 273.02 160.06 273.38 162.87C272.715 162.803 272.048 162.769 271.38 162.77C270.695 162.768 270.011 162.802 269.33 162.87C269.74 160.06 270.66 158.43 271.38 158.43ZM274.38 167.9L273.53 168C273.53 168.15 273.45 168.71 273.43 168.85C273.03 171.65 272.1 173.29 271.43 173.29C270.76 173.29 269.79 171.65 269.38 168.85C269.38 168.71 269.3 168.15 269.28 168C269.22 167.34 269.18 166.63 269.18 165.86C269.18 165.09 269.18 164.38 269.28 163.71C269.95 163.65 270.66 163.61 271.43 163.61C272.2 163.61 272.91 163.61 273.57 163.71L274.42 163.81C277.22 164.22 278.86 165.14 278.86 165.86C278.86 166.58 277.22 167.5 274.42 167.86" fill="#F2F2F2"/>
<path d="M435.96 320.85L417.12 320.34L403.13 332.96L402.81 282.99L435.96 320.85Z" fill="#141414" stroke="#F2F2F2" stroke-width="2" stroke-linecap="round" stroke-linejoin="round"/>
<path d="M245.83 252.87C239.98 249.43 235.54 244.11 231.83 238.43C230.83 236.84 229.88 235.97 229.97 234.59C230.12 232.35 232.71 230.59 234.55 229.31C238.05 226.86 242.25 224.73 246.42 225.6C248.614 226.182 250.66 227.226 252.42 228.66C257.172 232.119 261.434 236.206 265.09 240.81C267.09 243.32 268.95 246.14 269.26 249.33C269.57 252.52 267.77 256.12 264.65 256.85C263.66 257.031 262.647 257.055 261.65 256.92C252.35 256.07 251.5 260.33 245.83 252.87Z" fill="#282828" stroke="black" stroke-miterlimit="10"/>
<path d="M267.33 255.25C266.92 255.89 265.72 255.25 265.09 254.79C264.503 254.31 264.04 253.696 263.74 253C261.985 249.783 259.696 246.888 256.97 244.44C255.74 243.34 256.24 241.32 256.48 239.69" fill="#282828"/>
<path d="M267.33 255.25C266.92 255.89 265.72 255.25 265.09 254.79C264.503 254.31 264.04 253.696 263.74 253C261.985 249.783 259.696 246.888 256.97 244.44C255.74 243.34 256.24 241.32 256.48 239.69" stroke="black" stroke-miterlimit="10" stroke-linecap="round"/>
<path d="M253.61 236.22C254.107 236.292 254.578 236.488 254.98 236.79Z" fill="#282828"/>
<path d="M253.61 236.22C254.107 236.292 254.578 236.488 254.98 236.79" stroke="black" stroke-miterlimit="10" stroke-linecap="round"/>
<path d="M250.18 232.61C250.419 232.698 250.662 232.772 250.91 232.83Z" fill="#282828"/>
<path d="M250.18 232.61C250.419 232.698 250.662 232.772 250.91 232.83" stroke="black" stroke-miterlimit="10" stroke-linecap="round"/>
<path d="M242.91 248.35C243.2 249.72 244.64 251.5 245.81 252.87Z" fill="#282828"/>
<path d="M242.91 248.35C243.2 249.72 244.64 251.5 245.81 252.87" stroke="black" stroke-miterlimit="10" stroke-linecap="round"/>
<path d="M241.04 242.52C241.04 242.69 241.25 242.83 241.36 242.69Z" fill="#282828"/>
<path d="M241.04 242.52C241.04 242.69 241.25 242.83 241.36 242.69" stroke="black" stroke-miterlimit="10" stroke-linecap="round"/>
<path d="M582.23 342.14C581.447 342.363 580.627 342.424 579.82 342.32C578.973 342.084 578.19 341.66 577.53 341.08C574.53 338.83 571.53 336.58 568.53 334.29C564.28 330.99 560 327.5 557.33 322.83C556.92 322.258 556.634 321.607 556.493 320.917C556.352 320.228 556.358 319.517 556.51 318.83C556.95 317.887 557.642 317.084 558.51 316.51C559.528 315.532 560.811 314.874 562.2 314.62C563.043 314.599 563.884 314.731 564.68 315.01C575.46 318.01 586.45 321.15 595.68 327.45C596.955 328.266 598.121 329.24 599.15 330.35C599.402 330.595 599.585 330.902 599.68 331.24C599.72 331.577 599.682 331.919 599.57 332.24C598.72 335.24 597.57 338.17 594.33 339.13C590.41 340.32 586.3 341.25 582.23 342.14Z" fill="#282828" stroke="black" stroke-linecap="round" stroke-linejoin="round"/>
<path d="M561.05 314.83C562.14 315.272 563.199 315.786 564.22 316.37L576.75 323.15" fill="#282828"/>
<path d="M561.05 314.83C562.14 315.272 563.199 315.786 564.22 316.37L576.75 323.15" stroke="black" stroke-linecap="round" stroke-linejoin="round"/>
<path d="M579.69 324.23C584.98 327.23 591.69 327.06 596.89 330.23C597.58 330.65 598.46 331.12 599.13 330.67" fill="#282828"/>
<path d="M579.69 324.23C584.98 327.23 591.69 327.06 596.89 330.23C597.58 330.65 598.46 331.12 599.13 330.67" stroke="black" stroke-linecap="round" stroke-linejoin="round"/>
<path d="M189.09 346.33C187.792 345.63 186.592 344.762 185.52 343.75C185.182 343.468 184.917 343.107 184.75 342.7C184.682 342.351 184.69 341.993 184.773 341.648C184.856 341.303 185.012 340.979 185.23 340.7C185.699 339.996 186.292 339.382 186.98 338.89C187.1 338.777 187.256 338.709 187.42 338.7C187.518 338.716 187.612 338.752 187.696 338.805C187.78 338.859 187.853 338.928 187.91 339.01C189.52 340.711 190.868 342.642 191.91 344.74C192.153 345.167 192.303 345.64 192.35 346.13C192.366 346.374 192.311 346.619 192.193 346.833C192.074 347.048 191.896 347.223 191.68 347.34C191.09 347.59 190.39 347.08 189.92 346.85L189.09 346.33Z" fill="#282828" stroke="black" stroke-miterlimit="10"/>
<path d="M39.2301 235.7C37.9322 235 36.7319 234.133 35.6601 233.12C35.3194 232.84 35.0547 232.479 34.8901 232.07C34.8223 231.722 34.8301 231.363 34.9129 231.018C34.9958 230.673 35.1516 230.349 35.3701 230.07C35.8392 229.366 36.4321 228.752 37.1201 228.26C37.2398 228.147 37.3956 228.079 37.5601 228.07C37.6582 228.086 37.7521 228.122 37.8362 228.176C37.9204 228.229 37.993 228.298 38.0501 228.38C39.6601 230.081 41.0082 232.012 42.0501 234.11C42.2976 234.535 42.4479 235.01 42.4901 235.5C42.506 235.745 42.4513 235.989 42.3326 236.203C42.2138 236.418 42.0359 236.594 41.8201 236.71C41.2301 236.96 40.5301 236.45 40.0601 236.22L39.2301 235.7Z" fill="#282828" stroke="black" stroke-miterlimit="10"/>
<path d="M615.07 253.3C613.772 252.6 612.572 251.733 611.5 250.72C611.164 250.435 610.901 250.076 610.73 249.67C610.662 249.321 610.67 248.961 610.755 248.616C610.839 248.271 610.998 247.948 611.22 247.67C611.683 246.964 612.273 246.35 612.96 245.86C613.08 245.747 613.236 245.68 613.4 245.67C613.498 245.686 613.592 245.722 613.676 245.776C613.76 245.829 613.833 245.898 613.89 245.98C615.5 247.681 616.848 249.612 617.89 251.71C618.138 252.135 618.288 252.61 618.33 253.1C618.346 253.345 618.291 253.589 618.173 253.803C618.054 254.018 617.876 254.194 617.66 254.31C617.08 254.56 616.37 254.05 615.9 253.82L615.07 253.3Z" fill="#282828" stroke="black" stroke-miterlimit="10"/>
<path d="M665.15 263.35C667.272 262.488 669.503 261.923 671.78 261.67C672.447 261.545 673.135 261.59 673.78 261.8C674.272 262.062 674.7 262.43 675.033 262.878C675.365 263.326 675.593 263.842 675.7 264.39C676.077 265.65 676.223 266.968 676.13 268.28C676.137 268.536 676.056 268.786 675.9 268.99C675.664 269.191 675.359 269.292 675.05 269.27C671.424 269.474 667.787 269.137 664.26 268.27C663.51 268.135 662.798 267.842 662.17 267.41C661.865 267.184 661.631 266.876 661.495 266.522C661.358 266.167 661.325 265.782 661.4 265.41C661.68 264.46 662.99 264.14 663.74 263.8L665.15 263.35Z" fill="#282828" stroke="black" stroke-miterlimit="10"/>
<path d="M87.6401 276.75C89.7635 275.89 91.9938 275.321 94.2701 275.06C94.9374 274.94 95.6239 274.985 96.2701 275.19C96.7595 275.455 97.185 275.825 97.5167 276.272C97.8483 276.72 98.0782 277.234 98.1901 277.78C98.5671 279.04 98.7128 280.358 98.6201 281.67C98.6222 281.928 98.5416 282.181 98.3901 282.39C98.153 282.588 97.8478 282.685 97.5401 282.66C93.9138 282.859 90.278 282.522 86.7501 281.66C85.9995 281.522 85.287 281.225 84.6601 280.79C84.3552 280.564 84.1209 280.256 83.9846 279.902C83.8482 279.548 83.8154 279.162 83.8901 278.79C84.1701 277.84 85.4801 277.52 86.2301 277.18L87.6401 276.75Z" fill="#282828" stroke="black" stroke-miterlimit="10"/>
<path d="M148.2 133.52C145.491 133.213 142.815 132.671 140.2 131.9C138.559 131.553 137.061 130.721 135.9 129.51C134.67 127.99 134.54 125.88 134.47 123.92C134.448 123.785 134.456 123.647 134.494 123.515C134.532 123.384 134.599 123.262 134.69 123.16C134.864 123.046 135.074 123 135.28 123.03C136.666 122.987 138.052 123.132 139.4 123.46C140.763 123.932 142.048 124.606 143.21 125.46C146.39 127.54 149.5 129.71 152.6 131.89C151.71 132.78 150.517 133.301 149.26 133.35C148.015 133.398 146.769 133.29 145.55 133.03" fill="#282828"/>
<path d="M148.2 133.52C145.491 133.213 142.815 132.671 140.2 131.9C138.559 131.553 137.061 130.721 135.9 129.51C134.67 127.99 134.54 125.88 134.47 123.92C134.448 123.785 134.456 123.647 134.494 123.515C134.532 123.384 134.599 123.262 134.69 123.16C134.864 123.046 135.074 123 135.28 123.03C136.666 122.987 138.052 123.132 139.4 123.46C140.763 123.932 142.048 124.606 143.21 125.46C146.39 127.54 149.5 129.71 152.6 131.89C151.71 132.78 150.517 133.301 149.26 133.35C148.015 133.398 146.769 133.29 145.55 133.03" stroke="black" stroke-linecap="round" stroke-linejoin="round"/>
<path d="M134.56 123.91C135.043 123.944 135.514 124.079 135.942 124.304C136.371 124.53 136.748 124.841 137.05 125.22L140.68 128.73" fill="#282828"/>
<path d="M134.56 123.91C135.043 123.944 135.514 124.079 135.942 124.304C136.371 124.53 136.748 124.841 137.05 125.22L140.68 128.73" stroke="black" stroke-linecap="round" stroke-linejoin="round"/>
<path d="M143.41 130.29L143.9 130.55Z" fill="#282828"/>
<path d="M143.41 130.29L143.9 130.55" stroke="black" stroke-linecap="round" stroke-linejoin="round"/>
<path d="M146.31 131.38C146.976 131.795 147.568 132.319 148.06 132.93Z" fill="#282828"/>
<path d="M146.31 131.38C146.976 131.795 147.568 132.319 148.06 132.93" stroke="black" stroke-linecap="round" stroke-linejoin="round"/>
<path d="M43.3401 273.05C40.6304 272.749 37.9531 272.207 35.3401 271.43C33.6979 271.085 32.1968 270.256 31.0301 269.05C29.8001 267.52 29.6801 265.41 29.6101 263.46C29.585 263.324 29.5909 263.184 29.6272 263.051C29.6636 262.918 29.7295 262.794 29.8201 262.69C29.9965 262.581 30.2044 262.535 30.4101 262.56C31.7965 262.516 33.1825 262.661 34.5301 262.99C35.8896 263.47 37.1728 264.143 38.3401 264.99C41.5201 267.07 44.6301 269.25 47.7401 271.42C46.8448 272.308 45.6498 272.828 44.3901 272.88C43.1454 272.926 41.8997 272.822 40.6801 272.57" fill="#282828"/>
<path d="M43.3401 273.05C40.6304 272.749 37.9531 272.207 35.3401 271.43C33.6979 271.085 32.1968 270.256 31.0301 269.05C29.8001 267.52 29.6801 265.41 29.6101 263.46C29.585 263.324 29.5909 263.184 29.6272 263.051C29.6636 262.918 29.7295 262.794 29.8201 262.69C29.9965 262.581 30.2044 262.535 30.4101 262.56C31.7965 262.516 33.1825 262.661 34.5301 262.99C35.8896 263.47 37.1728 264.143 38.3401 264.99C41.5201 267.07 44.6301 269.25 47.7401 271.42C46.8448 272.308 45.6498 272.828 44.3901 272.88C43.1454 272.926 41.8997 272.822 40.6801 272.57" stroke="black" stroke-linecap="round" stroke-linejoin="round"/>
<path d="M29.7001 263.44C30.1839 263.475 30.6551 263.611 31.0838 263.838C31.5124 264.065 31.8892 264.379 32.1901 264.76L35.8201 268.27" fill="#282828"/>
<path d="M29.7001 263.44C30.1839 263.475 30.6551 263.611 31.0838 263.838C31.5124 264.065 31.8892 264.379 32.1901 264.76L35.8201 268.27" stroke="black" stroke-linecap="round" stroke-linejoin="round"/>
<path d="M38.55 269.83L39.05 270.08Z" fill="#282828"/>
<path d="M38.55 269.83L39.05 270.08" stroke="black" stroke-linecap="round" stroke-linejoin="round"/>
<path d="M41.4501 270.92C42.1179 271.328 42.71 271.849 43.2001 272.46Z" fill="#282828"/>
<path d="M41.4501 270.92C42.1179 271.328 42.71 271.849 43.2001 272.46" stroke="black" stroke-linecap="round" stroke-linejoin="round"/>
<path d="M590.96 288.73C588.94 286.882 587.09 284.857 585.43 282.68C584.308 281.434 583.587 279.88 583.36 278.22C583.26 276.22 584.36 274.48 585.51 272.86C585.66 272.64 585.86 272.38 586.13 272.37C586.338 272.385 586.535 272.47 586.69 272.61C587.83 273.399 588.862 274.333 589.76 275.39C590.577 276.572 591.221 277.865 591.67 279.23C593.01 282.79 594.24 286.38 595.46 289.97C594.216 290.156 592.948 289.874 591.9 289.18C590.869 288.478 589.925 287.656 589.09 286.73" fill="#282828"/>
<path d="M590.96 288.73C588.94 286.882 587.09 284.857 585.43 282.68C584.308 281.434 583.587 279.88 583.36 278.22C583.26 276.22 584.36 274.48 585.51 272.86C585.66 272.64 585.86 272.38 586.13 272.37C586.338 272.385 586.535 272.47 586.69 272.61C587.83 273.399 588.862 274.333 589.76 275.39C590.577 276.572 591.221 277.865 591.67 279.23C593.01 282.79 594.24 286.38 595.46 289.97C594.216 290.156 592.948 289.874 591.9 289.18C590.869 288.478 589.925 287.656 589.09 286.73" stroke="black" stroke-linecap="round" stroke-linejoin="round"/>
<path d="M585.62 272.92C585.987 273.235 586.286 273.622 586.497 274.057C586.709 274.493 586.829 274.967 586.85 275.45L587.71 280.45" fill="#282828"/>
<path d="M585.62 272.92C585.987 273.235 586.286 273.622 586.497 274.057C586.709 274.493 586.829 274.967 586.85 275.45L587.71 280.45" stroke="black" stroke-linecap="round" stroke-linejoin="round"/>
<path d="M588.99 283.3L589.24 283.8Z" fill="#282828"/>
<path d="M588.99 283.3L589.24 283.8" stroke="black" stroke-linecap="round" stroke-linejoin="round"/>
<path d="M590.69 285.89C590.989 286.614 591.159 287.386 591.19 288.17Z" fill="#282828"/>
<path d="M590.69 285.89C590.989 286.614 591.159 287.386 591.19 288.17" stroke="black" stroke-linecap="round" stroke-linejoin="round"/>
<path d="M122.97 320.71C117.18 316.82 111.56 312.24 108.36 306.05C106 301.48 105.1 296.31 104.46 291.2C103.33 282.11 102.95 272.94 102.57 263.79C102.397 262.546 102.599 261.278 103.15 260.15C103.97 258.85 105.59 258.35 107.07 257.95C109.327 257.209 111.696 256.871 114.07 256.95C118.15 257.32 121.57 260.09 124.6 262.85C141.29 278.05 154.72 296.45 167.5 315.06C168.508 316.075 169.18 317.374 169.427 318.783C169.673 320.192 169.483 321.643 168.88 322.94L166.72 329.61C166.35 331.04 165.731 332.395 164.89 333.61C160.3 339.41 147.6 335.41 142.1 333.2C135.36 330.49 128.97 324.75 122.97 320.71Z" fill="#282828" stroke="black" stroke-linecap="round" stroke-linejoin="round"/>
<path d="M150.76 296.74C150.462 298.405 150.554 300.116 151.03 301.74L152.97 310.85C153.331 313.255 154.123 315.576 155.31 317.7C156.31 319.27 157.78 320.62 158.24 322.43" fill="#282828"/>
<path d="M150.76 296.74C150.462 298.405 150.554 300.116 151.03 301.74L152.97 310.85C153.331 313.255 154.123 315.576 155.31 317.7C156.31 319.27 157.78 320.62 158.24 322.43" stroke="black" stroke-linecap="round" stroke-linejoin="round"/>
<path d="M159.97 324.27C160.314 325.275 160.417 326.348 160.27 327.4Z" fill="#282828"/>
<path d="M159.97 324.27C160.314 325.275 160.417 326.348 160.27 327.4" stroke="black" stroke-linecap="round" stroke-linejoin="round"/>
<path d="M161.54 326.76C161.996 327.376 162.305 328.088 162.446 328.842C162.586 329.595 162.553 330.371 162.35 331.11C162.157 331.785 162.106 332.494 162.2 333.19C162.259 333.534 162.447 333.844 162.725 334.056C163.004 334.267 163.352 334.365 163.7 334.33" fill="#282828"/>
<path d="M161.54 326.76C161.996 327.376 162.305 328.088 162.446 328.842C162.586 329.595 162.553 330.371 162.35 331.11C162.157 331.785 162.106 332.494 162.2 333.19C162.259 333.534 162.447 333.844 162.725 334.056C163.004 334.267 163.352 334.365 163.7 334.33" stroke="black" stroke-linecap="round" stroke-linejoin="round"/>
<path d="M103.16 260.25C105.061 259.581 107.109 259.448 109.081 259.864C111.052 260.28 112.871 261.23 114.34 262.61" fill="#282828"/>
<path d="M103.16 260.25C105.061 259.581 107.109 259.448 109.081 259.864C111.052 260.28 112.871 261.23 114.34 262.61" stroke="black" stroke-linecap="round" stroke-linejoin="round"/>
<path d="M115.82 263.34C116.792 264.067 117.695 264.88 118.52 265.77Z" fill="#282828"/>
<path d="M115.82 263.34C116.792 264.067 117.695 264.88 118.52 265.77" stroke="black" stroke-linecap="round" stroke-linejoin="round"/>
<path d="M121.17 267L121.67 267.75Z" fill="#282828"/>
<path d="M121.17 267L121.67 267.75" stroke="black" stroke-linecap="round" stroke-linejoin="round"/>
<path d="M123.42 268.88C123.441 269.204 123.568 269.513 123.78 269.76Z" fill="#282828"/>
<path d="M123.42 268.88C123.441 269.204 123.568 269.513 123.78 269.76" stroke="black" stroke-linecap="round" stroke-linejoin="round"/>
<path d="M111.59 310.91C117.29 316.76 128.66 315.91 134.71 321.39Z" fill="#282828"/>
<path d="M111.59 310.91C117.29 316.76 128.66 315.91 134.71 321.39" stroke="black" stroke-linecap="round" stroke-linejoin="round"/>
<path d="M136.79 322.5C137.976 323.318 139.231 324.03 140.54 324.63Z" fill="#282828"/>
<path d="M136.79 322.5C137.976 323.318 139.231 324.03 140.54 324.63" stroke="black" stroke-linecap="round" stroke-linejoin="round"/>
<path d="M118.39 317.41C125.54 320.64 135.91 327.25 143.5 328.22Z" fill="#282828"/>
<path d="M118.39 317.41C125.54 320.64 135.91 327.25 143.5 328.22" stroke="black" stroke-linecap="round" stroke-linejoin="round"/>
<path d="M100.31 182.69C101.99 178.69 104.82 173.49 108.67 171.47C110.51 170.47 116.67 173.15 120.45 174.9C122.58 175.9 125.34 176.97 126.84 178.76C128.1 180.27 128.19 182.16 128.69 184.06C129.481 186.528 129.876 189.107 129.86 191.7C129.65 194.44 128.22 195.16 125.86 196.39C122.72 198.05 118.97 199.7 115.44 198.39C112.1 197.06 104.91 192.01 101.91 190.05C98.0601 187.51 98.0601 188.09 100.31 182.69Z" fill="#282828" stroke="black" stroke-linecap="round" stroke-linejoin="round"/>
<path d="M107.96 172.08C109.693 171.807 111.466 172.162 112.96 173.08C114.127 173.614 115.199 174.337 116.13 175.22" fill="#282828"/>
<path d="M107.96 172.08C109.693 171.807 111.466 172.162 112.96 173.08C114.127 173.614 115.199 174.337 116.13 175.22" stroke="black" stroke-linecap="round" stroke-linejoin="round"/>
<path d="M114.42 175.96C116.08 176.972 117.661 178.109 119.15 179.36C119.511 179.701 119.923 179.984 120.37 180.2" fill="#282828"/>
<path d="M114.42 175.96C116.08 176.972 117.661 178.109 119.15 179.36C119.511 179.701 119.923 179.984 120.37 180.2" stroke="black" stroke-linecap="round" stroke-linejoin="round"/>
<path d="M118.04 182.02C118.806 182.409 119.499 182.927 120.09 183.55Z" fill="#282828"/>
<path d="M118.04 182.02C118.806 182.409 119.499 182.927 120.09 183.55" stroke="black" stroke-linecap="round" stroke-linejoin="round"/>
<path d="M120.81 186.25C120.826 186.294 120.852 186.334 120.887 186.366C120.922 186.397 120.964 186.419 121.01 186.43" fill="#282828"/>
<path d="M120.81 186.25C120.826 186.294 120.852 186.334 120.887 186.366C120.922 186.397 120.964 186.419 121.01 186.43" stroke="black" stroke-linecap="round" stroke-linejoin="round"/>
<path d="M117.18 198.72L117.67 197.32C117.95 196.51 118.23 195.7 118.47 194.88C118.676 194.28 118.751 193.642 118.69 193.01C118.556 192.424 118.308 191.87 117.96 191.38C117.61 190.8 117.25 190.23 116.89 189.67C116.718 189.37 116.499 189.099 116.24 188.87C115.94 188.648 115.601 188.485 115.24 188.39C114.414 188.14 113.567 187.962 112.71 187.86C111.86 187.76 111.34 187.86 110.66 187.21C109.455 186.049 108.594 184.579 108.17 182.96" fill="#282828"/>
<path d="M117.18 198.72L117.67 197.32C117.95 196.51 118.23 195.7 118.47 194.88C118.676 194.28 118.751 193.642 118.69 193.01C118.556 192.424 118.308 191.87 117.96 191.38C117.61 190.8 117.25 190.23 116.89 189.67C116.718 189.37 116.499 189.099 116.24 188.87C115.94 188.648 115.601 188.485 115.24 188.39C114.414 188.14 113.567 187.962 112.71 187.86C111.86 187.76 111.34 187.86 110.66 187.21C109.455 186.049 108.594 184.579 108.17 182.96" stroke="black" stroke-linecap="round" stroke-linejoin="round"/>
<path d="M107.26 180.72L106.92 180.43Z" fill="#282828"/>
<path d="M107.26 180.72L106.92 180.43" stroke="black" stroke-linecap="round" stroke-linejoin="round"/>
<path d="M43.9101 318.43C42.258 317.443 40.8307 316.121 39.7201 314.55C39.1065 313.397 38.7512 312.125 38.6787 310.821C38.6061 309.517 38.8182 308.213 39.3001 307C39.9154 305.354 40.8732 303.858 42.1101 302.61C42.3836 302.289 42.7252 302.032 43.1101 301.86C43.4845 301.741 43.8786 301.697 44.2701 301.73C48.6901 301.84 52.7501 304 56.8701 305.61C58.4184 306.151 59.9256 306.802 61.3801 307.56C62.7401 308.454 63.9346 309.577 64.9101 310.88C66.1782 312.392 67.3031 314.019 68.2701 315.74C68.6801 316.42 69.5301 320.44 70.2101 320.85C71.4108 321.46 72.6944 321.891 74.0201 322.13C75.7601 322.63 76.7801 324.38 77.5201 326.02C77.9589 326.797 78.131 327.696 78.0101 328.58C77.6352 329.536 76.9239 330.322 76.0101 330.79C73.3101 332.55 70.3901 334.13 67.1101 333.1C64.3201 332.22 62.0001 330.03 59.4601 328.63C54.1055 325.498 48.9153 322.094 43.9101 318.43V318.43Z" fill="#282828" stroke="black" stroke-linecap="round" stroke-linejoin="round"/>
<path d="M60.69 317.38C61.6858 319.534 63.4258 321.256 65.59 322.23Z" fill="#282828"/>
<path d="M60.69 317.38C61.6858 319.534 63.4258 321.256 65.59 322.23" stroke="black" stroke-linecap="round" stroke-linejoin="round"/>
<path d="M66.78 320.85C67.3312 321.281 67.9494 321.619 68.61 321.85Z" fill="#282828"/>
<path d="M66.78 320.85C67.3312 321.281 67.9494 321.619 68.61 321.85" stroke="black" stroke-linecap="round" stroke-linejoin="round"/>
<path d="M56.78 311.51L57.58 312.41L56.95 311.68" fill="#282828"/>
<path d="M56.78 311.51L57.58 312.41L56.95 311.68" stroke="black" stroke-linecap="round" stroke-linejoin="round"/>
<path d="M443.14 349.14C441.613 349.045 440.145 348.514 438.91 347.61C437.83 346.92 436.49 346.34 436.04 345.02C435.952 344.646 435.957 344.256 436.055 343.885C436.153 343.514 436.34 343.172 436.6 342.89C437.106 342.218 437.725 341.639 438.43 341.18C438.65 341.007 438.902 340.879 439.171 340.804C439.441 340.728 439.722 340.706 440 340.74C440.331 340.834 440.634 341.009 440.88 341.25C441.934 342.162 442.739 343.327 443.218 344.635C443.697 345.944 443.836 347.353 443.62 348.73C443.609 348.828 443.571 348.922 443.51 349C443.462 349.048 443.404 349.085 443.34 349.109C443.276 349.133 443.208 349.143 443.14 349.14Z" fill="#282828" stroke="black" stroke-linecap="round" stroke-linejoin="round"/>
<path d="M663.59 307.79C662.069 307.702 660.605 307.181 659.37 306.29C658.3 305.61 656.95 305.02 656.5 303.7C656.414 303.326 656.42 302.937 656.518 302.566C656.615 302.195 656.801 301.853 657.06 301.57C657.57 300.898 658.193 300.319 658.9 299.86C659.118 299.688 659.369 299.561 659.636 299.487C659.904 299.413 660.184 299.394 660.46 299.43C660.791 299.518 661.094 299.69 661.34 299.93C662.394 300.842 663.199 302.007 663.678 303.315C664.157 304.624 664.296 306.033 664.08 307.41C664.069 307.511 664.031 307.608 663.97 307.69C663.861 307.771 663.725 307.806 663.59 307.79V307.79Z" fill="#282828" stroke="black" stroke-linecap="round" stroke-linejoin="round"/>
<path d="M695.4 254.19C693.879 254.102 692.415 253.581 691.18 252.69C690.11 252 688.76 251.42 688.31 250.1C688.224 249.726 688.23 249.337 688.328 248.966C688.425 248.595 688.611 248.253 688.87 247.97C689.38 247.298 690.003 246.719 690.71 246.26C690.928 246.087 691.179 245.961 691.447 245.887C691.714 245.813 691.994 245.794 692.27 245.83C692.601 245.918 692.904 246.09 693.15 246.33C694.208 247.239 695.016 248.403 695.499 249.712C695.982 251.021 696.123 252.431 695.91 253.81C695.899 253.911 695.861 254.008 695.8 254.09C695.743 254.132 695.679 254.163 695.61 254.18C695.541 254.197 695.47 254.201 695.4 254.19V254.19Z" fill="#282828" stroke="black" stroke-linecap="round" stroke-linejoin="round"/>
<path d="M569.81 193.61C570.488 192.938 571.28 192.393 572.15 192C574.31 191.08 577.29 191.72 579.47 192.26C592.64 195.5 605.62 201.26 614.79 211.26C615.901 212.33 616.747 213.645 617.26 215.1C618.18 218.35 616.05 222.1 617.1 224.57C615.52 224.9 616.05 227.41 614.82 228.69C614.22 229.32 613.29 229.54 612.6 230.08C611.6 230.88 611.27 232.25 610.52 233.29C609.35 234.92 607.29 235.6 605.36 236.19L584.53 242.55C583.704 242.875 582.814 243.001 581.93 242.92C580.64 242.68 579.71 241.61 578.78 240.71C575.51 237.52 571.09 235.66 567.98 232.31C564.08 228.13 562.66 222.09 559.98 217.42C559.66 215.28 557.98 213.03 557.98 210.58C558.135 208.84 558.773 207.178 559.82 205.78C561.994 202.355 564.521 199.168 567.36 196.27C568.12 195.41 568.91 194.43 569.81 193.61Z" fill="#282828" stroke="black" stroke-linecap="round" stroke-linejoin="round"/>
<path d="M604.91 219.05C606.953 220.382 608.767 222.037 610.28 223.95C610.809 224.696 611.408 225.389 612.07 226.02C612.95 226.76 614.07 227.28 614.58 228.33L614.33 227.98" fill="#282828"/>
<path d="M604.91 219.05C606.953 220.382 608.767 222.037 610.28 223.95C610.809 224.696 611.408 225.389 612.07 226.02C612.95 226.76 614.07 227.28 614.58 228.33L614.33 227.98" stroke="black" stroke-linecap="round" stroke-linejoin="round"/>
<path d="M602.72 217.49C602.595 217.315 602.428 217.175 602.233 217.084C602.039 216.993 601.824 216.954 601.61 216.97" fill="#282828"/>
<path d="M602.72 217.49C602.595 217.315 602.428 217.175 602.233 217.084C602.039 216.993 601.824 216.954 601.61 216.97" stroke="black" stroke-linecap="round" stroke-linejoin="round"/>
<path d="M598.47 214.47C598.192 214.591 597.88 214.609 597.59 214.52Z" fill="#282828"/>
<path d="M598.47 214.47C598.192 214.591 597.88 214.609 597.59 214.52" stroke="black" stroke-linecap="round" stroke-linejoin="round"/>
<path d="M558.33 210.61C558.46 212.45 559.7 213.99 560.89 215.39C564.55 219.72 568.54 224.26 573.98 225.82" fill="#282828"/>
<path d="M558.33 210.61C558.46 212.45 559.7 213.99 560.89 215.39C564.55 219.72 568.54 224.26 573.98 225.82" stroke="black" stroke-linecap="round" stroke-linejoin="round"/>
<path d="M575.73 224.98C577.531 226.04 579.406 226.969 581.34 227.76Z" fill="#282828"/>
<path d="M575.73 224.98C577.531 226.04 579.406 226.969 581.34 227.76" stroke="black" stroke-linecap="round" stroke-linejoin="round"/>
<path d="M583.1 226.75L585.1 227.01Z" fill="#282828"/>
<path d="M583.1 226.75L585.1 227.01" stroke="black" stroke-linecap="round" stroke-linejoin="round"/>
<path d="M574.75 233.31C576.7 235.87 579.55 237.58 582.32 239.23Z" fill="#282828"/>
<path d="M574.75 233.31C576.7 235.87 579.55 237.58 582.32 239.23" stroke="black" stroke-linecap="round" stroke-linejoin="round"/>
<path d="M576.56 232.13C577.804 233.458 579.204 234.63 580.73 235.62Z" fill="#282828"/>
<path d="M576.56 232.13C577.804 233.458 579.204 234.63 580.73 235.62" stroke="black" stroke-linecap="round" stroke-linejoin="round"/>
<path d="M578.91 231.41L580.4 232.07Z" fill="#282828"/>
<path d="M578.91 231.41L580.4 232.07" stroke="black" stroke-linecap="round" stroke-linejoin="round"/>
<path d="M636.54 228.84C629.71 228.02 622.82 226.84 616.01 226.37C611.27 226.01 605.71 227.11 601.01 224.97C597.01 223.11 594.01 218.37 590.81 215.1C586.711 210.805 582.836 206.303 579.2 201.61C570.76 190.73 563.2 179.1 555.77 167.42C553.48 163.82 551.11 159.96 550.77 155.78C550.36 150.96 552.71 146.78 555.03 143.09C556.32 141.01 557.78 138.84 560.03 138.19C562.83 137.37 565.93 139.12 568.69 140.81C599.69 159.81 630.9 178.99 658.94 203.6C660.117 204.446 660.991 205.649 661.43 207.03C661.503 207.743 661.434 208.463 661.228 209.149C661.022 209.836 660.683 210.475 660.23 211.03C657.284 215.605 653.969 219.933 650.32 223.97C648.59 225.88 646.73 227.76 644.32 228.6C641.91 229.44 639.18 229.16 636.54 228.84Z" fill="#282828" stroke="black" stroke-linecap="round" stroke-linejoin="round"/>
<path d="M636.54 228.84C629.71 228.02 622.82 226.84 616.01 226.37C611.27 226.01 605.71 227.11 601.01 224.97C597.01 223.11 594.01 218.37 590.81 215.1C586.711 210.805 582.836 206.303 579.2 201.61C570.76 190.73 563.2 179.1 555.77 167.42C553.48 163.82 551.11 159.96 550.77 155.78C550.36 150.96 552.71 146.78 555.03 143.09C556.32 141.01 557.78 138.84 560.03 138.19C562.83 137.37 565.93 139.12 568.69 140.81C599.69 159.81 630.9 178.99 658.94 203.6C660.117 204.446 660.991 205.649 661.43 207.03C661.503 207.743 661.434 208.463 661.228 209.149C661.022 209.836 660.683 210.475 660.23 211.03C657.284 215.605 653.969 219.933 650.32 223.97C648.59 225.88 646.73 227.76 644.32 228.6C641.91 229.44 639.18 229.16 636.54 228.84Z" fill="#282828" stroke="black" stroke-linecap="round" stroke-linejoin="round"/>
<path d="M620.62 212.14L620.2 210.51C620.086 210.186 620.086 209.834 620.2 209.51C620.226 209.438 620.272 209.375 620.332 209.328C620.392 209.281 620.464 209.252 620.54 209.244C620.616 209.235 620.693 209.248 620.762 209.281C620.831 209.314 620.889 209.366 620.93 209.43L620.77 212.43C620.792 212.381 620.804 212.328 620.804 212.275C620.804 212.221 620.792 212.168 620.77 212.12" fill="#282828"/>
<path d="M620.62 212.14L620.2 210.51C620.086 210.186 620.086 209.834 620.2 209.51C620.226 209.438 620.272 209.375 620.332 209.328C620.392 209.281 620.464 209.252 620.54 209.244C620.616 209.235 620.693 209.248 620.762 209.281C620.831 209.314 620.889 209.366 620.93 209.43L620.77 212.43C620.792 212.381 620.804 212.328 620.804 212.275C620.804 212.221 620.792 212.168 620.77 212.12" stroke="black" stroke-linecap="round" stroke-linejoin="round"/>
<path d="M640.42 199.14C640.834 199.367 641.182 199.697 641.431 200.098C641.68 200.499 641.821 200.958 641.84 201.43C641.864 202.337 641.711 203.241 641.39 204.09L637.33 217.23" fill="#282828"/>
<path d="M640.42 199.14C640.834 199.367 641.182 199.697 641.431 200.098C641.68 200.499 641.821 200.958 641.84 201.43C641.864 202.337 641.711 203.241 641.39 204.09L637.33 217.23" stroke="black" stroke-linecap="round" stroke-linejoin="round"/>
<path d="M645.21 207.8C644.221 208.827 643.506 210.085 643.13 211.46Z" fill="#282828"/>
<path d="M645.21 207.8C644.221 208.827 643.506 210.085 643.13 211.46" stroke="black" stroke-linecap="round" stroke-linejoin="round"/>
<path d="M627.84 227.22C629.724 226.678 631.442 225.674 632.84 224.3Z" fill="#282828"/>
<path d="M627.84 227.22C629.724 226.678 631.442 225.674 632.84 224.3" stroke="black" stroke-linecap="round" stroke-linejoin="round"/>
<path d="M592.57 217.02C590.18 213.91 587.9 208.62 586.21 205.02C585.383 203.166 584.434 201.369 583.37 199.64C582.87 198.89 582.37 198.17 581.9 197.38C581.21 196.14 580.76 194.71 579.76 193.75" fill="#282828"/>
<path d="M592.57 217.02C590.18 213.91 587.9 208.62 586.21 205.02C585.383 203.166 584.434 201.369 583.37 199.64C582.87 198.89 582.37 198.17 581.9 197.38C581.21 196.14 580.76 194.71 579.76 193.75" stroke="black" stroke-linecap="round" stroke-linejoin="round"/>
<path d="M577.22 188.22L576.49 187.56Z" fill="#282828"/>
<path d="M577.22 188.22L576.49 187.56" stroke="black" stroke-linecap="round" stroke-linejoin="round"/>
<path d="M573.76 184.61L573.54 184.31Z" fill="#282828"/>
<path d="M573.76 184.61L573.54 184.31" stroke="black" stroke-linecap="round" stroke-linejoin="round"/>
<path d="M625 187.04C625.976 188.032 627.04 188.933 628.18 189.73L635.18 195.01C636.879 196.41 638.755 197.58 640.76 198.49C642.783 199.151 644.852 199.663 646.95 200.02C651.49 201.02 655.72 203.12 659.95 205.17C649.42 195.64 638.19 187.56 625.95 178.23C618.61 172.62 610.23 167.9 602.7 162.55C600.388 160.755 597.967 159.105 595.45 157.61C590.66 155.01 581.92 148.98 581.92 149.97C590.92 160.36 604.32 173.66 617.37 182.76C615.87 179.9 613.21 176.69 613.22 173.42C615.22 175.1 617.16 175.74 618.76 177.81C621.06 180.73 622.46 184.31 625 187.04Z" fill="#4B4B4C"/>
<path d="M575.91 145.72C590.34 156.91 602.78 173.33 617.74 183.49C618.58 184.06 618.64 185.22 619.53 185.03C619.91 184.95 620.24 184.73 620.62 184.65C622.44 184.25 623.44 185.29 624.75 186.99C627.63 190.74 632.68 193.34 636.31 196.14C637.99 197.43 639.52 199.14 641.42 199.75C642.443 200.031 643.499 200.176 644.56 200.18C650.235 200.615 655.681 202.604 660.3 205.93" stroke="black" stroke-linecap="round" stroke-linejoin="round"/>
<path d="M619.13 178.61C620.848 180.739 622.422 182.98 623.84 185.32C624.319 185.978 624.659 186.726 624.84 187.52C624.919 188.461 624.736 189.406 624.31 190.25C623.77 191.59 623.94 192.98 623.4 194.32C623.23 194.76 621.17 200.69 620.72 200.57C620.46 200.49 620.27 193.86 620.24 193.57C619.84 189.34 619.41 186.22 617.14 182.35C616.45 181.18 612.8 173.61 613.22 173.42C613.91 173.13 618.35 177.7 619.13 178.61Z" fill="#282828" stroke="black" stroke-linecap="round" stroke-linejoin="round"/>
<path d="M634.78 300.69C632.828 298.908 630.704 297.323 628.44 295.96C626.18 294.6 624.13 293.11 621.98 291.54C620.78 290.67 619.7 290.45 619.24 288.85C618.62 286.67 620.18 284.52 621.67 282.85C624.52 279.61 627.85 276.27 632.13 275.76C634.86 275.44 637.57 276.34 640.13 277.31C642.357 277.991 644.405 279.155 646.13 280.72C649.2 283.93 649.22 288.92 648.75 293.33C648.49 295.77 648.137 298.193 647.69 300.6C647.642 301.34 647.35 302.043 646.86 302.6C646.322 303.008 645.674 303.248 645 303.29C642.4 303.7 639.57 304.07 637.27 302.79C636.362 302.188 635.526 301.483 634.78 300.69Z" fill="#282828" stroke="black" stroke-linecap="round" stroke-linejoin="round"/>
<path d="M633.12 275.78C634.732 276.268 636.156 277.238 637.2 278.56C638.087 279.492 638.714 280.64 639.02 281.89C639.32 283.47 638.85 285.26 639.72 286.63" fill="#282828"/>
<path d="M633.12 275.78C634.732 276.268 636.156 277.238 637.2 278.56C638.087 279.492 638.714 280.64 639.02 281.89C639.32 283.47 638.85 285.26 639.72 286.63" stroke="black" stroke-linecap="round" stroke-linejoin="round"/>
<path d="M639.91 289.9C640.137 290.562 640.476 291.181 640.91 291.73Z" fill="#282828"/>
<path d="M639.91 289.9C640.137 290.562 640.476 291.181 640.91 291.73" stroke="black" stroke-linecap="round" stroke-linejoin="round"/>
<path d="M642.04 293.97C642.12 294.095 642.229 294.2 642.358 294.275C642.486 294.35 642.631 294.393 642.78 294.4" fill="#282828"/>
<path d="M642.04 293.97C642.12 294.095 642.229 294.2 642.358 294.275C642.486 294.35 642.631 294.393 642.78 294.4" stroke="black" stroke-linecap="round" stroke-linejoin="round"/>
<path d="M646.53 295C646.918 294.989 647.292 294.85 647.593 294.604C647.894 294.358 648.104 294.018 648.19 293.64" fill="#282828"/>
<path d="M646.53 295C646.918 294.989 647.292 294.85 647.593 294.604C647.894 294.358 648.104 294.018 648.19 293.64" stroke="black" stroke-linecap="round" stroke-linejoin="round"/>
<path d="M631.19 294.61C631.902 295.632 632.773 296.533 633.77 297.28Z" fill="#282828"/>
<path d="M631.19 294.61C631.902 295.632 632.773 296.533 633.77 297.28" stroke="black" stroke-linecap="round" stroke-linejoin="round"/>
<path d="M631.91 291.98C631.918 292.095 631.961 292.205 632.032 292.296C632.103 292.387 632.2 292.454 632.31 292.49" fill="#282828"/>
<path d="M631.91 291.98C631.918 292.095 631.961 292.205 632.032 292.296C632.103 292.387 632.2 292.454 632.31 292.49" stroke="black" stroke-linecap="round" stroke-linejoin="round"/>
<path d="M149.15 264.55C148.651 262.888 147.981 261.283 147.15 259.76C146.34 258.23 145.7 256.7 145.01 255.1C144.63 254.2 144.1 253.71 144.38 252.66C144.77 251.22 146.38 250.54 147.78 250.09C150.47 249.23 153.47 248.47 156.05 249.63C157.65 250.486 159.022 251.714 160.05 253.21C161.071 254.338 161.826 255.681 162.26 257.14C162.91 259.98 161.26 262.79 159.49 265.14C158.49 266.42 157.49 267.67 156.44 268.87C156.161 269.253 155.77 269.54 155.32 269.69C154.879 269.735 154.435 269.652 154.04 269.45C152.44 268.8 150.72 268.06 149.86 266.56C149.549 265.919 149.311 265.244 149.15 264.55V264.55Z" fill="#282828" stroke="black" stroke-linecap="round" stroke-linejoin="round"/>
<path d="M156.62 249.99C157.359 250.81 157.833 251.835 157.98 252.93C158.159 253.752 158.121 254.607 157.87 255.41C157.51 256.41 156.64 257.26 156.67 258.31" fill="#282828"/>
<path d="M156.62 249.99C157.359 250.81 157.833 251.835 157.98 252.93C158.159 253.752 158.121 254.607 157.87 255.41C157.51 256.41 156.64 257.26 156.67 258.31" stroke="black" stroke-linecap="round" stroke-linejoin="round"/>
<path d="M155.69 260.23C155.599 260.677 155.582 261.137 155.64 261.59Z" fill="#282828"/>
<path d="M155.69 260.23C155.599 260.677 155.582 261.137 155.64 261.59" stroke="black" stroke-linecap="round" stroke-linejoin="round"/>
<path d="M155.5 263.22C155.502 263.319 155.527 263.416 155.574 263.503C155.621 263.589 155.688 263.664 155.77 263.72" fill="#282828"/>
<path d="M155.5 263.22C155.502 263.319 155.527 263.416 155.574 263.503C155.621 263.589 155.688 263.664 155.77 263.72" stroke="black" stroke-linecap="round" stroke-linejoin="round"/>
<path d="M157.68 265.32C157.902 265.445 158.159 265.493 158.411 265.455C158.663 265.417 158.895 265.295 159.07 265.11" fill="#282828"/>
<path d="M157.68 265.32C157.902 265.445 158.159 265.493 158.411 265.455C158.663 265.417 158.895 265.295 159.07 265.11" stroke="black" stroke-linecap="round" stroke-linejoin="round"/>
<path d="M149.2 259.9C149.257 260.714 149.443 261.514 149.75 262.27Z" fill="#282828"/>
<path d="M149.2 259.9C149.257 260.714 149.443 261.514 149.75 262.27" stroke="black" stroke-linecap="round" stroke-linejoin="round"/>
<path d="M150.46 258.68C150.419 258.742 150.397 258.815 150.397 258.89C150.397 258.964 150.419 259.037 150.46 259.1" fill="#282828"/>
<path d="M150.46 258.68C150.419 258.742 150.397 258.815 150.397 258.89C150.397 258.964 150.419 259.037 150.46 259.1" stroke="black" stroke-linecap="round" stroke-linejoin="round"/>
<path d="M734.62 250.15C735.251 250.051 735.897 250.136 736.48 250.395C737.064 250.654 737.56 251.076 737.91 251.61C739.78 253.67 741.65 255.73 743.49 257.82C746.12 260.82 748.76 263.97 750.04 267.75C750.247 268.223 750.353 268.734 750.353 269.25C750.353 269.766 750.247 270.277 750.04 270.75C749.583 271.374 748.964 271.861 748.25 272.16C747.591 272.69 746.782 272.998 745.937 273.039C745.093 273.08 744.257 272.853 743.55 272.39C736.11 268.67 728.55 264.86 722.67 258.96C721.855 258.188 721.14 257.318 720.54 256.37C720.397 256.151 720.308 255.9 720.28 255.64C720.302 255.382 720.38 255.133 720.51 254.91C721.51 252.81 722.81 250.91 725.29 250.62C728.4 250.33 731.53 250.23 734.62 250.15Z" fill="#282828" stroke="black" stroke-linecap="round" stroke-linejoin="round"/>
<path d="M746.24 273.04C745.507 272.563 744.805 272.038 744.14 271.47L735.95 264.77" fill="#282828"/>
<path d="M746.24 273.04C745.507 272.563 744.805 272.038 744.14 271.47L735.95 264.77" stroke="black" stroke-linecap="round" stroke-linejoin="round"/>
<path d="M733.96 263.61C730.53 260.66 725.61 259.86 722.26 256.82C721.81 256.42 721.26 255.95 720.69 256.18" fill="#282828"/>
<path d="M733.96 263.61C730.53 260.66 725.61 259.86 722.26 256.82C721.81 256.42 721.26 255.95 720.69 256.18" stroke="black" stroke-linecap="round" stroke-linejoin="round"/>
<path d="M699.29 145.16C698.07 143.932 696.73 142.83 695.29 141.87C693.86 140.87 692.56 139.87 691.2 138.78C690.44 138.17 689.74 138 689.49 136.93C689.14 135.49 690.23 134.13 691.26 133.06C693.26 131.06 695.5 128.94 698.32 128.73C700.128 128.735 701.91 129.167 703.52 129.99C704.957 130.504 706.262 131.33 707.34 132.41C709.25 134.6 709.12 137.87 708.67 140.74C708.43 142.33 708.12 143.91 707.76 145.47C707.754 145.701 707.701 145.929 707.604 146.139C707.507 146.349 707.368 146.537 707.196 146.691C707.023 146.846 706.821 146.964 706.602 147.037C706.383 147.111 706.151 147.139 705.92 147.12C704.2 147.31 702.34 147.47 700.92 146.55C700.323 146.153 699.776 145.687 699.29 145.16V145.16Z" fill="#282828" stroke="black" stroke-linecap="round" stroke-linejoin="round"/>
<path d="M698.96 128.8C700.001 129.167 700.905 129.844 701.55 130.74C702.099 131.376 702.471 132.145 702.63 132.97C702.79 134.02 702.43 135.18 702.95 136.1" fill="#282828"/>
<path d="M698.96 128.8C700.001 129.167 700.905 129.844 701.55 130.74C702.099 131.376 702.471 132.145 702.63 132.97C702.79 134.02 702.43 135.18 702.95 136.1" stroke="black" stroke-linecap="round" stroke-linejoin="round"/>
<path d="M703 138.25C703.129 138.688 703.332 139.101 703.6 139.47Z" fill="#282828"/>
<path d="M703 138.25C703.129 138.688 703.332 139.101 703.6 139.47" stroke="black" stroke-linecap="round" stroke-linejoin="round"/>
<path d="M704.25 140.98C704.299 141.064 704.367 141.135 704.449 141.187C704.53 141.239 704.623 141.271 704.72 141.28" fill="#282828"/>
<path d="M704.25 140.98C704.299 141.064 704.367 141.135 704.449 141.187C704.53 141.239 704.623 141.271 704.72 141.28" stroke="black" stroke-linecap="round" stroke-linejoin="round"/>
<path d="M707.16 141.79C707.413 141.792 707.66 141.712 707.863 141.56C708.065 141.408 708.212 141.193 708.28 140.95" fill="#282828"/>
<path d="M707.16 141.79C707.413 141.792 707.66 141.712 707.863 141.56C708.065 141.408 708.212 141.193 708.28 140.95" stroke="black" stroke-linecap="round" stroke-linejoin="round"/>
<path d="M697.13 141.04C697.562 141.732 698.106 142.347 698.74 142.86Z" fill="#282828"/>
<path d="M697.13 141.04C697.562 141.732 698.106 142.347 698.74 142.86" stroke="black" stroke-linecap="round" stroke-linejoin="round"/>
<path d="M697.66 139.36C697.661 139.435 697.684 139.509 697.727 139.572C697.769 139.634 697.83 139.682 697.9 139.71" fill="#282828"/>
<path d="M697.66 139.36C697.661 139.435 697.684 139.509 697.727 139.572C697.769 139.634 697.83 139.682 697.9 139.71" stroke="black" stroke-linecap="round" stroke-linejoin="round"/>
<path d="M540.73 325.61C539.99 326.61 538.58 325.67 537.73 325.46C536.88 325.25 535.87 325.28 535.1 324.46C534.665 323.971 534.392 323.36 534.32 322.71C534.059 321.474 534.002 320.204 534.15 318.95C534.215 318.449 534.423 317.977 534.75 317.592C535.076 317.206 535.506 316.922 535.989 316.775C536.472 316.627 536.987 316.621 537.474 316.759C537.96 316.896 538.396 317.171 538.73 317.55C539.308 318.145 539.751 318.858 540.03 319.64C540.66 321.186 540.979 322.84 540.97 324.51C541.01 324.893 540.926 325.278 540.73 325.61V325.61Z" fill="#282828" stroke="black" stroke-linecap="round" stroke-linejoin="round"/>
<path d="M536.73 316.79L537.22 319.71C537.318 320.447 537.482 321.173 537.71 321.88C537.822 322.287 538.019 322.666 538.288 322.992C538.557 323.317 538.892 323.583 539.27 323.77C539.517 323.85 539.783 323.85 540.03 323.77C540.157 323.735 540.271 323.664 540.359 323.567C540.447 323.47 540.507 323.349 540.53 323.22" fill="#282828"/>
<path d="M536.73 316.79L537.22 319.71C537.318 320.447 537.482 321.173 537.71 321.88C537.822 322.287 538.019 322.666 538.288 322.992C538.557 323.317 538.892 323.583 539.27 323.77C539.517 323.85 539.783 323.85 540.03 323.77C540.157 323.735 540.271 323.664 540.359 323.567C540.447 323.47 540.507 323.349 540.53 323.22" stroke="black" stroke-linecap="round" stroke-linejoin="round"/>
<path d="M698.91 203.08C698.17 204.08 696.76 203.08 695.91 202.93C695.06 202.78 694.05 202.75 693.28 201.93C692.846 201.446 692.577 200.837 692.51 200.19C692.241 198.955 692.18 197.685 692.33 196.43C692.395 195.929 692.603 195.458 692.93 195.072C693.256 194.686 693.686 194.403 694.169 194.255C694.652 194.107 695.168 194.102 695.654 194.239C696.14 194.377 696.576 194.651 696.91 195.03C697.488 195.626 697.931 196.338 698.21 197.12C698.838 198.667 699.161 200.321 699.16 201.99C699.19 202.37 699.103 202.751 698.91 203.08V203.08Z" fill="#282828" stroke="black" stroke-linecap="round" stroke-linejoin="round"/>
<path d="M694.91 194.29L695.4 197.21C695.503 197.946 695.667 198.672 695.89 199.38C696.002 199.787 696.199 200.166 696.468 200.492C696.737 200.817 697.072 201.083 697.45 201.27C697.697 201.35 697.963 201.35 698.21 201.27C698.337 201.235 698.451 201.164 698.539 201.067C698.627 200.97 698.687 200.849 698.71 200.72" fill="#282828"/>
<path d="M694.91 194.29L695.4 197.21C695.503 197.946 695.667 198.672 695.89 199.38C696.002 199.787 696.199 200.166 696.468 200.492C696.737 200.817 697.072 201.083 697.45 201.27C697.697 201.35 697.963 201.35 698.21 201.27C698.337 201.235 698.451 201.164 698.539 201.067C698.627 200.97 698.687 200.849 698.71 200.72" stroke="black" stroke-linecap="round" stroke-linejoin="round"/>
<path d="M72.6301 148.86C66.3401 146.69 60.0501 144.52 53.9501 141.86C52.3426 141.303 50.8873 140.378 49.7001 139.16C47.9901 137.16 47.9201 134.16 48.1101 131.53C48.4488 126.746 49.3414 122.018 50.7701 117.44C50.9496 116.532 51.4591 115.724 52.2001 115.17C52.7934 114.896 53.4503 114.788 54.1001 114.86C55.9807 114.928 57.8499 115.182 59.6801 115.62C62.6764 116.293 65.5193 117.525 68.0601 119.25C71.8001 121.83 74.6001 125.53 77.3401 129.16L90.1801 146.16C90.9301 147.16 91.6901 148.53 90.9701 149.53C90.7334 149.827 90.4326 150.066 90.0901 150.23C87.2639 151.841 83.965 152.417 80.7601 151.86C76.1401 151.05 72.1601 147.97 67.5401 147.13" fill="#282828"/>
<path d="M72.6301 148.86C66.3401 146.69 60.0501 144.52 53.9501 141.86C52.3426 141.303 50.8873 140.378 49.7001 139.16C47.9901 137.16 47.9201 134.16 48.1101 131.53C48.4488 126.746 49.3414 122.018 50.7701 117.44C50.9496 116.532 51.4591 115.724 52.2001 115.17C52.7934 114.896 53.4503 114.788 54.1001 114.86C55.9807 114.928 57.8499 115.182 59.6801 115.62C62.6764 116.293 65.5193 117.525 68.0601 119.25C71.8001 121.83 74.6001 125.53 77.3401 129.16L90.1801 146.16C90.9301 147.16 91.6901 148.53 90.9701 149.53C90.7334 149.827 90.4326 150.066 90.0901 150.23C87.2639 151.841 83.965 152.417 80.7601 151.86C76.1401 151.05 72.1601 147.97 67.5401 147.13" stroke="black" stroke-linecap="round" stroke-linejoin="round"/>
<path d="M52.0101 115.32C53.8701 117.85 54.0101 121.19 54.3401 124.32C54.6701 127.45 55.4501 130.85 58.0201 132.64" stroke="black" stroke-linecap="round" stroke-linejoin="round"/>
<path d="M68.91 124.03C72.748 126.155 76.1426 128.996 78.91 132.4" stroke="black" stroke-linecap="round" stroke-linejoin="round"/>
<path d="M65.83 121.61C66.15 121.98 66.4601 122.35 66.7701 122.73C66.9301 122.86 66.9301 122.83 66.7701 122.64" stroke="black" stroke-linecap="round" stroke-linejoin="round"/>
<path d="M67.9901 143.49C71.6174 145.763 75.3589 147.85 79.2001 149.74C79.6254 150.025 80.1072 150.216 80.6128 150.299C81.1184 150.382 81.6358 150.355 82.1301 150.22C82.6001 150.01 83.04 149.58 83.55 149.68C83.7619 149.742 83.9691 149.818 84.1701 149.91C84.4632 149.975 84.7669 149.975 85.0601 149.91C86.4201 149.69 87.78 149.41 89.12 149.07C89.53 148.97 90.01 148.81 90.12 148.4C90.1653 148.206 90.1653 148.004 90.12 147.81L89.98 146.12" stroke="black" stroke-linecap="round" stroke-linejoin="round"/>
<path d="M733.42 267.61C733.629 268.224 733.727 268.871 733.71 269.52C733.62 271.12 732.33 272.75 731.35 273.92C725.42 280.99 718.01 287.19 709.15 289.79C708.166 290.151 707.111 290.275 706.07 290.15C703.81 289.74 702.18 287.32 700.33 287.21C700.6 286.14 698.91 285.71 698.5 284.59C698.397 284.001 698.333 283.407 698.31 282.81C698.13 281.96 697.39 281.35 696.98 280.58C696.481 279.304 696.403 277.902 696.76 276.58L699.12 261.94C699.168 261.336 699.36 260.753 699.68 260.24C700.306 259.608 701.101 259.17 701.97 258.98C704.9 257.98 707.36 255.8 710.34 254.9C714.06 253.78 718.18 254.72 721.84 254.47C723.25 254.92 725.14 254.54 726.63 255.29C727.643 255.908 728.467 256.794 729.01 257.85C730.443 260.21 731.632 262.709 732.56 265.31C732.82 266.05 733.18 266.82 733.42 267.61Z" fill="#282828" stroke="black" stroke-linecap="round" stroke-linejoin="round"/>
<path d="M707.33 281.44C705.905 282.29 704.352 282.901 702.73 283.25C702.115 283.349 701.512 283.509 700.93 283.73C700.278 284.16 699.542 284.447 698.77 284.57L699.05 284.51" fill="#282828"/>
<path d="M707.33 281.44C705.905 282.29 704.352 282.901 702.73 283.25C702.115 283.349 701.512 283.509 700.93 283.73C700.278 284.16 699.542 284.447 698.77 284.57L699.05 284.51" stroke="black" stroke-linecap="round" stroke-linejoin="round"/>
<path d="M708.91 280.55C709.055 280.527 709.192 280.467 709.308 280.376C709.423 280.285 709.514 280.166 709.57 280.03" fill="#282828"/>
<path d="M708.91 280.55C709.055 280.527 709.192 280.467 709.308 280.376C709.423 280.285 709.514 280.166 709.57 280.03" stroke="black" stroke-linecap="round" stroke-linejoin="round"/>
<path d="M712.07 278.86C712.084 278.654 712.169 278.46 712.31 278.31Z" fill="#282828"/>
<path d="M712.07 278.86C712.084 278.654 712.169 278.46 712.31 278.31" stroke="black" stroke-linecap="round" stroke-linejoin="round"/>
<path d="M726.46 255.5C725.248 255.149 723.955 255.194 722.77 255.63C719.03 256.56 715.06 257.63 712.47 260.5" fill="#282828"/>
<path d="M726.46 255.5C725.248 255.149 723.955 255.194 722.77 255.63C719.03 256.56 715.06 257.63 712.47 260.5" stroke="black" stroke-linecap="round" stroke-linejoin="round"/>
<path d="M712.47 261.82C711.286 262.605 710.156 263.471 709.09 264.41Z" fill="#282828"/>
<path d="M712.47 261.82C711.286 262.605 710.156 263.471 709.09 264.41" stroke="black" stroke-linecap="round" stroke-linejoin="round"/>
<path d="M709.18 265.79L708.42 266.93Z" fill="#282828"/>
<path d="M709.18 265.79L708.42 266.93" stroke="black" stroke-linecap="round" stroke-linejoin="round"/>
<path d="M707.68 258.72C705.554 259.288 703.555 260.256 701.79 261.57Z" fill="#282828"/>
<path d="M707.68 258.72C705.554 259.288 703.555 260.256 701.79 261.57" stroke="black" stroke-linecap="round" stroke-linejoin="round"/>
<path d="M707.91 260.18C706.724 260.543 705.586 261.046 704.52 261.68Z" fill="#282828"/>
<path d="M707.91 260.18C706.724 260.543 705.586 261.046 704.52 261.68" stroke="black" stroke-linecap="round" stroke-linejoin="round"/>
<path d="M707.59 261.83L706.74 262.54Z" fill="#282828"/>
<path d="M707.59 261.83L706.74 262.54" stroke="black" stroke-linecap="round" stroke-linejoin="round"/>
<path d="M461.91 343.61C461.788 343.269 461.701 342.918 461.65 342.56C461.4 340.86 461.89 338.89 460.8 337.56C460.374 337.112 459.885 336.728 459.35 336.42C457.04 334.82 455.51 332.35 454.04 329.95C453.676 329.48 453.476 328.904 453.47 328.31C453.594 327.744 453.899 327.235 454.34 326.86C457.23 323.86 461.54 319.86 465.52 318.44C467.52 317.72 470.52 318.44 472.61 318.65C475.043 318.923 477.46 319.327 479.85 319.86C492.34 322.62 502.61 329.44 514.12 334.3C526.282 339.443 536.914 347.633 544.99 358.08C546.934 360.487 548.563 363.131 549.84 365.95C550.92 368.5 550.27 371.49 549.08 373.95C548.88 374.419 548.579 374.839 548.2 375.18C547.711 375.538 547.141 375.768 546.54 375.85C542.7 376.61 538.75 375.77 534.88 375.13C531.01 374.49 526.88 374.13 523.31 375.64C520.68 376.77 518.79 376.64 515.97 376.64C512.069 376.631 508.171 376.428 504.29 376.03C500.73 375.59 497.78 373.86 494.36 373.9C490.73 373.95 488.88 370.9 486.63 368.64C483.96 365.94 480.89 363.57 478.06 361.04C474.98 358.29 471.98 355.46 469.06 352.58C466.58 350.14 464.06 348.27 462.46 345.02C462.243 344.564 462.059 344.092 461.91 343.61V343.61Z" fill="#282828" stroke="black" stroke-linecap="round" stroke-linejoin="round"/>
<path d="M465.74 318.22C471.851 323.201 477.642 328.562 483.08 334.27C485.26 336.56 487.53 338.99 490.54 339.92C492.62 340.56 494.86 340.41 497.02 340.68C499.18 340.95 501.48 341.84 502.47 343.77C507.25 344.436 512.013 345.21 516.76 346.09C515.013 347.515 513.048 348.649 510.94 349.45C509.288 349.884 507.678 350.466 506.13 351.19C504.65 352.04 503.4 353.64 503.66 355.33C505.76 355.17 507.81 355.95 509.85 356.5C512.567 357.156 515.327 357.614 518.11 357.87C520.218 357.986 522.305 358.345 524.33 358.94L531.54 361.36" stroke="black" stroke-linecap="round" stroke-linejoin="round"/>
<path d="M504.19 355.12L494.11 368.61C493.52 369.39 492.77 370.26 491.79 370.21C491.748 371.08 491.464 371.922 490.97 372.64" stroke="black" stroke-linecap="round" stroke-linejoin="round"/>
<path d="M502.91 343.76C498.91 348.76 498.16 355.66 494.91 361.18" stroke="black" stroke-linecap="round" stroke-linejoin="round"/>
<path d="M493.91 363.03C493.904 363.29 493.796 363.538 493.61 363.72" stroke="black" stroke-linecap="round" stroke-linejoin="round"/>
<path d="M489.14 339.71C487.9 343.283 486.763 346.887 485.73 350.52" stroke="black" stroke-linecap="round" stroke-linejoin="round"/>
<path d="M484.72 355.2C484.772 355.313 484.789 355.439 484.769 355.561C484.75 355.684 484.694 355.798 484.61 355.89" stroke="black" stroke-linecap="round" stroke-linejoin="round"/>
<path d="M483.26 359.03C482.873 360.595 482.351 362.124 481.7 363.6C481.7 363.67 481.62 363.75 481.55 363.74C481.48 363.73 481.55 363.58 481.55 363.64" stroke="black" stroke-linecap="round" stroke-linejoin="round"/>
<path d="M540.53 362.76C541.514 363.368 542.564 363.861 543.66 364.23" stroke="black" stroke-linecap="round" stroke-linejoin="round"/>
<path d="M51.2901 213.82C47.6901 214.35 44.86 215.87 41.21 215.82C36.87 215.74 32.52 215.51 28.21 215.27C20.08 214.81 14.67 215.63 6.91005 213.81C5.66005 213.52 1.15005 211.27 1.00005 209.99C0.996522 209.34 1.18432 208.704 1.54005 208.16L13.72 185.31C16.07 180.91 19.38 175.89 24.37 175.94C28.31 175.94 31.37 179.21 34.51 181.54C36.9441 183.175 39.4608 184.684 42.05 186.06C50.0619 190.767 56.8708 197.272 61.94 205.06C62.5199 205.846 62.9287 206.746 63.14 207.7C63.5 210.18 61.14 212.34 58.78 213.04C56.42 213.74 53.7701 213.45 51.2901 213.82Z" fill="#282828" stroke="black" stroke-linecap="round" stroke-linejoin="round"/>
<path d="M23.3801 176.32C24.7073 176.831 25.8002 177.813 26.451 179.078C27.1019 180.343 27.2652 181.802 26.9101 183.18C26.3201 185.28 24.6501 187.4 25.5401 189.4C26.0217 190.229 26.711 190.918 27.5401 191.4L32.8401 195.1C33.3817 195.556 34.0114 195.897 34.6901 196.1C35.4564 196.17 36.2283 196.149 36.9901 196.04C38.0346 196.018 39.0645 196.288 39.965 196.817C40.8656 197.347 41.6012 198.116 42.0901 199.04C39.7556 200.475 37.6686 202.278 35.9101 204.38C36.3001 205.69 37.8201 206.22 39.1401 206.56L59.73 211.92" stroke="black" stroke-linecap="round" stroke-linejoin="round"/>
<path d="M35.91 204.38C35.23 206.38 34.42 207.99 33.73 209.97C33.6906 210.14 33.5998 210.293 33.47 210.41" stroke="black" stroke-linecap="round" stroke-linejoin="round"/>
<path d="M41.97 198.75L47.37 200.43" stroke="black" stroke-linecap="round" stroke-linejoin="round"/>
<path d="M46.09 197.11L47.33 197.77" stroke="black" stroke-linecap="round" stroke-linejoin="round"/>
<defs>
<linearGradient id="paint0_linear_217:597" x1="288.64" y1="374" x2="446.18" y2="77.7199" gradientUnits="userSpaceOnUse">
<stop stop-color="#8F86DA"/>
<stop offset="1" stop-color="#C7EDEF"/>
</linearGradient>
<linearGradient id="paint1_linear_217:597" x1="411.75" y1="141.97" x2="430.25" y2="106.97" gradientUnits="userSpaceOnUse">
<stop stop-color="#C7EDEF" stop-opacity="0"/>
<stop offset="1" stop-color="#C7EDEF" stop-opacity="0.2"/>
</linearGradient>
<linearGradient id="paint2_linear_217:597" x1="85777.3" y1="152846" x2="131413" y2="67016.2" gradientUnits="userSpaceOnUse">
<stop stop-color="#8F86DA"/>
<stop offset="1" stop-color="#C7EDEF"/>
</linearGradient>
</defs>
</svg>
