<svg width="100" height="100" viewBox="0 0 100 100" fill="none"
  xmlns="http://www.w3.org/2000/svg">
  <rect width="100" height="100" fill="#0061D5"/>
  <g clip-path="url(#clip0)">
    <path d="M84.475 64.7778C85.35 66.0093 85.175 67.5926 84.125 68.4722C82.9 69.3518 81.15 69.1759 80.275 68.1204L74.15 60.2037L68.2 67.9444C67.325 69.1759 65.575 69.1759 64.35 68.2963C63.125 67.4167 62.95 65.8333 63.825 64.6019L70.825 55.4537L63.825 46.3056C62.95 45.0741 63.3 43.3148 64.35 42.4352C65.575 41.5556 67.325 41.9074 68.2 42.963L74.15 50.8796L80.275 43.3148C81.15 42.0833 82.725 41.9074 84.125 42.787C85.35 43.6667 85.35 45.4259 84.475 46.6574L77.65 55.6296L84.475 64.7778V64.7778ZM52.625 63.7222C48.075 63.7222 44.4 60.2037 44.4 55.6296C44.4 51.2315 48.075 47.537 52.625 47.537C57.175 47.537 60.85 51.2315 60.85 55.6296C60.675 60.2037 57 63.7222 52.625 63.7222ZM28.475 63.7222C23.925 63.7222 20.25 60.2037 20.25 55.6296C20.25 51.2315 23.925 47.537 28.475 47.537C33.025 47.537 36.7 51.2315 36.7 55.6296C36.7 60.2037 33.025 63.7222 28.475 63.7222V63.7222ZM52.625 42.2593C47.55 42.2593 43 45.0741 40.725 49.2963C38.45 45.0741 33.9 42.2593 28.65 42.2593C25.5 42.2593 22.7 43.3148 20.425 44.8981V33.6389C20.425 32.2315 19.2 31 17.8 31C16.225 31 15 32.2315 15 33.6389V55.8056C15.175 63.1944 21.125 69 28.475 69C33.725 69 38.275 66.0093 40.55 61.787C42.825 66.0093 47.375 69 52.45 69C59.975 69 66.1 63.0185 66.1 55.4537C66.275 48.2407 60.15 42.2593 52.625 42.2593V42.2593Z" fill="white"/>
  </g>
  <defs>
    <clipPath id="clip0">
      <rect width="70" height="38" fill="white" transform="translate(15 31)"/>
    </clipPath>
  </defs>
</svg>
