<svg width="300" height="300" viewBox="0 0 300 300" fill="currentColor"
  xmlns="http://www.w3.org/2000/svg">
  <path fill-rule="evenodd" clip-rule="evenodd" d="M51.1407 125.765C57.9988 118.073 69.3555 115.816 78.6922 120.256C91.0972 126.156 95.6228 141.186 88.869 152.779L73.6756 178.83C72.8264 180.286 71.4292 181.348 69.7908 181.784C68.1524 182.219 66.4067 181.992 64.937 181.152L83.3314 149.606C88.2316 141.192 84.954 130.286 75.9603 125.991C69.2122 122.769 60.9629 124.379 55.9777 129.92C53.2279 132.962 51.684 136.889 51.6325 140.973C51.5811 145.058 53.0255 149.022 55.6977 152.131C56.1779 152.689 56.6948 153.215 57.2449 153.705L46.5063 172.155C46.0863 172.876 45.5272 173.508 44.8608 174.015C44.1945 174.522 43.4339 174.894 42.6225 175.11C41.8112 175.325 40.9649 175.38 40.1321 175.272C39.2993 175.163 38.4962 174.893 37.7687 174.477L49.4265 154.447C47.7519 152.054 46.5494 149.368 45.8823 146.531L38.7386 158.829C37.8894 160.285 36.4922 161.347 34.8538 161.783C33.2154 162.218 31.4697 161.991 30 161.151L48.4737 129.428C49.2426 128.125 50.1357 126.899 51.1407 125.765ZM72.463 135.862C76.9121 138.41 78.4486 144.075 75.8742 148.484L58.1592 178.827C57.3101 180.282 55.9129 181.344 54.2745 181.78C52.6361 182.215 50.8904 181.988 49.4207 181.149L65.8697 152.899C64.5498 152.624 63.3061 152.068 62.2242 151.269C61.1422 150.471 60.248 149.449 59.6033 148.275C58.9584 147.1 58.5783 145.801 58.4893 144.467C58.4003 143.133 58.6043 141.796 59.0875 140.547C59.5707 139.299 60.3213 138.169 61.2876 137.236C62.254 136.304 63.4131 135.59 64.6848 135.145C65.9565 134.699 67.3104 134.533 68.6534 134.657C69.9963 134.781 71.2961 135.192 72.463 135.862ZM66.0193 141.565C65.7149 141.797 65.4594 142.086 65.2676 142.415H65.2667C64.9777 142.912 64.8438 143.482 64.8815 144.054C64.9194 144.625 65.1275 145.173 65.4795 145.628C65.8316 146.083 66.3115 146.424 66.8589 146.608C67.4064 146.792 67.9966 146.811 68.555 146.663C69.1135 146.514 69.615 146.205 69.996 145.774C70.3771 145.343 70.6209 144.81 70.6964 144.242C70.7719 143.674 70.6757 143.096 70.42 142.582C70.1643 142.068 69.7606 141.641 69.26 141.354C68.9276 141.164 68.5607 141.04 68.1801 140.991C67.7995 140.941 67.4128 140.966 67.0421 141.065C66.6714 141.163 66.3239 141.333 66.0193 141.565Z" fill="#F2F2F2"/>
  <path fill-rule="evenodd" clip-rule="evenodd" d="M109 161.5L122.282 127H130.069L143.352 161.5H135.927L133.066 153.772H119.285L116.424 161.5H109ZM130.796 147.562C129.888 144.863 129.078 142.448 128.367 140.317C127.655 138.186 126.929 135.985 126.187 133.716C125.445 135.985 124.711 138.186 123.985 140.317C123.273 142.448 122.464 144.863 121.555 147.562H130.796ZM145.599 130.68C145.599 129.576 145.932 128.687 146.598 128.012C147.264 127.337 148.142 127 149.232 127C150.322 127 151.2 127.337 151.866 128.012C152.532 128.687 152.865 129.576 152.865 130.68C152.865 131.784 152.532 132.673 151.866 133.348C151.2 134.023 150.322 134.36 149.232 134.36C148.142 134.36 147.264 134.023 146.598 133.348C145.932 132.673 145.599 131.784 145.599 130.68ZM145.963 161.5V138.5H152.501V161.5H145.963ZM158.041 138.5V161.5H164.58V151.357C164.58 148.934 165.117 147.071 166.192 145.768C167.267 144.449 168.682 143.79 170.438 143.79C171.285 143.79 172.148 143.936 173.026 144.227L173.934 138.5C172.89 138.193 171.876 138.04 170.892 138.04C168.001 138.04 165.73 139.29 164.08 141.789V138.5H158.041ZM176.432 161.5V127H182.971V140.777C183.924 139.918 185.014 139.251 186.24 138.776C187.466 138.285 188.79 138.04 190.213 138.04C192.347 138.04 194.247 138.561 195.912 139.604C197.577 140.631 198.886 142.05 199.84 143.859C200.793 145.653 201.27 147.7 201.27 150C201.27 152.3 200.793 154.355 199.84 156.164C198.886 157.958 197.577 159.376 195.912 160.419C194.247 161.446 192.347 161.96 190.213 161.96C188.745 161.96 187.375 161.707 186.104 161.201C184.832 160.68 183.72 159.951 182.766 159.016L182.607 161.5H176.432ZM189.383 156.21C191.048 156.21 192.426 155.62 193.515 154.439C194.605 153.258 195.15 151.779 195.15 150C195.15 148.221 194.605 146.742 193.515 145.561C192.426 144.38 191.048 143.79 189.383 143.79C187.718 143.79 186.341 144.38 185.251 145.561C184.161 146.742 183.616 148.221 183.616 150C183.616 151.779 184.161 153.258 185.251 154.439C186.341 155.62 187.718 156.21 189.383 156.21ZM212.196 149.747L206.883 138.5H200.049L210.629 160.35L205.453 173H212.332L226.454 138.5H219.552L213.422 153.496C213.271 152.745 213.089 152.055 212.877 151.426C212.665 150.797 212.438 150.238 212.196 149.747ZM227.34 138.5H231.086V132.75H237.625V138.5H243.142V144.25H237.625V152.714C237.625 153.803 237.965 154.661 238.646 155.29C239.343 155.903 240.221 156.21 241.28 156.21C242.067 156.21 242.877 156.034 243.71 155.681V161.109C242.271 161.676 240.856 161.96 239.464 161.96C236.769 161.96 234.696 161.232 233.243 159.775C231.805 158.303 231.086 156.202 231.086 153.473V144.25H227.34V138.5ZM255.538 155.083C254.449 154.286 253.699 153.251 253.291 151.978H271V149.977C271 147.662 270.485 145.607 269.456 143.813C268.427 142.019 267.019 140.608 265.233 139.581C263.462 138.554 261.434 138.04 259.148 138.04C256.848 138.04 254.789 138.561 252.973 139.604C251.172 140.631 249.749 142.042 248.704 143.836C247.66 145.615 247.138 147.646 247.138 149.931C247.138 152.246 247.683 154.316 248.772 156.141C249.862 157.95 251.368 159.376 253.291 160.419C255.213 161.446 257.431 161.96 259.943 161.96C261.517 161.96 263.16 161.699 264.87 161.178C266.595 160.657 268.336 159.698 270.092 158.303L266.141 153.519C265.294 154.332 264.348 154.999 263.303 155.52C262.274 156.026 260.972 156.279 259.398 156.279C257.93 156.279 256.643 155.88 255.538 155.083ZM263.883 147.107C263.521 146.293 263.003 145.601 262.327 145.032C261.343 144.204 260.163 143.79 258.785 143.79C257.393 143.79 256.182 144.212 255.152 145.055C254.462 145.629 253.933 146.313 253.566 147.107H263.883Z" fill="#F2F2F2"/>
</svg>
