<svg width="300" height="300" viewBox="0 0 300 300" fill="currentColor"
  xmlns="http://www.w3.org/2000/svg">
  <path d="M98.4472 160.516C98.3071 160.447 98.0783 160.45 97.8939 160.697C96.7605 162.208 92.6458 167.142 87.2879 167.142C78.8495 167.142 73.1812 160.062 73.1812 149.522C73.1812 140.212 78.1702 133.456 85.0642 133.456H85.0677C86.1801 133.456 87.2786 133.819 88.161 134.478L95.3142 139.822C95.4904 139.954 95.7227 139.975 95.92 139.876C96.1149 139.778 96.2352 139.584 96.2352 139.368V133.254C96.2352 133.034 96.1068 132.831 95.9095 132.738C93.3975 131.556 90.1758 130.906 86.8396 130.906C74.5703 130.906 66 139.585 66 152.012C66 163.344 73.5605 171.569 83.9786 171.569C92.4368 171.569 97.4655 165.159 98.6491 161.119C98.7379 160.817 98.6118 160.597 98.4472 160.516Z" fill="#000"/>
  <path d="M127.199 168.344C127.15 168.29 127.123 168.221 127.123 168.149V149.18C127.123 144.822 123.888 141.853 119.074 141.794C115.068 141.748 111.555 144.341 109.865 145.589C109.638 145.755 109.442 145.9 109.281 146.012C109.251 146.033 109.221 146.023 109.21 146.017C109.199 146.011 109.174 145.994 109.174 145.956V128.615C109.174 128.438 109.092 128.272 108.949 128.163C108.805 128.052 108.62 128.017 108.459 128.062C108.398 128.071 102.42 129.018 100.459 129.455C100.239 129.504 100.072 129.695 100.044 129.928C100.015 130.166 100.135 130.385 100.345 130.488C100.413 130.533 102.012 131.592 102.498 131.857C102.671 131.951 102.778 132.131 102.778 132.328V168.143C102.778 168.221 102.746 168.293 102.707 168.334L100.61 169.805C100.44 169.97 100.39 170.207 100.477 170.425C100.567 170.646 100.771 170.783 101.012 170.783H110.937C111.178 170.783 111.383 170.646 111.472 170.425C111.559 170.207 111.509 169.97 111.322 169.791L109.26 168.348C109.203 168.293 109.172 168.22 109.172 168.143V148.936C109.172 148.852 109.21 148.771 109.274 148.716C111.146 147.124 112.94 146.225 114.759 145.967C116.244 145.757 117.754 146.206 118.898 147.199C120.061 148.209 120.726 149.662 120.726 151.187V168.145C120.726 168.222 120.696 168.295 120.657 168.336L118.539 169.866C118.372 170.03 118.323 170.267 118.411 170.485C118.501 170.704 118.707 170.841 118.946 170.841H128.862C129.1 170.841 129.305 170.705 129.394 170.488C129.484 170.273 129.438 170.037 129.257 169.856L127.199 168.344Z" fill="#000"/>
  <path d="M156.037 161.146C155.81 161.027 155.541 161.093 155.378 161.305C153.834 163.34 150.624 166.752 146.468 166.752C140.349 166.752 136.225 162.028 135.963 154.717C135.96 154.641 135.988 154.567 136.042 154.513C136.098 154.454 136.178 154.42 136.259 154.42H155.644C155.82 154.42 155.983 154.343 156.094 154.208C156.202 154.075 156.244 153.904 156.212 153.739C154.606 145.858 150.519 141.693 144.394 141.693C136.576 141.693 130.678 148.366 130.678 157.212C130.678 165.8 136.077 171.569 144.113 171.569C149.744 171.569 154.174 167.991 156.267 161.754C156.362 161.47 156.22 161.244 156.037 161.146ZM136.052 152.055C136.602 146.956 139.239 143.911 143.103 143.911C146.599 143.911 148.638 146.337 149.92 152.02C149.939 152.103 149.919 152.191 149.864 152.259C149.808 152.33 149.723 152.371 149.632 152.371H136.346C136.26 152.371 136.179 152.334 136.122 152.271C136.068 152.211 136.042 152.135 136.052 152.055Z" fill="#000"/>
  <path d="M182.823 162.302C182.643 162.211 182.387 162.23 182.22 162.473L182.111 162.633C180.901 164.395 179.245 166.808 174.95 166.808C168.889 166.808 164.489 161.702 164.489 154.668C164.489 148.667 167.728 143.966 171.865 143.966C172.124 143.966 172.386 143.981 172.644 144.009C173.164 144.068 173.666 144.268 174.094 144.589L180.337 149.276C180.514 149.409 180.747 149.43 180.944 149.331C181.139 149.233 181.261 149.038 181.261 148.822V143.651C181.261 143.431 181.134 143.23 180.939 143.137C179.035 142.234 176.419 141.693 173.941 141.693C165.271 141.693 159.215 148.097 159.215 157.267C159.215 165.821 164.321 171.569 171.92 171.569C179.286 171.569 181.808 166.642 183.064 162.935C183.166 162.635 183.011 162.396 182.823 162.302Z" fill="#000"/>
  <path d="M233.57 142.326C232.995 142.049 232.311 141.793 231.221 141.793C229.134 141.793 226.524 143.378 223.462 146.505C223.442 146.526 223.419 146.522 223.406 146.517C223.394 146.512 223.374 146.501 223.373 146.473L223.208 142.452C223.197 142.282 223.109 142.127 222.968 142.028C222.824 141.926 222.645 141.896 222.477 141.945L214.937 144.076C214.733 144.135 214.581 144.291 214.534 144.496C214.486 144.7 214.552 144.905 214.708 145.046L217.188 147.277C217.248 147.332 217.283 147.409 217.283 147.489V168.198C217.283 168.276 217.252 168.349 217.205 168.396L215.397 169.86C215.228 170.024 215.176 170.262 215.264 170.48C215.353 170.701 215.558 170.839 215.798 170.839H225.324C225.565 170.839 225.776 170.694 225.863 170.47C225.947 170.249 225.887 170.004 225.699 169.837L223.775 168.4C223.714 168.347 223.679 168.268 223.679 168.187V150.215C223.679 149.97 223.74 149.728 223.854 149.518C224.291 148.715 224.984 147.961 225.857 147.334C226.731 146.707 227.609 146.167 228.722 146.431C229.562 146.629 231.273 147.908 232.297 148.673C232.667 148.95 232.96 149.168 233.118 149.267C233.299 149.38 233.518 149.387 233.706 149.283C233.89 149.182 234 148.996 234 148.787V143.006C233.999 142.713 233.835 142.452 233.57 142.326Z" fill="#000"/>
  <path d="M199.306 152.812C199.257 152.744 199.382 152.62 199.526 152.487L209.483 143.36C209.661 143.198 209.696 142.932 209.55 142.723C209.458 142.591 209.299 142.521 209.139 142.521H201.938C201.765 142.521 201.595 142.588 201.483 142.72C201.303 142.932 201.301 143.223 201.459 143.433L203.343 145.924C203.432 146.042 203.418 146.205 203.309 146.305L192.835 155.983V146.377L192.837 146.378V128.572C192.837 128.393 192.755 128.229 192.612 128.12C192.468 128.009 192.283 127.974 192.122 128.019C192.061 128.028 186.083 128.975 184.122 129.412C183.902 129.461 183.736 129.654 183.708 129.892C183.68 130.133 183.802 130.349 184.007 130.445C184.07 130.487 185.561 131.473 186.157 131.791C186.331 131.885 186.44 132.066 186.44 132.264V133.11L186.439 133.109V168.045C186.439 168.121 186.407 168.194 186.369 168.234L184.251 169.764C184.075 169.938 184.031 170.193 184.14 170.419C184.238 170.621 184.455 170.738 184.68 170.738H194.598C194.838 170.738 195.044 170.6 195.133 170.38C195.22 170.161 195.17 169.924 194.983 169.746L192.921 168.303C192.863 168.248 192.833 168.175 192.833 168.096V158.83C192.833 158.752 192.865 158.678 192.921 158.624L194.946 156.671C195.009 156.611 195.092 156.58 195.182 156.589C195.268 156.597 195.346 156.642 195.396 156.714C195.455 156.794 201.138 164.603 203.998 168.493C204.045 168.558 204.033 168.646 203.973 168.696L202.572 169.859C202.393 170.032 202.346 170.287 202.455 170.515C202.553 170.718 202.77 170.837 202.997 170.837H212.239C212.533 170.837 212.649 170.708 212.695 170.599C212.802 170.342 212.593 169.993 212.432 169.829C212.112 169.414 199.484 153.05 199.306 152.812Z" fill="#000"/>
</svg>
