<svg width="300" height="300" viewBox="0 0 300 300" fill="currentColor"
  xmlns="http://www.w3.org/2000/svg">
  <g clip-path="url(#clip0)">
    <path d="M90.7322 190.496C84.1792 190.496 78.0076 188.673 72.6117 185.469H108.845C103.454 188.673 97.2851 190.496 90.7296 190.496H90.7322ZM96.2916 108.311C102.881 108.311 109.076 110.15 114.492 113.389H78.0932C83.4995 110.152 89.6997 108.311 96.289 108.311H96.2916ZM124.024 132.7C123.546 133.623 122.921 134.492 122.148 135.267L102.476 154.967C103.721 155.745 104.552 157.13 104.552 158.707C104.552 161.145 102.577 163.124 100.144 163.124H83.9354C81.502 163.124 79.5278 161.148 79.5278 158.707C79.5278 158.087 79.6549 157.498 79.8858 156.959C80.1011 156.386 80.4332 155.846 80.895 155.387L91.7024 144.561H90.011L77.5951 156.995C77.0114 157.579 76.5912 158.266 76.3188 158.987C76.0256 159.669 75.8622 160.416 75.8622 161.205C75.8622 164.299 78.3682 166.815 81.4631 166.815H102.043C105.138 166.815 107.644 164.304 107.644 161.205C107.644 159.739 107.076 158.401 106.152 157.402C109.104 158.222 111.276 160.927 111.276 164.149C111.276 168.021 108.139 171.157 104.277 171.157H78.5524C74.6896 171.157 71.5532 168.021 71.5532 164.149C71.5532 163.166 71.7582 162.227 72.1214 161.376C72.4586 160.468 72.9878 159.612 73.7194 158.881L88.0264 144.556H86.0834C85.9666 144.556 85.8525 144.55 85.7357 144.54L69.2211 161.078C68.3235 161.98 67.6723 163.031 67.2521 164.146C66.8007 165.191 66.549 166.343 66.549 167.56C66.549 172.329 70.4066 176.192 75.167 176.192H106.855C111.616 176.192 115.473 172.329 115.473 167.56C115.473 165.059 114.407 162.816 112.71 161.236C117.092 162.45 120.314 166.462 120.314 171.238C120.314 176.97 115.67 181.623 109.942 181.623H71.8282C66.1002 181.623 61.4618 176.975 61.4618 171.238C61.4618 169.777 61.7653 168.39 62.3075 167.129C62.8108 165.78 63.5942 164.517 64.676 163.436L84.0365 144.047C82.6279 143.311 81.6628 141.835 81.6628 140.133C81.6628 137.695 83.6344 135.716 86.0756 135.716H102.284C104.718 135.716 106.692 137.693 106.692 140.133C106.692 140.922 106.487 141.661 106.124 142.302C105.919 142.696 105.657 143.064 105.325 143.394L94.4549 154.277H96.1255L108.619 141.765C109.039 141.345 109.372 140.878 109.634 140.382C110.095 139.568 110.357 138.629 110.357 137.63C110.357 134.536 107.851 132.025 104.756 132.025H84.1766C81.0869 132.025 78.5757 134.536 78.5757 137.63C78.5757 139.101 79.1439 140.434 80.0674 141.433C77.1152 140.608 74.9439 137.903 74.9439 134.686C74.9439 130.814 78.0803 127.678 81.943 127.678H107.667C111.53 127.678 114.666 130.814 114.666 134.686C114.666 135.937 114.334 137.109 113.764 138.123C113.442 138.748 113.022 139.332 112.498 139.856L98.0971 154.277H100.136C100.214 154.277 100.289 154.282 100.372 154.287L116.996 137.641C117.642 136.995 118.158 136.274 118.555 135.509C119.263 134.258 119.668 132.814 119.668 131.27C119.668 126.501 115.81 122.638 111.05 122.638H79.3618C74.6014 122.638 70.7438 126.501 70.7438 131.27C70.7438 133.613 71.6778 135.729 73.1876 137.285C69.2885 135.794 66.5153 132.023 66.5153 127.592C66.5153 121.86 71.1589 117.207 76.8817 117.207H114.996C120.724 117.207 125.362 121.855 125.362 127.592C125.357 129.457 124.869 131.195 124.018 132.694L124.024 132.7ZM198.737 165.853C197.722 166.299 196.83 166.898 196.062 167.65C195.294 168.408 194.69 169.305 194.249 170.34C193.808 171.375 193.582 172.483 193.582 173.645V181.75H196.34V173.645C196.34 172.866 196.487 172.132 196.796 171.442C197.1 170.75 197.504 170.146 198.01 169.629C198.516 169.113 199.118 168.706 199.808 168.416C200.501 168.122 201.232 167.98 202.011 167.98C202.81 167.98 203.559 168.122 204.249 168.416C204.939 168.709 205.541 169.113 206.047 169.629C206.556 170.148 206.955 170.752 207.246 171.442C207.536 172.132 207.681 172.866 207.681 173.645V181.75H210.47V173.645C210.47 172.477 210.25 171.375 209.803 170.34C209.357 169.305 208.753 168.408 207.99 167.65C207.222 166.893 206.325 166.294 205.3 165.853C204.275 165.412 203.178 165.186 202.011 165.186C200.843 165.186 199.751 165.407 198.737 165.853V165.853ZM185.275 168.416C185.968 168.709 186.572 169.113 187.089 169.629C187.605 170.146 188.012 170.752 188.303 171.442C188.596 172.135 188.739 172.866 188.739 173.645C188.739 174.423 188.596 175.157 188.303 175.847C188.01 176.539 187.605 177.138 187.089 177.644C186.572 178.15 185.965 178.557 185.275 178.858C184.583 179.161 183.851 179.314 183.073 179.314C182.295 179.314 181.56 179.161 180.87 178.858C180.178 178.554 179.573 178.15 179.057 177.644C178.541 177.138 178.133 176.537 177.843 175.847C177.55 175.154 177.407 174.423 177.407 173.645C177.407 172.866 177.55 172.132 177.843 171.442C178.136 170.75 178.541 170.146 179.057 169.629C179.573 169.113 180.18 168.706 180.87 168.416C181.563 168.122 182.295 167.98 183.073 167.98C183.851 167.98 184.585 168.122 185.275 168.416ZM179.799 165.853C178.785 166.299 177.892 166.898 177.124 167.65C176.356 168.408 175.752 169.305 175.311 170.34C174.87 171.375 174.644 172.483 174.644 173.645C174.644 174.812 174.865 175.909 175.311 176.933C175.757 177.958 176.362 178.85 177.124 179.608C177.892 180.365 178.785 180.964 179.799 181.405C180.813 181.846 181.905 182.072 183.073 182.072C184.24 182.072 185.338 181.851 186.362 181.405C187.387 180.959 188.285 180.365 189.052 179.608C189.82 178.85 190.425 177.958 190.866 176.933C191.307 175.909 191.533 174.807 191.533 173.645C191.533 172.477 191.312 171.375 190.866 170.34C190.42 169.305 189.815 168.408 189.052 167.65C188.285 166.893 187.387 166.294 186.362 165.853C185.338 165.412 184.24 165.186 183.073 165.186C181.905 165.186 180.813 165.407 179.799 165.853ZM170.169 181.758H172.958V165.547H170.169V181.758ZM163.585 174.851C164.083 174.851 164.498 175.019 164.836 175.354C165.168 175.686 165.349 176.106 165.367 176.604V177.219C165.367 177.26 165.362 177.302 165.352 177.33C165.341 177.359 165.336 177.403 165.336 177.442V177.569C165.23 177.958 165.02 178.293 164.706 178.573C164.392 178.853 164.018 178.993 163.588 178.993H157.198V181.75H163.588C164.213 181.75 164.802 181.638 165.354 181.408C165.907 181.182 166.379 180.866 166.779 180.451C167.178 180.041 167.502 179.569 167.751 179.042C167.998 178.516 168.125 177.935 168.125 177.309V176.402C168.104 175.797 167.967 175.234 167.72 174.716C167.474 174.197 167.147 173.743 166.748 173.354C166.348 172.965 165.876 172.656 165.339 172.431C164.797 172.205 164.226 172.093 163.621 172.093H161.383C160.926 172.093 160.532 171.935 160.2 171.621C159.868 171.308 159.678 170.924 159.632 170.47C159.59 170.234 159.59 170.003 159.632 169.788C159.678 169.31 159.862 168.916 160.2 168.605C160.532 168.294 160.929 168.133 161.383 168.133H167.609V165.345H161.383C160.778 165.345 160.21 165.451 159.681 165.666C159.152 165.881 158.682 166.185 158.272 166.574C157.862 166.963 157.53 167.42 157.284 167.936C157.037 168.452 156.9 169.007 156.879 169.59C156.858 169.718 156.848 169.889 156.848 170.094C156.848 170.299 156.858 170.467 156.879 170.597C156.9 171.201 157.037 171.764 157.284 172.283C157.53 172.802 157.862 173.25 158.272 173.632C158.682 174.01 159.154 174.309 159.681 174.524C160.208 174.739 160.778 174.845 161.383 174.845H163.58V174.851H163.585ZM152.332 181.758H155.12V165.547H152.332V181.758ZM148.248 165.547C147.403 167.515 146.546 169.528 145.67 171.593C144.793 173.657 143.921 175.691 143.062 177.706L137.871 165.549H134.854L141.828 181.76H144.292L151.265 165.549H148.248V165.547ZM204.937 121.1C205.593 121.393 206.161 121.798 206.649 122.314C207.131 122.833 207.51 123.437 207.788 124.127C208.065 124.817 208.203 125.551 208.203 126.329C208.203 127.107 208.065 127.841 207.788 128.531C207.51 129.221 207.131 129.823 206.649 130.329C206.166 130.837 205.598 131.242 204.937 131.543C204.28 131.846 203.57 131.999 202.81 131.999C202.073 131.999 201.37 131.851 200.713 131.543C200.057 131.239 199.484 130.835 199.001 130.329C198.519 129.823 198.135 129.221 197.844 128.531C197.556 127.839 197.414 127.107 197.414 126.329C197.414 125.551 197.556 124.817 197.844 124.127C198.132 123.435 198.516 122.83 199.001 122.314C199.484 121.798 200.052 121.391 200.713 121.1C201.37 120.807 202.07 120.665 202.81 120.665C203.567 120.659 204.28 120.807 204.937 121.1ZM199.702 118.538C198.739 118.979 197.888 119.588 197.159 120.351C196.43 121.118 195.852 122.016 195.432 123.04C195.011 124.065 194.801 125.162 194.801 126.329C194.801 127.497 195.011 128.594 195.432 129.618C195.852 130.643 196.425 131.54 197.159 132.292C197.888 133.05 198.737 133.649 199.702 134.09C200.667 134.531 201.704 134.756 202.812 134.756C203.858 134.756 204.841 134.567 205.754 134.188C206.667 133.81 207.487 133.286 208.203 132.617V134.43H210.883V126.324C210.883 125.157 210.673 124.06 210.252 123.035C209.832 122.011 209.259 121.113 208.525 120.346C207.796 119.578 206.937 118.973 205.951 118.533C204.968 118.086 203.917 117.866 202.81 117.866C201.702 117.871 200.662 118.092 199.699 118.538H199.702ZM188.305 126.366C188.305 125.588 188.458 124.853 188.767 124.164C189.076 123.474 189.499 122.867 190.043 122.351C190.586 121.832 191.216 121.427 191.94 121.137C192.658 120.844 193.431 120.701 194.251 120.701V117.913C193.058 117.913 191.945 118.133 190.91 118.579C189.875 119.025 188.962 119.624 188.183 120.377C187.405 121.134 186.785 122.031 186.334 123.066C185.882 124.101 185.657 125.209 185.657 126.376V134.481H188.305V126.366V126.366ZM176.873 121.163C177.529 121.456 178.097 121.86 178.585 122.376C179.073 122.893 179.446 123.5 179.724 124.189C180.001 124.882 180.139 125.613 180.139 126.392C180.139 127.17 180.001 127.904 179.724 128.594C179.446 129.286 179.067 129.885 178.585 130.391C178.102 130.897 177.534 131.304 176.873 131.605C176.216 131.908 175.506 132.062 174.745 132.062C174.009 132.062 173.306 131.908 172.649 131.605C171.993 131.302 171.425 130.897 170.937 130.391C170.455 129.883 170.071 129.284 169.78 128.594C169.492 127.901 169.349 127.17 169.349 126.392C169.349 125.613 169.492 124.879 169.78 124.189C170.068 123.497 170.452 122.893 170.937 122.376C171.42 121.86 171.988 121.453 172.649 121.163C173.306 120.869 174.006 120.727 174.745 120.727C175.508 120.727 176.216 120.869 176.873 121.163V121.163ZM171.819 118.538C170.896 118.937 170.071 119.469 169.355 120.141V110.769H166.737V126.397C166.737 127.564 166.947 128.656 167.368 129.67C167.788 130.684 168.361 131.576 169.095 132.344C169.824 133.112 170.667 133.716 171.638 134.157C172.6 134.598 173.64 134.824 174.748 134.824C175.856 134.824 176.906 134.603 177.89 134.157C178.873 133.716 179.734 133.107 180.463 132.344C181.192 131.576 181.765 130.684 182.191 129.67C182.611 128.656 182.821 127.564 182.821 126.397C182.821 125.23 182.611 124.127 182.191 123.092C181.771 122.057 181.197 121.16 180.463 120.403C179.734 119.645 178.875 119.046 177.89 118.605C176.904 118.164 175.856 117.939 174.748 117.939C173.723 117.939 172.75 118.138 171.822 118.538H171.819ZM158.249 134.232C159.058 133.812 159.805 133.255 160.483 132.562L158.633 130.614C158.181 131.071 157.709 131.429 157.214 131.701C156.721 131.973 156.231 132.106 155.738 132.106C155.102 132.106 154.498 131.999 153.935 131.784C153.372 131.569 152.863 131.265 152.407 130.876C151.955 130.487 151.566 130.031 151.239 129.514C150.912 128.998 150.676 128.422 150.531 127.797H163.686C163.728 127.388 163.749 127.094 163.749 126.921V126.433C163.749 125.266 163.538 124.164 163.118 123.129C162.698 122.089 162.13 121.191 161.406 120.439C160.687 119.682 159.839 119.082 158.864 118.641C157.888 118.201 156.845 117.975 155.738 117.975C154.63 117.975 153.585 118.195 152.612 118.641C151.639 119.082 150.783 119.687 150.054 120.439C149.325 121.196 148.746 122.094 148.326 123.129C147.906 124.164 147.696 125.271 147.696 126.433C147.696 127.6 147.906 128.692 148.326 129.706C148.746 130.721 149.32 131.613 150.054 132.381C150.783 133.148 151.636 133.753 152.612 134.194C153.587 134.635 154.63 134.86 155.738 134.86C156.604 134.86 157.44 134.65 158.249 134.23V134.232ZM150.534 125.04C150.676 124.436 150.912 123.868 151.242 123.339C151.571 122.81 151.961 122.356 152.409 121.977C152.861 121.598 153.367 121.3 153.937 121.085C154.5 120.869 155.1 120.763 155.74 120.763C156.376 120.763 156.975 120.869 157.543 121.085C158.106 121.3 158.615 121.598 159.071 121.977C159.523 122.356 159.907 122.807 160.228 123.339C160.545 123.865 160.786 124.436 160.952 125.04H150.534V125.04ZM134.852 134.471H145.755V131.714H139.35L146.744 118.26H135.931V121.017H142.183L134.849 134.471H134.852ZM235.022 154.412C235.022 155.037 235.154 155.626 235.426 156.178C235.699 156.731 236.062 157.208 236.529 157.623C236.996 158.033 237.533 158.354 238.148 158.596C238.763 158.832 239.429 158.954 240.14 158.954V156.196C239.489 156.196 238.936 156.023 238.469 155.678C238.002 155.333 237.772 154.91 237.772 154.412V136.977H235.014V154.407H235.019L235.022 154.412ZM226.655 145.251C227.348 145.544 227.947 145.948 228.453 146.465C228.959 146.981 229.361 147.588 229.652 148.278C229.945 148.97 230.088 149.702 230.088 150.48C230.088 151.258 229.945 151.992 229.652 152.682C229.359 153.374 228.959 153.974 228.453 154.479C227.947 154.985 227.345 155.392 226.655 155.693C225.963 155.997 225.216 156.15 224.417 156.15C223.638 156.15 222.904 156.002 222.214 155.693C221.522 155.39 220.922 154.985 220.416 154.479C219.911 153.974 219.503 153.372 219.202 152.682C218.899 151.989 218.746 151.258 218.746 150.48C218.746 149.702 218.894 148.968 219.202 148.278C219.506 147.585 219.911 146.981 220.416 146.465C220.922 145.948 221.524 145.541 222.214 145.251C222.907 144.958 223.638 144.815 224.417 144.815C225.221 144.815 225.965 144.958 226.655 145.251V145.251ZM221.14 142.691C220.126 143.132 219.233 143.741 218.466 144.504C217.698 145.271 217.093 146.169 216.652 147.193C216.211 148.218 215.985 149.315 215.985 150.482C215.985 151.65 216.206 152.747 216.652 153.771C217.093 154.796 217.703 155.693 218.466 156.445C219.233 157.203 220.126 157.802 221.14 158.243C222.154 158.684 223.247 158.909 224.414 158.909C225.517 158.909 226.552 158.72 227.509 158.341C228.471 157.963 229.327 157.439 230.088 156.77V158.583H232.91V150.477C232.91 149.31 232.69 148.213 232.243 147.188C231.797 146.164 231.193 145.266 230.43 144.499C229.662 143.731 228.759 143.126 227.724 142.686C226.689 142.239 225.581 142.019 224.414 142.019C223.247 142.019 222.16 142.25 221.14 142.691V142.691ZM213.459 158.24C214.325 157.83 215.114 157.268 215.827 156.554L213.879 154.606C213.402 155.084 212.906 155.447 212.387 155.709C211.868 155.971 211.337 156.098 210.8 156.098C210.021 156.098 209.287 155.945 208.597 155.641C207.907 155.338 207.305 154.933 206.799 154.427C206.291 153.919 205.886 153.32 205.585 152.63C205.284 151.94 205.129 151.206 205.129 150.428C205.129 149.65 205.282 148.916 205.585 148.226C205.889 147.536 206.294 146.929 206.799 146.413C207.308 145.894 207.907 145.489 208.597 145.199C209.287 144.908 210.021 144.763 210.8 144.763C211.342 144.763 211.871 144.895 212.387 145.168C212.904 145.44 213.402 145.798 213.879 146.255L215.827 144.307C215.114 143.593 214.325 143.025 213.459 142.605C212.592 142.185 211.705 141.975 210.8 141.975C209.632 141.975 208.54 142.195 207.526 142.641C206.511 143.088 205.619 143.692 204.851 144.454C204.083 145.222 203.479 146.12 203.038 147.144C202.592 148.169 202.371 149.271 202.371 150.433C202.371 151.6 202.592 152.697 203.038 153.722C203.479 154.746 204.088 155.639 204.851 156.396C205.619 157.153 206.511 157.753 207.526 158.194C208.54 158.634 209.632 158.86 210.8 158.86C211.708 158.855 212.592 158.65 213.459 158.24V158.24ZM197.826 158.629H200.615V142.418H197.826V158.629ZM189.561 145.251C190.254 145.544 190.858 145.948 191.374 146.465C191.891 146.981 192.298 147.588 192.588 148.278C192.882 148.97 193.024 149.702 193.024 150.48C193.024 151.258 192.882 151.992 192.588 152.682C192.295 153.374 191.891 153.974 191.374 154.479C190.858 154.985 190.251 155.392 189.561 155.693C188.868 155.997 188.137 156.15 187.358 156.15C186.58 156.15 185.846 156.002 185.156 155.693C184.463 155.39 183.864 154.985 183.358 154.479C182.852 153.974 182.445 153.372 182.144 152.682C181.841 151.989 181.688 151.258 181.688 150.48C181.688 149.702 181.841 148.968 182.144 148.278C182.448 147.585 182.852 146.981 183.358 146.465C183.864 145.948 184.466 145.541 185.156 145.251C185.849 144.958 186.58 144.815 187.358 144.815C188.132 144.815 188.871 144.958 189.561 145.251ZM184.077 142.691C183.062 143.132 182.17 143.741 181.402 144.504C180.634 145.271 180.03 146.169 179.589 147.193C179.143 148.218 178.922 149.315 178.922 150.482C178.922 151.65 179.143 152.747 179.589 153.771C180.03 154.796 180.639 155.693 181.402 156.445C182.17 157.203 183.062 157.802 184.077 158.243C185.091 158.684 186.183 158.909 187.351 158.909C188.518 158.909 189.615 158.689 190.64 158.243C191.665 157.802 192.557 157.198 193.315 156.445C194.072 155.688 194.672 154.796 195.113 153.771C195.554 152.747 195.779 151.65 195.779 150.482V136.935H193.022V144.19C192.264 143.518 191.408 142.992 190.443 142.603C189.478 142.213 188.451 142.019 187.348 142.019C186.186 142.029 185.094 142.25 184.074 142.691H184.077ZM171.352 158.383C172.208 157.963 172.992 157.405 173.705 156.713L171.757 154.765C171.28 155.221 170.784 155.579 170.265 155.851C169.746 156.124 169.23 156.256 168.709 156.256C168.037 156.256 167.406 156.15 166.812 155.934C166.218 155.719 165.679 155.416 165.209 155.027C164.737 154.638 164.322 154.181 163.979 153.665C163.632 153.146 163.385 152.573 163.232 151.948H177.078C177.119 151.538 177.145 151.245 177.145 151.071V150.583C177.145 149.416 176.925 148.314 176.478 147.279C176.032 146.239 175.433 145.342 174.681 144.589C173.923 143.832 173.031 143.233 172.006 142.792C170.981 142.351 169.884 142.125 168.717 142.125C167.549 142.125 166.452 142.346 165.427 142.792C164.402 143.233 163.5 143.837 162.737 144.589C161.969 145.347 161.365 146.244 160.924 147.279C160.477 148.314 160.257 149.421 160.257 150.583C160.257 151.751 160.477 152.843 160.924 153.857C161.365 154.871 161.974 155.763 162.737 156.531C163.505 157.299 164.402 157.903 165.427 158.344C166.452 158.785 167.549 159.011 168.717 159.011C169.619 159.016 170.499 158.8 171.355 158.38L171.352 158.383ZM163.225 149.191C163.378 148.586 163.624 148.018 163.972 147.489C164.314 146.963 164.729 146.506 165.201 146.127C165.679 145.749 166.211 145.45 166.805 145.235C167.399 145.02 168.029 144.914 168.701 144.914C169.373 144.914 170.003 145.02 170.597 145.235C171.191 145.45 171.726 145.749 172.201 146.127C172.678 146.506 173.083 146.957 173.415 147.489C173.747 148.016 174.003 148.586 174.177 149.191H163.222H163.225ZM138.829 142.577C138.04 142.924 137.353 143.386 136.769 143.969C136.185 144.553 135.718 145.24 135.376 146.029C135.033 146.817 134.857 147.653 134.857 148.54V158.622H137.615V148.54C137.615 148.021 137.713 147.541 137.908 147.095C138.102 146.654 138.37 146.265 138.702 145.928C139.034 145.596 139.428 145.329 139.885 145.134C140.341 144.939 140.826 144.841 141.345 144.841C141.864 144.841 142.344 144.939 142.79 145.134C143.231 145.329 143.625 145.596 143.973 145.928C144.315 146.26 144.588 146.651 144.782 147.095C144.977 147.536 145.076 148.018 145.076 148.54V158.622H147.833V148.54C147.833 148.021 147.932 147.541 148.126 147.095C148.321 146.654 148.588 146.265 148.92 145.928C149.252 145.596 149.649 145.329 150.103 145.134C150.557 144.939 151.045 144.841 151.564 144.841C152.082 144.841 152.562 144.939 153.009 145.134C153.45 145.329 153.839 145.596 154.176 145.928C154.508 146.26 154.775 146.651 154.97 147.095C155.164 147.536 155.263 148.018 155.263 148.54V158.622H158.052V148.54C158.052 147.653 157.878 146.817 157.533 146.029C157.185 145.24 156.724 144.553 156.14 143.969C155.556 143.386 154.869 142.919 154.08 142.577C153.291 142.234 152.456 142.058 151.569 142.058C150.508 142.058 149.545 142.283 148.684 142.74C147.818 143.196 147.076 143.811 146.445 144.589C145.841 143.811 145.096 143.196 144.227 142.74C143.35 142.283 142.393 142.058 141.358 142.058C140.455 142.058 139.62 142.232 138.831 142.577H138.829Z" fill="#000"/>
  </g>
  <defs>
    <clipPath id="clip0">
      <rect width="179" height="83" fill="white" transform="translate(61 108)"/>
    </clipPath>
  </defs>
</svg>
