<svg width="100" height="100" viewBox="0 0 100 100" fill="none"
  xmlns="http://www.w3.org/2000/svg">
  <rect width="100" height="100" fill="#043F93"/>
  <path d="M73.6674 63.5861C73.466 63.4871 73.1369 63.4921 72.8717 63.8463C71.2415 66.0205 65.3235 73.117 57.6175 73.117C45.481 73.117 37.3284 62.933 37.3284 47.7746C37.3284 34.3839 44.5039 24.6666 54.4192 24.6666H54.4243C56.0242 24.6666 57.6041 25.1888 58.8733 26.1373L69.1614 33.8232C69.4149 34.0129 69.749 34.0431 70.0327 33.9004C70.3131 33.7594 70.486 33.4807 70.486 33.1701V24.3762C70.486 24.0606 70.3013 23.7685 70.0176 23.6341C66.4047 21.9351 61.771 21 56.9728 21C39.3262 21 27 33.4824 27 51.3556C27 67.654 37.874 79.4833 52.8579 79.4833C65.023 79.4833 72.2555 70.2646 73.9579 64.4541C74.0855 64.0193 73.9042 63.7036 73.6674 63.5861Z" fill="#F2F2F2"/>
</svg>
