<svg width="300" height="300" viewBox="0 0 300 300" fill="currentColor"
  xmlns="http://www.w3.org/2000/svg">
  <path d="M151.235 169.836C144.784 169.836 139.552 164.61 139.552 158.158C139.552 151.711 144.784 146.486 151.235 146.486C157.685 146.486 162.913 151.711 162.913 158.158C162.913 164.61 157.685 169.836 151.235 169.836ZM116.835 169.836C110.385 169.836 105.15 164.611 105.15 158.16C105.15 151.711 110.385 146.486 116.835 146.486C123.285 146.486 128.509 151.711 128.509 158.158C128.509 164.61 123.285 169.836 116.835 169.836V169.836ZM151.235 138.692C143.785 138.692 137.302 142.882 134.037 149.035C130.771 142.882 124.291 138.692 116.835 138.692C112.457 138.692 108.413 140.14 105.15 142.586V126.183C105.111 124.064 103.383 122.367 101.256 122.367C99.1288 122.367 97.4171 124.064 97.3684 126.183V158.482H97.3727C97.5442 169.088 106.186 177.631 116.835 177.631C124.291 177.631 130.771 173.436 134.037 167.289C137.302 173.436 143.785 177.631 151.235 177.631C161.984 177.631 170.704 168.915 170.704 158.158C170.704 147.406 161.984 138.692 151.235 138.692Z" fill="#000"/>
  <path d="M200.897 171.11L190.318 158.124L200.91 145.112C202.249 143.396 201.865 140.999 200.016 139.726C198.165 138.442 195.568 138.771 194.136 140.436V140.434L185.024 151.61L175.92 140.434V140.436C174.503 138.771 171.89 138.442 170.044 139.726C168.199 141 167.813 143.396 169.159 145.112H169.155L179.728 158.124L169.155 171.11H169.159C167.813 172.831 168.199 175.221 170.044 176.499C171.89 177.778 174.503 177.453 175.92 175.785L185.024 164.623L194.123 175.785C195.557 177.453 198.153 177.778 200.004 176.499C201.853 175.221 202.238 172.831 200.897 171.11Z" fill="#000"/>
</svg>
