<svg width="100" height="100" viewBox="0 0 100 100" fill="none"
  xmlns="http://www.w3.org/2000/svg">
  <rect width="100" height="100" fill="#F2F2F2"/>
  <path fill-rule="evenodd" clip-rule="evenodd" d="M28 71.2239C28 74.1209 29.8701 75.9997 32.7529 75.9997L46.6396 76C54.9238 76 61.7005 73.1833 66.3078 68.2525H28V71.2239ZM46.6396 23.0003L32.7529 23C29.8701 23 28 24.8791 28 27.7761V30.7475H66.3078C61.7005 25.8167 54.9238 23.0003 46.6396 23.0003ZM58.7586 57.0518C58.7586 59.3955 60.2779 60.916 62.6204 60.916H70.9414C71.8848 58.5639 72.5185 55.978 72.8131 53.1876H62.6204C60.2779 53.1876 58.7586 54.7079 58.7586 57.0518ZM47.2248 41.9673C47.2248 44.3112 48.7442 45.8315 51.0866 45.8315H72.8131C72.5185 43.0411 71.8848 40.4552 70.9414 38.1031H51.0866C48.7442 38.1031 47.2248 39.6234 47.2248 41.9673ZM51.0839 57.0518C51.0839 54.7079 49.5646 53.1876 47.2222 53.1876H28V60.916H47.2222C49.5646 60.916 51.0839 59.3957 51.0839 57.0518ZM39.5501 41.9673C39.5501 39.6234 38.0308 38.1031 35.6884 38.1031H28V45.8315H35.6884C38.0308 45.8315 39.5501 44.3112 39.5501 41.9673Z" fill="#0361FF"/>
</svg>
