<svg width="300" height="300" viewBox="0 0 300 300" fill="currentColor"
  xmlns="http://www.w3.org/2000/svg">
  <path fill-rule="evenodd" clip-rule="evenodd" d="M131.643 148.503C132.37 145.133 134.718 143.42 137.804 143.42C140.864 143.42 143.102 145.21 143.815 148.503H131.643ZM137.972 137.582C130.114 137.582 125.226 143.581 125.226 150.918C125.226 158.517 130.449 164.154 138.212 164.154C143.566 164.154 146.813 161.788 148.823 158.81L143.826 155.759C142.569 157.399 140.559 158.266 138.404 158.266C134.878 158.266 132.518 156.689 131.713 153.535H144.904C144.903 153.539 144.902 153.543 144.901 153.548L149.71 153.575C149.892 152.745 150 151.887 150 150.918C150 144.527 145.879 137.582 137.972 137.582Z" fill="#F2F2F2"/>
  <path fill-rule="evenodd" clip-rule="evenodd" d="M107.677 158.161C103.338 158.161 100.73 155.085 100.73 151.29C100.73 147.495 103.388 144.418 107.677 144.418C111.967 144.418 114.625 147.495 114.625 151.29C114.625 155.085 112.017 158.161 107.677 158.161ZM114.625 141.921C112.766 139.753 110.126 138.424 106.85 138.424C99.5255 138.424 94.2581 144.184 94.2581 151.29C94.2581 158.396 99.4755 164.156 106.85 164.156C110.126 164.156 112.766 162.827 114.625 160.658V163.522H121.097V129.408H114.625V141.921Z" fill="#F2F2F2"/>
  <path fill-rule="evenodd" clip-rule="evenodd" d="M169.377 150.337C171.187 151.561 172.334 153.395 172.334 155.817C172.334 160.71 168.926 164.105 162.555 164.105C156.56 164.105 153.345 161.131 152.064 158.128L157.568 155.018C157.568 155.018 158.308 158.263 162.457 158.263C165.025 158.263 165.815 157.165 165.815 156.195C165.815 155.745 165.667 154.918 163.839 154.219C160.169 152.815 153.073 152.185 153.073 145.781C153.073 140.539 157.319 137.743 162.555 137.743C167.452 137.743 170.597 140.692 171.791 142.986L166.407 146.031C166.407 146.031 165.37 143.484 162.605 143.484C159.839 143.484 159.592 145.032 159.592 145.481C159.592 146.792 160.973 147.33 163.938 148.178C165.694 148.679 167.497 149.135 169.383 150.332C169.381 150.334 169.379 150.335 169.377 150.337ZM278 144.633H272.419V155.018C272.419 158.263 275.679 157.564 278 157.564V163.406C278 163.406 276.777 163.606 274.642 163.606C269.901 163.606 266.049 162.208 266.049 155.018V144.633H261.752V138.441H266.049V131.451H272.419V138.441H278V144.633ZM188.172 157.814C190.816 157.814 192.848 156.539 193.876 154.447L199.398 157.649C197.234 161.485 193.202 164.155 188.172 164.155C180.542 164.155 175.208 158.253 175.208 150.974C175.208 143.694 180.591 137.792 188.172 137.792C193.129 137.792 197.145 140.418 199.332 144.204L193.822 147.478C192.775 145.414 190.758 144.133 188.172 144.133C184.317 144.133 181.579 147.196 181.579 150.974C181.579 154.751 184.291 157.814 188.172 157.814Z" fill="#F2F2F2"/>
  <path fill-rule="evenodd" clip-rule="evenodd" d="M246.481 158.92C242.297 158.92 239.781 155.762 239.781 151.867C239.781 147.972 242.345 144.814 246.481 144.814C250.616 144.814 253.18 147.972 253.18 151.867C253.18 155.762 250.665 158.92 246.481 158.92ZM247.279 138.662C254.341 138.662 259.419 144.574 259.419 151.867C259.419 159.16 254.389 165.072 247.279 165.072C244.119 165.072 241.574 163.708 239.781 161.482V174.376H233.541V139.362H239.781V142.251C241.574 140.026 244.119 138.662 247.279 138.662ZM221.546 164.422V139.412H227.785V164.422H221.546ZM209.917 143.684C211.122 140.653 213.575 138.92 217.269 138.912V146.115C212.937 145.691 209.808 147.918 209.922 153.18C209.92 153.176 209.919 153.172 209.917 153.168V164.422H203.677V139.412H209.917V143.684ZM221.546 136.074V129.408H227.991V136.074H221.546Z" fill="#F2F2F2"/>
  <path fill-rule="evenodd" clip-rule="evenodd" d="M22 175.008C22 178.343 24.1529 180.506 27.4716 180.506L43.4582 180.507C52.9951 180.507 60.7965 177.264 66.1005 171.588H22V175.008ZM43.4582 119.492L27.4716 119.492C24.1529 119.492 22 121.655 22 124.99V128.411H66.1005C60.7965 122.735 52.9951 119.492 43.4582 119.492ZM57.4098 158.693C57.4098 161.391 59.1589 163.142 61.8555 163.142H71.4349C72.5208 160.434 73.2504 157.457 73.5895 154.245H61.8555C59.1589 154.245 57.4098 155.995 57.4098 158.693ZM44.1319 141.328C44.1319 144.026 45.881 145.776 48.5776 145.776H73.5895C73.2504 142.564 72.5208 139.587 71.4349 136.879H48.5776C45.881 136.879 44.1319 138.629 44.1319 141.328ZM48.5746 158.693C48.5746 155.995 46.8255 154.245 44.1289 154.245H22V163.142H44.1289C46.8255 163.142 48.5746 161.391 48.5746 158.693ZM35.2967 141.328C35.2967 138.629 33.5476 136.879 30.851 136.879H22V145.776H30.851C33.5476 145.776 35.2967 144.026 35.2967 141.328Z" fill="#F2F2F2"/>
</svg>
