<svg width="300" height="300" viewBox="0 0 300 300" fill="currentColor"
  xmlns="http://www.w3.org/2000/svg">
  <path d="M73.6675 139.904C64.3677 139.904 57.1011 146.962 57.1011 156.412C57.1011 165.861 64.1841 172.86 73.6675 172.86C83.151 172.86 90.3571 165.741 90.3571 156.351C90.3571 147.023 83.2742 139.904 73.6675 139.904ZM73.7303 166.05C68.4343 166.05 64.5536 161.937 64.5536 156.414C64.5536 150.829 68.3716 146.718 73.6675 146.718C79.0262 146.718 82.9047 150.891 82.9047 156.414C82.9047 161.937 79.0263 166.05 73.7303 166.05ZM92.3881 147.086H97.0079V172.249H104.398V140.517H92.3881V147.086ZM38.5037 146.716C42.3844 146.716 45.4635 149.109 46.6324 152.669H54.4543C53.0368 145.059 46.7555 139.904 38.5664 139.904C29.2665 139.904 22 146.962 22 156.414C22 165.866 29.083 172.862 38.5664 172.862C46.5719 172.862 52.9764 167.706 54.3939 160.034H46.6324C45.5239 163.594 42.4449 166.05 38.5641 166.05C33.2054 166.05 29.4501 161.937 29.4501 156.414C29.4525 150.829 33.1473 146.716 38.5037 146.716ZM232.797 153.345L227.378 152.548C224.792 152.181 222.944 151.321 222.944 149.295C222.944 147.086 225.347 145.982 228.61 145.982C232.181 145.982 234.461 147.515 234.954 150.032H242.097C241.295 143.649 236.369 139.906 228.796 139.906C220.974 139.906 215.801 143.895 215.801 149.541C215.801 154.941 219.189 158.073 226.023 159.054L231.442 159.851C234.092 160.218 235.57 161.263 235.57 163.227C235.57 165.743 232.983 166.786 229.411 166.786C225.038 166.786 222.575 165.006 222.205 162.306H214.939C215.617 168.505 220.481 172.862 229.349 172.862C237.417 172.862 242.773 169.179 242.773 162.857C242.773 157.211 238.895 154.265 232.797 153.345ZM100.703 127.445C97.9932 127.445 95.9598 129.409 95.9598 132.109C95.9598 134.808 97.9908 136.772 100.703 136.772C103.412 136.772 105.446 134.808 105.446 132.109C105.446 129.409 103.412 127.445 100.703 127.445ZM209.15 151.382C209.15 144.509 204.963 139.906 196.095 139.906C187.72 139.906 183.04 144.142 182.115 150.647H189.444C189.814 148.131 191.784 146.045 195.972 146.045C199.729 146.045 201.577 147.701 201.577 149.727C201.577 152.367 198.189 153.041 194.001 153.47C188.336 154.084 181.316 156.047 181.316 163.412C181.316 169.121 185.566 172.802 192.34 172.802C197.636 172.802 200.961 170.592 202.625 167.093C202.871 170.222 205.211 172.249 208.476 172.249H212.787V165.682H209.153V151.382H209.15ZM201.884 159.36C201.884 163.596 198.189 166.726 193.692 166.726C190.92 166.726 188.58 165.559 188.58 163.106C188.58 159.976 192.337 159.116 195.786 158.749C199.111 158.443 200.959 157.706 201.884 156.293V159.36ZM162.655 139.904C158.528 139.904 155.08 141.623 152.617 144.506V127.139H145.227V172.249H152.493V168.076C154.957 171.082 158.468 172.862 162.655 172.862C171.523 172.862 178.237 165.866 178.237 156.414C178.237 146.962 171.4 139.904 162.655 139.904ZM161.547 166.05C156.251 166.05 152.37 161.937 152.37 156.414C152.37 150.891 156.311 146.718 161.607 146.718C166.966 146.718 170.721 150.831 170.721 156.414C170.721 161.937 166.843 166.05 161.547 166.05ZM127.552 139.904C122.749 139.904 119.607 141.867 117.759 144.63V140.517H110.43V172.246H117.82V155.002C117.82 150.152 120.899 146.716 125.456 146.716C129.706 146.716 132.353 149.723 132.353 154.081V172.249H139.743V153.531C139.745 145.55 135.62 139.904 127.552 139.904ZM278 155.371C278 146.289 271.349 139.906 262.419 139.906C252.935 139.906 245.976 147.025 245.976 156.414C245.976 166.296 253.428 172.862 262.542 172.862C270.241 172.862 276.276 168.32 277.814 161.877H270.115C269.007 164.7 266.297 166.296 262.663 166.296C257.92 166.296 254.348 163.35 253.549 158.194H277.998V155.371H278ZM253.981 152.915C255.152 148.496 258.478 146.349 262.296 146.349C266.483 146.349 269.685 148.742 270.424 152.915H253.981Z" fill="#ecedee"/>
</svg>
