<svg width="264" height="200" viewBox="0 0 264 200" fill="none" xmlns="http://www.w3.org/2000/svg">
<path fill-rule="evenodd" clip-rule="evenodd" d="M33.1407 75.765C39.9988 68.073 51.3555 65.816 60.6922 70.256C73.0972 76.156 77.6228 91.186 70.869 102.779L55.6756 128.83C54.8264 130.286 53.4292 131.348 51.7908 131.784C50.1524 132.219 48.4067 131.992 46.937 131.152L65.3314 99.606C70.2316 91.192 66.954 80.286 57.9603 75.991C51.2122 72.769 42.9629 74.379 37.9777 79.92C35.2279 82.962 33.684 86.889 33.6325 90.973C33.5811 95.058 35.0255 99.022 37.6977 102.131C38.1779 102.689 38.6948 103.215 39.2449 103.705L28.5063 122.155C28.0863 122.876 27.5272 123.508 26.8608 124.015C26.1945 124.522 25.4339 124.894 24.6225 125.11C23.8112 125.325 22.9649 125.38 22.1321 125.272C21.2993 125.163 20.4962 124.893 19.7687 124.477L31.4265 104.447C29.7519 102.054 28.5494 99.368 27.8823 96.531L20.7386 108.829C19.8894 110.285 18.4922 111.347 16.8538 111.783C15.2154 112.218 13.4697 111.991 12 111.151L30.4737 79.428C31.2426 78.125 32.1357 76.899 33.1407 75.765ZM54.463 85.862C58.9121 88.41 60.4486 94.075 57.8742 98.484L40.1592 128.827C39.3101 130.282 37.9129 131.344 36.2745 131.78C34.6361 132.215 32.8904 131.988 31.4207 131.149L47.8697 102.899C46.5498 102.624 45.3061 102.068 44.2242 101.269C43.1422 100.471 42.248 99.449 41.6033 98.275C40.9584 97.1 40.5783 95.801 40.4893 94.467C40.4003 93.133 40.6043 91.796 41.0875 90.547C41.5707 89.299 42.3213 88.169 43.2876 87.236C44.254 86.304 45.4131 85.59 46.6848 85.145C47.9565 84.699 49.3104 84.533 50.6534 84.657C51.9963 84.781 53.2961 85.192 54.463 85.862ZM48.0193 91.565C47.7149 91.797 47.4594 92.086 47.2676 92.415H47.2667C46.9777 92.912 46.8438 93.482 46.8815 94.054C46.9194 94.625 47.1275 95.173 47.4795 95.628C47.8316 96.083 48.3115 96.424 48.8589 96.608C49.4064 96.792 49.9966 96.811 50.555 96.663C51.1135 96.514 51.615 96.205 51.996 95.774C52.3771 95.343 52.6209 94.81 52.6964 94.242C52.7719 93.674 52.6757 93.096 52.42 92.582C52.1643 92.068 51.7606 91.641 51.26 91.354C50.9276 91.164 50.5607 91.04 50.1801 90.991C49.7995 90.941 49.4128 90.966 49.0421 91.065C48.6714 91.163 48.3239 91.333 48.0193 91.565Z" fill="#4F40FF"/>
<path fill-rule="evenodd" clip-rule="evenodd" d="M91 111.5L104.282 77H112.069L125.352 111.5H117.927L115.066 103.772H101.285L98.424 111.5H91ZM112.796 97.562C111.888 94.863 111.078 92.448 110.367 90.317C109.655 88.186 108.929 85.985 108.187 83.716C107.445 85.985 106.711 88.186 105.985 90.317C105.273 92.448 104.464 94.863 103.555 97.562H112.796ZM127.599 80.68C127.599 79.576 127.932 78.687 128.598 78.012C129.264 77.337 130.142 77 131.232 77C132.322 77 133.2 77.337 133.866 78.012C134.532 78.687 134.865 79.576 134.865 80.68C134.865 81.784 134.532 82.673 133.866 83.348C133.2 84.023 132.322 84.36 131.232 84.36C130.142 84.36 129.264 84.023 128.598 83.348C127.932 82.673 127.599 81.784 127.599 80.68ZM127.963 111.5V88.5H134.501V111.5H127.963ZM140.041 88.5V111.5H146.58V101.357C146.58 98.934 147.117 97.071 148.192 95.768C149.267 94.449 150.682 93.79 152.438 93.79C153.285 93.79 154.148 93.936 155.026 94.227L155.934 88.5C154.89 88.193 153.876 88.04 152.892 88.04C150.001 88.04 147.73 89.29 146.08 91.789V88.5H140.041ZM158.432 111.5V77H164.971V90.777C165.924 89.918 167.014 89.251 168.24 88.776C169.466 88.285 170.79 88.04 172.213 88.04C174.347 88.04 176.247 88.561 177.912 89.604C179.577 90.631 180.886 92.05 181.84 93.859C182.793 95.653 183.27 97.7 183.27 100C183.27 102.3 182.793 104.355 181.84 106.164C180.886 107.958 179.577 109.376 177.912 110.419C176.247 111.446 174.347 111.96 172.213 111.96C170.745 111.96 169.375 111.707 168.104 111.201C166.832 110.68 165.72 109.951 164.766 109.016L164.607 111.5H158.432ZM171.383 106.21C173.048 106.21 174.426 105.62 175.515 104.439C176.605 103.258 177.15 101.779 177.15 100C177.15 98.221 176.605 96.742 175.515 95.561C174.426 94.38 173.048 93.79 171.383 93.79C169.718 93.79 168.341 94.38 167.251 95.561C166.161 96.742 165.616 98.221 165.616 100C165.616 101.779 166.161 103.258 167.251 104.439C168.341 105.62 169.718 106.21 171.383 106.21ZM194.196 99.747L188.883 88.5H182.049L192.629 110.35L187.453 123H194.332L208.454 88.5H201.552L195.422 103.496C195.271 102.745 195.089 102.055 194.877 101.426C194.665 100.797 194.438 100.238 194.196 99.747ZM209.34 88.5H213.086V82.75H219.625V88.5H225.142V94.25H219.625V102.714C219.625 103.803 219.965 104.661 220.646 105.29C221.343 105.903 222.221 106.21 223.28 106.21C224.067 106.21 224.877 106.034 225.71 105.681V111.109C224.271 111.676 222.856 111.96 221.464 111.96C218.769 111.96 216.696 111.232 215.243 109.775C213.805 108.303 213.086 106.202 213.086 103.473V94.25H209.34V88.5ZM237.538 105.083C236.449 104.286 235.699 103.251 235.291 101.978H253V99.977C253 97.662 252.485 95.607 251.456 93.813C250.427 92.019 249.019 90.608 247.233 89.581C245.462 88.554 243.434 88.04 241.148 88.04C238.848 88.04 236.789 88.561 234.973 89.604C233.172 90.631 231.749 92.042 230.704 93.836C229.66 95.615 229.138 97.646 229.138 99.931C229.138 102.246 229.683 104.316 230.772 106.141C231.862 107.95 233.368 109.376 235.291 110.419C237.213 111.446 239.431 111.96 241.943 111.96C243.517 111.96 245.16 111.699 246.87 111.178C248.595 110.657 250.336 109.698 252.092 108.303L248.141 103.519C247.294 104.332 246.348 104.999 245.303 105.52C244.274 106.026 242.972 106.279 241.398 106.279C239.93 106.279 238.643 105.88 237.538 105.083ZM245.883 97.107C245.521 96.293 245.003 95.601 244.327 95.032C243.343 94.204 242.163 93.79 240.785 93.79C239.393 93.79 238.182 94.212 237.152 95.055C236.462 95.629 235.933 96.313 235.566 97.107H245.883Z" fill="#4F40FF"/>
</svg>
