<svg width="264" height="200" viewBox="0 0 264 200" fill="none" xmlns="http://www.w3.org/2000/svg">
<path d="M133.867 119.469C127.416 119.469 122.184 114.243 122.184 107.791C122.184 101.344 127.416 96.119 133.867 96.119C140.317 96.119 145.545 101.344 145.545 107.791C145.545 114.243 140.317 119.469 133.867 119.469ZM99.4666 119.469C93.0166 119.469 87.7816 114.244 87.7816 107.793C87.7816 101.344 93.0166 96.119 99.4666 96.119C105.917 96.119 111.141 101.344 111.141 107.791C111.141 114.243 105.917 119.469 99.4666 119.469ZM133.867 88.325C126.417 88.325 119.934 92.515 116.669 98.668C113.403 92.515 106.923 88.325 99.4666 88.325C95.0886 88.325 91.0446 89.773 87.7816 92.219V75.816C87.7426 73.697 86.0146 72 83.8876 72C81.7604 72 80.0487 73.697 80 75.816V108.115H80.0043C80.1758 118.721 88.8176 127.264 99.4666 127.264C106.923 127.264 113.403 123.069 116.669 116.922C119.934 123.069 126.417 127.264 133.867 127.264C144.616 127.264 153.336 118.548 153.336 107.791C153.336 97.039 144.616 88.325 133.867 88.325Z" fill="#0646FF"/>
<path d="M183.529 120.743L172.95 107.757L183.542 94.7452C184.881 93.0292 184.497 90.6322 182.648 89.3592C180.797 88.0752 178.2 88.4042 176.768 90.0692V90.0672L167.656 101.243L158.552 90.0672V90.0692C157.135 88.4042 154.522 88.0752 152.676 89.3592C150.831 90.6332 150.445 93.0292 151.791 94.7452H151.787L162.36 107.757L151.787 120.743H151.791C150.445 122.464 150.831 124.854 152.676 126.132C154.522 127.411 157.135 127.086 158.552 125.418L167.656 114.256L176.755 125.418C178.189 127.086 180.785 127.411 182.636 126.132C184.485 124.854 184.87 122.464 183.529 120.743Z" fill="#0646FF"/>
</svg>
