<svg width="264" height="200" viewBox="0 0 264 200" fill="none" xmlns="http://www.w3.org/2000/svg">
<path d="M80.4472 110.516C80.3071 110.447 80.0783 110.45 79.8939 110.697C78.7605 112.208 74.6458 117.142 69.2879 117.142C60.8495 117.142 55.1812 110.062 55.1812 99.5222C55.1812 90.2122 60.1702 83.4562 67.0642 83.4562H67.0677C68.1801 83.4562 69.2786 83.8192 70.161 84.4782L77.3142 89.8223C77.4904 89.9543 77.7227 89.9753 77.92 89.8763C78.1149 89.7783 78.2352 89.5842 78.2352 89.3682V83.2542C78.2352 83.0342 78.1068 82.8313 77.9095 82.7383C75.3975 81.5563 72.1758 80.9062 68.8396 80.9062C56.5703 80.9062 48 89.5852 48 102.012C48 113.344 55.5605 121.569 65.9786 121.569C74.4368 121.569 79.4655 115.159 80.6491 111.119C80.7379 110.817 80.6118 110.597 80.4472 110.516Z" fill="#082C81"/>
<path d="M109.198 118.344C109.149 118.29 109.122 118.221 109.122 118.149V99.18C109.122 94.822 105.887 91.8531 101.073 91.7941C97.0674 91.7481 93.5544 94.3411 91.8644 95.5891C91.6374 95.7551 91.4414 95.9 91.2804 96.012C91.2504 96.033 91.2204 96.023 91.2094 96.017C91.1984 96.011 91.1734 95.994 91.1734 95.956V78.6151C91.1734 78.4381 91.0914 78.272 90.9484 78.163C90.8044 78.052 90.6194 78.017 90.4584 78.062C90.3974 78.071 84.4194 79.018 82.4584 79.455C82.2384 79.504 82.0714 79.695 82.0434 79.928C82.0144 80.166 82.1344 80.3851 82.3444 80.4881C82.4124 80.5331 84.0114 81.592 84.4974 81.857C84.6704 81.951 84.7774 82.1311 84.7774 82.3281V118.143C84.7774 118.221 84.7454 118.293 84.7064 118.334L82.6094 119.805C82.4394 119.97 82.3894 120.207 82.4764 120.425C82.5664 120.646 82.7704 120.783 83.0114 120.783H92.9363C93.1773 120.783 93.3824 120.646 93.4714 120.425C93.5584 120.207 93.5084 119.97 93.3214 119.791L91.2594 118.348C91.2024 118.293 91.1714 118.22 91.1714 118.143V98.9361C91.1714 98.8521 91.2094 98.7711 91.2734 98.7161C93.1454 97.1241 94.9394 96.225 96.7584 95.967C98.2434 95.757 99.7534 96.2061 100.897 97.1991C102.06 98.2091 102.725 99.662 102.725 101.187V118.145C102.725 118.222 102.695 118.295 102.656 118.336L100.538 119.866C100.371 120.03 100.322 120.267 100.41 120.485C100.5 120.704 100.706 120.841 100.945 120.841H110.861C111.099 120.841 111.304 120.705 111.393 120.488C111.483 120.273 111.437 120.037 111.256 119.856L109.198 118.344Z" fill="#082C81"/>
<path d="M138.037 111.144C137.81 111.025 137.541 111.091 137.378 111.303C135.834 113.338 132.624 116.75 128.468 116.75C122.349 116.75 118.225 112.026 117.963 104.715C117.96 104.639 117.988 104.565 118.042 104.511C118.098 104.452 118.178 104.418 118.259 104.418H137.644C137.82 104.418 137.983 104.341 138.094 104.206C138.202 104.073 138.244 103.902 138.212 103.737C136.606 95.8564 132.519 91.6914 126.394 91.6914C118.576 91.6914 112.678 98.3644 112.678 107.21C112.678 115.798 118.077 121.567 126.113 121.567C131.744 121.567 136.174 117.989 138.267 111.752C138.362 111.468 138.22 111.242 138.037 111.144ZM118.052 102.053C118.602 96.9544 121.239 93.9094 125.103 93.9094C128.599 93.9094 130.638 96.3354 131.92 102.018C131.939 102.101 131.919 102.189 131.864 102.257C131.808 102.328 131.723 102.369 131.632 102.369H118.346C118.26 102.369 118.179 102.332 118.122 102.269C118.068 102.209 118.042 102.133 118.052 102.053Z" fill="#082C81"/>
<path d="M164.823 112.3C164.643 112.209 164.387 112.228 164.22 112.471L164.111 112.631C162.901 114.393 161.245 116.806 156.95 116.806C150.889 116.806 146.489 111.7 146.489 104.666C146.489 98.6654 149.728 93.9644 153.865 93.9644C154.124 93.9644 154.386 93.9794 154.644 94.0074C155.164 94.0664 155.666 94.2664 156.094 94.5874L162.337 99.2744C162.514 99.4074 162.747 99.4284 162.944 99.3294C163.139 99.2314 163.261 99.0364 163.261 98.8204V93.6494C163.261 93.4294 163.134 93.2284 162.939 93.1354C161.035 92.2324 158.419 91.6914 155.941 91.6914C147.271 91.6914 141.215 98.0954 141.215 107.265C141.215 115.819 146.321 121.567 153.92 121.567C161.286 121.567 163.808 116.64 165.064 112.933C165.166 112.633 165.011 112.394 164.823 112.3Z" fill="#082C81"/>
<path d="M215.57 92.326C214.995 92.049 214.311 91.793 213.221 91.793C211.134 91.793 208.524 93.378 205.462 96.505C205.442 96.526 205.419 96.522 205.406 96.517C205.394 96.512 205.374 96.501 205.373 96.473L205.208 92.452C205.197 92.282 205.109 92.127 204.968 92.028C204.824 91.926 204.645 91.896 204.477 91.945L196.937 94.076C196.733 94.135 196.581 94.291 196.534 94.496C196.486 94.7 196.552 94.905 196.708 95.046L199.188 97.277C199.248 97.332 199.283 97.409 199.283 97.489V118.198C199.283 118.276 199.252 118.349 199.205 118.396L197.397 119.86C197.228 120.024 197.176 120.262 197.264 120.48C197.353 120.701 197.558 120.839 197.798 120.839H207.324C207.565 120.839 207.776 120.694 207.863 120.47C207.947 120.249 207.887 120.004 207.699 119.837L205.775 118.4C205.714 118.347 205.679 118.268 205.679 118.187V100.215C205.679 99.97 205.74 99.728 205.854 99.518C206.291 98.715 206.984 97.961 207.857 97.334C208.731 96.707 209.609 96.167 210.722 96.431C211.562 96.629 213.273 97.908 214.297 98.673C214.667 98.95 214.96 99.168 215.118 99.267C215.299 99.38 215.518 99.387 215.706 99.283C215.89 99.182 216 98.996 216 98.787V93.006C215.999 92.713 215.835 92.452 215.57 92.326Z" fill="#082C81"/>
<path d="M181.306 102.812C181.257 102.744 181.382 102.62 181.526 102.487L191.483 93.3601C191.661 93.1981 191.696 92.9321 191.55 92.7231C191.458 92.5911 191.299 92.5211 191.139 92.5211H183.938C183.765 92.5211 183.595 92.5881 183.483 92.7201C183.303 92.9321 183.301 93.2231 183.459 93.4331L185.343 95.9241C185.432 96.0421 185.418 96.2051 185.309 96.3051L174.835 105.983V96.3771L174.837 96.3781V78.5721C174.837 78.3931 174.755 78.2291 174.612 78.1201C174.468 78.0091 174.283 77.9741 174.122 78.0191C174.061 78.0281 168.083 78.9751 166.122 79.4121C165.902 79.4611 165.736 79.6541 165.708 79.8921C165.68 80.1331 165.802 80.3491 166.007 80.4451C166.07 80.4871 167.561 81.4731 168.157 81.7911C168.331 81.8851 168.44 82.0661 168.44 82.2641V83.1101L168.439 83.1091V118.045C168.439 118.121 168.407 118.194 168.369 118.234L166.251 119.764C166.075 119.938 166.031 120.193 166.14 120.419C166.238 120.621 166.455 120.738 166.68 120.738H176.598C176.838 120.738 177.044 120.6 177.133 120.38C177.22 120.161 177.17 119.924 176.983 119.746L174.921 118.303C174.863 118.248 174.833 118.175 174.833 118.096V108.83C174.833 108.752 174.865 108.678 174.921 108.624L176.946 106.671C177.009 106.611 177.092 106.58 177.182 106.589C177.268 106.597 177.346 106.642 177.396 106.714C177.455 106.794 183.138 114.603 185.998 118.493C186.045 118.558 186.033 118.646 185.973 118.696L184.572 119.859C184.393 120.032 184.346 120.287 184.455 120.515C184.553 120.718 184.77 120.837 184.997 120.837H194.239C194.533 120.837 194.649 120.708 194.695 120.599C194.802 120.342 194.593 119.993 194.432 119.829C194.112 119.414 181.484 103.05 181.306 102.812Z" fill="#082C81"/>
</svg>
