<svg width="264" height="200" viewBox="0 0 264 200" fill="none" xmlns="http://www.w3.org/2000/svg">
<path d="M59.6675 89.9056C50.3677 89.9056 43.1011 96.9636 43.1011 106.414C43.1011 115.863 50.1841 122.862 59.6675 122.862C69.151 122.862 76.3571 115.743 76.3571 106.353C76.3571 97.0246 69.2742 89.9056 59.6675 89.9056ZM59.7303 116.052C54.4343 116.052 50.5536 111.939 50.5536 106.416C50.5536 100.831 54.3716 96.7196 59.6675 96.7196C65.0262 96.7196 68.9047 100.893 68.9047 106.416C68.9047 111.939 65.0263 116.052 59.7303 116.052ZM78.3881 97.0876H83.0079V122.251H90.398V90.5186H78.3881V97.0876ZM24.5037 96.7176C28.3844 96.7176 31.4635 99.1106 32.6324 102.671H40.4543C39.0368 95.0606 32.7555 89.9056 24.5664 89.9056C15.2665 89.9056 8 96.9636 8 106.416C8 115.868 15.083 122.864 24.5664 122.864C32.5719 122.864 38.9764 117.708 40.3939 110.036H32.6324C31.5239 113.596 28.4449 116.052 24.5641 116.052C19.2054 116.052 15.4501 111.939 15.4501 106.416C15.4525 100.831 19.1473 96.7176 24.5037 96.7176ZM218.797 103.347L213.378 102.55C210.792 102.183 208.944 101.323 208.944 99.2966C208.944 97.0876 211.347 95.9836 214.61 95.9836C218.181 95.9836 220.461 97.5166 220.954 100.034H228.097C227.295 93.6506 222.369 89.9076 214.796 89.9076C206.974 89.9076 201.801 93.8966 201.801 99.5426C201.801 104.943 205.189 108.075 212.023 109.056L217.442 109.853C220.092 110.22 221.57 111.265 221.57 113.229C221.57 115.745 218.983 116.788 215.411 116.788C211.038 116.788 208.575 115.008 208.205 112.308H200.939C201.617 118.507 206.481 122.864 215.349 122.864C223.417 122.864 228.773 119.181 228.773 112.859C228.773 107.213 224.895 104.267 218.797 103.347ZM86.703 77.4466C83.9932 77.4466 81.9598 79.4106 81.9598 82.1106C81.9598 84.8096 83.9908 86.7736 86.703 86.7736C89.412 86.7736 91.446 84.8096 91.446 82.1106C91.446 79.4106 89.412 77.4466 86.703 77.4466ZM195.15 101.384C195.15 94.5106 190.963 89.9076 182.095 89.9076C173.72 89.9076 169.04 94.1436 168.115 100.649H175.444C175.814 98.1326 177.784 96.0466 181.972 96.0466C185.729 96.0466 187.577 97.7026 187.577 99.7286C187.577 102.369 184.189 103.043 180.001 103.472C174.336 104.086 167.316 106.049 167.316 113.414C167.316 119.123 171.566 122.804 178.34 122.804C183.636 122.804 186.961 120.594 188.625 117.095C188.871 120.224 191.211 122.251 194.476 122.251H198.787V115.684H195.153V101.384H195.15ZM187.884 109.362C187.884 113.598 184.189 116.728 179.692 116.728C176.92 116.728 174.58 115.561 174.58 113.108C174.58 109.978 178.337 109.118 181.786 108.751C185.111 108.445 186.959 107.708 187.884 106.295V109.362ZM148.655 89.9056C144.528 89.9056 141.08 91.6246 138.617 94.5076V77.1406H131.227V122.251H138.493V118.078C140.957 121.084 144.468 122.864 148.655 122.864C157.523 122.864 164.237 115.868 164.237 106.416C164.237 96.9636 157.4 89.9056 148.655 89.9056ZM147.547 116.052C142.251 116.052 138.37 111.939 138.37 106.416C138.37 100.893 142.311 96.7196 147.607 96.7196C152.966 96.7196 156.721 100.833 156.721 106.416C156.721 111.939 152.843 116.052 147.547 116.052ZM113.552 89.9056C108.749 89.9056 105.607 91.8686 103.759 94.6316V90.5186H96.43V122.248H103.82V105.004C103.82 100.154 106.899 96.7176 111.456 96.7176C115.706 96.7176 118.353 99.7246 118.353 104.083V122.251H125.743V103.533C125.745 95.5516 121.62 89.9056 113.552 89.9056ZM264 105.373C264 96.2906 257.349 89.9076 248.419 89.9076C238.935 89.9076 231.976 97.0266 231.976 106.416C231.976 116.298 239.428 122.864 248.542 122.864C256.241 122.864 262.276 118.322 263.814 111.879H256.115C255.007 114.702 252.297 116.298 248.663 116.298C243.92 116.298 240.348 113.352 239.549 108.196H263.998V105.373H264ZM239.981 102.917C241.152 98.4976 244.478 96.3506 248.296 96.3506C252.483 96.3506 255.685 98.7436 256.424 102.917H239.981Z" fill="#0333FF"/>
</svg>
