<svg width="264" height="200" viewBox="0 0 264 200" fill="none" xmlns="http://www.w3.org/2000/svg">
<path fill-rule="evenodd" clip-rule="evenodd" d="M172.487 127.574L161.809 120.5L152.9 135.445L142.54 132.403L133.417 146.387L133.885 150.789L183.485 141.61L180.604 110.484L172.487 127.574ZM126.231 114.154L134.189 113.055C135.476 113.636 136.373 113.858 137.917 114.252C140.321 114.881 143.105 115.485 147.227 113.398C148.186 112.921 150.184 111.086 150.992 110.04L183.598 104.099L186.924 144.531L131.065 154.642L126.231 114.154ZM186.798 99.5853L183.58 100.201L177.397 36.0391L72.04 48.309L85.0196 154.098L97.3516 152.301C96.3668 150.889 94.8334 149.18 92.2147 146.992C88.5827 143.962 89.8673 138.814 92.0093 135.564C94.8439 130.072 109.448 123.092 108.621 114.314C108.324 111.122 107.819 106.967 104.869 104.12C104.758 105.302 104.957 106.44 104.957 106.44C104.957 106.44 103.746 104.888 103.142 102.771C102.543 101.96 102.072 101.701 101.435 100.617C100.981 101.871 101.041 103.325 101.041 103.325C101.041 103.325 100.05 100.973 99.8894 98.9891C99.3018 99.8774 99.1534 101.565 99.1534 101.565C99.1534 101.565 97.8658 97.8585 98.1596 95.8622C97.572 94.1248 95.8302 90.6772 96.3233 82.841C99.5386 85.1038 106.617 84.5663 109.375 80.4833C110.291 79.1314 110.917 75.4399 108.918 68.1667C107.633 63.5026 104.452 56.5577 103.213 53.9231L103.064 54.03C103.718 56.1527 105.065 60.603 105.582 62.7604C107.147 69.3049 107.567 71.5827 106.833 74.5998C106.208 77.2224 104.709 78.9387 100.909 80.8567C97.1088 82.7808 92.0663 78.0986 91.747 77.8397C88.055 74.8858 85.1995 70.0667 84.8802 67.7256C84.5489 65.1632 86.3507 63.6246 87.2591 61.5289C85.9595 61.9023 84.51 62.5647 84.51 62.5647C84.51 62.5647 86.2398 60.7671 88.3728 59.2119C89.2557 58.6248 89.7743 58.2514 90.7052 57.4746C89.3576 57.452 88.2634 57.4911 88.2634 57.4911C88.2634 57.4911 90.5103 56.2717 92.8397 55.3834C91.1354 55.3081 89.5045 55.3714 89.5045 55.3714C89.5045 55.3714 94.5186 53.1191 98.4789 51.4661C101.202 50.3445 103.863 50.6757 105.358 52.8466C107.32 55.6905 109.381 57.2352 113.749 58.1927C116.431 56.9988 117.246 56.3846 120.616 55.4632C123.582 52.1872 125.912 51.7627 125.912 51.7627C125.912 51.7627 124.756 52.8271 124.447 54.4997C126.129 53.1688 127.973 52.0577 127.973 52.0577C127.973 52.0577 127.259 52.943 126.594 54.3491L126.748 54.5795C128.71 53.3976 131.017 52.4657 131.017 52.4657C131.017 52.4657 130.357 53.3028 129.584 54.3868C131.063 54.3747 134.064 54.45 135.229 54.5825C142.105 54.7345 143.532 47.207 146.17 46.263C149.474 45.0782 150.95 44.3615 156.58 49.9154C161.412 54.6833 165.186 63.2181 163.312 65.1301C161.741 66.7169 158.642 64.5113 155.206 60.2101C153.391 57.9322 152.018 55.2404 151.375 51.8184C150.832 48.9308 148.72 47.2551 148.72 47.2551C148.72 47.2551 149.946 49.9922 149.946 52.41C149.946 53.7304 150.111 58.6669 152.218 61.4371C152.01 61.8421 151.913 63.4409 151.682 63.7465C149.229 60.7701 143.964 58.6398 143.105 58.012C146.011 60.4043 152.692 65.8994 155.258 71.1657C157.685 76.146 156.255 80.7107 157.483 81.8925C157.832 82.2312 162.702 88.3256 163.639 91.3878C165.273 96.7248 163.736 102.333 161.597 105.812L155.624 106.747C154.75 106.503 154.161 106.381 153.377 105.925C153.809 105.157 154.668 103.242 154.677 102.848L154.339 102.253C152.481 104.898 149.366 107.467 146.779 108.942C143.392 110.869 139.489 110.573 136.948 109.782C129.737 107.548 122.918 102.654 121.274 101.368C121.274 101.368 121.223 102.395 121.533 102.625C123.351 104.684 127.517 108.411 131.543 111.008L122.96 111.956L127.018 143.689C125.219 143.948 124.939 144.075 122.969 144.356C121.233 138.197 117.913 134.176 114.284 131.833C111.084 129.768 106.669 129.303 102.444 130.143L102.172 130.459C105.11 130.152 108.579 130.579 112.142 132.845C115.639 135.066 118.457 140.802 119.494 144.255C120.823 148.67 121.741 153.391 118.166 158.395C115.623 161.953 108.197 163.919 102.198 159.666C103.8 162.254 105.966 164.371 108.882 164.77C113.211 165.36 117.319 164.605 120.148 161.689C122.563 159.196 123.843 153.983 123.506 148.492L127.327 147.935L128.706 157.79L191.959 150.14L186.798 99.5853ZM148.315 72.8218C148.138 73.2268 147.861 73.4917 148.278 74.8091L148.303 74.8843L148.369 75.0545L148.543 75.4489C149.294 76.9906 150.118 78.4449 151.496 79.1871C151.853 79.1269 152.221 79.0862 152.604 79.0667C153.897 79.0094 154.714 79.2157 155.233 79.4957C155.279 79.2368 155.29 78.8574 155.261 78.2988C155.161 76.3462 155.647 73.025 151.91 71.2771C150.499 70.6192 148.52 70.8225 147.861 71.643C147.981 71.658 148.089 71.6836 148.173 71.7122C149.17 72.063 148.493 72.4078 148.315 72.8218ZM158.788 91.0415C158.298 90.7705 156.008 90.8774 154.398 91.0701C151.331 91.4329 148.02 92.5019 147.294 93.0709C145.975 94.0947 146.575 95.8802 147.549 96.6134C150.282 98.6639 152.677 100.038 155.206 99.7042C156.759 99.4995 158.127 97.0305 159.097 94.7902C159.761 93.2471 159.761 91.582 158.788 91.0415ZM131.636 75.2396C132.501 74.4146 127.328 73.3306 123.314 76.0797C120.353 78.1076 120.259 82.4556 123.093 84.9201C123.377 85.164 123.611 85.3371 123.829 85.4786C124.657 85.0872 125.6 84.6913 126.685 84.3375C128.518 83.7398 130.043 83.4311 131.296 83.267C131.895 82.5941 132.592 81.4092 132.419 79.2639C132.182 76.3537 129.986 76.8159 131.636 75.2396Z" fill="#632CA6"/>
</svg>
