<svg width="264" height="200" viewBox="0 0 264 200" fill="none" xmlns="http://www.w3.org/2000/svg">
<g clip-path="url(#clip0_1636_34976)">
<path fill-rule="evenodd" clip-rule="evenodd" d="M121.644 97.503C122.371 94.133 124.719 92.42 127.805 92.42C130.865 92.42 133.103 94.21 133.816 97.503H121.644ZM127.973 86.582C120.115 86.582 115.227 92.581 115.227 99.918C115.227 107.517 120.45 113.154 128.213 113.154C133.567 113.154 136.814 110.788 138.824 107.81L133.827 104.759C132.57 106.399 130.56 107.266 128.405 107.266C124.879 107.266 122.519 105.689 121.714 102.535H134.905C134.904 102.539 134.903 102.543 134.902 102.548L139.711 102.575C139.893 101.745 140.001 100.887 140.001 99.918C140.001 93.527 135.88 86.582 127.973 86.582Z" fill="#0646FF"/>
<path fill-rule="evenodd" clip-rule="evenodd" d="M97.6767 107.159C93.3377 107.159 90.7297 104.083 90.7297 100.288C90.7297 96.4932 93.3877 93.4162 97.6767 93.4162C101.967 93.4162 104.625 96.4932 104.625 100.288C104.625 104.083 102.017 107.159 97.6767 107.159ZM104.625 90.9193C102.766 88.7513 100.126 87.4222 96.8497 87.4222C89.5252 87.4222 84.2578 93.1822 84.2578 100.288C84.2578 107.394 89.4752 113.154 96.8497 113.154C100.126 113.154 102.766 111.825 104.625 109.656V112.52H111.097V78.4062H104.625V90.9193Z" fill="#0646FF"/>
<path fill-rule="evenodd" clip-rule="evenodd" d="M159.377 99.3352C161.187 100.559 162.334 102.393 162.334 104.815C162.334 109.708 158.926 113.103 152.555 113.103C146.56 113.103 143.345 110.129 142.064 107.126L147.568 104.016C147.568 104.016 148.308 107.261 152.457 107.261C155.025 107.261 155.815 106.163 155.815 105.193C155.815 104.743 155.667 103.916 153.839 103.217C150.169 101.813 143.073 101.183 143.073 94.7792C143.073 89.5372 147.319 86.7412 152.555 86.7412C157.452 86.7412 160.597 89.6902 161.791 91.9842L156.407 95.0292C156.407 95.0292 155.37 92.4822 152.605 92.4822C149.839 92.4822 149.592 94.0302 149.592 94.4792C149.592 95.7902 150.973 96.3282 153.938 97.1762C155.694 97.6772 157.497 98.1332 159.383 99.3302C159.381 99.3322 159.379 99.3332 159.377 99.3352ZM268 93.6312H262.419V104.016C262.419 107.261 265.679 106.562 268 106.562V112.404C268 112.404 266.777 112.604 264.642 112.604C259.901 112.604 256.049 111.206 256.049 104.016V93.6312H251.752V87.4392H256.049V80.4492H262.419V87.4392H268V93.6312ZM178.172 106.812C180.816 106.812 182.848 105.537 183.876 103.445L189.398 106.647C187.234 110.483 183.202 113.153 178.172 113.153C170.542 113.153 165.208 107.251 165.208 99.9722C165.208 92.6922 170.591 86.7902 178.172 86.7902C183.129 86.7902 187.145 89.4162 189.332 93.2022L183.822 96.4762C182.775 94.4122 180.758 93.1312 178.172 93.1312C174.317 93.1312 171.579 96.1942 171.579 99.9722C171.579 103.749 174.291 106.812 178.172 106.812Z" fill="#0646FF"/>
<path fill-rule="evenodd" clip-rule="evenodd" d="M236.481 107.918C232.297 107.918 229.781 104.76 229.781 100.865C229.781 96.9702 232.345 93.8122 236.481 93.8122C240.616 93.8122 243.18 96.9702 243.18 100.865C243.18 104.76 240.665 107.918 236.481 107.918ZM237.279 87.6602C244.341 87.6602 249.419 93.5722 249.419 100.865C249.419 108.158 244.389 114.07 237.279 114.07C234.119 114.07 231.574 112.706 229.781 110.48V123.374H223.541V88.3602H229.781V91.2493C231.574 89.0243 234.119 87.6602 237.279 87.6602ZM211.546 113.42V88.4102H217.785V113.42H211.546ZM199.917 92.6823C201.122 89.6513 203.575 87.9182 207.269 87.9102V95.1133C202.937 94.6893 199.808 96.9162 199.922 102.178C199.92 102.174 199.919 102.17 199.917 102.166V113.42H193.677V88.4102H199.917V92.6823ZM211.546 85.0723V78.4062H217.991V85.0723H211.546Z" fill="#0646FF"/>
<path fill-rule="evenodd" clip-rule="evenodd" d="M12 124.008C12 127.343 14.1529 129.506 17.4716 129.506L33.4582 129.507C42.9951 129.507 50.7965 126.264 56.1005 120.588H12V124.008ZM33.4582 68.4922H17.4716C14.1529 68.4922 12 70.6552 12 73.9902V77.4112H56.1005C50.7965 71.7352 42.9951 68.4922 33.4582 68.4922ZM47.4098 107.693C47.4098 110.391 49.1589 112.142 51.8555 112.142H61.4349C62.5208 109.434 63.2504 106.457 63.5895 103.245H51.8555C49.1589 103.245 47.4098 104.995 47.4098 107.693ZM34.1319 90.3282C34.1319 93.0262 35.881 94.7762 38.5776 94.7762H63.5895C63.2504 91.5642 62.5208 88.5872 61.4349 85.8792H38.5776C35.881 85.8792 34.1319 87.6292 34.1319 90.3282ZM38.5746 107.693C38.5746 104.995 36.8255 103.245 34.1289 103.245H12V112.142H34.1289C36.8255 112.142 38.5746 110.391 38.5746 107.693ZM25.2967 90.3282C25.2967 87.6292 23.5476 85.8792 20.851 85.8792H12V94.7762H20.851C23.5476 94.7762 25.2967 93.0262 25.2967 90.3282Z" fill="#0646FF"/>
</g>
<defs>
<clipPath id="clip0_1636_34976">
<rect width="264" height="200" fill="white"/>
</clipPath>
</defs>
</svg>
