<svg width="264" height="200" viewBox="0 0 264 200" fill="none" xmlns="http://www.w3.org/2000/svg">
<g clip-path="url(#clip0_1639_35015)">
<path d="M91.4156 116.36V102.618H79.2636V116.36H73.0762V83.7734H79.2636V97.1774H91.4156V83.7734H97.603V116.36H91.4156Z" fill="#111827"/>
<path d="M120.287 116.36H115.374L114.928 114.747C112.805 116.12 110.327 116.851 107.794 116.852C103.414 116.852 101.545 113.867 101.545 109.756C101.545 104.913 103.661 103.054 108.531 103.054H114.285V100.555C114.285 97.9153 113.548 96.986 109.712 96.986C107.481 97.0014 105.257 97.2385 103.073 97.6937L102.337 93.1458C105.013 92.4089 107.777 92.0302 110.554 92.0195C118.078 92.0195 120.293 94.6597 120.293 100.635L120.287 116.36ZM114.285 107.356H109.861C107.893 107.356 107.355 107.891 107.355 109.707C107.355 111.368 107.893 112.107 109.768 112.107C111.356 112.082 112.911 111.658 114.291 110.876L114.285 107.356Z" fill="#111827"/>
<path d="M131.9 116.847C129.091 116.801 126.305 116.338 123.634 115.474L124.469 110.926C126.79 111.587 129.189 111.933 131.603 111.954C134.258 111.954 134.654 111.339 134.654 109.554C134.654 108.089 134.357 107.351 130.471 106.422C124.618 105 123.931 103.535 123.931 98.938C123.931 94.1438 126.047 92.0391 132.884 92.0391C135.303 92.0413 137.713 92.32 140.068 92.8699L139.449 97.6148C137.274 97.2156 135.07 96.9872 132.859 96.9317C130.254 96.9317 129.809 97.5471 129.809 98.9872C129.809 100.895 129.957 101.043 133.206 101.874C139.913 103.64 140.556 104.52 140.556 109.388C140.556 114.01 139.127 116.847 131.9 116.847Z" fill="#111827"/>
<path d="M158.413 116.361V99.7444C158.413 98.4705 157.875 97.8366 156.495 97.8366C155.023 97.8366 152.412 98.7167 150.246 99.8429V116.361H144.244V82.7957L150.246 81.9648V94.341C152.963 92.9538 155.95 92.1686 159.001 92.0393C162.986 92.0393 164.409 94.8272 164.409 99.0859V116.361H158.413Z" fill="#111827"/>
<path d="M168.839 89.1567V82.2578H174.841V89.1567H168.839ZM168.839 116.358V92.5292H174.841V116.358H168.839Z" fill="#111827"/>
<path d="M179.023 92.7297C179.023 86.7601 182.513 83.2891 190.68 83.2891C193.681 83.2884 196.671 83.65 199.584 84.3661L198.904 89.6956C196.25 89.1956 193.56 88.9177 190.86 88.8648C186.578 88.8648 185.205 90.3357 185.205 93.7882V106.312C185.205 109.783 186.584 111.235 190.86 111.235C193.56 111.183 196.25 110.905 198.904 110.405L199.59 115.74C196.677 116.456 193.687 116.818 190.687 116.817C182.519 116.817 179.03 113.346 179.03 107.377L179.023 92.7297Z" fill="#111827"/>
<path d="M211.897 116.848C203.681 116.848 201.472 112.35 201.472 107.457V101.438C201.472 96.5456 203.687 92.0469 211.897 92.0469C220.108 92.0469 222.323 96.5456 222.323 101.438V107.457C222.305 112.35 220.096 116.848 211.897 116.848ZM211.897 97.1549C208.699 97.1549 207.473 98.5765 207.473 101.266V107.654C207.473 110.343 208.711 111.765 211.897 111.765C215.084 111.765 216.321 110.343 216.321 107.654V101.241C216.309 98.5519 215.078 97.1303 211.897 97.1303V97.1549Z" fill="#111827"/>
<path d="M238.243 97.5225C236.04 98.5152 233.917 99.6757 231.894 100.993V116.379H225.893V92.5314H230.96L231.356 95.1716C233.308 93.8568 235.426 92.8036 237.655 92.0391L238.243 97.5225Z" fill="#111827"/>
<path d="M260.999 108.436C260.999 113.722 258.636 116.849 253.079 116.849C250.929 116.826 248.787 116.595 246.681 116.159V126.006L240.68 126.837V92.5331H245.45L246.069 94.5394C248.256 92.9153 250.913 92.0407 253.642 92.0469C258.462 92.0469 261.018 94.884 261.018 100.318L260.999 108.436ZM246.688 111.125C248.434 111.507 250.215 111.714 252.003 111.74C254.168 111.74 255.004 110.713 255.004 108.559V100.158C255.004 98.2012 254.267 97.1242 252.052 97.1242C250.066 97.1953 248.167 97.9576 246.688 99.2781V111.125Z" fill="#111827"/>
<path d="M27.6483 70L4 83.5701V83.5763V116.157L12.8851 121.259V88.672L27.6483 80.1914V70Z" fill="#111827"/>
<path d="M37.0836 70V95.9524H27.6478V86.2657L18.7627 91.3675V124.619L27.6478 129.733V103.854H37.0836V113.474L45.9687 108.378V75.1019L37.0836 70Z" fill="#111827"/>
<path d="M37.084 129.747L60.7322 116.177V116.165V83.5901L51.8471 78.4883V111.075L37.084 119.556V129.747Z" fill="#111827"/>
</g>
<defs>
<clipPath id="clip0_1639_35015">
<rect width="257" height="59.7454" fill="white" transform="translate(4 70)"/>
</clipPath>
</defs>
</svg>
