<svg width="264" height="200" viewBox="0 0 264 200" fill="none" xmlns="http://www.w3.org/2000/svg">
<path d="M57.5082 150.909C49.3825 150.909 41.7297 148.649 35.0388 144.676H79.9681C73.2832 148.649 65.6338 150.909 57.505 150.909H57.5082ZM64.4018 49C72.5727 49 80.2545 51.2804 86.9703 55.2967H41.8358C48.5396 51.2828 56.2279 49 64.3986 49H64.4018ZM98.79 79.2424C98.1973 80.3869 97.4223 81.4644 96.4638 82.4254L72.0705 106.853C73.6143 107.818 74.6447 109.536 74.6447 111.491C74.6447 114.514 72.1957 116.968 69.1788 116.968H49.0802C46.0627 116.968 43.6147 114.518 43.6147 111.491C43.6147 110.722 43.7723 109.992 44.0587 109.324C44.3256 108.613 44.7374 107.943 45.3101 107.374L58.7112 93.95H56.6139L41.2182 109.368C40.4944 110.092 39.9733 110.944 39.6356 111.838C39.272 112.684 39.0694 113.61 39.0694 114.589C39.0694 118.425 42.1768 121.545 46.0145 121.545H71.5336C75.3714 121.545 78.4788 118.431 78.4788 114.589C78.4788 112.771 77.7745 111.112 76.6287 109.873C80.2892 110.89 82.9825 114.244 82.9825 118.239C82.9825 123.04 79.0926 126.929 74.3037 126.929H42.4052C37.6154 126.929 33.7262 123.04 33.7262 118.239C33.7262 117.02 33.9804 115.856 34.4308 114.801C34.8489 113.675 35.5051 112.613 36.4123 111.707L54.153 93.9438H51.7437C51.5988 93.9438 51.4574 93.9364 51.3125 93.924L30.8344 114.431C29.7214 115.55 28.9139 116.853 28.3929 118.235C27.8331 119.531 27.521 120.96 27.521 122.469C27.521 128.382 32.3044 133.172 38.2073 133.172H77.5005C83.4041 133.172 88.1868 128.382 88.1868 122.469C88.1868 119.368 86.8649 116.586 84.7607 114.627C90.1943 116.132 94.1896 121.107 94.1896 127.03C94.1896 134.137 88.4311 139.907 81.3283 139.907H34.0672C26.9645 139.907 21.2129 134.143 21.2129 127.03C21.2129 125.218 21.5892 123.498 22.2616 121.934C22.8856 120.262 23.8571 118.695 25.1985 117.355L49.2055 93.3126C47.4589 92.4 46.2621 90.5698 46.2621 88.4593C46.2621 85.4362 48.7069 82.9822 51.734 82.9822H71.8324C74.8506 82.9822 77.2983 85.4337 77.2983 88.4593C77.2983 89.4376 77.0441 90.354 76.594 91.1489C76.3398 91.6374 76.0149 92.0937 75.6033 92.5029L62.1243 105.998H64.1959L79.6878 90.483C80.2086 89.9622 80.6215 89.3831 80.9464 88.7681C81.5181 87.7587 81.8429 86.5943 81.8429 85.3556C81.8429 81.519 78.7355 78.4054 74.8977 78.4054H49.3792C45.548 78.4054 42.4341 81.519 42.4341 85.3556C42.4341 87.1796 43.1387 88.8325 44.2838 90.0713C40.6231 89.0483 37.9307 85.6941 37.9307 81.705C37.9307 76.9037 41.8198 73.0151 46.6096 73.0151H78.5073C83.2975 73.0151 87.1861 76.9037 87.1861 81.705C87.1861 83.2563 86.7744 84.7095 86.0676 85.9669C85.6683 86.7419 85.1475 87.4661 84.4978 88.1158L66.6407 105.998H69.1689C69.2656 105.998 69.3586 106.004 69.4615 106.01L90.0753 85.3692C90.8763 84.5682 91.5162 83.6741 92.0085 82.7255C92.8864 81.1743 93.3886 79.3837 93.3886 77.4692C93.3886 71.5556 88.6047 66.7655 82.7023 66.7655H43.4089C37.506 66.7655 32.7226 71.5556 32.7226 77.4692C32.7226 80.3745 33.8807 82.9983 35.7529 84.9278C30.918 83.0789 27.4792 78.4029 27.4792 72.9085C27.4792 65.8008 33.2373 60.031 40.3336 60.031H87.5953C94.698 60.031 100.449 65.7946 100.449 72.9085C100.443 75.2211 99.8378 77.3762 98.7826 79.2349L98.79 79.2424ZM191.434 120.352C190.176 120.905 189.069 121.648 188.117 122.58C187.165 123.52 186.416 124.633 185.869 125.916C185.322 127.199 185.042 128.573 185.042 130.014V140.064H188.462V130.014C188.462 129.048 188.644 128.138 189.027 127.282C189.404 126.424 189.905 125.675 190.533 125.034C191.16 124.394 191.907 123.89 192.762 123.53C193.621 123.166 194.528 122.99 195.494 122.99C196.485 122.99 197.413 123.166 198.269 123.53C199.125 123.894 199.871 124.394 200.499 125.034C201.13 125.678 201.624 126.427 201.985 127.282C202.345 128.138 202.525 129.048 202.525 130.014V140.064H205.983V130.014C205.983 128.566 205.71 127.199 205.156 125.916C204.603 124.633 203.854 123.52 202.908 122.58C201.956 121.642 200.843 120.899 199.572 120.352C198.301 119.805 196.941 119.525 195.494 119.525C194.046 119.525 192.692 119.799 191.434 120.352ZM174.741 123.53C175.601 123.894 176.35 124.394 176.991 125.034C177.63 125.675 178.135 126.427 178.496 127.282C178.859 128.142 179.037 129.048 179.037 130.014C179.037 130.979 178.859 131.889 178.496 132.745C178.133 133.603 177.63 134.345 176.991 134.973C176.35 135.6 175.597 136.105 174.741 136.478C173.883 136.854 172.975 137.044 172.011 137.044C171.046 137.044 170.135 136.854 169.279 136.478C168.421 136.101 167.671 135.6 167.031 134.973C166.391 134.345 165.885 133.6 165.526 132.745C165.162 131.885 164.985 130.979 164.985 130.014C164.985 129.048 165.162 128.138 165.526 127.282C165.889 126.424 166.391 125.675 167.031 125.034C167.671 124.394 168.423 123.89 169.279 123.53C170.138 123.166 171.046 122.99 172.011 122.99C172.975 122.99 173.886 123.166 174.741 123.53ZM167.951 120.352C166.694 120.905 165.586 121.648 164.634 122.58C163.682 123.52 162.933 124.633 162.386 125.916C161.839 127.199 161.559 128.573 161.559 130.014C161.559 131.461 161.833 132.822 162.386 134.091C162.939 135.362 163.689 136.468 164.634 137.408C165.586 138.347 166.694 139.09 167.951 139.637C169.208 140.183 170.562 140.464 172.011 140.464C173.458 140.464 174.819 140.19 176.089 139.637C177.36 139.084 178.474 138.347 179.425 137.408C180.377 136.468 181.127 135.362 181.674 134.091C182.221 132.822 182.501 131.455 182.501 130.014C182.501 128.566 182.227 127.199 181.674 125.916C181.121 124.633 180.371 123.52 179.425 122.58C178.474 121.642 177.36 120.899 176.089 120.352C174.819 119.805 173.458 119.525 172.011 119.525C170.562 119.525 169.208 119.799 167.951 120.352ZM156.01 140.074H159.468V119.973H156.01V140.074ZM147.846 131.51C148.463 131.51 148.978 131.718 149.397 132.133C149.809 132.545 150.033 133.066 150.055 133.683V134.446C150.055 134.497 150.049 134.549 150.037 134.584C150.023 134.62 150.017 134.674 150.017 134.722V134.88C149.885 135.362 149.625 135.778 149.236 136.125C148.846 136.472 148.383 136.646 147.849 136.646H139.926V140.064H147.849C148.624 140.064 149.355 139.926 150.039 139.64C150.725 139.36 151.31 138.968 151.806 138.454C152.301 137.945 152.703 137.36 153.012 136.706C153.318 136.054 153.475 135.334 153.475 134.558V133.433C153.449 132.683 153.279 131.985 152.973 131.342C152.668 130.699 152.263 130.136 151.768 129.653C151.272 129.171 150.687 128.788 150.021 128.509C149.349 128.229 148.641 128.09 147.89 128.09H145.115C144.548 128.09 144.06 127.894 143.648 127.504C143.237 127.116 143.001 126.64 142.944 126.077C142.892 125.785 142.892 125.498 142.944 125.231C143.001 124.639 143.229 124.15 143.648 123.765C144.06 123.379 144.552 123.179 145.115 123.179H152.835V119.722H145.115C144.365 119.722 143.661 119.854 143.005 120.12C142.349 120.387 141.766 120.764 141.258 121.246C140.749 121.729 140.337 122.295 140.032 122.935C139.726 123.575 139.556 124.263 139.53 124.986C139.504 125.145 139.492 125.357 139.492 125.611C139.492 125.865 139.504 126.073 139.53 126.235C139.556 126.984 139.726 127.682 140.032 128.325C140.337 128.969 140.749 129.524 141.258 129.998C141.766 130.467 142.351 130.838 143.005 131.104C143.658 131.371 144.365 131.502 145.115 131.502H147.839V131.51H147.846ZM133.892 140.074H137.349V119.973H133.892V140.074ZM128.828 119.973C127.78 122.413 126.717 124.909 125.631 127.47C124.544 130.029 123.462 132.551 122.397 135.05L115.96 119.975H112.219L120.867 140.077H123.922L132.569 119.975H128.828V119.973ZM199.122 64.8584C199.936 65.2217 200.64 65.7239 201.245 66.3637C201.843 67.0073 202.313 67.7562 202.657 68.6118C203.001 69.4674 203.172 70.3776 203.172 71.3423C203.172 72.3071 203.001 73.2172 202.657 74.0728C202.313 74.9284 201.843 75.6749 201.245 76.3023C200.646 76.9322 199.942 77.4344 199.122 77.8077C198.307 78.1834 197.427 78.3731 196.485 78.3731C195.571 78.3731 194.699 78.1896 193.884 77.8077C193.071 77.4307 192.36 76.9298 191.762 76.3023C191.164 75.6749 190.688 74.9284 190.327 74.0728C189.97 73.2147 189.794 72.3071 189.794 71.3423C189.794 70.3776 189.97 69.4674 190.327 68.6118C190.684 67.7538 191.16 67.0036 191.762 66.3637C192.36 65.7239 193.065 65.2192 193.884 64.8584C194.699 64.495 195.567 64.319 196.485 64.319C197.423 64.3115 198.307 64.495 199.122 64.8584ZM192.631 61.6815C191.437 62.2283 190.381 62.9835 189.477 63.9296C188.573 64.8807 187.857 65.9942 187.336 67.264C186.814 68.535 186.554 69.8953 186.554 71.3423C186.554 72.7907 186.814 74.1509 187.336 75.4207C187.857 76.6917 188.567 77.804 189.477 78.7365C190.381 79.6764 191.434 80.4191 192.631 80.966C193.827 81.5128 195.113 81.7918 196.487 81.7918C197.784 81.7918 199.003 81.5575 200.135 81.0875C201.267 80.6188 202.284 79.969 203.172 79.1395V81.3876H206.495V71.3361C206.495 69.889 206.235 68.5288 205.713 67.2578C205.192 65.988 204.481 64.8745 203.571 63.9234C202.667 62.9711 201.602 62.2209 200.379 61.6753C199.161 61.121 197.857 60.8482 196.485 60.8482C195.111 60.8544 193.821 61.1284 192.627 61.6815H192.631ZM178.498 71.3882C178.498 70.4235 178.688 69.5121 179.071 68.6577C179.454 67.8021 179.979 67.0494 180.654 66.4096C181.327 65.766 182.108 65.2638 183.006 64.9042C183.896 64.5409 184.855 64.3636 185.872 64.3636V60.9065C184.392 60.9065 183.012 61.1793 181.729 61.7323C180.445 62.2854 179.313 63.0281 178.347 63.9618C177.382 64.9005 176.614 66.0128 176.054 67.2962C175.494 68.5796 175.215 69.9535 175.215 71.4006V81.4508H178.498V71.3882ZM164.323 64.9365C165.136 65.2998 165.841 65.8008 166.446 66.4406C167.051 67.0817 167.513 67.8344 167.858 68.6887C168.201 69.5481 168.373 70.4545 168.373 71.4204C168.373 72.3852 168.201 73.2953 167.858 74.1509C167.513 75.009 167.043 75.7518 166.446 76.3792C165.847 77.0067 165.142 77.5113 164.323 77.8846C163.508 78.2603 162.628 78.4512 161.684 78.4512C160.771 78.4512 159.9 78.2603 159.085 77.8846C158.272 77.5088 157.567 77.0067 156.962 76.3792C156.364 75.7493 155.888 75.0065 155.527 74.1509C155.17 73.2916 154.993 72.3852 154.993 71.4204C154.993 70.4545 155.17 69.5443 155.527 68.6887C155.885 67.8307 156.361 67.0817 156.962 66.4406C157.561 65.8008 158.265 65.2961 159.085 64.9365C159.9 64.5719 160.768 64.3958 161.684 64.3958C162.63 64.3958 163.508 64.5719 164.323 64.9365ZM158.056 61.6815C156.911 62.1762 155.888 62.8359 155 63.6692V52.0479H151.754V71.4267C151.754 72.8737 152.015 74.2278 152.537 75.4852C153.057 76.7425 153.768 77.8486 154.678 78.8009C155.582 79.7532 156.627 80.5022 157.831 81.049C159.024 81.5959 160.314 81.8761 161.688 81.8761C163.062 81.8761 164.364 81.6021 165.584 81.049C166.803 80.5022 167.87 79.747 168.774 78.8009C169.678 77.8486 170.389 76.7425 170.917 75.4852C171.438 74.2278 171.698 72.8737 171.698 71.4267C171.698 69.9796 171.438 68.6119 170.917 67.3285C170.396 66.0451 169.685 64.9328 168.774 63.9941C167.87 63.0542 166.805 62.3114 165.584 61.7646C164.361 61.2177 163.062 60.9387 161.688 60.9387C160.417 60.9387 159.21 61.1855 158.06 61.6815H158.056ZM141.229 81.142C142.232 80.6212 143.158 79.9306 143.999 79.0712L141.705 76.6557C141.145 77.2224 140.559 77.6663 139.946 78.0036C139.334 78.3409 138.727 78.5058 138.115 78.5058C137.327 78.5058 136.578 78.3731 135.88 78.1065C135.182 77.8399 134.55 77.463 133.985 76.9806C133.424 76.4983 132.942 75.9328 132.537 75.2917C132.131 74.6519 131.839 73.9376 131.659 73.1626H147.971C148.023 72.6555 148.049 72.2909 148.049 72.0764V71.4713C148.049 70.0242 147.787 68.6577 147.267 67.3743C146.746 66.0847 146.041 64.9712 145.144 64.0387C144.252 63.1001 143.201 62.356 141.992 61.8092C140.781 61.2636 139.488 60.9834 138.115 60.9834C136.741 60.9834 135.446 61.2562 134.239 61.8092C133.033 62.356 131.971 63.1063 131.067 64.0387C130.163 64.9774 129.445 66.0909 128.925 67.3743C128.404 68.6577 128.143 70.0304 128.143 71.4713C128.143 72.9184 128.404 74.2724 128.925 75.5298C129.445 76.7884 130.157 77.8945 131.067 78.8468C131.971 79.7979 133.029 80.5481 134.239 81.0949C135.448 81.6418 136.741 81.9208 138.115 81.9208C139.189 81.9208 140.226 81.6604 141.229 81.1396V81.142ZM131.662 69.744C131.838 68.995 132.131 68.2907 132.54 67.6347C132.948 66.9788 133.432 66.4158 133.987 65.9458C134.548 65.4759 135.175 65.1064 135.882 64.8398C136.58 64.5719 137.324 64.4405 138.118 64.4405C138.907 64.4405 139.649 64.5719 140.354 64.8398C141.052 65.1064 141.683 65.4759 142.248 65.9458C142.809 66.4158 143.285 66.975 143.683 67.6347C144.076 68.287 144.375 68.995 144.581 69.744H131.662ZM112.217 81.4384H125.736V78.0197H117.794L126.963 61.3368H113.555V64.7554H121.307L112.213 81.4384H112.217ZM236.428 106.165C236.428 106.94 236.591 107.671 236.929 108.355C237.267 109.041 237.717 109.632 238.296 110.147C238.875 110.655 239.541 111.053 240.304 111.353C241.066 111.646 241.892 111.797 242.774 111.797V108.377C241.967 108.377 241.281 108.163 240.702 107.735C240.123 107.307 239.838 106.783 239.838 106.165V84.5459H236.418V106.159H236.424L236.428 106.165ZM226.052 94.8056C226.912 95.1689 227.655 95.6699 228.282 96.311C228.909 96.9508 229.408 97.7035 229.769 98.5591C230.132 99.4172 230.309 100.325 230.309 101.29C230.309 102.254 230.132 103.164 229.769 104.02C229.405 104.878 228.909 105.622 228.282 106.248C227.655 106.876 226.908 107.38 226.052 107.754C225.194 108.131 224.268 108.32 223.277 108.32C222.311 108.32 221.401 108.137 220.546 107.754C219.688 107.378 218.944 106.876 218.316 106.248C217.69 105.622 217.184 104.876 216.811 104.02C216.435 103.161 216.245 102.254 216.245 101.29C216.245 100.325 216.429 99.4147 216.811 98.5591C217.188 97.6998 217.69 96.9508 218.316 96.311C218.944 95.6699 219.69 95.1652 220.546 94.8056C221.405 94.4423 222.311 94.265 223.277 94.265C224.274 94.265 225.197 94.4423 226.052 94.8056ZM219.214 91.6312C217.956 92.178 216.849 92.9332 215.898 93.8793C214.946 94.8304 214.196 95.9439 213.649 97.2137C213.102 98.4847 212.822 99.845 212.822 101.292C212.822 102.74 213.096 104.101 213.649 105.37C214.196 106.641 214.952 107.754 215.898 108.686C216.849 109.626 217.956 110.369 219.214 110.916C220.471 111.463 221.827 111.742 223.274 111.742C224.641 111.742 225.925 111.507 227.111 111.037C228.304 110.569 229.366 109.919 230.309 109.089V111.337H233.809V101.286C233.809 99.8388 233.536 98.4785 232.982 97.2075C232.429 95.9377 231.68 94.8242 230.733 93.8731C229.781 92.9208 228.661 92.1706 227.378 91.625C226.095 91.0707 224.721 90.7979 223.274 90.7979C221.827 90.7979 220.479 91.0844 219.214 91.6312ZM209.689 110.912C210.763 110.404 211.742 109.707 212.626 108.821L210.21 106.406C209.619 106.999 209.004 107.449 208.36 107.774C207.717 108.098 207.058 108.256 206.392 108.256C205.426 108.256 204.516 108.066 203.661 107.689C202.805 107.314 202.058 106.811 201.431 106.184C200.801 105.554 200.299 104.811 199.926 103.956C199.552 103.1 199.36 102.19 199.36 101.225C199.36 100.26 199.55 99.3502 199.926 98.4946C200.303 97.639 200.805 96.8863 201.431 96.2465C202.062 95.6029 202.805 95.1007 203.661 94.7411C204.516 94.3803 205.426 94.2005 206.392 94.2005C207.064 94.2005 207.72 94.3642 208.36 94.7027C209.001 95.04 209.619 95.4839 210.21 96.0506L212.626 93.6351C211.742 92.7497 210.763 92.0454 209.689 91.5246C208.614 91.0038 207.514 90.7434 206.392 90.7434C204.944 90.7434 203.59 91.0162 202.333 91.5692C201.074 92.1235 199.968 92.8724 199.015 93.8173C198.063 94.7696 197.314 95.8832 196.767 97.1529C196.214 98.4239 195.94 99.7904 195.94 101.231C195.94 102.678 196.214 104.039 196.767 105.31C197.314 106.579 198.069 107.687 199.015 108.625C199.968 109.564 201.074 110.308 202.333 110.855C203.59 111.401 204.944 111.681 206.392 111.681C207.518 111.675 208.614 111.42 209.689 110.912ZM190.304 111.394H193.763V91.2927H190.304V111.394ZM180.056 94.8056C180.915 95.1689 181.664 95.6699 182.304 96.311C182.945 96.9508 183.45 97.7035 183.809 98.5591C184.174 99.4172 184.35 100.325 184.35 101.29C184.35 102.254 184.174 103.164 183.809 104.02C183.446 104.878 182.945 105.622 182.304 106.248C181.664 106.876 180.912 107.38 180.056 107.754C179.197 108.131 178.29 108.32 177.324 108.32C176.359 108.32 175.449 108.137 174.594 107.754C173.734 107.378 172.992 106.876 172.364 106.248C171.737 105.622 171.232 104.876 170.859 104.02C170.483 103.161 170.293 102.254 170.293 101.29C170.293 100.325 170.483 99.4147 170.859 98.5591C171.236 97.6998 171.737 96.9508 172.364 96.311C172.992 95.6699 173.738 95.1652 174.594 94.8056C175.453 94.4423 176.359 94.265 177.324 94.265C178.284 94.265 179.2 94.4423 180.056 94.8056ZM173.256 91.6312C171.997 92.178 170.891 92.9332 169.939 93.8793C168.986 94.8304 168.237 95.9439 167.691 97.2137C167.138 98.4847 166.864 99.845 166.864 101.292C166.864 102.74 167.138 104.101 167.691 105.37C168.237 106.641 168.993 107.754 169.939 108.686C170.891 109.626 171.997 110.369 173.256 110.916C174.513 111.463 175.867 111.742 177.315 111.742C178.763 111.742 180.123 111.469 181.394 110.916C182.665 110.369 183.771 109.62 184.711 108.686C185.65 107.748 186.394 106.641 186.94 105.37C187.487 104.101 187.766 102.74 187.766 101.292V84.4938H184.348V93.49C183.408 92.6567 182.346 92.0044 181.15 91.5221C179.953 91.0385 178.68 90.7979 177.312 90.7979C175.871 90.8103 174.517 91.0844 173.252 91.6312H173.256ZM157.477 111.089C158.538 110.568 159.51 109.877 160.394 109.018L157.979 106.603C157.387 107.168 156.772 107.612 156.129 107.95C155.485 108.288 154.845 108.452 154.199 108.452C153.366 108.452 152.584 108.32 151.847 108.053C151.111 107.786 150.442 107.41 149.859 106.928C149.274 106.445 148.76 105.879 148.334 105.239C147.904 104.595 147.598 103.885 147.408 103.11H164.577C164.628 102.601 164.66 102.238 164.66 102.022V101.417C164.66 99.9702 164.387 98.6037 163.833 97.3203C163.28 96.0307 162.537 94.9185 161.605 93.9847C160.665 93.0461 159.559 92.3033 158.288 91.7565C157.017 91.2096 155.656 90.9294 154.209 90.9294C152.761 90.9294 151.401 91.2034 150.13 91.7565C148.859 92.3033 147.74 93.0523 146.794 93.9847C145.842 94.9247 145.093 96.0369 144.546 97.3203C143.992 98.6037 143.719 99.9764 143.719 101.417C143.719 102.866 143.992 104.22 144.546 105.477C145.093 106.734 145.848 107.841 146.794 108.793C147.746 109.745 148.859 110.494 150.13 111.041C151.401 111.588 152.761 111.868 154.209 111.868C155.328 111.874 156.419 111.606 157.48 111.086L157.477 111.089ZM147.399 99.6912C147.589 98.941 147.894 98.2367 148.326 97.5807C148.75 96.9285 149.264 96.3618 149.85 95.8919C150.442 95.4231 151.102 95.0524 151.838 94.7858C152.575 94.5192 153.356 94.3877 154.19 94.3877C155.023 94.3877 155.804 94.5192 156.541 94.7858C157.277 95.0524 157.941 95.4231 158.53 95.8919C159.121 96.3618 159.623 96.9211 160.035 97.5807C160.447 98.2342 160.764 98.941 160.98 99.6912H147.396H147.399ZM117.148 91.4898C116.17 91.9201 115.318 92.493 114.594 93.2159C113.87 93.9401 113.291 94.792 112.867 95.7703C112.441 96.7475 112.223 97.7841 112.223 98.884V111.386H115.643V98.884C115.643 98.2404 115.764 97.6452 116.006 97.0922C116.247 96.5453 116.579 96.063 116.991 95.6451C117.402 95.2334 117.891 94.9023 118.458 94.6605C119.023 94.4187 119.625 94.2972 120.268 94.2972C120.912 94.2972 121.507 94.4187 122.06 94.6605C122.607 94.9023 123.095 95.2334 123.527 95.6451C123.951 96.0568 124.289 96.5416 124.53 97.0922C124.772 97.639 124.895 98.2367 124.895 98.884V111.386H128.313V98.884C128.313 98.2404 128.436 97.6452 128.677 97.0922C128.918 96.5453 129.249 96.063 129.661 95.6451C130.073 95.2334 130.565 94.9023 131.128 94.6605C131.691 94.4187 132.296 94.2972 132.94 94.2972C133.582 94.2972 134.177 94.4187 134.731 94.6605C135.278 94.9023 135.761 95.2334 136.178 95.6451C136.59 96.0568 136.921 96.5416 137.163 97.0922C137.404 97.639 137.526 98.2367 137.526 98.884V111.386H140.985V98.884C140.985 97.7841 140.769 96.7475 140.341 95.7703C139.91 94.792 139.338 93.9401 138.614 93.2159C137.89 92.493 137.038 91.9139 136.059 91.4898C135.081 91.0645 134.046 90.8463 132.946 90.8463C131.63 90.8463 130.436 91.1253 129.368 91.692C128.295 92.2574 127.375 93.02 126.592 93.9847C125.843 93.02 124.919 92.2574 123.842 91.692C122.754 91.1253 121.568 90.8463 120.284 90.8463C119.164 90.8463 118.129 91.062 117.151 91.4898H117.148Z" fill="black"/>
</svg>
