<svg width="43" height="34" viewBox="0 0 43 34" fill="none" xmlns="http://www.w3.org/2000/svg">
<path d="M40.0781 1.98047C36.5898 0.71875 33.3242 0.125 30.4297 0.199219C26.125 0.199219 22.8594 1.46094 21.375 2.20312C19.8164 1.46094 16.5508 0.199219 12.2461 0.199219C9.27734 0.125 6.08594 0.71875 2.59766 1.98047C1.03906 2.57422 0 4.05859 0 5.76562V27.4375C0 28.625 0.519531 29.8125 1.48438 30.5547C2.52344 31.2969 3.85938 31.5938 5.12109 31.2227C13.8789 28.8477 20.1133 32.9297 20.3359 33.0781C20.6328 33.3008 21.0039 33.375 21.3008 33.375C21.5234 33.375 21.9688 33.3008 22.2656 33.0781C22.5625 32.9297 28.7969 28.8477 37.5547 31.2227C38.7422 31.5938 40.0781 31.2969 41.1172 30.5547C42.1562 29.8125 42.75 28.625 42.75 27.4375V5.76562C42.75 4.05859 41.6367 2.57422 40.0781 1.98047ZM19.5938 28.6992C17.5156 27.8828 14.3984 26.918 10.5391 26.918C8.60938 26.918 6.45703 27.1406 4.15625 27.8086C3.93359 27.8828 3.71094 27.7344 3.71094 27.7344C3.5625 27.5859 3.5625 27.4375 3.5625 27.4375V5.76562C3.5625 5.54297 3.63672 5.39453 3.78516 5.32031C6.82812 4.28125 9.72266 3.6875 12.1719 3.76172C15.6602 3.76172 18.2578 4.72656 19.5938 5.32031V28.6992ZM39.1875 27.4375C39.1875 27.4375 39.1875 27.5859 39.0391 27.7344C38.9648 27.7344 38.7422 27.8828 38.5195 27.8086C31.7656 25.9531 26.2734 27.4375 23.082 28.6992V5.32031C24.418 4.72656 27.0156 3.76172 30.5039 3.76172C32.9531 3.6875 35.8477 4.28125 38.8906 5.32031C39.0391 5.39453 39.1875 5.54297 39.1875 5.76562V27.4375Z" fill="white"/>
</svg>
