<svg width="35" height="29" viewBox="0 0 35 29" fill="none" xmlns="http://www.w3.org/2000/svg">
<path d="M9.24219 7.0625C8.75 6.51562 7.92969 6.51562 7.38281 7.00781L0.382812 13.5703C0.109375 13.7891 0 14.1719 0 14.5C0 14.8828 0.109375 15.2109 0.382812 15.4844L7.38281 22.0469C7.65625 22.2656 7.98438 22.375 8.25781 22.375C8.58594 22.375 8.91406 22.2656 9.1875 21.9922C9.67969 21.4453 9.67969 20.625 9.13281 20.1328L3.22656 14.5L9.1875 8.92188C9.73438 8.42969 9.73438 7.60938 9.24219 7.0625ZM21.3281 0.554688C20.6172 0.390625 19.9062 0.773438 19.6875 1.48438L12.6875 26.8594C12.5234 27.5703 12.9062 28.2812 13.6172 28.5C13.7266 28.5 13.8359 28.5 14 28.5C14.5469 28.5 15.0938 28.1719 15.2578 27.5703L22.2578 2.19531C22.4219 1.48438 22.0391 0.773438 21.3281 0.554688ZM34.5625 13.5703L27.5625 7.00781C27.0156 6.51562 26.1953 6.51562 25.7031 7.0625C25.2109 7.60938 25.2109 8.42969 25.7578 8.92188L31.7188 14.5L25.7578 20.1328C25.2109 20.625 25.2109 21.4453 25.7031 21.9922C25.9766 22.2656 26.3047 22.375 26.6875 22.375C26.9609 22.375 27.2891 22.2656 27.5625 22.0469L34.5625 15.4844C34.8359 15.2109 35 14.8828 35 14.5C35 14.1719 34.8359 13.7891 34.5625 13.5703Z" fill="black"/>
</svg>
