<svg width="34" height="39" viewBox="0 0 34 39" fill="none" xmlns="http://www.w3.org/2000/svg">
<path d="M8.90625 0.75C9.20312 0.75 9.5 1.04688 9.5 1.34375V5.5H23.75V1.34375C23.75 1.04688 23.9727 0.75 24.3438 0.75C24.6406 0.75 24.9375 1.04688 24.9375 1.34375V5.5H28.5C31.0977 5.5 33.25 7.65234 33.25 10.25V34C33.25 36.6719 31.0977 38.75 28.5 38.75H4.75C2.07812 38.75 0 36.6719 0 34V10.25C0 7.65234 2.07812 5.5 4.75 5.5H8.3125V1.34375C8.3125 1.04688 8.53516 0.75 8.90625 0.75ZM32.0625 15H1.1875V34C1.1875 36.0039 2.74609 37.5625 4.75 37.5625H28.5C30.4297 37.5625 32.0625 36.0039 32.0625 34V15ZM8.3125 9.65625V6.6875H4.75C2.74609 6.6875 1.1875 8.32031 1.1875 10.25V13.8125H32.0625V10.25C32.0625 8.32031 30.4297 6.6875 28.5 6.6875H24.9375V9.65625C24.9375 10.0273 24.6406 10.25 24.3438 10.25C23.9727 10.25 23.75 10.0273 23.75 9.65625V6.6875H9.5V9.65625C9.5 10.0273 9.20312 10.25 8.90625 10.25C8.53516 10.25 8.3125 10.0273 8.3125 9.65625Z" fill="black"/>
</svg>
