<svg width="35" height="29" viewBox="0 0 35 29" fill="none" xmlns="http://www.w3.org/2000/svg">
<path d="M9.24219 7.50977C8.75 6.96289 7.92969 6.96289 7.38281 7.45508L0.382812 14.0176C0.109375 14.2363 0 14.6191 0 14.9473C0 15.3301 0.109375 15.6582 0.382812 15.9316L7.38281 22.4941C7.65625 22.7129 7.98438 22.8223 8.25781 22.8223C8.58594 22.8223 8.91406 22.7129 9.1875 22.4395C9.67969 21.8926 9.67969 21.0723 9.13281 20.5801L3.22656 14.9473L9.1875 9.36914C9.73438 8.87695 9.73438 8.05664 9.24219 7.50977ZM21.3281 1.00195C20.6172 0.837891 19.9062 1.2207 19.6875 1.93164L12.6875 27.3066C12.5234 28.0176 12.9062 28.7285 13.6172 28.9473C13.7266 28.9473 13.8359 28.9473 14 28.9473C14.5469 28.9473 15.0938 28.6191 15.2578 28.0176L22.2578 2.64258C22.4219 1.93164 22.0391 1.2207 21.3281 1.00195ZM34.5625 14.0176L27.5625 7.45508C27.0156 6.96289 26.1953 6.96289 25.7031 7.50977C25.2109 8.05664 25.2109 8.87695 25.7578 9.36914L31.7188 14.9473L25.7578 20.5801C25.2109 21.0723 25.2109 21.8926 25.7031 22.4395C25.9766 22.7129 26.3047 22.8223 26.6875 22.8223C26.9609 22.8223 27.2891 22.7129 27.5625 22.4941L34.5625 15.9316C34.8359 15.6582 35 15.3301 35 14.9473C35 14.6191 34.8359 14.2363 34.5625 14.0176Z" fill="black"/>
</svg>
