<svg width="19" height="16" viewBox="0 0 19 16" fill="none" xmlns="http://www.w3.org/2000/svg">
<path d="M17.3906 13.7031H0.943359C0.410156 13.7031 0 14.1543 0 14.6875C0 15.2617 0.410156 15.6719 0.943359 15.6719H17.3906C17.9238 15.6719 18.375 15.2617 18.375 14.7285C18.375 14.1543 17.9238 13.7031 17.3906 13.7031ZM17.3906 0.578125H0.943359C0.410156 0.578125 0 1.0293 0 1.5625C0 2.05469 0.410156 2.54688 0.943359 2.54688H17.3906C17.9238 2.54688 18.375 2.13672 18.375 1.60352C18.375 1.11133 17.9238 0.578125 17.3906 0.578125ZM17.3906 7.14062H0.943359C0.410156 7.14062 0 7.5918 0 8.125C0 8.69922 0.410156 9.10938 0.943359 9.10938H17.3906C17.9238 9.10938 18.375 8.69922 18.375 8.125C18.375 7.5918 17.9238 7.14062 17.3906 7.14062Z" fill="black"/>
</svg>
