<svg width="28" height="29" viewBox="0 0 28 29" fill="none" xmlns="http://www.w3.org/2000/svg">
<path d="M20.9453 6.19727C21.2188 6.19727 21.4922 6.08789 21.6562 5.81445L23.4609 3.18945C23.5703 3.08008 23.5703 2.91602 23.5703 2.75195C23.5703 2.25977 23.1875 1.82227 22.6953 1.82227C22.4219 1.82227 22.1484 1.98633 21.9844 2.25977L20.2344 4.88477C20.125 4.99414 20.0703 5.1582 20.0703 5.32227C20.0703 5.81445 20.4531 6.19727 20.9453 6.19727ZM13.2891 5.81445C13.4531 6.08789 13.7266 6.19727 14 6.19727C14.4922 6.19727 14.875 5.81445 14.875 5.32227C14.875 5.1582 14.8203 4.99414 14.7109 4.88477L12.9609 2.25977C12.7969 1.98633 12.5234 1.82227 12.1953 1.82227C11.7031 1.82227 11.3203 2.25977 11.3203 2.75195C11.3203 2.91602 11.375 3.08008 11.4297 3.18945L13.2891 5.81445ZM17.5 6.19727C17.9375 6.19727 18.375 5.81445 18.375 5.32227V1.82227C18.375 1.38477 17.9375 0.947266 17.5 0.947266C17.0078 0.947266 16.625 1.38477 16.625 1.82227V5.32227C16.625 5.81445 17.0078 6.19727 17.5 6.19727ZM23.8984 7.94727C23.4062 7.94727 22.9688 8.05664 22.5312 8.2207C23.1328 8.93164 23.5703 9.69727 23.7891 10.627C23.8984 10.627 23.8984 10.5723 23.8984 10.5723C24.7188 10.5723 25.375 11.2285 25.375 11.9941V19.4863C25.375 21.7285 24.2812 23.752 22.5859 25.0098C21.7109 26.5957 20.3984 27.9629 18.8672 28.9473C23.8984 28.8379 28 24.627 28 19.4863V12.0488C28 9.80664 26.1406 7.94727 23.8984 7.94727ZM22.3125 19.4863V11.9941C22.3125 9.80664 20.4531 7.94727 18.2109 7.94727C16.7891 7.94727 15.5312 8.71289 14.7656 9.80664L11.9766 6.96289C11.2656 6.25195 10.3359 5.86914 9.35156 5.86914C8.09375 5.86914 6.94531 6.52539 6.34375 7.50977C6.28906 7.50977 6.23438 7.50977 6.17969 7.50977C4.10156 7.50977 2.46094 9.15039 2.46094 11.1738C2.46094 11.2832 2.46094 11.3379 2.46094 11.3926C1.42188 12.0488 0.765625 13.1973 0.765625 14.4551C0.765625 14.9473 0.875 15.4395 1.09375 15.877C0.382812 16.5332 0 17.4629 0 18.502C0 19.4863 0.382812 20.416 1.03906 21.127C5.6875 25.7754 8.09375 28.9473 12.9062 28.9473C18.1016 28.9473 22.3125 24.7363 22.3125 19.4863ZM12.9062 26.3223C9.29688 26.3223 7.60156 23.9707 2.89844 19.2676C2.67969 19.0488 2.625 18.7754 2.625 18.502C2.625 17.9551 3.0625 17.4629 3.66406 17.4629C3.9375 17.4629 4.21094 17.5723 4.42969 17.791L7.21875 20.5801L8.14844 19.6504L3.71875 15.2207C3.5 15.002 3.39062 14.7285 3.39062 14.4551C3.39062 13.9082 3.88281 13.3613 4.48438 13.3613C4.75781 13.3613 5.03125 13.4707 5.25 13.6895L9.67969 18.1191L10.6094 17.1895L5.35938 11.9395C5.14062 11.7207 5.03125 11.4473 5.03125 11.1738C5.03125 10.627 5.52344 10.1348 6.125 10.1348C6.39844 10.1348 6.67188 10.2441 6.83594 10.4629L12.0859 15.6582L13.0156 14.7285L8.58594 10.2988C8.42188 10.1348 8.3125 9.86133 8.3125 9.58789C8.3125 8.98633 8.75 8.49414 9.35156 8.49414C9.625 8.49414 9.89844 8.60352 10.1172 8.82227L16.8438 15.4941V11.9941C16.8438 11.2285 17.4453 10.5723 18.2109 10.5723C19.0312 10.5723 19.6875 11.2285 19.6875 11.9941V19.4863C19.6875 23.2051 16.7344 26.3223 12.9062 26.3223Z" fill="black"/>
</svg>
