<svg width="25" height="39" viewBox="0 0 25 39" fill="none" xmlns="http://www.w3.org/2000/svg">
<path d="M24.125 19.75V15.5938C24.125 15.2969 23.8281 15 23.5312 15C23.1602 15 22.9375 15.2969 22.9375 15.5938V19.75C22.9375 25.6875 18.1133 30.4375 12.25 30.4375C6.3125 30.4375 1.5625 25.6875 1.5625 19.75V15.5938C1.5625 15.2969 1.26562 15 0.96875 15C0.597656 15 0.375 15.2969 0.375 15.5938V19.75C0.375 26.1328 5.34766 31.2539 11.6562 31.625V37.5625H3.34375C2.97266 37.5625 2.75 37.8594 2.75 38.1562C2.75 38.5273 2.97266 38.75 3.34375 38.75H21.1562C21.4531 38.75 21.75 38.5273 21.75 38.1562C21.75 37.8594 21.4531 37.5625 21.1562 37.5625H12.8438V31.625C19.0781 31.2539 24.125 26.1328 24.125 19.75ZM12.25 26.875C16.1836 26.875 19.375 23.7578 19.375 19.75V7.875C19.375 3.94141 16.1836 0.75 12.25 0.75C8.24219 0.75 5.125 3.94141 5.125 7.875V19.75C5.125 23.6836 8.24219 26.875 12.25 26.875ZM6.3125 7.875C6.3125 4.60938 8.91016 1.9375 12.25 1.9375C15.5156 1.9375 18.1875 4.60938 18.1875 7.875V9.0625H12.8438C12.4727 9.0625 12.25 9.35938 12.25 9.65625C12.25 10.0273 12.4727 10.25 12.8438 10.25H18.1875V13.8125H12.8438C12.4727 13.8125 12.25 14.1094 12.25 14.4062C12.25 14.7773 12.4727 15 12.8438 15H18.1875V18.5625H12.8438C12.4727 18.5625 12.25 18.8594 12.25 19.1562C12.25 19.5273 12.4727 19.75 12.8438 19.75H18.1875C18.1875 23.0898 15.5156 25.6875 12.25 25.6875C8.91016 25.6875 6.3125 23.0898 6.3125 19.75V7.875Z" fill="white"/>
</svg>
