<svg width="35" height="29" viewBox="0 0 35 29" fill="none" xmlns="http://www.w3.org/2000/svg">
<path d="M12.25 14.9473C16.0781 14.9473 19.25 11.8301 19.25 7.94727C19.25 4.11914 16.0781 0.947266 12.25 0.947266C8.36719 0.947266 5.25 4.11914 5.25 7.94727C5.25 11.8301 8.36719 14.9473 12.25 14.9473ZM12.25 3.57227C14.6562 3.57227 16.625 5.54102 16.625 7.94727C16.625 10.4082 14.6562 12.3223 12.25 12.3223C9.78906 12.3223 7.875 10.4082 7.875 7.94727C7.875 5.54102 9.78906 3.57227 12.25 3.57227ZM14.9844 17.5723H9.46094C4.21094 17.5723 0 21.8379 0 27.0879C0 28.127 0.820312 28.9473 1.85938 28.9473H22.5859C23.625 28.9473 24.5 28.127 24.5 27.0879C24.5 21.8379 20.2344 17.5723 14.9844 17.5723ZM2.625 26.3223C3.00781 22.9316 5.90625 20.1973 9.46094 20.1973H14.9844C18.5391 20.1973 21.3828 22.9316 21.8203 26.3223H2.625ZM26.1953 18.4473H22.1484C24.6641 20.5254 26.25 23.6426 26.25 27.0879C26.25 27.7988 26.0312 28.4004 25.7031 28.9473H33.25C34.1797 28.9473 35 28.1816 35 27.1973C35 22.3848 31.0625 18.4473 26.1953 18.4473ZM23.625 14.9473C26.9609 14.9473 29.75 12.2129 29.75 8.82227C29.75 5.48633 26.9609 2.69727 23.625 2.69727C22.2031 2.69727 20.9453 3.18945 19.9609 3.95508C20.5625 5.1582 21 6.52539 21 7.94727C21 9.91602 20.3438 11.7207 19.25 13.1426C20.3438 14.291 21.875 14.9473 23.625 14.9473Z" fill="black"/>
</svg>
