<svg width="38" height="39" viewBox="0 0 38 39" fill="none" xmlns="http://www.w3.org/2000/svg">
<path d="M16.9219 11.7344C16.625 11.5859 16.3281 11.4375 16.0312 11.4375C14.9922 11.4375 14.25 12.3281 14.25 13.2188V26.2812C14.25 27.2461 14.9922 28.0625 16.0312 28.0625C16.3281 28.0625 16.625 27.9883 16.9219 27.8398L27.6094 21.3086C28.1289 21.0117 28.5 20.418 28.5 19.75C28.5 19.1562 28.1289 18.5625 27.6094 18.2656L16.9219 11.7344ZM19 0.75C8.46094 0.75 0 9.28516 0 19.75C0 30.2891 8.46094 38.75 19 38.75C29.4648 38.75 38 30.2891 38 19.75C38 9.28516 29.4648 0.75 19 0.75ZM19 35.1875C10.4648 35.1875 3.5625 28.2852 3.5625 19.75C3.5625 11.2891 10.4648 4.3125 19 4.3125C27.4609 4.3125 34.4375 11.2891 34.4375 19.75C34.4375 28.2852 27.4609 35.1875 19 35.1875Z" fill="white"/>
</svg>
