<svg width="39" height="39" viewBox="0 0 39 39" fill="none" xmlns="http://www.w3.org/2000/svg">
<path d="M17.3193 11.7344C17.0225 11.5859 16.7256 11.4375 16.4287 11.4375C15.3896 11.4375 14.6475 12.3281 14.6475 13.2188V26.2812C14.6475 27.2461 15.3896 28.0625 16.4287 28.0625C16.7256 28.0625 17.0225 27.9883 17.3193 27.8398L28.0068 21.3086C28.5264 21.0117 28.8975 20.418 28.8975 19.75C28.8975 19.1562 28.5264 18.5625 28.0068 18.2656L17.3193 11.7344ZM19.3975 0.75C8.8584 0.75 0.397461 9.28516 0.397461 19.75C0.397461 30.2891 8.8584 38.75 19.3975 38.75C29.8623 38.75 38.3975 30.2891 38.3975 19.75C38.3975 9.28516 29.8623 0.75 19.3975 0.75ZM19.3975 35.1875C10.8623 35.1875 3.95996 28.2852 3.95996 19.75C3.95996 11.2891 10.8623 4.3125 19.3975 4.3125C27.8584 4.3125 34.835 11.2891 34.835 19.75C34.835 28.2852 27.8584 35.1875 19.3975 35.1875Z" fill="black"/>
</svg>
