<svg width="36" height="37" viewBox="0 0 36 37" fill="none" xmlns="http://www.w3.org/2000/svg">
<path d="M29.8828 13.2969C29.6016 13.2969 29.3906 13.3672 29.25 13.3672V12.4531C29.25 9.42969 26.1562 7.25 23.4141 7.25H23.0625C23.0625 7.10938 23.1328 6.89844 23.1328 6.61719C23.1328 3.24219 20.0391 0.5 16.1016 0.5C12.1641 0.5 9.07031 3.24219 9.07031 6.61719C9.07031 6.89844 9.07031 7.10938 9.07031 7.25H5.13281C2.32031 7.25 0 9.64062 0 12.4531V17.1641C0 18.3594 0.421875 19.4844 1.19531 20.3281C0.421875 21.2422 0 22.3672 0 23.5625V31.2969C0 34.1797 2.32031 36.5 5.13281 36.5H12.8672C14.0625 36.5 15.2578 36.0781 16.1016 35.3047C17.0156 36.0781 18.1406 36.5 19.3359 36.5H23.4844C26.1562 36.5 29.25 34.3906 29.25 31.2969V27.3594C29.3906 27.3594 29.6016 27.3594 29.8828 27.3594C33.2578 27.3594 36 24.3359 36 20.3281C36 16.3906 33.2578 13.2969 29.8828 13.2969ZM29.8828 23.9844C27.9844 23.9844 28.0547 22.1562 26.6484 22.1562C25.875 22.1562 25.875 22.7891 25.875 23.5625V31.2969C25.875 32.3516 24.4688 33.125 23.4844 33.125H19.3359C18.5625 33.125 18 32.5625 18 31.7891C18 30.3828 19.7578 30.4531 19.7578 28.5547C19.7578 27.0781 18.0703 25.8125 16.1016 25.8125C14.0625 25.8125 12.4453 27.0781 12.4453 28.5547C12.4453 30.4531 14.2734 30.3828 14.2734 31.7891C14.3438 32.5625 13.7109 33.125 12.9375 33.125H5.13281C4.14844 33.125 3.375 32.3516 3.375 31.2969V23.5625C3.375 22.7891 3.9375 22.1562 4.71094 22.1562C6.11719 22.1562 6.04688 23.9844 7.94531 23.9844C9.42188 23.9844 10.6875 22.3672 10.6875 20.3281C10.6875 18.3594 9.42188 16.6719 7.94531 16.6719C6.04688 16.6719 6.11719 18.5 4.71094 18.5C3.9375 18.5 3.375 17.9375 3.375 17.1641V12.4531C3.375 11.4688 4.14844 10.625 5.13281 10.625H12.8672C13.7109 10.625 14.3438 10.625 14.3438 9.85156C14.3438 8.44531 12.5156 8.51562 12.5156 6.61719C12.5156 5.14062 14.1328 3.875 16.1719 3.875C18.1406 3.875 19.8281 5.14062 19.8281 6.61719C19.7578 8.51562 18 8.44531 18 9.85156C18 10.625 18.5625 10.625 19.3359 10.625H23.4844C24.4688 10.625 25.875 11.4688 25.875 12.4531V17.1641C25.875 17.9375 25.875 18.5 26.6484 18.5C28.0547 18.5 27.9844 16.6719 29.8828 16.6719C31.3594 16.6719 32.625 18.3594 32.625 20.3281C32.625 22.3672 31.3594 23.9844 29.8828 23.9844Z" fill="white"/>
</svg>
