<svg width="24" height="23" viewBox="0 0 24 23" fill="none" xmlns="http://www.w3.org/2000/svg">
<path d="M9.16211 12.8926V22.0771H0.680664V14.8262C0.680664 10.9004 1.14941 8.05859 2.08691 6.30078C3.31738 3.95703 5.26562 2.18457 7.93164 0.983398L9.86523 4.05957C8.25391 4.7334 7.06738 5.74414 6.30566 7.0918C5.54395 8.41016 5.11914 10.3438 5.03125 12.8926H9.16211ZM22.7852 12.8926V22.0771H14.3037V14.8262C14.3037 10.9004 14.7725 8.05859 15.71 6.30078C16.9404 3.95703 18.8887 2.18457 21.5547 0.983398L23.4883 4.05957C21.877 4.7334 20.6904 5.74414 19.9287 7.0918C19.167 8.41016 18.7422 10.3438 18.6543 12.8926H22.7852Z" fill="#DDD6FE"/>
</svg>
