<svg width="30" height="37" viewBox="0 0 30 37" fill="none" xmlns="http://www.w3.org/2000/svg">
<path d="M8.98438 22.7891L7.57812 26.0938C7.50781 26.3047 7.29688 26.375 7.08594 26.375H1.8125C0.828125 26.375 0.125 27.1484 0.125 28.0625C0.125 29.0469 0.828125 29.75 1.8125 29.75H7.08594C8.63281 29.75 10.0391 28.8359 10.6719 27.4297L11.6562 25.1797L10.9531 24.7578C10.1094 24.2656 9.47656 23.5625 8.98438 22.7891ZM19.25 7.25C21.0781 7.25 22.625 5.77344 22.625 3.875C22.625 2.04688 21.0781 0.5 19.25 0.5C17.3516 0.5 15.875 2.04688 15.875 3.875C15.875 5.77344 17.3516 7.25 19.25 7.25ZM27.6875 17.4453H24.2422C24.0312 17.4453 23.75 17.3047 23.6797 17.0234L22.7656 13.7891C22.0625 11.6797 20.375 10.0625 18.1953 9.57031L12.7109 8.30469C12.2188 8.23438 11.7266 8.16406 11.3047 8.16406C9.96875 8.16406 8.63281 8.65625 7.50781 9.5L4.13281 12.1016C3.71094 12.4531 3.5 12.9453 3.5 13.4375C3.5 14.2812 4.13281 15.125 5.1875 15.125C5.53906 15.125 5.89062 14.9844 6.17188 14.7734L9.61719 12.1719C10.1094 11.75 10.6719 11.5391 11.3047 11.5391C11.5156 11.5391 11.7266 11.6094 11.9375 11.6094L12.9922 11.8203L10.5312 18.0078C10.3203 18.5 10.1797 18.9922 10.1797 19.4844C10.1797 20.8203 10.8828 22.0859 12.0781 22.8594L17.9844 26.375C18.1953 26.5156 18.2656 26.7266 18.2656 26.8672C18.2656 26.9375 18.2656 27.0078 18.2656 27.0781L15.9453 34.3906C15.875 34.5312 15.875 34.6719 15.875 34.8125C15.875 35.375 16.2969 36.5 17.5625 36.5C18.2656 36.5 18.9688 36.0781 19.1797 35.3047L21.5 27.9922C21.5703 27.6406 21.6406 27.2188 21.6406 26.8672C21.6406 25.5312 20.9375 24.2656 19.7422 23.4922L16.0859 21.3125L19.0391 13.9297C19.25 14.2109 19.3906 14.4922 19.5312 14.7734L20.5156 18.0078C21.0078 19.6953 22.4844 20.8203 24.2422 20.8203H27.6172C28.6016 20.8203 29.375 20.0469 29.375 19.1328C29.375 18.2188 28.6016 17.4453 27.6875 17.4453Z" fill="white"/>
</svg>
