<svg width="39" height="47" viewBox="0 0 39 47" fill="none" xmlns="http://www.w3.org/2000/svg">
<rect x="13" y="18" width="24" height="22" fill="white"/>
<path d="M33.8047 36.4453C34.0599 36.7005 34.1875 37.0104 34.1875 37.375C34.1875 37.7396 34.0599 38.0495 33.8047 38.3047C33.5495 38.5599 33.2396 38.6875 32.875 38.6875C32.5104 38.6875 32.2005 38.5599 31.9453 38.3047C31.6901 38.0495 31.5625 37.7396 31.5625 37.375C31.5625 37.0104 31.6901 36.7005 31.9453 36.4453C32.2005 36.1901 32.5104 36.0625 32.875 36.0625C33.2396 36.0625 33.5495 36.1901 33.8047 36.4453ZM28.4453 36.4453C28.7005 36.1901 29.0104 36.0625 29.375 36.0625C29.7396 36.0625 30.0495 36.1901 30.3047 36.4453C30.5599 36.7005 30.6875 37.0104 30.6875 37.375C30.6875 37.7396 30.5599 38.0495 30.3047 38.3047C30.0495 38.5599 29.7396 38.6875 29.375 38.6875C29.0104 38.6875 28.7005 38.5599 28.4453 38.3047C28.1901 38.0495 28.0625 37.7396 28.0625 37.375C28.0625 37.0104 28.1901 36.7005 28.4453 36.4453ZM31.9453 28.5703C32.2005 28.3151 32.5104 28.1875 32.875 28.1875C33.2396 28.1875 33.5495 28.3151 33.8047 28.5703C34.0599 28.8255 34.1875 29.1354 34.1875 29.5C34.1875 29.8646 34.0599 30.1745 33.8047 30.4297C33.5495 30.6849 33.2396 30.8125 32.875 30.8125C32.5104 30.8125 32.2005 30.6849 31.9453 30.4297C31.6901 30.1745 31.5625 29.8646 31.5625 29.5C31.5625 29.1354 31.6901 28.8255 31.9453 28.5703ZM28.4453 28.5703C28.7005 28.3151 29.0104 28.1875 29.375 28.1875C29.7396 28.1875 30.0495 28.3151 30.3047 28.5703C30.5599 28.8255 30.6875 29.1354 30.6875 29.5C30.6875 29.8646 30.5599 30.1745 30.3047 30.4297C30.0495 30.6849 29.7396 30.8125 29.375 30.8125C29.0104 30.8125 28.7005 30.6849 28.4453 30.4297C28.1901 30.1745 28.0625 29.8646 28.0625 29.5C28.0625 29.1354 28.1901 28.8255 28.4453 28.5703ZM39 24.25C39 24.724 38.8906 25.1615 38.6719 25.5625C38.8906 25.9635 39 26.401 39 26.875V32.125C39 32.599 38.8906 33.0365 38.6719 33.4375C38.8906 33.8385 39 34.276 39 34.75V40C39 40.7292 38.7448 41.349 38.2344 41.8594C37.724 42.3698 37.1042 42.625 36.375 42.625H13.625C12.8958 42.625 12.276 42.3698 11.7656 41.8594C11.2552 41.349 11 40.7292 11 40V34.75C11 34.276 11.1094 33.8385 11.3281 33.4375C11.1094 33.0365 11 32.599 11 32.125V26.875C11 26.401 11.1094 25.9635 11.3281 25.5625C11.1094 25.1615 11 24.724 11 24.25V19C11 18.2708 11.2552 17.651 11.7656 17.1406C12.276 16.6302 12.8958 16.375 13.625 16.375H36.375C37.1042 16.375 37.724 16.6302 38.2344 17.1406C38.7448 17.651 39 18.2708 39 19V24.25ZM13.625 24.25H36.375V19H13.625V24.25ZM36.375 26.875H13.625V32.125H36.375V26.875ZM36.375 34.75H13.625V40H36.375V34.75ZM33.8047 22.5547C33.5495 22.8099 33.2396 22.9375 32.875 22.9375C32.5104 22.9375 32.2005 22.8099 31.9453 22.5547C31.6901 22.2995 31.5625 21.9896 31.5625 21.625C31.5625 21.2604 31.6901 20.9505 31.9453 20.6953C32.2005 20.4401 32.5104 20.3125 32.875 20.3125C33.2396 20.3125 33.5495 20.4401 33.8047 20.6953C34.0599 20.9505 34.1875 21.2604 34.1875 21.625C34.1875 21.9896 34.0599 22.2995 33.8047 22.5547ZM30.3047 22.5547C30.0495 22.8099 29.7396 22.9375 29.375 22.9375C29.0104 22.9375 28.7005 22.8099 28.4453 22.5547C28.1901 22.2995 28.0625 21.9896 28.0625 21.625C28.0625 21.2604 28.1901 20.9505 28.4453 20.6953C28.7005 20.4401 29.0104 20.3125 29.375 20.3125C29.7396 20.3125 30.0495 20.4401 30.3047 20.6953C30.5599 20.9505 30.6875 21.2604 30.6875 21.625C30.6875 21.9896 30.5599 22.2995 30.3047 22.5547Z" fill="#111827"/>
<path d="M1.5 20.5L4 17L5 20.5L7 23L10.5 23.5L12.5 20.5L10 16.5L9 10.5L10 8L16.5 15L19 18.5V23.5L16.5 29L10 31.5L2.5 27.5L1.5 20.5Z" fill="white"/>
<path d="M11.7578 5.8125C11.7578 4.55469 10.0078 4.00781 9.29688 5.10156C4.15625 13.1953 10.9375 17.5703 10.9375 20.25C10.9375 21.4531 9.95312 22.4375 8.75 22.4375C7.54688 22.4375 6.5625 21.4531 6.5625 20.25V14.5078C6.5625 13.4141 5.35938 12.8125 4.48438 13.4141C1.64062 15.3828 0 18.6094 0 22C0 27.7969 4.70312 32.5 10.5 32.5C16.2422 32.5 21 27.7969 21 22C21 12.7031 11.7578 11.4453 11.7578 5.8125ZM10.5 29.875C6.125 29.875 2.625 26.3203 2.625 22C2.625 20.4141 3.0625 18.4453 3.9375 17.1875V20.25C3.9375 22.875 6.07031 25.0625 8.75 25.0625C11.375 25.0625 13.5625 22.875 13.5625 20.25C13.5625 16.6953 8.75 13.6875 10.0625 8.875C12.25 13.6875 18.375 15.5469 18.375 22C18.375 26.375 14.8203 29.875 10.5 29.875Z" fill="#111827"/>
</svg>
