<svg width="34" height="34" viewBox="0 0 34 34" fill="none" xmlns="http://www.w3.org/2000/svg">
<path d="M6.97656 21.2031C6.97656 23.0586 5.34375 24.6914 3.48828 24.6914C1.55859 24.6914 0 23.0586 0 21.2031C0 19.2734 1.55859 17.7148 3.48828 17.7148H6.97656V21.2031ZM8.68359 21.2031C8.68359 19.2734 10.3164 17.7148 12.1719 17.7148C14.1016 17.7148 15.6602 19.2734 15.6602 21.2031V29.8867C15.6602 31.8164 14.1016 33.375 12.1719 33.375C10.3164 33.375 8.68359 31.8164 8.68359 29.8867V21.2031ZM12.1719 7.17578C10.3164 7.17578 8.68359 5.54297 8.68359 3.6875C8.68359 1.75781 10.3164 0.125 12.1719 0.125C14.1016 0.125 15.6602 1.75781 15.6602 3.6875V7.17578H12.1719ZM12.1719 8.88281C14.1016 8.88281 15.6602 10.4414 15.6602 12.3711C15.6602 14.3008 14.1016 15.8594 12.1719 15.8594H3.48828C1.55859 15.8594 0 14.3008 0 12.3711C0 10.4414 1.55859 8.88281 3.48828 8.88281H12.1719ZM26.1992 12.3711C26.1992 10.4414 27.832 8.88281 29.6875 8.88281C31.6172 8.88281 33.25 10.4414 33.25 12.3711C33.25 14.3008 31.6172 15.8594 29.6875 15.8594H26.1992V12.3711ZM24.4922 12.3711C24.4922 14.3008 22.9336 15.8594 21.0039 15.8594C19.0742 15.8594 17.5156 14.3008 17.5156 12.3711V3.6875C17.5156 1.75781 19.0742 0.125 21.0039 0.125C22.9336 0.125 24.4922 1.75781 24.4922 3.6875V12.3711ZM21.0039 26.3984C22.9336 26.3984 24.4922 28.0312 24.4922 29.8867C24.4922 31.8164 22.9336 33.375 21.0039 33.375C19.0742 33.375 17.5156 31.8164 17.5156 29.8867V26.3984H21.0039ZM21.0039 24.6914C19.0742 24.6914 17.5156 23.0586 17.5156 21.2031C17.5156 19.2734 19.0742 17.7148 21.0039 17.7148H29.6875C31.6172 17.7148 33.25 19.2734 33.25 21.2031C33.25 23.0586 31.6172 24.6914 29.6875 24.6914H21.0039Z" fill="black"/>
</svg>
