<svg width="49" height="39" viewBox="0 0 49 39" fill="none" xmlns="http://www.w3.org/2000/svg">
<path d="M31.875 13.8125C31.875 6.61328 24.8984 0.75 16.4375 0.75C7.90234 0.75 1 6.61328 1 13.8125C1 16.7812 2.11328 19.4531 4.04297 21.6797C2.85547 24.1289 1.14844 25.9102 1.14844 25.9844C0.925781 26.1328 0.925781 26.3555 1 26.5781C1.07422 26.8008 1.29688 26.875 1.51953 26.875C4.41406 26.875 6.78906 26.0586 8.64453 25.0938C10.9453 26.2812 13.543 26.875 16.4375 26.875C24.8984 26.875 31.875 21.0859 31.875 13.8125ZM16.4375 25.6875C13.8398 25.6875 11.3906 25.168 9.16406 24.0547L8.64453 23.7578L8.125 24.0547C6.41797 24.9453 4.71094 25.4648 2.92969 25.6133C3.52344 24.7969 4.41406 23.6094 5.08203 22.1992L5.45312 21.457L4.93359 20.8633C3.15234 18.7852 2.1875 16.4102 2.1875 13.8125C2.1875 7.28125 8.57031 1.9375 16.4375 1.9375C24.2305 1.9375 30.6875 7.28125 30.6875 13.8125C30.6875 20.418 24.2305 25.6875 16.4375 25.6875ZM45.457 33.7031C47.3125 31.4766 48.5 28.7305 48.5 25.6875C48.5 19.082 43.082 13.5898 36.0312 12.7734C35.6602 12.7734 35.3633 13.0703 35.3633 13.4414C35.4375 13.6641 35.5859 13.8867 35.8828 13.9609C42.3398 14.7031 47.3125 19.6758 47.3125 25.6875C47.3125 28.3594 46.3477 30.8828 44.5664 32.9609L44.0469 33.5547L44.418 34.2969C45.0859 35.5586 45.9023 36.7461 46.4961 37.5625C44.8633 37.3398 43.2305 36.8945 41.5977 36.0781L41.0781 35.8555L40.5586 36.0781C38.6289 37.043 36.4023 37.5625 34.25 37.5625C28.7578 37.5625 24.082 34.5195 22.1523 30.2148C22.0039 29.918 21.707 29.7695 21.4844 29.8438H21.4102C21.1133 29.918 20.8906 30.3633 21.0391 30.6602C23.1914 35.4102 28.2383 38.75 34.25 38.75C36.6992 38.75 39.0742 38.1562 41.0781 37.1914C42.9336 38.0078 45.2344 38.75 47.9062 38.75C48.1289 38.75 48.3516 38.6758 48.4258 38.4531C48.5 38.2305 48.4258 38.0078 48.2773 37.8594C48.2773 37.7852 46.6445 36.0781 45.457 33.7031Z" fill="black"/>
</svg>
