<svg width="32" height="31" viewBox="0 0 32 31" fill="none" xmlns="http://www.w3.org/2000/svg">
<path d="M15.9453 12C13.9766 12 12.5 13.5859 12.5 15.5C12.5 17.4141 14.0312 19 16 19C17.9141 19 19.5 17.4688 19.5 15.5C19.5 13.5859 17.9141 12 15.9453 12ZM16 16.375C15.5078 16.375 15.125 15.9922 15.125 15.5C15.125 15.0625 15.5078 14.625 16 14.625C16.4375 14.625 16.875 15.0625 16.875 15.5C16.875 15.9922 16.4375 16.375 16 16.375ZM27.7031 23.1562C28.3047 24.4141 27.9766 25.9453 26.8281 26.875C25.7344 27.75 24.1484 27.75 23 26.8203C21.9062 25.9453 21.5781 24.4141 22.1797 23.1016C22.7812 21.8438 24.2578 21.1328 25.625 21.4609C28.3594 17.0859 27.8125 11.2344 24.0391 7.46094C20.7578 4.17969 15.8359 3.19531 11.5703 5C11.2969 4.34375 10.9141 3.6875 10.4219 3.14062C10.3125 3.03125 10.1484 2.97656 10.0391 2.86719C15.3984 0.40625 21.6875 1.44531 25.8984 5.65625C30.6562 10.4141 31.2578 17.7422 27.7031 23.1562ZM21.5234 27.9141C21.6328 28.0234 21.7969 28.0781 21.9062 28.1875C16.5469 30.6484 10.2578 29.6094 6.10156 25.3984C1.28906 20.6406 0.6875 13.3125 4.24219 7.84375C3.64062 6.58594 3.96875 5.05469 5.11719 4.125C6.21094 3.25 7.79688 3.25 8.94531 4.17969C10.0391 5.05469 10.4219 6.58594 9.76562 7.89844C9.16406 9.15625 7.6875 9.8125 6.32031 9.48438C3.58594 13.8594 4.13281 19.7109 7.90625 23.5391C11.1875 26.7656 16.1094 27.75 20.375 25.9453C20.6484 26.7109 21.0312 27.3672 21.5234 27.9141ZM23.3828 8.11719C22.5078 7.1875 21.0859 7.13281 20.1016 7.84375C18.7891 7.1875 17.3672 6.80469 16 6.80469C12.0078 6.80469 8.5625 9.42969 7.52344 13.2578C6.48438 17.0859 8.17969 21.1328 11.625 23.0469C15.0156 25.0156 19.3906 24.4688 22.1797 21.6797C24.9688 18.9453 25.4062 14.6797 23.6562 11.3984C24.3672 10.4141 24.3125 8.99219 23.3828 8.11719ZM20.3203 19.875C18.0781 22.1172 14.4688 22.3359 12.0078 20.3125C9.54688 18.2344 9.05469 14.6797 10.8594 12.0547C12.6641 9.48438 16.1641 8.60938 18.9531 10.1953C19.0078 10.7969 19.2266 11.3438 19.6641 11.8359C20.1016 12.2734 20.7031 12.4922 21.3047 12.5469C22.6172 14.8438 22.2891 17.8516 20.3203 19.875Z" fill="black"/>
</svg>
