<svg width="46" height="37" viewBox="0 0 46 37" fill="none" xmlns="http://www.w3.org/2000/svg">
<path d="M44.8594 15.7578L38.8828 1.27344C38.6016 0.710938 37.9688 0.429688 37.4062 0.710938L29.1094 4.08594C28.5469 4.36719 28.2656 5 28.5469 5.5625L28.7578 6.125L5.20312 17.5156C4.57031 17.7969 4.28906 18.4297 4.57031 18.9922L5.13281 20.4688L0.632812 22.3672C0.28125 22.5078 0 23 0 23.4219C0 23.4922 0 23.7031 0.0703125 23.8438L1.47656 27.2188C1.61719 27.6406 2.10938 27.9219 2.53125 27.9219C2.60156 27.9219 2.8125 27.9219 2.95312 27.8516L7.45312 25.9531L8.01562 27.4297C8.29688 27.9922 8.92969 28.2734 9.5625 28.0625L18.4922 24.9688C18.4922 25.0391 18.4922 25.0391 18.4922 25.0391L15.2578 34.25C14.9062 35.0938 15.3984 36.0781 16.3125 36.3594C16.4531 36.5 16.6641 36.5 16.8047 36.5C17.4375 36.5 18.1406 36.0781 18.3516 35.375L21.375 26.8672C21.7266 26.9375 22.0781 26.9375 22.4297 26.9375C22.7812 26.9375 23.0625 26.9375 23.4141 26.8672L26.4375 35.375C26.7188 36.0781 27.4219 36.5 28.0547 36.5C28.1953 36.5 28.4062 36.5 28.6172 36.4297C29.4609 36.1484 29.9531 35.1641 29.6016 34.25L26.3672 25.0391C27.0703 24.1953 27.4922 23.0703 27.4922 21.9453C27.4922 21.875 27.4922 21.875 27.4922 21.875L34.2422 19.4844L34.4531 20.0469C34.7344 20.6094 35.3672 20.8906 35.9297 20.6797L44.2266 17.2344C44.8594 17.0234 45.1406 16.3203 44.8594 15.7578ZM22.4297 23.5625C21.4453 23.5625 20.7422 22.7891 20.7422 21.875C20.7422 20.8906 21.4453 20.1875 22.4297 20.1875C23.3438 20.1875 24.1172 20.8906 24.1172 21.875C24.1172 22.7891 23.4141 23.5625 22.4297 23.5625ZM26.3672 18.7109C25.3828 17.5859 24.0469 16.8125 22.4297 16.8125C19.6875 16.8125 17.5078 19.0625 17.4375 21.8047L10.3359 24.1953L8.50781 19.6953L30.0234 9.14844L33.0469 16.3906L26.3672 18.7109ZM36.7734 16.6719L32.4141 6.26562L36.5625 4.57812L40.8516 14.9844L36.7734 16.6719Z" fill="white"/>
</svg>
