<svg width="37" height="29" viewBox="0 0 37 29" fill="none" xmlns="http://www.w3.org/2000/svg">
<path d="M25.2266 1.48438C23.3672 0.828125 21.5078 0.5 19.6484 0.5C14.6719 0.5 9.96875 2.79688 6.85156 6.67969C6.46875 7.11719 6.6875 7.82812 7.23438 7.99219C17.5703 11.6562 25.4453 14.6641 34.7969 18C34.9062 18 35.0156 18.0547 35.0703 18.0547C35.5625 18.0547 35.9453 17.6719 35.9453 17.2344C36.1641 10.3984 32.0078 3.94531 25.2266 1.48438ZM10.6797 6.46094C12.9766 4.4375 15.9844 3.28906 19.1016 3.17969C18.8828 3.34375 17.0781 4.71094 15.2734 8.10156L10.6797 6.46094ZM25.7188 11.9297L17.7891 9.03125C18.5547 7.66406 19.4844 6.46094 20.4141 5.53125C21.7812 4.21875 23.1484 3.67188 24.1328 4C25.0625 4.38281 25.7188 5.64062 25.9375 7.55469C26.1016 8.86719 25.9922 10.3438 25.7188 11.9297ZM28.1797 12.8047C28.6172 10.8906 28.8359 8.59375 28.3984 6.35156C30.9141 8.42969 32.6641 11.3281 33.1562 14.6094L28.1797 12.8047ZM32.5 27.2422C32.5 27.9531 31.8984 28.5 31.1875 28.5L2.25781 28.4453C1.54688 28.4453 0.945312 27.8438 0.945312 27.1328C0.945312 26.4219 1.54688 25.8203 2.25781 25.8203L14.7266 25.875L19.0469 14.1172L21.5078 14.9922L17.5703 25.875L31.1328 25.9297C31.8984 25.9297 32.5 26.4766 32.5 27.2422Z" fill="white"/>
</svg>
