<svg width="29" height="29" viewBox="0 0 29 29" fill="none" xmlns="http://www.w3.org/2000/svg">
<path d="M27.7266 6.95312C27.6172 6.24219 27.0703 5.75 26.4141 5.53125C25.7031 5.36719 24.9922 5.58594 24.5547 6.02344L21.3281 9.25L19.5234 8.97656L19.25 7.17188L22.4766 4C22.9688 3.50781 23.1328 2.79688 22.9688 2.14062C22.75 1.48438 22.2578 0.9375 21.5469 0.773438C18.6484 0.0625 15.6953 0.882812 13.5625 3.01562C11.4844 5.03906 10.6641 7.99219 11.3203 10.8359L1.25781 20.8438C0.4375 21.7188 0 22.8672 0 24.0156C0 25.1641 0.4375 26.3125 1.25781 27.1875C2.02344 28.0078 3.28125 28.5 4.42969 28.5C5.57812 28.5 6.72656 28.0625 7.60156 27.1875L17.6094 17.1797C20.4531 17.8359 23.4062 17.0156 25.4844 14.9375C27.5625 12.8594 28.4375 9.79688 27.7266 6.95312ZM23.625 13.0781C22.0938 14.6641 19.7969 15.2109 17.7188 14.5L16.9531 14.2266L5.79688 25.3281C5.14062 26.0391 3.88281 26.0391 3.22656 25.3281C2.89844 25 2.67969 24.5625 2.67969 24.0156C2.67969 23.5234 2.89844 23.0859 3.22656 22.7031L14.3828 11.6016L14.1641 10.8359C13.3438 8.70312 13.8359 6.40625 15.4219 4.875C16.5156 3.72656 17.9922 3.125 19.4688 3.125H19.5234L16.4609 6.29688L17.2812 11.2188L22.2031 12.0938L25.375 8.92188C25.375 10.4531 24.7734 11.9844 23.625 13.0781ZM4.75781 22.8125C4.26562 22.8125 3.9375 23.1953 3.9375 23.6875C3.9375 24.125 4.32031 24.5625 4.75781 24.5625C5.19531 24.5625 5.57812 24.125 5.57812 23.6875C5.63281 23.25 5.25 22.8125 4.75781 22.8125Z" fill="black"/>
</svg>
