<svg width="170" height="54" viewBox="0 0 170 54" fill="none" xmlns="http://www.w3.org/2000/svg">
<path fill-rule="evenodd" clip-rule="evenodd" d="M14.7371 13.4129C19.5178 8.05089 27.4345 6.47755 33.9431 9.57265C42.5906 13.6855 45.7454 24.1629 41.0373 32.2443L30.4461 50.4043C29.8541 51.4193 28.8801 52.1596 27.738 52.4635C26.5959 52.7668 25.3789 52.6085 24.3544 52.023L37.1771 30.0324C40.593 24.167 38.3082 16.5645 32.0387 13.5705C27.3346 11.3245 21.5841 12.4468 18.1089 16.3094C16.1921 18.4299 15.1158 21.1674 15.0799 24.0144C15.0441 26.862 16.051 29.6253 17.9137 31.7926C18.2485 32.1815 18.6088 32.5482 18.9923 32.8898L11.5065 45.7512C11.2137 46.2538 10.8239 46.6944 10.3594 47.0478C9.89492 47.4012 9.36471 47.6606 8.79909 47.8111C8.23353 47.961 7.64358 47.9993 7.06304 47.9241C6.4825 47.8481 5.92266 47.6599 5.41552 47.3699L13.5421 33.407C12.3748 31.7389 11.5365 29.8665 11.0715 27.8888L6.09164 36.4617C5.49967 37.4767 4.52568 38.217 3.38356 38.5209C2.24144 38.8242 1.02452 38.6659 0 38.0804L12.8779 15.9664C13.4139 15.0581 14.0365 14.2035 14.7371 13.4129ZM29.6008 20.4515C32.7022 22.2277 33.7733 26.1768 31.9787 29.2503L19.6296 50.4022C19.0377 51.4165 18.0638 52.1568 16.9216 52.4607C15.7795 52.764 14.5626 52.6057 13.5381 52.0209L25.0046 32.3279C24.0845 32.1362 23.2175 31.7486 22.4633 31.1917C21.7091 30.6354 21.0857 29.923 20.6363 29.1046C20.1868 28.2855 19.9218 27.3799 19.8598 26.45C19.7977 25.5201 19.9399 24.5881 20.2768 23.7174C20.6136 22.8474 21.1368 22.0597 21.8104 21.4093C22.4841 20.7596 23.2921 20.2619 24.1786 19.9517C25.0651 19.6408 26.0089 19.5251 26.9451 19.6115C27.8812 19.698 28.7873 19.9845 29.6008 20.4515ZM25.1089 24.4271C24.8967 24.5888 24.7186 24.7902 24.5849 25.0196H24.5843C24.3828 25.366 24.2895 25.7634 24.3157 26.1621C24.3422 26.5602 24.4872 26.9422 24.7326 27.2594C24.978 27.5765 25.3126 27.8142 25.6942 27.9425C26.0758 28.0708 26.4873 28.084 26.8765 27.9808C27.2658 27.877 27.6154 27.6616 27.881 27.3611C28.1467 27.0607 28.3166 26.6891 28.3693 26.2932C28.4219 25.8972 28.3548 25.4943 28.1766 25.136C27.9983 24.7777 27.7169 24.48 27.368 24.28C27.1363 24.1475 26.8805 24.0611 26.6152 24.0269C26.3499 23.9921 26.0803 24.0095 25.8219 24.0785C25.5635 24.1468 25.3212 24.2653 25.1089 24.4271Z" fill="#4F40FF"/>
<path fill-rule="evenodd" clip-rule="evenodd" d="M55.0706 38.3232L64.3294 14.2734H69.7577L79.0172 38.3232H73.8412L71.8469 32.9361H62.2402L60.2458 38.3232H55.0706ZM70.2645 28.6071C69.6315 26.7257 69.0668 25.0422 68.5712 23.5567C68.0749 22.0711 67.5688 20.5368 67.0515 18.9551C66.5343 20.5368 66.0226 22.0711 65.5165 23.5567C65.0202 25.0422 64.4562 26.7257 63.8226 28.6071H70.2645ZM80.5836 16.8387C80.5836 16.0692 80.8157 15.4494 81.28 14.9789C81.7442 14.5084 82.3563 14.2734 83.1161 14.2734C83.8759 14.2734 84.488 14.5084 84.9522 14.9789C85.4165 15.4494 85.6486 16.0692 85.6486 16.8387C85.6486 17.6083 85.4165 18.2281 84.9522 18.6986C84.488 19.1691 83.8759 19.4041 83.1161 19.4041C82.3563 19.4041 81.7442 19.1691 81.28 18.6986C80.8157 18.2281 80.5836 17.6083 80.5836 16.8387ZM80.8373 38.3232V22.29H85.3949V38.3232H80.8373ZM89.2568 22.29V38.3232H93.8151V31.2526C93.8151 29.5635 94.1895 28.2648 94.9388 27.3565C95.6882 26.4371 96.6746 25.9777 97.8987 25.9777C98.4891 25.9777 99.0907 26.0794 99.7028 26.2823L100.336 22.29C99.608 22.076 98.9011 21.9694 98.2152 21.9694C96.1999 21.9694 94.6168 22.8407 93.4666 24.5828V22.29H89.2568ZM102.077 38.3232V14.2734H106.635V23.8773C107.3 23.2785 108.06 22.8136 108.914 22.4824C109.769 22.1402 110.692 21.9694 111.684 21.9694C113.171 21.9694 114.496 22.3326 115.657 23.0596C116.817 23.7755 117.73 24.7647 118.395 26.0258C119.059 27.2764 119.392 28.7033 119.392 30.3066C119.392 31.91 119.059 33.3425 118.395 34.6035C117.73 35.8541 116.817 36.8426 115.657 37.5697C114.496 38.2856 113.171 38.6439 111.684 38.6439C110.66 38.6439 109.705 38.4675 108.819 38.1148C107.933 37.7516 107.158 37.2434 106.492 36.5916L106.382 38.3232H102.077ZM111.105 34.6356C112.266 34.6356 113.226 34.2243 113.986 33.401C114.745 32.5778 115.125 31.5468 115.125 30.3066C115.125 29.0665 114.745 28.0355 113.986 27.2122C113.226 26.389 112.266 25.9777 111.105 25.9777C109.945 25.9777 108.985 26.389 108.225 27.2122C107.465 28.0355 107.085 29.0665 107.085 30.3066C107.085 31.5468 107.465 32.5778 108.225 33.401C108.985 34.2243 109.945 34.6356 111.105 34.6356ZM127.008 30.1303L123.304 22.29H118.54L125.916 37.5216L122.308 46.3398H127.103L136.947 22.29H132.136L127.863 32.7437C127.757 32.2202 127.631 31.7392 127.483 31.3007C127.335 30.8622 127.177 30.4725 127.008 30.1303ZM137.565 22.29H140.176V18.2817H144.734V22.29H148.58V26.2983H144.734V32.1986C144.734 32.9577 144.971 33.5558 145.446 33.9943C145.932 34.4216 146.544 34.6356 147.282 34.6356C147.831 34.6356 148.396 34.5129 148.976 34.2668V38.0507C147.973 38.4459 146.987 38.6439 146.016 38.6439C144.138 38.6439 142.693 38.1364 141.68 37.1207C140.677 36.0946 140.176 34.63 140.176 32.7276V26.2983H137.565V22.29ZM157.222 33.85C156.462 33.2944 155.94 32.5729 155.655 31.6855H168V30.2906C168 28.6768 167.641 27.2443 166.924 25.9937C166.206 24.7431 165.225 23.7595 163.98 23.0436C162.745 22.3277 161.332 21.9694 159.738 21.9694C158.135 21.9694 156.699 22.3326 155.433 23.0596C154.178 23.7755 153.186 24.7591 152.458 26.0097C151.73 27.2499 151.366 28.6657 151.366 30.2585C151.366 31.8723 151.746 33.3153 152.505 34.5875C153.265 35.8485 154.315 36.8426 155.655 37.5697C156.995 38.2856 158.541 38.6439 160.292 38.6439C161.389 38.6439 162.535 38.4619 163.727 38.0988C164.929 37.7356 166.143 37.0671 167.367 36.0946L164.613 32.7597C164.022 33.3264 163.363 33.7914 162.634 34.1546C161.917 34.5073 161.01 34.6837 159.912 34.6837C158.889 34.6837 157.992 34.4055 157.222 33.85ZM163.039 28.2899C162.786 27.7225 162.425 27.2401 161.954 26.8435C161.268 26.2663 160.446 25.9777 159.485 25.9777C158.515 25.9777 157.67 26.2718 156.952 26.8595C156.471 27.2596 156.103 27.7364 155.847 28.2899H163.039Z" fill="#4F40FF"/>
</svg>
