<svg width="71" height="54" viewBox="0 0 71 54" fill="none" xmlns="http://www.w3.org/2000/svg">
<path d="M36.8233 37.646C32.5226 37.646 29.0346 34.162 29.0346 29.8607C29.0346 25.5627 32.5226 22.0793 36.8233 22.0793C41.1233 22.0793 44.6086 25.5627 44.6086 29.8607C44.6086 34.162 41.1233 37.646 36.8233 37.646ZM13.89 37.646C9.58996 37.646 6.09997 34.1627 6.09997 29.862C6.09997 25.5627 9.58996 22.0793 13.89 22.0793C18.19 22.0793 21.6726 25.5627 21.6726 29.8607C21.6726 34.162 18.19 37.646 13.89 37.646ZM36.8233 16.8833C31.8566 16.8833 27.5346 19.6767 25.358 23.7787C23.1806 19.6767 18.8606 16.8833 13.89 16.8833C10.9713 16.8833 8.2753 17.8487 6.09997 19.4793V8.544C6.07397 7.13133 4.92196 6 3.50396 6C2.08583 6 0.944698 7.13133 0.912231 8.544V30.0767H0.9151C1.02943 37.1473 6.79063 42.8427 13.89 42.8427C18.8606 42.8427 23.1806 40.046 25.358 35.948C27.5346 40.046 31.8566 42.8427 36.8233 42.8427C43.9893 42.8427 49.8026 37.032 49.8026 29.8607C49.8026 22.6927 43.9893 16.8833 36.8233 16.8833Z" fill="#0646FF"/>
<path d="M69.9313 38.4968L62.8786 29.8395L69.94 21.1648C70.8326 20.0208 70.5766 18.4228 69.344 17.5741C68.11 16.7181 66.3786 16.9375 65.424 18.0475V18.0461L59.3493 25.4968L53.2799 18.0461V18.0475C52.3353 16.9375 50.5933 16.7181 49.3626 17.5741C48.1326 18.4235 47.8753 20.0208 48.7726 21.1648H48.7699L55.8186 29.8395L48.7699 38.4968H48.7726C47.8753 39.6441 48.1326 41.2375 49.3626 42.0895C50.5933 42.9421 52.3353 42.7255 53.2799 41.6135L59.3493 34.1721L65.4153 41.6135C66.3713 42.7255 68.1019 42.9421 69.3359 42.0895C70.5686 41.2375 70.8253 39.6441 69.9313 38.4968Z" fill="#0646FF"/>
</svg>
