<svg width="120" height="54" viewBox="0 0 120 54" fill="none" xmlns="http://www.w3.org/2000/svg">
<path d="M23.0865 32.1342C22.9869 32.0852 22.8241 32.0873 22.6929 32.263C21.8864 33.3381 18.9588 36.8487 15.1466 36.8487C9.14256 36.8487 5.1095 31.8112 5.1095 24.3119C5.1095 17.6877 8.65923 12.8808 13.5644 12.8808H13.5669C14.3584 12.8808 15.14 13.139 15.7678 13.6079L20.8574 17.4102C20.9827 17.5042 21.148 17.5191 21.2884 17.4487C21.4271 17.3789 21.5127 17.2409 21.5127 17.0872V12.737C21.5127 12.5805 21.4213 12.4361 21.2809 12.3699C19.4936 11.5289 17.2013 11.0664 14.8276 11.0664C6.09786 11.0664 0 17.2416 0 26.0836C0 34.1464 5.37938 39.9986 12.792 39.9986C18.8101 39.9986 22.3881 35.4378 23.2302 32.5633C23.2934 32.3484 23.2037 32.1919 23.0865 32.1342Z" fill="#082C81"/>
<path d="M43.5436 37.7059C43.5088 37.6675 43.4895 37.6184 43.4895 37.5672V24.0705C43.4895 20.9697 41.1878 18.8573 37.7626 18.8153C34.9123 18.7826 32.4127 20.6275 31.2103 21.5155C31.0488 21.6336 30.9093 21.7368 30.7948 21.8164C30.7734 21.8314 30.7521 21.8243 30.7442 21.82C30.7364 21.8157 30.7186 21.8036 30.7186 21.7766V9.43829C30.7186 9.31236 30.6603 9.19424 30.5585 9.11668C30.4561 9.03771 30.3245 9.0128 30.2099 9.04482C30.1665 9.05123 25.9131 9.72503 24.5178 10.036C24.3613 10.0708 24.2425 10.2067 24.2225 10.3725C24.2019 10.5418 24.2873 10.6977 24.4367 10.771C24.4851 10.803 25.6228 11.5565 25.9686 11.745C26.0917 11.8119 26.1678 11.94 26.1678 12.0801V37.5629C26.1678 37.6184 26.145 37.6696 26.1173 37.6988L24.6253 38.7454C24.5043 38.8628 24.4687 39.0315 24.5306 39.1866C24.5947 39.3438 24.7398 39.4413 24.9113 39.4413H31.973C32.1445 39.4413 32.2904 39.3438 32.3537 39.1866C32.4156 39.0315 32.38 38.8628 32.247 38.7355L30.7798 37.7088C30.7393 37.6696 30.7172 37.6177 30.7172 37.5629V23.8969C30.7172 23.8371 30.7442 23.7795 30.7898 23.7404C32.1217 22.6077 33.3982 21.968 34.6924 21.7844C35.749 21.635 36.8234 21.9545 37.6374 22.661C38.4649 23.3796 38.938 24.4135 38.938 25.4985V37.5643C38.938 37.6191 38.9167 37.671 38.8889 37.7002L37.3819 38.7888C37.2631 38.9055 37.2282 39.0741 37.2909 39.2293C37.3549 39.3851 37.5015 39.4826 37.6715 39.4826H44.7269C44.8962 39.4826 45.0421 39.3858 45.1054 39.2314C45.1694 39.0784 45.1367 38.9105 45.0079 38.7817L43.5436 37.7059Z" fill="#082C81"/>
<path d="M64.0625 32.5832C63.901 32.4985 63.7096 32.5455 63.5936 32.6963C62.495 34.1443 60.2111 36.5719 57.2541 36.5719C52.9003 36.5719 49.966 33.2108 49.7796 28.0089C49.7775 27.9548 49.7974 27.9022 49.8358 27.8638C49.8757 27.8218 49.9326 27.7976 49.9902 27.7976H63.7829C63.9081 27.7976 64.0241 27.7428 64.1031 27.6467C64.1799 27.5521 64.2098 27.4305 64.187 27.3131C63.0443 21.7056 60.1364 18.7422 55.7784 18.7422C50.2158 18.7422 46.0193 23.4901 46.0193 29.7841C46.0193 35.8946 49.8607 39.9993 55.5784 39.9993C59.585 39.9993 62.737 37.4535 64.2261 33.0158C64.2937 32.8137 64.1927 32.6529 64.0625 32.5832ZM49.843 26.1149C50.2343 22.4869 52.1105 20.3203 54.8598 20.3203C57.3473 20.3203 58.798 22.0465 59.7102 26.09C59.7237 26.149 59.7095 26.2116 59.6703 26.26C59.6305 26.3105 59.57 26.3397 59.5053 26.3397H50.0521C49.9909 26.3397 49.9333 26.3134 49.8928 26.2686C49.8543 26.2259 49.8358 26.1718 49.843 26.1149Z" fill="#082C81"/>
<path d="M83.1207 33.4057C82.9926 33.341 82.8105 33.3545 82.6917 33.5274L82.6141 33.6412C81.7532 34.8949 80.5749 36.6118 77.519 36.6118C73.2065 36.6118 70.0759 32.9788 70.0759 27.974C70.0759 23.7043 72.3805 20.3595 75.324 20.3595C75.5083 20.3595 75.6947 20.3701 75.8782 20.3901C76.2482 20.432 76.6054 20.5743 76.9099 20.8027L81.3519 24.1376C81.4778 24.2322 81.6436 24.2471 81.7838 24.1767C81.9225 24.107 82.0093 23.9682 82.0093 23.8146V20.1353C82.0093 19.9788 81.919 19.8358 81.7802 19.7696C80.4255 19.1271 78.5642 18.7422 76.8011 18.7422C70.6323 18.7422 66.3234 23.2987 66.3234 29.8233C66.3234 35.9095 69.9563 39.9993 75.3631 39.9993C80.6041 39.9993 82.3985 36.4937 83.2922 33.8561C83.3648 33.6427 83.2545 33.4726 83.1207 33.4057Z" fill="#082C81"/>
<path d="M119.228 19.1917C118.819 18.9947 118.332 18.8125 117.557 18.8125C116.072 18.8125 114.215 19.9402 112.036 22.1651C112.022 22.1801 112.005 22.1772 111.996 22.1737C111.988 22.1701 111.973 22.1623 111.973 22.1424L111.855 19.2814C111.847 19.1604 111.785 19.0501 111.684 18.9797C111.582 18.9071 111.455 18.8858 111.335 18.9207L105.97 20.4369C105.825 20.4789 105.717 20.5899 105.684 20.7357C105.649 20.8809 105.696 21.0267 105.807 21.127L107.572 22.7144C107.615 22.7536 107.64 22.8083 107.64 22.8653V37.6C107.64 37.6554 107.617 37.7074 107.584 37.7408L106.298 38.7825C106.177 38.8992 106.14 39.0685 106.203 39.2236C106.266 39.3809 106.412 39.4791 106.583 39.4791H113.361C113.532 39.4791 113.682 39.3759 113.744 39.2165C113.804 39.0593 113.761 38.8849 113.628 38.7661L112.259 37.7437C112.215 37.706 112.19 37.6498 112.19 37.5921V24.8048C112.19 24.6305 112.234 24.4583 112.315 24.3089C112.626 23.7376 113.119 23.2011 113.74 22.755C114.362 22.3089 114.987 21.9247 115.778 22.1125C116.376 22.2534 117.594 23.1634 118.322 23.7077C118.585 23.9048 118.794 24.0599 118.906 24.1303C119.035 24.2107 119.191 24.2157 119.325 24.1417C119.456 24.0699 119.534 23.9375 119.534 23.7888V19.6756C119.533 19.4671 119.416 19.2814 119.228 19.1917Z" fill="#082C81"/>
<path d="M94.8488 26.6541C94.8139 26.6057 94.9029 26.5175 95.0053 26.4228L102.09 19.9289C102.216 19.8136 102.241 19.6243 102.138 19.4756C102.072 19.3817 101.959 19.3319 101.845 19.3319H96.7215C96.5984 19.3319 96.4774 19.3796 96.3977 19.4735C96.2697 19.6243 96.2683 19.8314 96.3807 19.9808L97.7212 21.7532C97.7845 21.8371 97.7745 21.9531 97.697 22.0243L90.2446 28.9103V22.0755L90.246 22.0762V9.40704C90.246 9.27968 90.1877 9.16299 90.0859 9.08543C89.9835 9.00646 89.8518 8.98155 89.7373 9.01357C89.6939 9.01998 85.4405 9.69378 84.0452 10.0047C83.8887 10.0396 83.7706 10.1769 83.7506 10.3462C83.7307 10.5177 83.8175 10.6714 83.9634 10.7397C84.0082 10.7696 85.0691 11.4711 85.4931 11.6974C85.6169 11.7643 85.6945 11.8931 85.6945 12.0339V12.6359L85.6938 12.6352V37.4925C85.6938 37.5466 85.671 37.5985 85.644 37.627L84.137 38.7156C84.0118 38.8394 83.9805 39.0208 84.058 39.1816C84.1277 39.3254 84.2821 39.4086 84.4422 39.4086H91.499C91.6698 39.4086 91.8163 39.3104 91.8796 39.1539C91.9415 38.9981 91.906 38.8294 91.7729 38.7028L90.3058 37.6761C90.2645 37.6369 90.2432 37.585 90.2432 37.5288V30.9359C90.2432 30.8804 90.2659 30.8278 90.3058 30.7894L91.7466 29.3998C91.7914 29.3571 91.8505 29.335 91.9145 29.3414C91.9757 29.3471 92.0312 29.3792 92.0668 29.4304C92.1088 29.4873 96.1523 35.0435 98.1872 37.8113C98.2206 37.8575 98.2121 37.9201 98.1694 37.9557L97.1726 38.7832C97.0452 38.9063 97.0118 39.0877 97.0893 39.2499C97.1591 39.3944 97.3135 39.4791 97.475 39.4791H104.051C104.26 39.4791 104.342 39.3873 104.375 39.3097C104.451 39.1269 104.303 38.8785 104.188 38.7618C103.96 38.4666 94.9754 26.8234 94.8488 26.6541Z" fill="#082C81"/>
</svg>
