<svg width="180" height="54" viewBox="0 0 180 54" fill="none" xmlns="http://www.w3.org/2000/svg">
<path d="M36.5673 15.9316C30.0574 15.9316 24.9708 20.8722 24.9708 27.4872C24.9708 34.1015 29.9289 39.0008 36.5673 39.0008C43.2057 39.0008 48.25 34.0175 48.25 27.4445C48.25 20.9149 43.292 15.9316 36.5673 15.9316ZM36.6112 34.2338C32.904 34.2338 30.1875 31.3547 30.1875 27.4886C30.1875 23.5791 32.8601 20.7014 36.5673 20.7014C40.3184 20.7014 43.0333 23.6225 43.0333 27.4886C43.0333 31.3547 40.3184 34.2338 36.6112 34.2338ZM49.6717 20.959H52.9056V38.5731H58.0786V16.3607H49.6717V20.959ZM11.9526 20.7C14.6691 20.7 16.8245 22.3751 17.6427 24.8671H23.118C22.1258 19.5401 17.7289 15.9316 11.9965 15.9316C5.48657 15.9316 0.400024 20.8722 0.400024 27.4886C0.400024 34.105 5.35812 39.0022 11.9965 39.0022C17.6004 39.0022 22.0835 35.393 23.0758 30.0226H17.6427C16.8668 32.5146 14.7115 34.2338 11.9949 34.2338C8.2438 34.2338 5.61509 31.3547 5.61509 27.4886C5.61677 23.5791 8.20314 20.7 11.9526 20.7ZM147.958 25.3403L144.165 24.7824C142.354 24.5255 141.061 23.9235 141.061 22.5053C141.061 20.959 142.743 20.1862 145.027 20.1862C147.527 20.1862 149.123 21.2593 149.468 23.0212H154.468C153.907 18.5531 150.458 15.933 145.157 15.933C139.682 15.933 136.061 18.7253 136.061 22.6775C136.061 26.4575 138.432 28.6499 143.216 29.3366L147.009 29.8945C148.864 30.1514 149.899 30.8829 149.899 32.2577C149.899 34.0189 148.088 34.749 145.588 34.749C142.527 34.749 140.803 33.503 140.544 31.613H135.457C135.932 35.9523 139.337 39.0022 145.544 39.0022C151.192 39.0022 154.941 36.4241 154.941 31.9987C154.941 28.0465 152.227 25.9843 147.958 25.3403ZM55.4921 7.21029C53.5953 7.21029 52.1719 8.58509 52.1719 10.4751C52.1719 12.3644 53.5936 13.7392 55.4921 13.7392C57.3884 13.7392 58.8122 12.3644 58.8122 10.4751C58.8122 8.58509 57.3884 7.21029 55.4921 7.21029ZM131.405 23.9662C131.405 19.1551 128.474 15.933 122.267 15.933C116.404 15.933 113.128 18.8982 112.481 23.4517H117.611C117.87 21.6905 119.249 20.2303 122.18 20.2303C124.81 20.2303 126.104 21.3895 126.104 22.8077C126.104 24.6557 123.732 25.1275 120.801 25.4278C116.835 25.8576 111.921 27.2317 111.921 32.3872C111.921 36.3835 114.896 38.9602 119.638 38.9602C123.345 38.9602 125.673 37.4132 126.838 34.9639C127.01 37.1542 128.648 38.5731 130.933 38.5731H133.951V33.9762H131.407V23.9662H131.405ZM126.319 29.5508C126.319 32.516 123.732 34.707 120.584 34.707C118.644 34.707 117.006 33.8901 117.006 32.173C117.006 29.982 119.636 29.38 122.05 29.1231C124.378 28.9089 125.671 28.393 126.319 27.4039V29.5508ZM98.8585 15.9316C95.9696 15.9316 93.556 17.1349 91.8319 19.153V6.99609H86.6589V38.5731H91.7451V35.652C93.4699 37.7562 95.9276 39.0022 98.8585 39.0022C105.066 39.0022 109.766 34.105 109.766 27.4886C109.766 20.8722 104.98 15.9316 98.8585 15.9316ZM98.0829 34.2338C94.3757 34.2338 91.659 31.3547 91.659 27.4886C91.659 23.6225 94.4177 20.7014 98.1249 20.7014C101.876 20.7014 104.505 23.5805 104.505 27.4886C104.505 31.3547 101.79 34.2338 98.0829 34.2338ZM74.2864 15.9316C70.9243 15.9316 68.7249 17.3057 67.4313 19.2398V16.3607H62.301V38.571H67.474V26.5002C67.474 23.1052 69.6293 20.7 72.8192 20.7C75.7942 20.7 77.6471 22.8049 77.6471 25.8555V38.5731H82.8201V25.4705C82.8215 19.8838 79.934 15.9316 74.2864 15.9316ZM179.6 26.7585C179.6 20.4011 174.944 15.933 168.693 15.933C162.055 15.933 157.183 20.9163 157.183 27.4886C157.183 34.406 162.4 39.0022 168.779 39.0022C174.169 39.0022 178.393 35.8228 179.47 31.3127H174.081C173.305 33.2888 171.408 34.406 168.864 34.406C165.544 34.406 163.044 32.3438 162.484 28.7346H179.599V26.7585H179.6ZM162.787 25.0393C163.606 21.946 165.935 20.4431 168.607 20.4431C171.538 20.4431 173.78 22.1182 174.297 25.0393H162.787Z" fill="#0333FF"/>
</svg>
