<svg width="186" height="54" viewBox="0 0 186 54" fill="none" xmlns="http://www.w3.org/2000/svg">
<path fill-rule="evenodd" clip-rule="evenodd" d="M79.8061 28.3456C80.3286 25.9234 82.0162 24.6922 84.2343 24.6922C86.4337 24.6922 88.0422 25.9787 88.5547 28.3456H79.8061ZM84.355 20.4961C78.7071 20.4961 75.1938 24.8079 75.1938 30.0813C75.1938 35.5431 78.9479 39.5947 84.5275 39.5947C88.3757 39.5947 90.7095 37.8942 92.1542 35.7537L88.5626 33.5608C87.6591 34.7396 86.2144 35.3627 84.6655 35.3627C82.1312 35.3627 80.435 34.2293 79.8564 31.9623H89.3374C89.3367 31.9652 89.336 31.9681 89.3353 31.9717L92.7917 31.9911C92.9225 31.3945 93.0002 30.7778 93.0002 30.0813C93.0002 25.4878 90.0382 20.4961 84.355 20.4961Z" fill="#0646FF"/>
<path fill-rule="evenodd" clip-rule="evenodd" d="M62.5805 35.2834C59.4618 35.2834 57.5873 33.0725 57.5873 30.3449C57.5873 27.6172 59.4978 25.4056 62.5805 25.4056C65.6639 25.4056 67.5744 27.6172 67.5744 30.3449C67.5744 33.0725 65.6999 35.2834 62.5805 35.2834ZM67.5744 23.6109C66.2382 22.0527 64.3407 21.0974 61.9861 21.0974C56.7216 21.0974 52.9357 25.2374 52.9357 30.3449C52.9357 35.4523 56.6857 39.5923 61.9861 39.5923C64.3407 39.5923 66.2382 38.6371 67.5744 37.0781V39.1366H72.2261V14.6172H67.5744V23.6109Z" fill="#0646FF"/>
<path fill-rule="evenodd" clip-rule="evenodd" d="M106.927 29.6603C108.228 30.54 109.052 31.8582 109.052 33.599C109.052 37.1158 106.603 39.556 102.024 39.556C97.7149 39.556 95.4041 37.4184 94.4834 35.26L98.4394 33.0247C98.4394 33.0247 98.9713 35.3571 101.953 35.3571C103.799 35.3571 104.367 34.5679 104.367 33.8707C104.367 33.5473 104.261 32.9528 102.947 32.4504C100.309 31.4413 95.2086 30.9885 95.2086 26.3856C95.2086 22.6179 98.2604 20.6083 102.024 20.6083C105.544 20.6083 107.804 22.7279 108.662 24.3767L104.792 26.5653C104.792 26.5653 104.047 24.7346 102.06 24.7346C100.072 24.7346 99.8941 25.8473 99.8941 26.17C99.8941 27.1123 100.887 27.499 103.018 28.1085C104.28 28.4686 105.576 28.7963 106.931 29.6567C106.93 29.6581 106.929 29.6588 106.927 29.6603ZM185 25.5605H180.989V33.0247C180.989 35.3571 183.332 34.8547 185 34.8547V39.0536C185 39.0536 184.121 39.1973 182.586 39.1973C179.179 39.1973 176.41 38.1925 176.41 33.0247V25.5605H173.322V21.11H176.41V16.0859H180.989V21.11H185V25.5605ZM120.436 35.0343C122.336 35.0343 123.797 34.1179 124.536 32.6143L128.505 34.9158C126.949 37.6729 124.051 39.5919 120.436 39.5919C114.952 39.5919 111.118 35.3499 111.118 30.1181C111.118 24.8856 114.987 20.6435 120.436 20.6435C123.999 20.6435 126.885 22.531 128.457 25.2522L124.497 27.6053C123.744 26.1218 122.295 25.2011 120.436 25.2011C117.665 25.2011 115.697 27.4027 115.697 30.1181C115.697 32.8328 117.647 35.0343 120.436 35.0343Z" fill="#0646FF"/>
<path fill-rule="evenodd" clip-rule="evenodd" d="M162.345 35.8289C159.338 35.8289 157.53 33.5591 157.53 30.7596C157.53 27.9601 159.373 25.6902 162.345 25.6902C165.317 25.6902 167.16 27.9601 167.16 30.7596C167.16 33.5591 165.353 35.8289 162.345 35.8289ZM162.919 21.2685C167.995 21.2685 171.645 25.5178 171.645 30.7596C171.645 36.0014 168.029 40.2507 162.919 40.2507C160.648 40.2507 158.819 39.2703 157.53 37.6704V46.9379H153.045V21.7716H157.53V23.8481C158.819 22.2489 160.648 21.2685 162.919 21.2685ZM144.423 39.7835V21.8076H148.908V39.7835H144.423ZM136.065 24.8781C136.931 22.6995 138.694 21.4539 141.349 21.4482V26.6253C138.236 26.3206 135.987 27.9212 136.069 31.7033C136.067 31.7004 136.067 31.6976 136.065 31.6947V39.7835H131.58V21.8076H136.065V24.8781ZM144.423 19.4084V14.6172H149.056V19.4084H144.423Z" fill="#0646FF"/>
<path fill-rule="evenodd" clip-rule="evenodd" d="M1 47.3943C1 49.7913 2.5474 51.346 4.93271 51.346L16.4231 51.3467C23.2777 51.3467 28.885 49.0158 32.6972 44.9362H1V47.3943ZM16.4231 7.49219H4.93271C2.5474 7.49219 1 9.04684 1 11.4439V13.9027H32.6972C28.885 9.82309 23.2777 7.49219 16.4231 7.49219ZM26.4508 35.6679C26.4508 37.6071 27.708 38.8656 29.6461 38.8656H36.5313C37.3118 36.9193 37.8362 34.7795 38.08 32.4709H29.6461C27.708 32.4709 26.4508 33.7287 26.4508 35.6679ZM16.9073 23.1868C16.9073 25.126 18.1645 26.3838 20.1027 26.3838H38.08C37.8362 24.0752 37.3118 21.9355 36.5313 19.9891H20.1027C18.1645 19.9891 16.9073 21.2469 16.9073 23.1868ZM20.1005 35.6679C20.1005 33.7287 18.8433 32.4709 16.9051 32.4709H1V38.8656H16.9051C18.8433 38.8656 20.1005 37.6071 20.1005 35.6679ZM10.557 23.1868C10.557 21.2469 9.29984 19.9891 7.36166 19.9891H1V26.3838H7.36166C9.29984 26.3838 10.557 25.126 10.557 23.1868Z" fill="#0646FF"/>
</svg>
